<?xml version="1.0" encoding="utf-8"?>
<!-- Generator: Adobe Illustrator 17.1.0, SVG Export Plug-In . SVG Version: 6.00 Build 0)  -->
<!DOCTYPE svg PUBLIC "-//W3C//DTD SVG 1.1//EN" "http://www.w3.org/Graphics/SVG/1.1/DTD/svg11.dtd">
<svg version="1.1" id="Settings_1_" xmlns="http://www.w3.org/2000/svg" xmlns:xlink="http://www.w3.org/1999/xlink" x="0px"
	 y="0px" viewBox="34 34 32 32" enable-background="new 34 34 32 32" xml:space="preserve">
<path fill="#666666" d="M65.5,52.4v-4.8L61.8,47c-0.3-1.1-0.7-2.2-1.3-3.2l2.6-3.5L59.6,37l-3.5,2.6c-1-0.6-2-1-3.1-1.3L52.4,34
	h-4.8l-0.6,4.2c-1.1,0.3-2.2,0.7-3.2,1.3l-3-2.2l-3.4,3.4l2.2,3c-0.6,1-1.1,2.1-1.4,3.3l-3.7,0.6v4.8l3.7,0.6
	c0.3,1.1,0.7,2.2,1.3,3.2L37,59.6l3.4,3.4l3.5-2.6c1,0.6,2,1,3.1,1.3l0.6,4.2h4.8l0.6-4.2c1.1-0.3,2.2-0.7,3.2-1.3l3,2.2l3.4-3.4
	l-2.2-3c0.6-1,1.1-2.1,1.4-3.3L65.5,52.4z M50,57.2c-4,0-7.2-3.2-7.2-7.2c0-4,3.2-7.2,7.2-7.2c4,0,7.2,3.2,7.2,7.2
	C57.2,54,54,57.2,50,57.2z"/>
</svg>
