<svg width="186" height="186" viewBox="0 0 186 186" fill="none" xmlns="http://www.w3.org/2000/svg">
<path d="M82.1864 166.768L81.8091 167.434C80.7732 167.302 79.9367 167.052 79.2995 166.683C78.6492 166.326 78.1844 165.867 77.9051 165.307C77.6246 164.759 77.5199 164.145 77.591 163.464C77.6671 162.736 77.9022 162.103 78.2963 161.565C78.6891 161.039 79.2372 160.644 79.9405 160.38C80.6306 160.126 81.4709 160.051 82.4615 160.155L92.3795 161.192L90.6206 167.976L90.9757 174.618L81.4158 173.619C80.1746 173.489 79.2385 173.096 78.6074 172.439C77.975 171.793 77.7125 170.958 77.8198 169.931C77.8785 169.37 78.0659 168.847 78.3821 168.361C78.6983 167.875 79.1676 167.484 79.7898 167.187C80.3989 166.901 81.1977 166.761 82.1864 166.768ZM88.6196 161.667L89.8703 163.554L83.1927 162.855C82.6556 162.799 82.2242 162.887 81.8983 163.118C81.5725 163.35 81.3853 163.698 81.3366 164.164C81.2879 164.629 81.4104 165.016 81.7039 165.324C81.9962 165.644 82.4586 165.837 83.0912 165.903L88.6051 166.48L88.3394 169.022L83.3267 168.498C82.897 168.453 82.5259 168.541 82.2132 168.762C81.8874 168.993 81.7014 169.329 81.6553 169.771C81.6178 170.129 81.7126 170.435 81.9395 170.688C82.1652 170.952 82.5107 171.109 82.9762 171.158L88.9914 171.787L87.3956 173.375L87.0759 167.605L88.6196 161.667ZM75.0315 161.238L74.0805 164.09L65.2525 161.146L66.2034 158.294L75.0315 161.238ZM64.7675 169.314L63.2156 154.566L66.9893 155.824L68.1031 168.757L67.0786 168.415L75.749 158.745L79.5227 160.004L69.4291 170.869L64.7675 169.314ZM63.4952 154.54L56.5438 166.113L53.3652 164.204L58.7873 155.177L59.2374 156.35L47.656 160.774L44.2767 158.745L60.6097 152.807L63.4952 154.54ZM54.653 156.746L51.1398 157.282L51.0738 147.079L54.6999 149.257L54.653 156.746ZM37.3413 145.288L39.1629 143.295L46.4571 149.962L44.6356 151.955L37.3413 145.288ZM43.673 149.246L47.9793 145.842L47.9538 148.111L40.3274 141.141L42.3675 138.909L51.6282 147.373L46.317 151.663L42.5204 157.338L33.3262 148.934L35.3663 146.702L42.9263 153.612L40.6688 153.841L43.673 149.246ZM27.0183 140.755C26.086 139.46 25.4982 138.16 25.255 136.857C24.995 135.551 25.0862 134.332 25.5285 133.2C25.9541 132.066 26.7172 131.103 27.8177 130.311C28.9183 129.519 30.0788 129.097 31.2992 129.047C32.5029 128.994 33.6876 129.294 34.8534 129.949C36.0024 130.6 37.0431 131.574 37.9754 132.869L41.908 138.333L30.9509 146.219L27.0183 140.755ZM38.4709 136.238L38.0948 138.704L35.119 134.57C34.6494 133.917 34.1308 133.433 33.5633 133.117C32.979 132.798 32.3829 132.658 31.7748 132.697C31.1667 132.735 30.5802 132.958 30.0154 133.364C29.4407 133.778 29.0435 134.263 28.8237 134.821C28.5942 135.385 28.5426 135.991 28.6691 136.64C28.7789 137.285 29.0686 137.934 29.5382 138.587L32.5139 142.721L30.0559 142.295L38.4709 136.238ZM18.8529 110.547L17.0847 100.916L20.1829 100.347L21.9511 109.978L18.8529 110.547ZM11.5878 101.578L14.686 101.009L16.4932 110.852L14.4187 109.421L26.3513 107.231L27.0241 110.895L13.746 113.333L11.5878 101.578ZM17.3094 95.8733L17.3686 90.9596C17.3758 90.3597 17.2435 89.89 16.9715 89.5507C16.6996 89.2114 16.3177 89.0388 15.8257 89.0329C15.3217 89.0268 14.9357 89.1902 14.6677 89.523C14.3877 89.8556 14.244 90.3219 14.2368 90.9219L14.1713 96.3575L12.4096 94.6621L24.9187 94.8129L24.8738 98.5386L11.3748 98.3759L11.4713 90.3665C11.4837 89.3346 11.6806 88.4369 12.0618 87.6734C12.431 86.9098 12.9422 86.3159 13.5954 85.8918C14.2365 85.4675 14.9951 85.2606 15.871 85.2711C16.723 85.2814 17.4703 85.5064 18.1131 85.9462C18.7558 86.386 19.2525 86.992 19.6032 87.7643C19.954 88.5366 20.1231 89.4387 20.1107 90.4706L20.0452 95.9062L17.3094 95.8733ZM18.6116 93.8728L18.6621 89.6791L25.038 84.9136L24.9859 89.2333L18.6116 93.8728ZM19.6115 71.6517L22.2535 72.2085L20.2154 81.8781L17.5735 81.3212L19.6115 71.6517ZM19.4179 79.1162L24.5375 81.0967L22.5701 82.2272L24.7009 72.1173L27.6599 72.741L25.0724 85.0173L18.6791 82.6212L11.8627 82.2331L14.4316 70.0448L17.3906 70.6685L15.2783 80.6903L13.9345 78.8619L19.4179 79.1162ZM23.6247 70.815L25.1279 67.3272C25.4932 67.4193 25.8596 67.3877 26.2271 67.2325C26.5945 67.0772 26.9449 66.8101 27.2781 66.431C27.6051 66.0362 27.8992 65.5357 28.1604 64.9296C28.5214 64.0921 28.7016 63.3858 28.7012 62.8106C28.6898 62.2308 28.4747 61.8506 28.056 61.6701C27.7364 61.5324 27.429 61.5633 27.134 61.7628C26.8389 61.9623 26.4842 62.4366 26.0699 63.1858L24.8576 65.4074C23.9672 67.0491 23.0471 68.1226 22.0976 68.628C21.1369 69.1287 20.1277 69.1511 19.0697 68.6951C18.2102 68.3247 17.5897 67.7633 17.2084 67.0109C16.8317 66.2475 16.6894 65.3499 16.7813 64.318C16.8669 63.2703 17.171 62.1404 17.6934 60.9282C18.2064 59.738 18.8331 58.7537 19.5737 57.9752C20.3033 57.192 21.093 56.6634 21.9428 56.3894C22.7974 56.1044 23.6419 56.1155 24.4764 56.4229L22.9804 59.8942C22.6638 59.8101 22.3486 59.8441 22.0347 59.9963C21.7146 60.1328 21.4116 60.3811 21.1256 60.7413C20.8287 61.0968 20.5567 61.5611 20.3098 62.1342C19.9773 62.9056 19.8184 63.5623 19.833 64.1044C19.8367 64.6417 20.0369 64.9958 20.4336 65.1668C20.7201 65.2903 21.0085 65.2578 21.2988 65.0693C21.5939 64.8698 21.9265 64.4316 22.2965 63.7549L23.606 61.3987C24.2244 60.2671 24.8233 59.408 25.4028 58.8214C25.9712 58.2301 26.5613 57.8768 27.1728 57.7614C27.7844 57.6461 28.4429 57.7404 29.1482 58.0443C30.0188 58.4195 30.6675 59.0062 31.0945 59.8044C31.5104 60.5978 31.6984 61.5412 31.6584 62.6347C31.6073 63.7234 31.3134 64.8903 30.7767 66.1356C30.2258 67.4139 29.5627 68.4675 28.7873 69.2963C28.0057 70.1094 27.1711 70.6513 26.2834 70.9221C25.3847 71.1881 24.4985 71.1524 23.6247 70.815ZM22.4677 51.6369L24.6327 48.6044L35.62 56.4484L33.4551 59.4809L22.4677 51.6369ZM28.6383 42.9935L30.8137 39.9464L41.8011 47.7904L39.6257 50.8375L28.6383 42.9935ZM27.7389 52.8346L33.5958 44.6307L36.2913 46.5551L30.4345 54.759L27.7389 52.8346ZM70.3829 24.2338C69.9265 24.3822 69.4747 24.4093 69.0276 24.3149C68.5805 24.2205 68.1873 24.0203 67.848 23.7142C67.5087 23.4081 67.2649 23.0269 67.1164 22.5704C66.9643 22.1025 66.9372 21.6507 67.0353 21.215C67.1297 20.7679 67.3299 20.3748 67.636 20.0355C67.9421 19.6962 68.3233 19.4523 68.7798 19.3039C69.2477 19.1517 69.6995 19.1247 70.1352 19.2228C70.5823 19.3171 70.9754 19.5174 71.3147 19.8234C71.6503 20.1181 71.8942 20.4994 72.0463 20.9673C72.1948 21.4237 72.2218 21.8755 72.1274 22.3226C72.0331 22.7697 71.8328 23.1629 71.5268 23.5022C71.2321 23.8378 70.8508 24.0816 70.3829 24.2338ZM113.963 21.5324L114.433 20.9276C115.439 21.2084 116.23 21.5771 116.807 22.0336C117.399 22.4814 117.793 23.0027 117.988 23.5972C118.186 24.1802 118.201 24.8031 118.033 25.4659C117.852 26.1753 117.528 26.7676 117.06 27.2429C116.595 27.7066 115.996 28.0184 115.262 28.1782C114.542 28.3294 113.7 28.2821 112.735 28.0363L103.071 25.5762L105.792 19.1179L106.401 12.4935L115.716 14.8648C116.926 15.1727 117.795 15.6974 118.325 16.439C118.857 17.1689 118.996 18.0339 118.741 19.034C118.602 19.5805 118.341 20.0713 117.958 20.5062C117.575 20.9411 117.054 21.2605 116.395 21.4643C115.751 21.6594 114.94 21.6821 113.963 21.5324ZM106.86 25.6492L105.895 23.6019L112.402 25.2583C112.925 25.3916 113.365 25.3673 113.72 25.1854C114.076 25.0036 114.312 24.6859 114.427 24.2324C114.543 23.7789 114.478 23.3784 114.232 23.031C113.989 22.672 113.559 22.414 112.943 22.2571L107.57 20.8893L108.201 18.4123L113.085 19.6557C113.504 19.7623 113.884 19.729 114.225 19.5559C114.581 19.374 114.813 19.068 114.923 18.6377C115.012 18.2888 114.962 17.9729 114.774 17.6897C114.589 17.395 114.27 17.1899 113.816 17.0744L107.955 15.5823L109.764 14.2411L109.246 19.9972L106.86 25.6492ZM120.237 28.0403L121.593 25.3577L129.898 29.5568L128.542 32.2394L120.237 28.0403ZM131.568 21.5466L130.954 36.3638L127.404 34.5688L128.187 21.6119L129.151 22.0992L119.164 30.4021L115.614 28.6071L127.183 19.3293L131.568 21.5466ZM130.682 36.3527L139.232 25.9055L142.102 28.2539L135.433 36.4028L135.157 35.1768L147.256 32.472L150.306 34.9687L133.287 38.4846L130.682 36.3527ZM139.75 35.4472L143.304 35.4249L141.896 45.5299L138.622 42.8508L139.75 35.4472ZM155.231 49.2803L153.142 50.9905L146.882 43.3436L148.972 41.6334L155.231 49.2803ZM149.534 44.4525L144.783 47.2017L145.135 44.96L151.679 52.9551L149.339 54.8705L141.392 45.1622L147.266 41.6806L151.839 36.6112L159.729 46.25L157.389 48.1654L150.901 40.2399L153.168 40.3382L149.534 44.4525ZM164.791 55.2584C165.526 56.675 165.92 58.0457 165.972 59.3707C166.041 60.7007 165.774 61.8935 165.173 62.9492C164.588 64.01 163.693 64.8527 162.49 65.4773C161.286 66.102 160.077 66.351 158.862 66.2244C157.663 66.103 156.535 65.6343 155.476 64.8183C154.433 64.0075 153.544 62.8938 152.809 61.4772L149.708 55.502L161.69 49.2832L164.791 55.2584ZM152.806 58.0718L153.535 55.6858L155.881 60.2072C156.251 60.9208 156.695 61.475 157.21 61.8697C157.742 62.2696 158.312 62.4945 158.919 62.5444C159.526 62.5942 160.139 62.4589 160.757 62.1383C161.385 61.8121 161.848 61.3892 162.146 60.8694C162.455 60.3442 162.594 59.7517 162.562 59.092C162.547 58.4374 162.354 57.7533 161.984 57.0397L159.638 52.5184L162.008 53.2958L152.806 58.0718ZM168.489 86.3315L168.859 96.1164L165.712 96.2357L165.341 86.4507L168.489 86.3315ZM174.394 96.249L171.247 96.3683L170.868 86.3674L172.716 88.0807L160.593 88.5399L160.452 84.8166L173.942 84.3056L174.394 96.249ZM167.912 101.077L167.145 105.931C167.052 106.524 167.115 107.007 167.335 107.382C167.555 107.757 167.908 107.983 168.394 108.06C168.892 108.138 169.298 108.032 169.611 107.742C169.936 107.453 170.145 107.012 170.239 106.419L171.087 101.05L172.586 102.981L160.229 101.03L160.81 97.3498L174.145 99.4555L172.895 107.367C172.734 108.387 172.41 109.247 171.923 109.947C171.448 110.65 170.856 111.164 170.149 111.489C169.453 111.817 168.673 111.912 167.808 111.776C166.966 111.643 166.259 111.313 165.686 110.785C165.113 110.257 164.709 109.586 164.473 108.771C164.238 107.956 164.2 107.039 164.361 106.02L165.209 100.65L167.912 101.077ZM166.335 102.869L165.681 107.012L158.685 110.809L159.358 106.542L166.335 102.869ZM162.121 124.709L159.588 123.773L163.015 114.504L165.548 115.441L162.121 124.709ZM163.401 117.353L158.625 114.647L160.737 113.815L157.154 123.506L154.317 122.457L158.668 110.69L164.644 113.993L171.331 115.372L167.011 127.055L164.175 126.006L167.726 116.4L168.789 118.405L163.401 117.353ZM158.028 124.954L156.034 128.186C155.686 128.042 155.319 128.02 154.933 128.12C154.547 128.22 154.161 128.434 153.776 128.761C153.395 129.104 153.032 129.556 152.685 130.118C152.207 130.894 151.926 131.567 151.842 132.136C151.77 132.711 151.927 133.119 152.315 133.358C152.611 133.541 152.92 133.555 153.241 133.4C153.562 133.246 153.982 132.828 154.5 132.147L156.023 130.125C157.142 128.63 158.208 127.701 159.221 127.339C160.244 126.983 161.246 127.108 162.227 127.713C163.023 128.204 163.556 128.85 163.824 129.649C164.085 130.459 164.096 131.368 163.855 132.376C163.618 133.4 163.153 134.474 162.46 135.597C161.78 136.7 161.017 137.583 160.171 138.246C159.335 138.915 158.477 139.323 157.597 139.471C156.71 139.628 155.876 139.495 155.095 139.069L157.079 135.852C157.38 135.981 157.697 135.994 158.029 135.889C158.366 135.8 158.702 135.598 159.037 135.284C159.383 134.975 159.719 134.555 160.047 134.024C160.488 133.309 160.74 132.682 160.805 132.144C160.879 131.612 160.732 131.232 160.365 131.005C160.099 130.842 159.809 130.832 159.494 130.976C159.174 131.131 158.781 131.516 158.316 132.132L156.679 134.273C155.902 135.303 155.185 136.066 154.526 136.562C153.878 137.064 153.243 137.328 152.621 137.353C151.999 137.379 151.362 137.19 150.708 136.787C149.901 136.289 149.344 135.614 149.038 134.763C148.742 133.917 148.693 132.956 148.891 131.88C149.1 130.811 149.56 129.699 150.272 128.545C151.003 127.36 151.812 126.414 152.699 125.706C153.591 125.016 154.495 124.601 155.413 124.462C156.341 124.329 157.212 124.493 158.028 124.954ZM156.394 144.091L153.816 146.781L144.071 137.437L146.65 134.748L156.394 144.091ZM149.044 151.757L146.453 154.459L136.709 145.116L139.3 142.414L149.044 151.757ZM151.35 142.148L144.374 149.423L141.983 147.131L148.96 139.855L151.35 142.148ZM117.493 160.993C117.944 160.829 118.395 160.786 118.845 160.865C119.295 160.943 119.695 161.13 120.045 161.424C120.394 161.718 120.651 162.09 120.816 162.541C120.984 163.004 121.027 163.454 120.944 163.893C120.866 164.343 120.679 164.743 120.385 165.093C120.091 165.443 119.719 165.7 119.268 165.864C118.805 166.032 118.355 166.075 117.916 165.993C117.466 165.914 117.066 165.728 116.716 165.434C116.371 165.151 116.113 164.778 115.945 164.316C115.781 163.865 115.738 163.414 115.817 162.964C115.895 162.514 116.082 162.114 116.376 161.764C116.658 161.419 117.031 161.162 117.493 160.993Z" fill="#383838"/>
<path d="M61.0432 120.625C61.0432 111.25 66.8245 103.875 76.9182 101.875C84.4807 100.375 92.2932 95.625 95.4182 92.5M89.1681 117.5C83.6808 117.517 78.3877 115.47 74.3385 111.767C70.2893 108.064 67.7799 102.974 67.3079 97.5066C66.836 92.0396 68.4359 86.5949 71.7905 82.2523C75.145 77.9098 80.0092 74.9866 85.4181 74.0625C103.231 70.625 107.918 69 114.168 61.25C117.293 67.5 120.418 74.3125 120.418 86.25C120.418 103.438 105.481 117.5 89.1681 117.5Z" stroke="#383838" stroke-width="5" stroke-linecap="round" stroke-linejoin="round"/>
</svg>
