<svg width="85" height="52" viewBox="0 0 85 52" fill="none" xmlns="http://www.w3.org/2000/svg">
<path d="M37.7084 21.6827C37.5758 21.5356 37.3502 21.518 37.1959 21.6435C37.0317 21.7768 36.8595 21.9043 36.6814 22.022C36.4044 22.2044 36.0918 22.2966 35.7436 22.2966C35.2113 22.2966 34.8611 22.1142 34.6988 21.7474C34.5346 21.3807 34.4535 20.9767 34.4535 20.5296C34.4535 20.2648 34.4634 19.9353 34.4832 19.5372C34.503 19.1411 34.5188 18.7273 34.5287 18.288C34.5386 17.8526 34.5544 17.4094 34.5742 16.9622C34.594 16.5151 34.6039 16.1091 34.6039 15.7444C34.6039 15.054 34.4297 14.4794 34.0815 14.0225C33.7333 13.5655 33.2881 13.2008 32.7459 12.9262C32.2018 12.6516 31.5943 12.4594 30.9176 12.3477C30.241 12.2359 29.5741 12.181 28.9192 12.181C28.3672 12.181 27.8033 12.2261 27.2295 12.3182C26.6556 12.4085 26.1273 12.5732 25.6465 12.8046C25.1657 13.038 24.7601 13.3635 24.4336 13.7793C24.1507 14.1401 23.9587 14.5853 23.8598 15.1188C23.8341 15.26 23.9291 15.3953 24.0715 15.4188C24.6612 15.5129 25.2429 15.6208 25.8167 15.7444C26.3687 15.864 26.9564 15.9915 27.5816 16.1248C27.7498 16.1601 27.9042 16.0248 27.8923 15.8542C27.8923 15.8542 27.8923 15.8522 27.8923 15.8503C27.8824 15.7189 27.8765 15.5502 27.8765 15.3482C27.8765 15.1246 27.8963 14.8913 27.9378 14.6481C27.9794 14.4049 28.0565 14.1872 28.1693 13.9931C28.2821 13.7989 28.4463 13.644 28.66 13.5204C28.8757 13.3988 29.1567 13.338 29.5069 13.338C30.4903 13.338 30.981 14.0303 30.981 15.411V17.6663C30.1618 17.6663 29.2793 17.6957 28.3395 17.7565C27.3957 17.8173 26.5191 17.986 25.7099 18.2586C24.9006 18.5331 24.2278 18.941 23.6956 19.4784C23.1633 20.0177 22.8962 20.7747 22.8962 21.7494C22.8962 22.1357 22.9932 22.5005 23.1891 22.8457C23.383 23.1928 23.6461 23.4909 23.9726 23.7458C24.2991 23.9988 24.675 24.1969 25.0945 24.3401C25.514 24.4813 25.9394 24.5519 26.3707 24.5519C27.273 24.5519 28.1436 24.4009 28.9825 24.0949C29.8235 23.7909 30.6209 23.4046 31.3807 22.9379C31.7289 23.283 32.1503 23.6399 32.641 24.0047C33.1337 24.3695 33.6343 24.5538 34.1468 24.5538C34.5168 24.5538 34.873 24.4577 35.2232 24.2636C35.5714 24.0714 35.9038 23.8439 36.2224 23.5791C36.541 23.3163 36.8476 23.03 37.1444 22.726C37.3344 22.5319 37.5145 22.3554 37.6846 22.2024C37.833 22.0671 37.8449 21.8377 37.7103 21.6886L37.7084 21.6827ZM30.9335 21.1669C30.9434 21.4101 30.9592 21.6749 30.979 21.9592C30.6921 22.222 30.3696 22.4162 30.0114 22.5378C29.6533 22.6594 29.2892 22.7202 28.9192 22.7202C28.2643 22.7202 27.7518 22.5437 27.3818 22.1867C27.0138 21.8318 26.8298 21.3395 26.8298 20.71C26.8298 20.0197 27.0949 19.5019 27.6291 19.1568C28.1614 18.8116 28.7352 18.6371 29.3506 18.6371C29.6355 18.6371 29.9085 18.6488 30.1638 18.6684C30.421 18.688 30.6901 18.7175 30.977 18.7586C30.9552 19.045 30.9414 19.3176 30.9315 19.5804C30.9216 19.8432 30.9157 20.1197 30.9157 20.4041C30.9157 20.6668 30.9216 20.9218 30.9315 21.165L30.9335 21.1669Z" fill="#FFF2E6"/>
<path d="M65.9852 21.9259C65.7814 21.7082 65.4352 21.6925 65.2195 21.9004C64.8257 22.2789 64.3706 22.5829 63.8542 22.8104C63.1676 23.1163 62.4672 23.2673 61.749 23.2673C60.4153 23.2673 59.3865 22.8555 58.6583 22.0338C57.9302 21.2101 57.5681 20.1589 57.5681 18.8802H64.2084C65.453 18.8802 66.3434 17.6526 65.9081 16.4974C65.9061 16.4896 65.9021 16.4818 65.9001 16.4739C65.6132 15.7228 65.2076 15.0678 64.6853 14.5088C64.1629 13.9499 63.5277 13.5126 62.7798 13.1988C62.0319 12.885 61.1652 12.7281 60.1838 12.7281C59.2024 12.7281 58.2784 12.8752 57.479 13.1694C56.6797 13.4635 55.9931 13.8813 55.4193 14.4186C54.8455 14.9579 54.4042 15.6071 54.0975 16.368C53.7908 17.1289 53.6365 17.9781 53.6365 18.9136C53.6365 19.849 53.7908 20.6963 54.0975 21.4591C54.4062 22.2201 54.8455 22.8692 55.4193 23.4085C55.9931 23.9459 56.6797 24.3636 57.479 24.6578C58.2784 24.9519 59.1787 25.099 60.1838 25.099C61.3512 25.099 62.4692 24.8558 63.5337 24.3675C64.4458 23.9498 65.261 23.383 65.9773 22.6692C66.1811 22.4672 66.1831 22.1397 65.9872 21.9298L65.9852 21.9259ZM57.6907 16.4739C57.7719 16.0268 57.9104 15.611 58.1063 15.2247C58.3002 14.8383 58.5574 14.5186 58.874 14.2637C59.1906 14.0107 59.5863 13.8832 60.0572 13.8832C60.9575 13.8832 61.5946 14.1578 61.9626 14.7069C62.3307 15.256 62.5167 15.9758 62.5167 16.8701C62.5167 17.2368 62.4435 17.4702 62.301 17.5702C62.1565 17.6722 61.8795 17.7212 61.47 17.7212H57.5661C57.5661 17.3368 57.6076 16.9191 57.6888 16.4719L57.6907 16.4739Z" fill="#FFF2E6"/>
<path d="M54.9444 24.4813C54.24 24.393 53.5514 24.0949 52.8767 23.587C52.1901 23.0692 51.5292 22.4554 50.8941 21.7435C50.2589 21.0336 49.6574 20.2864 49.0955 19.5039C48.5435 18.7371 48.033 18.0507 47.568 17.4506C47.5541 17.4329 47.5581 17.4074 47.5759 17.3917C48.0567 16.9956 48.5375 16.6132 49.0203 16.2445C49.511 15.8699 50.0195 15.5247 50.5419 15.209C51.0643 14.8952 51.5906 14.6344 52.1248 14.4324C52.6452 14.2343 53.1755 14.1147 53.7156 14.0695C53.7374 14.0695 53.7552 14.0499 53.7552 14.0284V13.5028C53.7552 13.4773 53.7334 13.4577 53.7097 13.4596C53.1122 13.5008 52.5166 13.5302 51.9269 13.5479C51.3215 13.5695 50.714 13.5793 50.0987 13.5793C49.4833 13.5793 48.8739 13.5695 48.2684 13.5479C47.6788 13.5283 47.0852 13.4988 46.4857 13.4596C46.4599 13.4596 46.4402 13.4773 46.4402 13.5028V14.0342C46.4402 14.0539 46.454 14.0695 46.4718 14.0754C46.7271 14.1362 46.9902 14.2362 47.2534 14.3735C47.5304 14.5147 47.6669 14.7795 47.6669 15.1658C47.6669 15.5718 47.5047 15.9679 47.1762 16.3523C46.8478 16.7387 46.4639 17.1132 46.0227 17.48C45.5834 17.8448 45.1263 18.186 44.6554 18.4998C44.2201 18.792 43.8541 19.0685 43.5573 19.3352C43.5296 19.3607 43.486 19.3411 43.486 19.3038V6.12102C43.486 4.70311 42.2514 3.59702 40.8287 3.74019C39.8255 3.8402 38.8006 3.9108 37.7499 3.95199C37.7262 3.95199 37.7084 3.9716 37.7084 3.99513V4.52072C37.7084 4.54426 37.7282 4.56387 37.7519 4.56387C38.488 4.56779 39.0222 4.68938 39.3526 4.92864C39.689 5.17182 39.8592 5.55817 39.8592 6.08572V22.6907C39.8592 23.4223 39.6336 23.9047 39.1825 24.1381C38.7412 24.3656 38.2446 24.4832 37.6866 24.4891C37.6629 24.4891 37.6431 24.5087 37.6431 24.5303V25.05C37.6431 25.0755 37.6649 25.0951 37.6886 25.0932C38.1476 25.0539 38.668 25.0245 39.2418 25.0049C39.8374 24.9853 40.6368 24.9755 41.64 24.9755C42.1742 24.9755 42.6332 24.9814 43.023 24.9912C43.4128 25.001 43.7611 25.0108 44.0697 25.0206C44.2023 25.0245 44.3289 25.0284 44.4536 25.0343V24.2695C44.3527 24.2302 44.2557 24.1891 44.1608 24.14C43.7096 23.9067 43.4841 23.4242 43.4841 22.6927V20.5217C43.4841 20.508 43.492 20.4943 43.5038 20.4864L44.9265 19.5451C44.9443 19.5333 44.97 19.5372 44.9839 19.5549L46.5589 21.5356C46.6816 21.6788 46.8141 21.8357 46.9586 22.0083C47.103 22.1809 47.2356 22.3573 47.3563 22.5397C47.4809 22.7221 47.5818 22.9006 47.6649 23.0732C47.748 23.2438 47.7896 23.4124 47.7896 23.5752C47.7896 23.8596 47.657 24.0577 47.3899 24.1694C47.2613 24.2244 47.107 24.2773 46.9289 24.3283V25.0657C47.4334 25.0422 47.94 25.0206 48.4485 25.0069C49.1766 24.9872 49.9107 24.9774 50.6468 24.9774C51.3828 24.9774 52.0872 24.9872 52.8134 25.0069C53.5257 25.0265 54.2321 25.0559 54.9345 25.0971C54.9602 25.0971 54.98 25.0794 54.98 25.0539V24.5264C54.98 24.5048 54.9642 24.4872 54.9424 24.4852L54.9444 24.4813Z" fill="#FFF2E6"/>
<path d="M21.3291 16.4406C21.0205 15.6895 20.5911 15.0403 20.0371 14.4912C19.4831 13.9421 18.8281 13.5106 18.0703 13.1949C17.3125 12.8811 16.4815 12.7222 15.5792 12.7222C14.9025 12.7222 14.212 12.8399 13.5056 13.0733C12.7992 13.3047 12.1601 13.595 11.5883 13.9382C11.5883 13.9382 11.5843 13.9382 11.5843 13.9362V5.70134C11.5843 5.70134 11.5843 5.69937 11.5863 5.69937C14.7877 6.02689 15.9017 4.84628 16.2777 4.10104C16.7822 3.1087 16.5586 1.8065 15.7335 0.939674C15.7276 0.931829 15.7197 0.925943 15.7118 0.918098C14.8669 0.047349 13.3691 0.625888 13.3038 1.83199C13.2286 3.21656 12.8882 5.07377 11.5843 4.98552C11.5843 4.98552 11.5823 4.98552 11.5823 4.98356V3.63821C11.5823 3.27344 11.244 3.0028 10.8839 3.07536C10.2863 3.19891 9.61754 3.29501 8.87753 3.36757C7.8328 3.46955 6.68321 3.54015 5.43469 3.57938V3.59899C4.84307 3.42837 4.46515 3.3107 4.4513 3.30678C3.55695 3.05183 2.61709 3.15577 1.80189 3.60095C0.986688 4.04613 0.397057 4.7796 0.137854 5.66604C-0.11937 6.55248 -0.0145016 7.48598 0.434651 8.29201C0.883804 9.1 1.62382 9.68639 2.50431 9.93742C3.84781 10.3846 5.37731 10.0629 6.72674 9.78052C7.15017 9.69031 7.56173 9.60794 7.9535 9.54714C7.9535 9.54714 7.95746 9.54715 7.95746 9.54911V18.1448C7.95746 18.7743 7.94757 19.3941 7.9258 20.004C7.90601 20.6139 7.87436 21.1807 7.83478 21.7102C7.79323 22.2377 7.74178 22.6849 7.68243 23.0496V23.0516C8.70539 23.6399 9.84311 24.1263 11.0916 24.5127C11.3152 24.5813 11.5368 24.6421 11.7545 24.699C12.4213 24.6597 13.0643 24.6127 13.6718 24.5519H13.7015C14.4355 24.4734 15.1676 24.6421 15.7929 25.0108C16.2935 24.9441 16.7862 24.8343 17.269 24.6813C18.1297 24.4068 18.8934 24.0067 19.5583 23.4772C20.2251 22.9496 20.7633 22.3005 21.1728 21.5278C21.5824 20.7571 21.7882 19.8804 21.7882 18.9077C21.7882 18.0134 21.6339 17.1917 21.3272 16.4406H21.3291ZM7.95746 8.83133C7.95746 8.83133 7.95746 8.83329 7.95548 8.83329C7.51226 8.89605 7.05124 8.99214 6.58032 9.09216C5.25859 9.37261 3.89134 9.65893 2.718 9.26866C2.00767 9.06667 1.41803 8.59991 1.0599 7.95666C0.701763 7.3134 0.618663 6.57405 0.822464 5.86804C1.02824 5.16202 1.49718 4.57956 2.14618 4.22656C2.7932 3.87159 3.5431 3.78726 4.24552 3.9873C4.35434 4.02064 5.93726 4.51289 7.77345 4.96787C7.88821 5.17575 7.9535 5.42089 7.9535 5.71702V8.82937L7.95746 8.83133ZM16.9029 22.9163C16.43 23.7184 15.6326 24.1204 14.5048 24.1204C13.377 24.1204 12.5776 23.7184 12.1067 22.9163C11.6358 22.1142 11.4003 20.8492 11.4003 19.1234C11.4003 17.3976 11.6358 16.1327 12.1067 15.3306C12.5776 14.5285 13.377 14.1264 14.5048 14.1264C15.6326 14.1264 16.43 14.5265 16.9029 15.3306C17.3738 16.1327 17.6093 17.3976 17.6093 19.1234C17.6093 20.8492 17.3738 22.1142 16.9029 22.9163Z" fill="#FFF2E6"/>
<path d="M59.6021 39.082C59.7545 38.9447 59.7644 38.7114 59.6278 38.5604C59.4933 38.4113 59.2638 38.3937 59.1074 38.5192C58.9393 38.6545 58.7671 38.7839 58.5871 38.9016C58.3061 39.0879 57.9875 39.1801 57.6353 39.1801C57.0952 39.1801 56.741 38.9957 56.5748 38.6231C56.4086 38.2525 56.3255 37.8406 56.3255 37.3876C56.3255 37.1189 56.3354 36.7836 56.3571 36.3815C56.3769 35.9795 56.3927 35.5578 56.4046 35.1146C56.4145 34.6714 56.4303 34.2223 56.4521 33.7693C56.4719 33.3162 56.4838 32.9044 56.4838 32.5338C56.4838 31.8336 56.3077 31.2512 55.9535 30.7883C55.5993 30.3235 55.1482 29.9548 54.5981 29.6764C54.0461 29.3979 53.4287 29.2037 52.7421 29.09C52.0555 28.9762 51.3789 28.9213 50.714 28.9213C50.1541 28.9213 49.5803 28.9684 48.9985 29.0606C48.4168 29.1527 47.8806 29.3175 47.3919 29.5548C46.9032 29.7901 46.4916 30.1215 46.1612 30.5451C45.8743 30.9099 45.6784 31.3629 45.5775 31.9023C45.5498 32.0454 45.6467 32.1847 45.7931 32.2062C46.3907 32.3004 46.9823 32.4102 47.564 32.5377C48.122 32.6593 48.7176 32.7887 49.3507 32.924C49.5229 32.9613 49.6812 32.824 49.6693 32.6514V32.6475C49.6574 32.5141 49.6535 32.3435 49.6535 32.1376C49.6535 31.9101 49.6733 31.6728 49.7148 31.4257C49.7564 31.1786 49.8355 30.959 49.9483 30.7609C50.0611 30.5648 50.2293 30.4059 50.4469 30.2804C50.6665 30.1568 50.9515 30.0941 51.3056 30.0941C52.3029 30.0941 52.8015 30.7962 52.8015 32.1964V34.4851C51.9705 34.4851 51.0761 34.5165 50.1204 34.5753C49.1628 34.6381 48.2744 34.8087 47.4532 35.0852C46.6321 35.3637 45.9494 35.7775 45.4093 36.3227C44.8691 36.8699 44.598 37.6367 44.598 38.627C44.598 39.0193 44.697 39.388 44.8948 39.739C45.0927 40.09 45.3578 40.394 45.6902 40.6529C46.0227 40.9098 46.4026 41.1118 46.828 41.255C47.2534 41.3981 47.6847 41.4707 48.122 41.4707C49.0361 41.4707 49.9206 41.3177 50.7734 41.0079C51.6262 40.698 52.4374 40.3077 53.2051 39.8331C53.5593 40.1842 53.9847 40.547 54.4833 40.9157C54.982 41.2863 55.4925 41.4727 56.0109 41.4727C56.3848 41.4727 56.7489 41.3746 57.1031 41.1785C57.4572 40.9824 57.7936 40.751 58.1161 40.4842C58.4387 40.2175 58.7513 39.9273 59.052 39.6174C59.246 39.4193 59.428 39.2409 59.6001 39.0859L59.6021 39.082ZM52.754 38.0367C52.7639 38.2838 52.7797 38.5525 52.8015 38.8408C52.5106 39.1075 52.1822 39.3036 51.8201 39.4272C51.456 39.5507 51.086 39.6135 50.712 39.6135C50.0472 39.6135 49.5268 39.435 49.1529 39.0722C48.7789 38.7133 48.5929 38.2132 48.5929 37.5739C48.5929 36.8738 48.862 36.3482 49.4042 35.9971C49.9443 35.6461 50.5261 35.4715 51.1513 35.4715C51.4422 35.4715 51.7172 35.4833 51.9784 35.5029C52.2396 35.5225 52.5126 35.5539 52.8055 35.5951C52.7837 35.8854 52.7698 36.1619 52.758 36.4306C52.7481 36.6973 52.7421 36.9777 52.7421 37.266C52.7421 37.5327 52.7481 37.7916 52.758 38.0387L52.754 38.0367Z" fill="#FFF2E6"/>
<path d="M42.6036 38.1328C42.2039 38.5172 41.7409 38.8251 41.2185 39.0565C40.5201 39.3664 39.8097 39.5194 39.0835 39.5194C37.7302 39.5194 36.6854 39.1016 35.9474 38.2681C35.2094 37.4327 34.8413 36.3658 34.8413 35.0675H41.5786C42.841 35.0675 43.7452 33.8222 43.302 32.6495C43.3 32.6416 43.2961 32.6338 43.2941 32.6259C43.0033 31.863 42.5917 31.1982 42.0614 30.6314C41.5311 30.0647 40.8861 29.6215 40.1283 29.3018C39.3685 28.9821 38.4919 28.8233 37.4947 28.8233C36.4975 28.8233 35.5616 28.9723 34.7503 29.2724C33.9391 29.5705 33.2426 29.9941 32.6609 30.5393C32.0791 31.0864 31.632 31.7434 31.3194 32.5181C31.0087 33.2907 30.8524 34.1517 30.8524 35.1009C30.8524 36.0501 31.0087 36.9091 31.3194 37.6837C31.632 38.4564 32.0791 39.1154 32.6609 39.6605C33.2426 40.2077 33.9391 40.6294 34.7503 40.9275C35.5616 41.2275 36.4757 41.3766 37.4947 41.3766C38.6799 41.3766 39.8137 41.1295 40.894 40.6352C41.82 40.2116 42.6471 39.637 43.3752 38.9114C43.581 38.7055 43.583 38.374 43.3851 38.1622C43.1774 37.9406 42.8272 37.9269 42.6075 38.1367L42.6036 38.1328ZM34.966 32.6279C35.0491 32.1749 35.1896 31.7513 35.3874 31.359C35.5853 30.9668 35.8445 30.6432 36.167 30.3843C36.4896 30.1274 36.8892 29.998 37.3681 29.998C38.2822 29.998 38.9272 30.2765 39.3012 30.8334C39.6752 31.3904 39.8631 32.12 39.8631 33.028C39.8631 33.3986 39.7899 33.6359 39.6435 33.7398C39.4971 33.8418 39.2161 33.8948 38.8006 33.8948H34.8394C34.8394 33.5045 34.8809 33.0809 34.964 32.6279H34.966Z" fill="#FFF2E6"/>
<path d="M83.0609 40.5862C82.8215 40.5352 82.6018 40.4431 82.406 40.3077C82.2081 40.1744 82.0478 39.99 81.9232 39.7508C81.7985 39.5154 81.7352 39.2095 81.7352 38.8388V33.2731C81.7352 32.7789 81.6679 32.2847 81.5334 31.7905C81.3988 31.2963 81.1792 30.8472 80.8785 30.4471C80.5777 30.0451 80.178 29.7215 79.6794 29.4724C79.1808 29.2253 78.5575 29.1017 77.8076 29.1017C77.2872 29.1017 76.8203 29.1488 76.4047 29.241C75.9892 29.3332 75.5935 29.4685 75.2195 29.643C74.8456 29.8176 74.4854 30.0333 74.1451 30.2902C73.8008 30.5491 73.4308 30.8315 73.0371 31.1413C72.6631 30.2961 72.1645 29.745 71.5412 29.4881C70.9179 29.2312 70.17 29.1017 69.2955 29.1017C68.4842 29.1017 67.7007 29.292 66.9409 29.6744C66.1811 30.0549 65.5004 30.5138 64.8989 31.0492C64.8989 30.0666 64.0441 29.3037 63.0568 29.3959C62.7877 29.4214 62.5067 29.441 62.2159 29.4567C61.3057 29.5038 60.3955 29.545 59.4873 29.5822C59.333 29.5881 59.1905 29.696 59.1648 29.847C59.1312 30.0411 59.2756 30.2117 59.4655 30.2235C60.6329 30.2961 61.2186 30.8079 61.2186 31.7591V38.8388C61.2186 39.2095 61.1553 39.5135 61.0307 39.7508C60.906 39.99 60.7438 40.1744 60.5479 40.3077C60.35 40.4431 60.1264 40.5352 59.8791 40.5862C59.7208 40.6196 59.5605 40.6411 59.4022 40.6529C59.2439 40.6647 59.1292 40.7902 59.1292 40.9431V40.9588C59.1292 41.1295 59.2756 41.2648 59.4477 41.251C59.794 41.2236 60.1877 41.202 60.629 41.1863C61.2107 41.1667 62.0101 41.155 63.0291 41.155C64.1114 41.155 64.9167 41.1648 65.447 41.1863C65.8032 41.2001 66.1059 41.2177 66.3552 41.2412C66.5293 41.2569 66.6777 41.1236 66.6777 40.949V40.9333C66.6777 40.7843 66.5629 40.6627 66.4145 40.6411C66.3215 40.6274 66.2226 40.6078 66.1197 40.5823C65.912 40.5313 65.7181 40.4391 65.5439 40.3038C65.3659 40.1705 65.2155 39.9861 65.0908 39.7468C64.9662 39.5115 64.9048 39.2056 64.9048 38.8349V32.3121C65.2372 32.0023 65.633 31.7297 66.0901 31.4924C66.5491 31.2551 67.0042 31.1374 67.4632 31.1374C68.1696 31.1374 68.7098 31.3688 69.0857 31.8336C69.4597 32.2965 69.6477 32.7965 69.6477 33.3319V38.8349C69.6477 39.2056 69.5843 39.5095 69.4597 39.7468C69.335 39.9861 69.1787 40.1705 68.9907 40.3038C68.8028 40.4391 68.601 40.5313 68.3833 40.5823C68.2606 40.6117 68.138 40.6333 68.0192 40.6451C67.8629 40.6607 67.7442 40.7882 67.7442 40.9431C67.7442 41.1197 67.8946 41.2569 68.0727 41.2412C68.3437 41.2177 68.6742 41.1981 69.0699 41.1844C69.6417 41.1648 70.4371 41.153 71.4561 41.153C72.5365 41.153 73.3438 41.1628 73.8721 41.1844C74.2361 41.1981 74.5468 41.2177 74.808 41.2412C74.9841 41.2569 75.1364 41.1177 75.1364 40.9431C75.1364 40.7882 75.0177 40.6627 74.8634 40.6431C74.7585 40.6294 74.6517 40.6097 74.5428 40.5823C74.337 40.5313 74.1431 40.4391 73.967 40.3038C73.789 40.1705 73.6386 39.9861 73.5139 39.7468C73.3893 39.5115 73.3279 39.2056 73.3279 38.8349V32.0337C73.6801 31.7669 74.0561 31.5512 74.4498 31.3845C74.8456 31.2198 75.2512 31.1374 75.6667 31.1374C76.4146 31.1374 77.0023 31.3335 77.4297 31.7238C77.8531 32.116 78.0668 32.7456 78.0668 33.6104V38.8349C78.0668 39.2056 78.0055 39.5095 77.8808 39.7468C77.7561 39.9861 77.6058 40.1705 77.4297 40.3038C77.2516 40.4391 77.0537 40.5313 76.8361 40.5823C76.7193 40.6097 76.6085 40.6294 76.5017 40.6431C76.3474 40.6627 76.2286 40.7863 76.2286 40.9412C76.2286 41.1177 76.381 41.2569 76.5591 41.2393C76.8143 41.2157 77.1309 41.1981 77.5068 41.1844C78.0688 41.1648 78.8583 41.153 79.8792 41.153C80.4194 41.153 80.8864 41.1589 81.2821 41.1687C81.6778 41.1785 82.0261 41.1883 82.3288 41.1981C82.6296 41.2079 82.8947 41.2177 83.1242 41.2314C83.237 41.2373 83.3478 41.2432 83.4546 41.2491C83.6288 41.2609 83.7772 41.1236 83.7772 40.951V40.9451C83.7772 40.7882 83.6565 40.6607 83.5002 40.647C83.3617 40.6352 83.2192 40.6117 83.0767 40.5823L83.0609 40.5862Z" fill="#FFF2E6"/>
<path d="M30.4625 29.2881C30.1598 28.8154 29.6256 28.5781 28.8559 28.5781C28.379 28.5781 27.9299 28.6546 27.5144 28.8095C27.0989 28.9645 26.7031 29.1586 26.3311 29.3959C25.9572 29.6313 25.5931 29.896 25.2389 30.1843C24.8867 30.4746 24.5306 30.7609 24.1784 31.0511V30.047C24.1784 29.4371 23.6323 28.9684 23.0228 29.0547H23.007C22.4965 29.1292 21.9564 29.1959 21.3865 29.2567C20.8127 29.3194 20.2607 29.3763 19.7324 29.4273C19.2021 29.4783 18.7905 29.5057 18.4997 29.5057V30.1235C19.1862 30.1647 19.7205 30.349 20.1063 30.6785C20.4922 31.0099 20.6841 31.5434 20.6841 32.2866V38.4074C20.6841 39.1487 20.4922 39.6861 20.1063 40.0136C19.7739 40.2979 19.3287 40.4764 18.7707 40.547C18.6164 40.5666 18.4997 40.696 18.4997 40.851V40.8647C18.4997 41.0412 18.65 41.1804 18.8281 41.1706C19.4474 41.1373 20.0648 41.1138 20.6841 41.0961C21.4102 41.0765 22.1404 41.0647 22.8665 41.0647C23.5927 41.0647 24.3228 41.0745 25.051 41.0961C25.6703 41.1138 26.2876 41.1393 26.9069 41.1706C27.085 41.1804 27.2354 41.0412 27.2354 40.8647C27.2354 40.7019 27.1087 40.5686 26.9445 40.5568C25.975 40.496 25.2805 40.3156 24.865 40.0136C24.4079 39.6841 24.1784 39.1487 24.1784 38.4074V32.1925C24.303 32.0297 24.4692 31.8591 24.677 31.6826C24.8847 31.5081 25.1044 31.3531 25.3319 31.2198C25.5595 31.0864 25.785 30.9727 26.0027 30.8785C26.2203 30.7864 26.4024 30.7393 26.5468 30.7393C26.901 30.7393 27.1879 30.8256 27.4055 31.0021C27.6232 31.1766 27.732 31.4512 27.732 31.8219C27.732 32.0297 27.6351 32.2298 27.4372 32.4239C27.3363 32.5239 27.2433 32.6122 27.1562 32.6867C27.0434 32.7848 27.0553 32.9613 27.18 33.0436C27.2512 33.0907 27.3402 33.0946 27.4154 33.0554C27.5836 32.9652 27.7894 32.8573 28.0308 32.7338C28.3315 32.5789 28.6541 32.4239 28.9964 32.271C29.3407 32.116 29.683 31.9611 30.0253 31.8081L30.0352 31.8042C30.6169 31.5434 30.9414 30.9197 30.8266 30.2961C30.7514 29.8901 30.6307 29.5528 30.4625 29.2881Z" fill="#FFF2E6"/>
<path d="M24.7542 43.779C23.3909 43.324 21.8377 43.6534 20.4684 43.9398C19.1526 44.2183 17.91 44.4791 17.2195 43.9555C16.802 43.6417 16.5626 43.0298 16.4874 42.0983C16.4834 42.0002 16.4834 41.8982 16.4834 41.7923V29.0802C16.4834 27.6505 15.2369 26.5326 13.8024 26.6778L13.7707 26.6817C12.7299 26.7837 11.6179 26.8562 10.4347 26.8974V27.5171C11.3073 27.5171 11.9207 27.6407 12.2729 27.8878C12.6271 28.1349 12.8032 28.5271 12.8032 29.0645V33.9791C12.2828 33.6693 11.707 33.428 11.0718 33.2515C10.4367 33.077 9.98557 32.9887 9.71449 32.9887C8.77859 32.9887 7.87435 33.128 7.00176 33.4065C6.1272 33.6849 5.35355 34.0929 4.67685 34.6283C4.00214 35.1656 3.45603 35.8226 3.04052 36.6071C2.625 37.3896 2.41724 38.276 2.41724 39.2644C2.41724 40.1724 2.55773 41.0118 2.8387 41.7845C3.11966 42.5552 3.52529 43.222 4.05556 43.779C4.58584 44.334 5.219 44.7674 5.95704 45.0753C6.69507 45.3851 7.52215 45.5401 8.43628 45.5401C9.35042 45.5401 10.1261 45.4048 10.8225 45.138C11.517 44.8713 12.2293 44.5203 12.9575 44.0869V44.6321C12.9575 44.9811 13.2602 45.2537 13.6104 45.2165C13.7668 45.2008 13.933 45.1851 14.111 45.1694C14.5681 45.1282 15.0727 45.0929 15.6227 45.0616C16.1748 45.0302 16.7506 45.0047 17.3521 44.9831C17.5855 44.9753 18.5353 44.9694 18.7985 44.9498C18.8994 44.9498 19.0992 44.9223 19.0992 44.9223C19.584 44.8596 20.0945 44.7537 20.6129 44.6438C21.9544 44.3614 23.3414 44.0692 24.5385 44.4673C25.2449 44.6576 25.791 45.2361 25.9631 45.9735C26.1155 46.6285 25.9433 47.2482 25.5021 47.6307C24.8472 48.2013 23.6738 48.2151 22.178 47.662C21.994 47.6052 17.637 46.2539 14.8807 45.9362C11.5131 45.5479 10.3595 46.7776 9.97171 47.5444C9.45924 48.5504 9.68679 49.8703 10.5238 50.7508C10.9907 51.2431 11.5665 51.5 12.1561 51.5H12.1641C12.6211 51.5 12.9713 51.094 12.9674 50.641C12.9575 49.2976 13.1336 46.4559 14.7937 46.6481C17.4846 46.958 21.9148 48.3327 21.9405 48.3406C24.2833 49.2074 25.4744 48.6073 25.975 48.1719C26.62 47.611 26.8773 46.7305 26.6636 45.8146C26.4321 44.8203 25.6881 44.0398 24.7443 43.7848L24.7542 43.779ZM12.9595 41.7354C12.7517 42.3316 12.3876 42.8258 11.8673 43.2181C11.3469 43.6083 10.6603 43.8045 9.80946 43.8045C9.18619 43.8045 8.67174 43.6495 8.26414 43.3397C7.85852 43.0318 7.536 42.6454 7.29856 42.1806C7.05914 41.7178 6.89294 41.202 6.79994 40.6352C6.70695 40.0685 6.65946 39.539 6.65946 39.0428C6.65946 38.4878 6.70497 37.9249 6.79994 37.3562C6.89294 36.7914 7.07102 36.2795 7.33022 35.8265C7.58942 35.3735 7.9436 35.0028 8.39078 34.7145C8.83795 34.4263 9.41572 34.2811 10.1221 34.2811C10.9116 34.2811 11.4992 34.4812 11.8831 34.8832C12.2669 35.2852 12.6271 35.8167 12.9595 36.4757V41.7315V41.7354Z" fill="#FFF2E6"/>
<path d="M67.7086 16.8446C67.7224 17.3741 67.7936 17.8957 67.9124 18.4115C68.2646 19.9373 68.9828 21.2728 70.0691 22.4103C71.2068 23.6007 72.58 24.4028 74.1807 24.8186C75.0058 25.0323 75.8448 25.1226 76.6956 25.0853C78.6149 25.001 80.3264 24.3597 81.8203 23.1614C82.4376 22.6653 82.9738 22.0906 83.4309 21.4474C83.4467 21.4238 83.4625 21.4003 83.4843 21.3689C83.4843 21.3689 83.4843 21.367 83.4823 21.365C83.1222 21.4336 82.7938 21.3709 82.4989 21.1709C82.2002 20.9669 82.0201 20.6845 81.9627 20.3295C81.8658 19.7294 82.2239 19.1411 82.8036 18.945C83.3992 18.743 84.1036 19.0018 84.3945 19.6627H84.4004C84.438 19.5647 84.4736 19.4764 84.5053 19.3862C84.7843 18.6018 84.9505 17.7938 84.9901 16.9603C84.9901 16.9485 84.998 16.5249 85 16.2484C85 16.1895 84.9465 16.1425 84.8872 16.1503C84.8575 16.1542 84.8298 16.1582 84.8001 16.1601C84.1155 16.2013 83.5357 15.9679 83.049 15.4757C82.9857 15.411 82.9323 15.3384 82.8788 15.2658C82.8551 15.2345 82.8393 15.2345 82.8076 15.258C82.4277 15.5169 82.0043 15.6404 81.5433 15.6385C80.5401 15.6345 79.6299 14.8913 79.434 13.9166C79.3885 13.693 79.4122 13.2949 79.4261 13.1047C79.4301 13.0517 79.3806 13.0125 79.3291 13.0262C79.2757 13.0399 79.2223 13.0556 79.1669 13.0674C78.2152 13.2851 77.1942 12.8124 76.7609 11.9456C76.4067 11.2396 76.4304 10.5375 76.8222 9.84915C76.8479 9.80209 76.838 9.79424 76.7925 9.77855C76.1 9.54714 75.6429 8.88427 75.6805 8.16649C75.6805 8.13904 75.6845 8.10962 75.6884 8.08216C75.6964 8.02137 75.6429 7.96842 75.5816 7.97626C75.5104 7.98411 75.4253 7.99391 75.3778 7.99979C74.4716 8.09981 73.601 8.33711 72.7719 8.71169C71.6263 9.22943 70.6429 9.96094 69.8158 10.9003C69.802 10.916 69.7881 10.9337 69.7703 10.9552C70.1443 10.9905 70.449 11.1474 70.6805 11.4338C70.8605 11.6573 70.9496 11.9142 70.9516 12.2006C70.9595 12.7458 70.5895 13.2517 70.0651 13.4126C69.5052 13.5832 68.8799 13.3733 68.5554 12.7948C68.0232 13.9028 67.7343 15.0619 67.7046 16.2856C67.7046 16.2896 67.7026 16.2915 67.7006 16.2954C67.7006 16.3092 67.7007 16.3229 67.7105 16.3386L67.7145 16.7818C67.6967 16.8014 67.6987 16.8191 67.6987 16.8367C67.7007 16.8367 67.7026 16.8387 67.7026 16.8446H67.7086ZM77.9975 17.2525C78.9097 17.2525 79.6319 17.982 79.6319 18.8998C79.6319 19.7765 78.884 20.5001 77.9797 20.5001C77.0854 20.5001 76.3553 19.7647 76.3553 18.8665C76.3553 17.9742 77.0913 17.2525 77.9975 17.2525ZM74.2361 12.0456C75.1404 12.0456 75.8804 12.7791 75.8764 13.6695C75.8705 14.5755 75.1384 15.2933 74.2144 15.2913C73.3299 15.2913 72.5958 14.552 72.5978 13.6636C72.5998 12.7693 73.3339 12.0456 74.2361 12.0456ZM73.0192 18.5547C73.7276 18.5821 74.2658 19.1646 74.2322 19.8667C74.1985 20.5688 73.6366 21.0493 73.0074 21.0708C72.305 21.0944 71.7034 20.5413 71.6955 19.8334C71.6876 19.1058 72.2832 18.5292 73.0173 18.5566L73.0192 18.5547Z" fill="#FFF2E6"/>
</svg>
