<?xml version="1.0" encoding="utf-8"?>
<!-- Generator: Adobe Illustrator 17.1.0, SVG Export Plug-In . SVG Version: 6.00 Build 0)  -->
<!DOCTYPE svg PUBLIC "-//W3C//DTD SVG 1.1//EN" "http://www.w3.org/Graphics/SVG/1.1/DTD/svg11.dtd">
<svg version="1.1" id="Layer_1" xmlns="http://www.w3.org/2000/svg" xmlns:xlink="http://www.w3.org/1999/xlink" x="0px" y="0px"
	 viewBox="0 0 32 32" enable-background="new 0 0 32 32" width="32px" height="32px" xml:space="preserve">
<g>
	<circle fill="#666666" cx="13.3" cy="28.1" r="2.4"/>
	<circle fill="#666666" cx="26.8" cy="28.1" r="2.4"/>
	<path fill="#666666" d="M8.4,5.7L7.3,1.5H6H5H2.3C1.6,1.5,1,2.1,1,2.8c0,0.8,0.6,1.4,1.3,1.4h2.9l5.7,21l0,0h18.3v-2.7H12.9
		l-0.6-2.4h16.9v0L31,7.2L8.4,5.7z M27.8,12.8h-4.9L23.3,9l5,0.3L27.8,12.8z M16,12.8l-1-4.3l7,0.5l-0.4,3.8H16z M21.5,13.7
		l-0.4,4.1h-4l-0.9-4.1L21.5,13.7z M13.7,8.4l1,4.4h-4.3L9,8.1L13.7,8.4z M11.7,17.8l-1.1-4.1h4.3l0.9,4.1L11.7,17.8z M22.4,17.8
		l0.4-4.1h4.9l-0.6,4.1H22.4z"/>
</g>
</svg>
