<svg width="18" height="19" viewBox="0 0 18 19" fill="none" xmlns="http://www.w3.org/2000/svg">
<path d="M0.0100485 9.81006C0.0238991 10.3396 0.095124 10.8612 0.213843 11.377C0.566042 12.9028 1.2843 14.2383 2.37057 15.3758C3.50829 16.5662 4.88147 17.3683 6.48219 17.7841C7.30729 17.9978 8.14624 18.0881 8.99705 18.0508C10.9163 17.9665 12.6279 17.3252 14.1218 16.1269C14.7391 15.6307 15.2753 15.0561 15.7324 14.4129C15.7482 14.3893 15.764 14.3658 15.7858 14.3344C15.7858 14.3344 15.7858 14.3325 15.7838 14.3305C15.4237 14.3991 15.0952 14.3364 14.8004 14.1363C14.5017 13.9324 14.3216 13.65 14.2642 13.295C14.1673 12.6949 14.5254 12.1066 15.1051 11.9104C15.7007 11.7084 16.4051 11.9673 16.696 12.6282H16.7019C16.7395 12.5302 16.7751 12.4419 16.8068 12.3517C17.0858 11.5672 17.252 10.7593 17.2915 9.92577C17.2915 9.914 17.2995 9.49039 17.3014 9.21387C17.3014 9.15503 17.248 9.10797 17.1887 9.11581C17.159 9.11973 17.1313 9.12365 17.1016 9.12561C16.417 9.1668 15.8372 8.93342 15.3505 8.44118C15.2872 8.37646 15.2337 8.30389 15.1803 8.23133C15.1566 8.19995 15.1408 8.19996 15.1091 8.22349C14.7292 8.48236 14.3058 8.60592 13.8447 8.60395C12.8416 8.60003 11.9314 7.85676 11.7355 6.88207C11.69 6.6585 11.7137 6.26038 11.7276 6.07015C11.7315 6.0172 11.6821 5.97798 11.6306 5.9917C11.5772 6.00543 11.5238 6.02112 11.4684 6.03289C10.5167 6.25057 9.49568 5.77794 9.06235 4.91111C8.70818 4.2051 8.73192 3.50301 9.12369 2.81465C9.14941 2.76758 9.13951 2.75974 9.09401 2.74405C8.40148 2.51263 7.94441 1.84976 7.98201 1.13198C7.98201 1.10453 7.98596 1.07511 7.98992 1.04766C7.99783 0.986861 7.94441 0.933908 7.88308 0.941753C7.81184 0.949598 7.72677 0.959402 7.67928 0.965286C6.77306 1.0653 5.90245 1.3026 5.0734 1.67718C3.92776 2.19493 2.94437 2.92643 2.1173 3.86582C2.10345 3.88151 2.0896 3.89916 2.07179 3.92073C2.44576 3.95604 2.75046 4.11293 2.98197 4.39926C3.16202 4.62283 3.25107 4.87974 3.25305 5.16606C3.26097 5.71126 2.89095 6.21724 2.36661 6.37805C1.80665 6.54867 1.1814 6.33883 0.856903 5.76029C0.324647 6.86834 0.0357671 8.02737 0.00608738 9.25113C0.00608738 9.25505 0.00410487 9.25701 0.00212622 9.26093C0.00212622 9.27466 0.00213589 9.28839 0.0120291 9.30408L0.0159782 9.7473C-0.00182962 9.76691 0.000157723 9.78456 0.000157723 9.80221C0.00213637 9.80221 0.0041068 9.80417 0.0041068 9.81006H0.0100485ZM10.299 10.218C11.2112 10.218 11.9334 10.9475 11.9334 11.8653C11.9334 12.742 11.1854 13.4656 10.2812 13.4656C9.38685 13.4656 8.65673 12.7302 8.65673 11.832C8.65673 10.9397 9.39279 10.218 10.299 10.218ZM6.5376 5.01113C7.44184 5.01113 8.18185 5.7446 8.17789 6.63496C8.17196 7.54101 7.43986 8.25879 6.51584 8.25683C5.63138 8.25683 4.8973 7.51748 4.89927 6.62908C4.90125 5.73479 5.63534 5.01113 6.5376 5.01113ZM5.32073 11.5202C6.02908 11.5476 6.56728 12.1301 6.53364 12.8322C6.5 13.5343 5.93807 14.0148 5.30886 14.0363C4.60644 14.0599 4.00493 13.5068 3.99701 12.7988C3.9891 12.0713 4.58467 11.4947 5.31875 11.5221L5.32073 11.5202Z" fill="#FFF2E6"/>
</svg>
