<?xml version="1.0" encoding="utf-8"?>
<!-- Svg Vector Icons : http://www.onlinewebfonts.com/icon -->
<!DOCTYPE svg PUBLIC "-//W3C//DTD SVG 1.1//EN" "http://www.w3.org/Graphics/SVG/1.1/DTD/svg11.dtd">
<svg version="1.1" xmlns="http://www.w3.org/2000/svg" xmlns:xlink="http://www.w3.org/1999/xlink" x="0px" y="0px" viewBox="0 0 1000 1000" enable-background="new 0 0 1000 1000" xml:space="preserve">
<metadata> Svg Vector Icons : http://www.onlinewebfonts.com/icon </metadata>
<g><path d="M859.4,75.3h-98.1v-33c0-17.6-14.6-32.4-32.7-32.4C710.5,10,696,24.5,696,42.4v33H304v-33c0-17.6-14.6-32.4-32.7-32.4c-18.2,0-32.7,14.5-32.7,32.4v33h-98.1c-53.8,0-97.9,43.8-97.9,97.9v718.9c0,53.8,43.8,97.9,97.9,97.9h718.9c53.8,0,97.9-43.8,97.9-97.9V173.2C957.3,119.4,913.5,75.3,859.4,75.3z M892,859.2c0,36.2-29.3,65.5-65.5,65.5h-653c-36.2,0-65.5-29.3-65.5-65.5V369.3h784V859.2z M892,304H108v-97.8c0-36.2,29.3-65.5,65.5-65.5h65.2v33c0,17.6,14.6,32.4,32.7,32.4c18.2,0,32.7-14.5,32.7-32.4v-33h392h0v33c0,17.6,14.6,32.4,32.7,32.4c18.2,0,32.7-14.5,32.7-32.4v-33h65.2c36.2,0,65.5,29.3,65.5,65.5V304z"/><path d="M663.3,467.3H794V598H663.3V467.3L663.3,467.3z"/><path d="M663.3,696H794v130.7H663.3V696z"/><path d="M434.7,696h130.7v130.7H434.7V696L434.7,696z"/><path d="M434.7,467.3h130.7V598H434.7V467.3L434.7,467.3z"/><path d="M206,696h130.7v130.7H206V696z"/><path d="M206,467.3h130.7V598H206V467.3L206,467.3z"/></g>
</svg>