<svg width="182" height="182" viewBox="0 0 182 182" fill="none" xmlns="http://www.w3.org/2000/svg">
<path d="M82.6657 171.164C81.2555 171.009 80.0476 170.624 79.042 170.009C78.0246 169.404 77.2739 168.619 76.7897 167.654C76.2937 166.698 76.1115 165.621 76.243 164.423C76.3746 163.224 76.7867 162.207 77.4794 161.371C78.1604 160.545 79.0637 159.941 80.1893 159.56C81.3031 159.189 82.5651 159.081 83.9753 159.236L89.9236 159.889L88.6139 171.817L82.6657 171.164ZM86.4953 160.913L87.9005 162.628L83.3995 162.134C82.6891 162.056 82.0608 162.11 81.5145 162.297C80.9564 162.494 80.5092 162.804 80.1728 163.228C79.8365 163.653 79.6346 164.173 79.567 164.788C79.4984 165.413 79.5827 165.964 79.8201 166.441C80.0563 166.928 80.4261 167.323 80.9295 167.625C81.4211 167.937 82.0221 168.132 82.7325 168.21L87.2334 168.704L85.4895 170.074L86.4953 160.913ZM64.5866 162.227L65.2823 159.93L73.6892 162.477L72.9935 164.774L64.5866 162.227ZM71.1822 162.971L73.3285 158.589L74.1789 160.418L65.3892 157.756L66.1683 155.183L76.8415 158.416L74.2295 163.894L73.3632 169.901L62.7665 166.691L63.5457 164.119L72.2588 166.758L70.5366 167.808L71.1822 162.971ZM57.0485 164.114L61.7134 154.676L62.3951 156.655L54.3484 152.678L55.6528 150.039L65.3348 154.824L60.0176 165.582L57.0485 164.114ZM48.5076 159.69L45.7402 157.87L52.3327 147.843L55.1001 149.663L48.5076 159.69ZM44.855 143.446L45.9181 144.369L35.5345 149.275L32.8888 146.978L44.9728 141.578L47.8119 144.043L44.1604 156.765L41.4784 154.436L44.855 143.446ZM28.8055 134.313L30.6819 132.817L36.1584 139.684L34.282 141.181L28.8055 134.313ZM33.8137 138.669L38.0679 136.279L37.7299 138.267L32.004 131.087L34.1056 129.411L41.0585 138.13L35.7988 141.158L31.6763 145.612L24.7733 136.955L26.8749 135.279L32.5509 142.397L30.5371 142.284L33.8137 138.669ZM26.6247 129.917L24.5187 126.09C24.2616 125.623 23.9536 125.317 23.5946 125.174C23.2357 125.031 22.8647 125.064 22.4815 125.275C22.089 125.491 21.862 125.787 21.8004 126.162C21.7294 126.541 21.8225 126.965 22.0797 127.432L24.4093 131.666L22.3042 131.126L32.0464 125.764L33.6432 128.666L23.1301 134.452L19.6973 128.214C19.255 127.41 19.0141 126.63 18.9747 125.872C18.9259 125.12 19.0613 124.436 19.3807 123.822C19.6909 123.213 20.1871 122.721 20.8692 122.346C21.5327 121.981 22.2094 121.827 22.8992 121.886C23.5889 121.945 24.2386 122.196 24.848 122.64C25.4575 123.084 25.9834 123.707 26.4257 124.511L28.7554 128.744L26.6247 129.917ZM26.756 127.799L24.9586 124.533L27.8036 118.055L29.655 121.419L26.756 127.799ZM26.7313 114.193L21.1959 116.054L20.1351 112.9L25.6705 111.038L26.7313 114.193ZM17.1524 123.356L15.9794 119.868L19.8394 113.978L20.3137 115.389L13.6844 113.043L12.5114 109.555L21.9668 112.925L22.6754 114.932L17.1524 123.356ZM21.0004 100.969L18.3406 101.224L17.5491 92.9903L20.2088 92.7346L21.0004 100.969ZM10.738 95.5417L22.1609 88.9625L22.4992 92.4823L12.3937 98.0508L12.3018 97.0952L23.2846 100.653L23.623 104.172L11.156 99.8897L10.738 95.5417ZM21.522 83.7277L21.4126 85.1314L11.2918 79.7043L11.5641 76.2109L23.0938 82.7107L22.8015 86.4594L10.4038 91.0938L10.6799 87.5525L21.522 83.7277ZM21.8612 76.3638L19.2833 75.661L21.4592 67.6803L24.0371 68.3832L21.8612 76.3638ZM14.1859 67.6542L27.1985 65.5469L26.2684 68.9583L14.8457 70.587L15.0982 69.6608L24.1093 76.8773L23.1792 80.2888L13.0369 71.8683L14.1859 67.6542ZM16.3296 60.5927L17.6313 57.5472L28.6656 62.2638L27.3638 65.3092L16.3296 60.5927ZM20.6182 52.0383L29.7262 57.3186L27.7064 57.8677L32.2084 50.1023L34.7553 51.5789L29.3385 60.9222L18.957 54.9035L20.6182 52.0383ZM36.0848 50.0643C35.8816 50.3385 35.6299 50.5436 35.3298 50.6797C35.0362 50.8072 34.7303 50.8527 34.4122 50.816C34.0855 50.7731 33.7851 50.6499 33.5109 50.4466C33.2367 50.2434 33.0359 49.9949 32.9084 49.7012C32.7809 49.4075 32.7354 49.1016 32.772 48.7835C32.8065 48.4505 32.9253 48.1469 33.1286 47.8727C33.3382 47.59 33.5942 47.388 33.8964 47.2669C34.1901 47.1393 34.496 47.0939 34.8141 47.1305C35.1321 47.1672 35.4283 47.2871 35.7025 47.4904C35.9767 47.6937 36.1818 47.9453 36.3179 48.2454C36.4454 48.5391 36.4908 48.845 36.4542 49.163C36.4176 49.4811 36.2945 49.7815 36.0848 50.0643ZM64.0394 23.7052C63.6444 23.8666 63.2457 23.9201 62.8432 23.8656C62.4407 23.8112 62.0791 23.6594 61.7583 23.4102C61.4375 23.161 61.1964 22.839 61.035 22.444C60.8696 22.0392 60.8161 21.6404 60.8746 21.2478C60.9291 20.8453 61.0809 20.4837 61.33 20.1629C61.5792 19.8421 61.9013 19.601 62.2962 19.4396C62.7011 19.2742 63.0998 19.2207 63.4924 19.2792C63.895 19.3337 64.2566 19.4855 64.5774 19.7347C64.8941 19.974 65.1352 20.296 65.3006 20.7009C65.462 21.0958 65.5155 21.4945 65.461 21.8971C65.4066 22.2996 65.2548 22.6612 65.0056 22.982C64.7663 23.2987 64.4442 23.5398 64.0394 23.7052ZM109.543 12.4413C110.925 12.7637 112.078 13.2902 113.003 14.0209C113.941 14.7435 114.592 15.613 114.957 16.6293C115.335 17.6376 115.387 18.7286 115.113 19.9024C114.839 21.0762 114.309 22.0367 113.521 22.7839C112.746 23.5231 111.777 24.0144 110.614 24.2578C109.464 24.4932 108.198 24.4497 106.816 24.1273L100.989 22.7673L103.716 11.0813L109.543 12.4413ZM104.515 22.1608L103.325 20.2894L107.735 21.3185C108.43 21.4809 109.061 21.5021 109.626 21.3819C110.203 21.2538 110.684 20.9992 111.069 20.618C111.454 20.2368 111.716 19.7449 111.857 19.1424C112 18.5296 111.982 17.9723 111.804 17.4706C111.627 16.9584 111.307 16.5223 110.844 16.1622C110.393 15.7941 109.82 15.5289 109.124 15.3664L104.714 14.3373L106.609 13.186L104.515 22.1608ZM126.43 23.4469L125.471 25.6467L117.42 22.1345L118.379 19.9347L126.43 23.4469ZM119.967 21.9366L117.323 26.0374L116.692 24.1215L125.11 27.7937L124.035 30.2574L113.814 25.7983L117.049 20.6635L118.612 14.7993L128.76 19.2265L127.686 21.6902L119.341 18.05L121.174 17.2089L119.967 21.9366ZM134.151 22.4894L128.371 31.2888L127.935 29.2416L135.437 34.1696L133.821 36.6302L124.794 30.7008L131.382 20.6711L134.151 22.4894ZM142.055 27.8803L144.599 30.0012L136.915 39.2182L134.371 37.0974L142.055 27.8803ZM143.8 44.4444L142.853 43.402L153.744 39.7594L156.1 42.3537L143.462 46.2857L140.934 43.5019L146.065 31.3013L148.453 33.9312L143.8 44.4444ZM158.638 55.4302L156.594 56.6895L151.986 49.2117L154.029 47.9525L158.638 55.4302ZM154.191 50.5026L149.68 52.3621L150.255 50.4288L155.074 58.2471L152.785 59.6575L146.934 50.1638L152.52 47.7921L157.15 43.8676L162.959 53.2932L160.671 54.7035L155.894 46.9533L157.879 47.3083L154.191 50.5026ZM160.283 60.0503L161.927 64.0972C162.128 64.5914 162.398 64.9306 162.737 65.115C163.077 65.2994 163.45 65.3093 163.855 65.1447C164.27 64.9761 164.53 64.7093 164.635 64.3443C164.75 63.9753 164.707 63.5437 164.506 63.0496L162.688 58.5728L164.715 59.3553L154.413 63.54L153.166 60.4715L164.284 55.9556L166.964 62.5522C167.309 63.4021 167.457 64.2055 167.407 64.9624C167.368 65.7153 167.153 66.378 166.764 66.9506C166.385 67.5191 165.835 67.9499 165.113 68.2429C164.412 68.5279 163.722 68.6009 163.043 68.4619C162.365 68.3229 161.75 67.9973 161.196 67.4853C160.643 66.9732 160.193 66.2922 159.848 65.4423L158.03 60.9656L160.283 60.0503ZM159.905 62.1381L161.308 65.5921L157.724 71.6931L156.279 68.1354L159.905 62.1381ZM158.315 75.6389L164.034 74.4565L164.708 77.7156L158.989 78.898L158.315 75.6389ZM168.927 67.6939L169.672 71.2977L165.131 76.6804L164.83 75.2233L171.129 78.3486L171.874 81.9524L162.893 77.47L162.431 75.3926L168.927 67.6939ZM162.421 89.4687L165.092 89.5283L164.907 97.7983L162.236 97.7387L162.421 89.4687ZM171.972 96.0675L159.853 101.254L159.932 97.7193L170.623 93.3807L170.602 94.3405L160.115 89.5133L160.194 85.9782L172.069 91.7005L171.972 96.0675ZM159.862 106.521L160.138 105.14L169.541 111.733L168.855 115.169L158.181 107.344L158.917 103.657L171.778 100.53L171.083 104.013L159.862 106.521ZM158.65 113.792L161.126 114.797L158.017 122.462L155.541 121.458L158.65 113.792ZM165.235 123.353L152.064 123.898L153.393 120.621L164.929 120.362L164.568 121.252L156.479 113.015L157.808 109.739L166.877 119.305L165.235 123.353ZM162.253 130.126L160.588 132.989L150.214 126.957L151.879 124.094L162.253 130.126ZM156.982 138.081L148.56 131.764L150.631 131.456L145.245 138.637L142.89 136.87L149.37 128.231L158.97 135.431L156.982 138.081ZM141.38 138.244C141.614 137.994 141.887 137.819 142.2 137.718C142.507 137.625 142.816 137.614 143.128 137.687C143.447 137.767 143.732 137.923 143.981 138.156C144.23 138.389 144.402 138.659 144.495 138.965C144.588 139.272 144.599 139.581 144.526 139.893C144.454 140.22 144.302 140.508 144.068 140.757C143.828 141.014 143.551 141.186 143.237 141.272C142.93 141.365 142.621 141.375 142.31 141.303C141.998 141.23 141.717 141.078 141.468 140.844C141.218 140.611 141.043 140.338 140.942 140.024C140.849 139.718 140.838 139.409 140.911 139.097C140.984 138.785 141.14 138.501 141.38 138.244ZM117.808 158.646C118.205 158.491 118.605 158.444 119.006 158.504C119.408 158.565 119.767 158.723 120.084 158.977C120.401 159.231 120.637 159.557 120.792 159.954C120.951 160.361 120.999 160.761 120.934 161.153C120.873 161.554 120.716 161.913 120.462 162.23C120.208 162.547 119.882 162.783 119.484 162.938C119.077 163.098 118.677 163.145 118.286 163.08C117.884 163.02 117.525 162.862 117.208 162.608C116.895 162.364 116.659 162.038 116.5 161.631C116.345 161.233 116.297 160.834 116.358 160.432C116.419 160.031 116.576 159.671 116.83 159.354C117.075 159.041 117.4 158.805 117.808 158.646Z" fill="#383838"/>
<path d="M90.8733 122.751V91.5007M90.8733 91.5007C89.7799 91.5007 88.7057 91.2146 87.7578 90.6695L63.6859 75.8757M90.8733 91.5007C91.9667 91.5007 93.0412 91.2146 93.9891 90.6695L118.061 75.8757M76.8108 67.3445L104.936 83.4383M87.7483 121.907C88.6984 122.455 89.7762 122.744 90.8733 122.744C91.9704 122.744 93.0482 122.455 93.9983 121.907L115.873 109.407C116.822 108.859 117.611 108.071 118.159 107.122C118.708 106.173 118.997 105.096 118.998 104V79.0004C118.997 77.9044 118.708 76.828 118.159 75.8791C117.611 74.9302 116.822 74.1422 115.873 73.5942L93.9983 61.0942C93.0482 60.5456 91.9704 60.2568 90.8733 60.2568C89.7762 60.2568 88.6984 60.5456 87.7483 61.0942L65.8733 73.5942C64.9241 74.1422 64.1357 74.9302 63.5872 75.8791C63.0387 76.828 62.7494 77.9044 62.7483 79.0004V104C62.7494 105.096 63.0387 106.173 63.5872 107.122C64.1357 108.071 64.9241 108.859 65.8733 109.407L87.7483 121.907Z" stroke="#383838" stroke-width="5" stroke-linecap="round" stroke-linejoin="round"/>
</svg>
