<?xml version="1.0" encoding="UTF-8"?>
<svg id="Layer_1" data-name="Layer 1" xmlns="http://www.w3.org/2000/svg" version="1.1" viewBox="0 0 350.2 467.7">
  <defs>
    <style>
      .cls-1 {
        fill: none;
        stroke: #fff;
        stroke-linecap: round;
        stroke-linejoin: round;
        stroke-width: 6px;
      }
    </style>
  </defs>
  <path class="cls-1" d="M74.7,117.3s-5,18.3-34.9,58.1-20.3,89.6,23.2,94.4c43.5,4.9,74.7-42.5,38-93.6-36.7-51.1-26.3-59-26.3-59h0Z"/>
  <path class="cls-1" d="M257.5,27.4s7.1,22.9,46.4,72.1c39.3,49.1,29.3,112.3-25.5,120.2-54.8,7.9-96.1-50.7-51.8-116.7,44.3-66,30.9-75.6,30.9-75.6h0Z"/>
  <path class="cls-1" d="M198.5,251.6s-3.8,23-31.7,74.7-14,112,31.7,113.9,74.4-59.3,32.1-118.6-32.1-70-32.1-70h0Z"/>
</svg>