<svg xmlns="http://www.w3.org/2000/svg" xml:space="preserve" id="Layer_1" x="0" y="0" class="email-signup-banner-background" preserveAspectRatio="xMidYMid slice" version="1.1" viewBox="0 0 2169.3 648"><style>.st0,.st4{fill:rgb(var(--color-button))}.st4{opacity:.55;enable-background:new}</style><path d="M1791.7 650.9V370.8h-.1s.1 271.6.1 280.1m0-280.1s-.1 0 0 0" class="st0"/><path d="M1308.6 371.2V216.6L1084.9-.1 861.4 215.8V651h447.2zm-223.3-248.4c-15 .1-27-12-27.2-26.8s12-27 26.8-27.2c15-.1 27 12 27.2 26.8v.1c0 14.9-11.9 27-26.8 27.1" style="opacity:.75;fill:rgb(var(--color-button))"/><path d="M501.6 436.9h131c-45.2-4-86.7-22.2-120-49.9-30.9-25.8-54.7-59.9-68.1-98.7-7.8-22.5-12-46.4-12-71.3V0h.5-205.7c2.5.1 5-.2 7.5 0 110.9 10.6 197.7 104.5 197.8 217.8.2 120.4-100.3 218.8-220.9 218.8h-76v213.9h152.1v-.2c.1-117.8 95.9-213.4 213.8-213.4m359.8 213.5V277.7c-4.8 17.5-11.8 34.2-20.8 50l-1.7 2.8c-6.3 10.8-13.5 20.8-21.5 30.3-.1.2-.4.4-.5.6l-.1.1c-13.5 15.8-29.2 29.6-46.7 40.9-2.9 1.8-5.6 3.6-8.6 5.3-12.8 7.5-26.3 13.6-40.4 18.3-9.5 3.1-19.1 5.6-29 7.4-10.9 1.9-21.9 3.1-33 3.3-1.8 0-3.5.1-5.3.1h-.1v.7c.1 39 7.7 74.9 25.8 106.5 11.4 19.1 25.4 36.5 41.5 51.6 12.7 11.8 26.6 22.4 41.5 31.2.1.1.4.2.5.4 22.7 13.2 48 20.9 73.9 23.1 1.2.1 2.3.2 3.5.2 3.8.2 20.8.4 20.8.4v-.5z" class="st0"/><path d="M651.6 330.4h2.6c25.2-.6 48.5-9.7 66.8-24.5 25.1-20.2 41.2-51.3 41.2-86 0-34.8-16-65.8-41.2-86-17.9-14.5-40.6-23.4-65.1-24.4-1.4 0-2.9-.1-4.3-.1-61.1 0-110.5 49.5-110.5 110.5s49.4 110.5 110.5 110.5" class="st0"/><g style="opacity:.55"><path d="M1810 371.2c-3.2 0-10.6 0-18.2-.5-3.7-.2-7.5-.6-11-1.1-1.1-.1-2.2-.4-3.2-.5-125.3-15.6-224.1-119.6-229-248.3-.1-1.1-.2-2.3-.4-3.3-11.8 130.3-108.6 234.6-231.7 252-2.6.4-5.3.7-7.9 1v.6c126.6 14 226.7 119.7 239 252.3 0 .2.6.1.7 0 12.4-133.6 114.3-239.9 242.2-252.6h1.2l.2 101.2-.3 179 384.5.1V371z" class="st0"/><path d="M1792.4 239c5.9.8 11.7 1.2 17.8 1.2 72.4 0 131-58.6 131-131 0-45.6-23.3-85.8-58.6-109.2h-144.9c-.2.1-.4-.1-.6 0-34.9 23.6-57.9 64-57.9 109.2 0 66.3 49.3 121.1 113.2 129.8" class="st0"/></g><path d="M432.6 217.8C432.5 104.5 345.7 10.6 234.8-.1l-99 .1v436.7h76c120.6-.1 221-98.5 220.8-218.9M1085 68.9c-15 .1-26.9 12.2-26.8 27.2s12.2 26.9 27.2 26.8c14.8-.1 26.8-12.1 26.8-26.9v-.1c-.2-15.1-12.3-27.2-27.2-27M763.2 627.2c-.1-.1-.4-.2-.5-.4-15.1-8.9-29-19.4-41.5-31.2-16.2-15.1-30-32.4-41.5-51.6-18.2-31.5-25.7-67.5-25.8-106.5v-.7h-.3v-.1h-152c-118 0-213.7 95.6-213.8 213.6v.3h552.9c-1.2-.1-2.3-.2-3.5-.2-26.1-2.2-51.3-10-74-23.2M1882.5-.1s.1-.1 0 0c35.4 23.4 58.7 63.7 58.7 109.2 0 72.4-58.6 131-131 131-6 0-12-.4-17.8-1.2-63.9-8.7-113.2-63.5-113.2-129.8 0-45.2 23-85.7 57.9-109.2.2-.1.4.1.6 0h.2-165.1c-15.8 33.5-24.6 71.7-24.6 111.2v4.9c0 1.7.1 3.5.1 5.1 4.9 128.6 103.7 232.7 229 248.3 1.1.1 2.2.4 3.2.5 3.5.5 7.3.8 11 1.1 7.7.5 276.9.1 276.9.1V-.1z" class="st0" style="opacity:.1"/><path d="M1308.6 216.6v153.9c2.6-.2 5.1-.6 7.8-1 123.1-17.3 219.9-121.7 231.7-251.8.1 1.1.2 2.3.4 3.3-.1-1.7-.1-3.3-.1-5.1V111c0-39.5 8.9-77.5 24.6-111h-488.1zm483 154.2c-127.8 12.8-231 119-243.5 252.6 0 .2-.1.1-.2 0-12.3-132.7-112.7-238.3-239.3-252.3l-.1 279.3v.7h483.1v-.2c.1-8.5 0-280.1 0-280.1" class="st0"/><path d="M1548.1 623.4c12.4-133.5 115.6-239.8 243.5-252.6h-1.3c-127.9 12.7-229.7 119-242.2 252.6M2068.7-.1V371h107.2V-.1z" class="st0"/><path d="M135.9-.1C59.6-.1-2.3 61.8-2.3 138.1v511.8l138.2-.4z" class="st4"/><path d="M721.2 134.3c-17.9-14.5-40.6-23.4-65.1-24.4-1.4 0-2.9-.1-4.3-.1-61.1 0-110.5 49.5-110.5 110.5s49.5 110.5 110.5 110.5h2.6c25.2-.6 48.5-9.7 66.8-24.5 25.1-20.2 41.2-51.3 41.2-86s-16.1-65.8-41.2-86" class="st0"/><path d="M870.4-.1H432.7v217.5c0 24.9 4.2 48.9 12 71.3 13.3 38.8 37.2 72.9 68.1 98.7 33.3 27.8 74.5 45.5 119.9 49.4h21.1s3.7.6 5.5.5c11.1-.2 22.1-1.4 33-3.3 9.8-1.8 19.5-4.3 29-7.4 14-4.7 27.6-10.8 40.4-18.3 2.9-1.7 5.7-3.5 8.6-5.3 17.5-11.4 33.1-25.1 46.7-40.9l.1-.1c.1-.2.4-.4.5-.6 8-9.5 15.2-19.5 21.5-30.3l1.7-2.8c9-15.8 15.9-33.1 20.7-50.6v-62l69-66.6c-37.4-38.5-60.1-91.4-60.1-149.2M721.2 306.3c-18.3 14.8-41.5 23.9-66.8 24.5h-2.6c-61.1 0-110.5-49.5-110.5-110.5s49.5-110.5 110.5-110.5c1.4 0 2.9 0 4.3.1 24.6 1 47.1 9.9 65.1 24.4 25.1 20.2 41.2 51.3 41.2 86-.1 34.8-16.1 65.8-41.2 86" class="st4"/><path d="M870.4-.1s0-.1 0 0c0 57.8 22.7 110.8 60 149.2L1084.9-.1s-214.5-.2-214.5 0" class="st0"/></svg>
