<svg xmlns="http://www.w3.org/2000/svg" id="Layer_1" class="email-signup-banner-background email-signup-banner-background-mobile" data-name="Layer 1" preserveAspectRatio="xMidYMid slice" viewBox="0 0 374.45 238.04"><defs><style>.cls-2,.cls-4,.cls-5{fill:rgb(var(--color-button))}.cls-4{opacity:.75}.cls-5{opacity:.1}</style></defs><path d="M89.5 238c-7.27-1.67-14.13-5.11-20.52-8.82a87.1 87.1 0 0 1-30.36-30.35c-6.72-11.64-9.49-24.91-9.49-39.33H29c0 14.42 2.77 27.71 9.49 39.36a87.1 87.1 0 0 0 30.36 30.35c6.39 3.71 13.25 7.15 20.52 8.82h.46Z" style="fill:none"/><path d="M106.58 95.46v-.6a80.4 80.4 0 0 1-9.11 24.62l-.6 1a80 80 0 0 1-25.22 26.36c-1 .67-2.07 1.33-3.14 1.95a78 78 0 0 1-25.42 9.44 80.3 80.3 0 0 1-14 1.26c0 14.42 2.77 27.69 9.49 39.33A87.1 87.1 0 0 0 69 229.17c6.39 3.71 13.25 7.15 20.52 8.82h4.18a15.3 15.3 0 0 1 3.38 0 74 74 0 0 0 10.2 0h-.64Z" class="cls-2"/><g style="opacity:.55"><path d="M357 118.48A78.9 78.9 0 0 0 346.42 158 78.9 78.9 0 0 0 357 197.68a79.8 79.8 0 0 0 17.46 20.88v-121A79.5 79.5 0 0 0 357 118.48" class="cls-2"/><path d="M346.42 0a78.9 78.9 0 0 1-10.56 39.25 79.66 79.66 0 0 1-28.95 29 78.6 78.6 0 0 1-39.17 10.6 78.6 78.6 0 0 1 39.15 10.59A79.23 79.23 0 0 1 346.42 158V78.86a79 79 0 0 1 28-60.49V0Zm-232.2 27.3a79.2 79.2 0 0 1-5-27.3H0v53.79a39.5 39.5 0 0 1 29.37-13h.86A39.58 39.58 0 0 1 69 78.88v1.51A39.62 39.62 0 0 1 0 107v47a78 78 0 0 0 29 5.56h.15a80.3 80.3 0 0 0 14-1.26 78 78 0 0 0 25.42-9.44 72 72 0 0 0 3.14-1.95 80 80 0 0 0 25.22-26.36l.6-1a80.4 80.4 0 0 0 9.11-24.62V78.57l24.69-24.1a79 79 0 0 1-11.41-15.19 79.3 79.3 0 0 1-5.7-11.98" class="cls-2"/></g><path d="M357 39.26a79.6 79.6 0 0 1 17.46-20.89A79.6 79.6 0 0 0 357 39.26m0 79.2A78.93 78.93 0 0 0 346.42 158a79.09 79.09 0 0 1 28-60.44 79.6 79.6 0 0 0-17.42 20.9" class="cls-2"/><path d="M357 197.68a78.9 78.9 0 0 1-10.57-39.6 79.06 79.06 0 0 0-78.68-79.14 78.6 78.6 0 0 0 39.17-10.6 79.66 79.66 0 0 0 28.95-29A78.9 78.9 0 0 0 346.42 0v-.35H109.28V0a79.2 79.2 0 0 0 5 27.3 79.3 79.3 0 0 0 5.63 12 79 79 0 0 0 11.41 15.19L187 0l57 55.91 23.36 22.93V238h107v-19.44A79.8 79.8 0 0 1 357 197.68M29.37 120A39.62 39.62 0 0 0 69 80.39v-1.51a39.56 39.56 0 0 0-38.77-38.09h-.86A39.5 39.5 0 0 0 0 53.79V107a39.52 39.52 0 0 0 29.37 13" class="cls-2"/><path d="M94.12 238h2.82a12.7 12.7 0 0 0-2.82 0" class="cls-4"/><path d="M38.47 198.87C31.75 187.22 29 173.93 29 159.51A78 78 0 0 1 0 154v84h89.35c-7.27-1.67-14.13-5.11-20.52-8.82a87.1 87.1 0 0 1-30.36-30.31" class="cls-5"/><path d="M267.41 78.88 244 55.91 187 0l-55.74 54.46-24.69 24.1v15.26c0-.21.11-.42.15-.6V238h1.41-.91 160.19zm-80.24-34.39a9.88 9.88 0 1 1 9.83-9.88 9.88 9.88 0 0 1-9.83 9.88" class="cls-4"/><path d="M106.78 238V93.22c0 .18-.1.39-.15.6v1.64l.01 142.54h1.55Z" class="cls-4"/><path d="M357 39.26a78.9 78.9 0 0 0-10.57 39.6V158a79 79 0 0 1 28-60.43v-79.2A79.6 79.6 0 0 0 357 39.26" class="cls-5"/><circle cx="187.17" cy="34.61" r="9.88" class="cls-5"/></svg>
