<?xml version="1.0" encoding="UTF-8"?>
<svg id="Layer_1" data-name="Layer 1" xmlns="http://www.w3.org/2000/svg" version="1.1" viewBox="0 0 48 48">
  <defs>
    <style>
      .cls-1 {
        fill: #000;
        stroke-width: 0px;
      }
    </style>
  </defs>
  <path class="cls-1" d="M39.4,6.7H8.6c-3.2,0-5.8,2.6-5.8,5.8v23.2c0,3.2,2.6,5.8,5.8,5.8h30.8c3.2,0,5.8-2.6,5.8-5.8V12.4c0-3.2-2.6-5.8-5.8-5.8h0ZM41.6,16.7l-8.8,8.8c-2.4,2.4-5.5,3.7-8.8,3.7s-6.5-1.3-8.8-3.7l-8.6-8.6c-.6-.6-.6-1.6,0-2.3.6-.6,1.6-.6,2.3,0l8.6,8.6c3.6,3.6,9.5,3.6,13,0l8.8-8.8c.6-.6,1.6-.6,2.3,0s.6,1.6,0,2.3h.1Z"/>
</svg>