<?xml version="1.0" encoding="UTF-8" standalone="no"?><!DOCTYPE svg PUBLIC "-//W3C//DTD SVG 1.1//EN" "http://www.w3.org/Graphics/SVG/1.1/DTD/svg11.dtd"><svg width="100%" height="100%" viewBox="0 0 403 34" version="1.1" xmlns="http://www.w3.org/2000/svg" xmlns:xlink="http://www.w3.org/1999/xlink" xml:space="preserve" xmlns:serif="http://www.serif.com/" style="fill-rule:evenodd;clip-rule:evenodd;stroke-linejoin:round;stroke-miterlimit:2;"><path d="M29.116,16.817l-11.496,0l0,1.807l7.932,0l0,7.832c-0.301,1.104 -2.058,5.522 -9.136,5.522c-7.229,-0 -11.747,-4.87 -11.747,-14.91c-0,-9.889 3.966,-15.06 12.851,-15.06c4.869,0 9.438,2.912 9.438,2.912l0.703,-1.858c-0,0 -4.77,-3.062 -10.492,-3.062c-10.944,-0 -17.169,6.677 -17.169,17.068c0,10.492 5.673,16.918 15.512,16.918c6.024,-0 9.036,-2.259 10.542,-4.267l1.255,3.564l1.807,-0l0,-16.466Z" style="fill:#fff;fill-rule:nonzero;"/><path d="M79.367,17.018c0,-10.341 -6.124,-17.018 -16.466,-17.018c-10.341,0 -16.415,6.677 -16.415,17.018c-0,10.392 6.074,16.968 16.415,16.968c10.342,-0 16.466,-6.576 16.466,-16.968Zm-4.669,0c0,9.94 -4.166,15.11 -11.797,15.11c-7.63,0 -11.747,-5.17 -11.747,-15.11c0,-9.89 4.167,-15.161 11.747,-15.161c7.581,0 11.797,5.271 11.797,15.161Z" style="fill:#fff;fill-rule:nonzero;"/><path d="M127.811,17.018c-0,-10.341 -6.125,-17.018 -16.466,-17.018c-10.341,0 -16.416,6.677 -16.416,17.018c0,10.392 6.075,16.968 16.416,16.968c10.341,-0 16.466,-6.576 16.466,-16.968Zm-4.669,0c0,9.94 -4.167,15.11 -11.797,15.11c-7.631,0 -11.747,-5.17 -11.747,-15.11c-0,-9.89 4.167,-15.161 11.747,-15.161c7.58,0 11.797,5.271 11.797,15.161Z" style="fill:#fff;fill-rule:nonzero;"/><path d="M157.68,0.653l-11.496,-0l0,32.63l11.496,-0c10.994,-0 17.369,-5.622 17.369,-16.215c0,-10.693 -6.526,-16.415 -17.369,-16.415Zm0,2.108c8.283,0 12.701,4.267 12.701,14.307c-0,10.04 -4.418,14.107 -12.651,14.107l-7.329,-0l-0,-28.414l7.279,0Z" style="fill:#fff;fill-rule:nonzero;"/><path d="M234.035,0.653l-8.785,28.363l-9.94,-28.363l-3.313,-0l-9.839,28.413l-8.936,-28.413l-4.518,-0l10.542,32.63l3.615,-0l9.839,-28.012l9.94,28.012l3.514,-0l10.441,-32.63l-2.56,-0Z" style="fill:#fff;fill-rule:nonzero;"/><path d="M261.897,0.653l-13.203,32.63l2.46,-0l4.116,-10.241l15.462,0l4.066,10.241l4.418,-0l-12.751,-32.63l-4.568,-0Zm1.255,2.761l6.877,17.871l-14.006,0l7.129,-17.871Z" style="fill:#fff;fill-rule:nonzero;"/><path d="M317.067,0.653l-26.255,-0l0,2.008l10.994,-0l0,30.622l4.217,-0l-0,-30.622l11.044,-0l-0,-2.008Z" style="fill:#fff;fill-rule:nonzero;"/><path d="M358.031,3.966c-0,-0 -4.87,-3.966 -11.295,-3.966c-9.89,0 -16.567,6.827 -16.567,17.269c0,10.291 6.326,16.717 16.667,16.717c9.438,-0 13.002,-5.974 13.002,-5.974l-1.054,-1.606c-0,-0 -3.816,5.572 -11.546,5.572c-7.48,-0 -12.4,-4.619 -12.4,-14.86c0,-10.19 4.869,-15.11 12.199,-15.11c5.522,0 10.391,3.765 10.391,3.765l0.603,-1.807Z" style="fill:#fff;fill-rule:nonzero;"/><path d="M402.759,0.653l-4.216,-0l-0,15.411l-17.872,0l0,-15.411l-4.217,-0l0,32.63l4.217,-0l0,-15.161l17.872,0l-0,15.161l4.216,-0l0,-32.63Z" style="fill:#fff;fill-rule:nonzero;"/></svg>