<svg width="183" height="182" viewBox="0 0 183 182" fill="none" xmlns="http://www.w3.org/2000/svg">
<path d="M86.9342 171.731L83.6519 171.289L85.2534 159.396L88.5358 159.838L86.9342 171.731ZM77.5787 170.471L74.2805 170.027L75.882 158.134L79.1802 158.578L77.5787 170.471ZM85.6863 167.091L76.8065 165.895L77.1994 162.977L86.0792 164.173L85.6863 167.091ZM71.9497 159.304L71.0673 161.826L63.2594 159.094L64.1419 156.572L71.9497 159.304ZM62.7217 166.347L61.535 153.219L64.8726 154.386L65.6937 165.895L64.7876 165.578L72.62 157.097L75.9576 158.265L66.8446 167.79L62.7217 166.347ZM50.9905 149.408L51.9746 149.759L46.8625 158.223L44.1096 156.561L50.3137 146.289L53.8883 148.448L54.7146 160.48L53.7443 160.137L58.9557 151.508L61.7085 153.171L55.5045 163.443L51.834 161.226L50.9905 149.408ZM36.9925 150.449C35.9505 149.486 35.2079 148.459 34.7647 147.367C34.3064 146.275 34.1694 145.198 34.3538 144.133C34.5231 143.07 35.0168 142.096 35.8348 141.21C36.6528 140.325 37.5888 139.752 38.6428 139.492C39.6817 139.232 40.7669 139.283 41.8984 139.646C43.0149 140.009 44.0941 140.673 45.1361 141.635L49.5312 145.696L41.3876 154.51L36.9925 150.449ZM46.1657 144.482L46.2759 146.697L42.9501 143.624C42.4252 143.139 41.8876 142.809 41.3372 142.635C40.7718 142.461 40.2276 142.444 39.7048 142.586C39.182 142.727 38.7107 143.025 38.2909 143.48C37.8638 143.942 37.604 144.435 37.5115 144.96C37.4118 145.492 37.4745 146.029 37.6997 146.571C37.9099 147.114 38.2774 147.628 38.8023 148.113L42.1281 151.186L39.9114 151.251L46.1657 144.482ZM27.7264 128.56C28.65 128.035 29.6141 127.783 30.6187 127.806C31.6146 127.834 32.5809 128.122 33.5174 128.668C34.4476 129.205 35.2886 129.992 36.0402 131.028C36.8608 132.159 37.3665 133.301 37.5573 134.454C37.7481 135.607 37.6358 136.697 37.2205 137.723C36.799 138.741 36.0832 139.616 35.073 140.349C34.0629 141.081 33.0088 141.49 31.9107 141.575C30.8065 141.652 29.7359 141.42 28.699 140.881C27.662 140.342 26.7333 139.507 25.9128 138.376C25.1611 137.34 24.6741 136.296 24.4519 135.245C24.2233 134.185 24.2543 133.174 24.5448 132.212C24.8267 131.257 25.3605 130.421 26.1464 129.706L28.1007 132.4C27.7489 132.787 27.5214 133.209 27.4181 133.666C27.3062 134.13 27.3197 134.62 27.4587 135.139C27.5915 135.649 27.8489 136.167 28.2309 136.694C28.6694 137.298 29.1606 137.739 29.7045 138.017C30.2398 138.3 30.7993 138.408 31.3828 138.341C31.9577 138.28 32.5301 138.042 33.0999 137.629C33.6698 137.215 34.0773 136.742 34.3226 136.208C34.5593 135.681 34.6301 135.115 34.5352 134.512C34.4316 133.915 34.1605 133.314 33.7221 132.71C33.34 132.183 32.9315 131.775 32.4966 131.484C32.0554 131.185 31.5972 131.016 31.122 130.979C30.6468 130.942 30.1664 131.033 29.6807 131.254L27.7264 128.56ZM24.5314 125.996L22.6694 122.045C22.442 121.563 22.1537 121.239 21.8044 121.073C21.4552 120.907 21.0828 120.918 20.6872 121.104C20.2819 121.295 20.0368 121.576 19.9519 121.946C19.8573 122.321 19.9236 122.749 20.151 123.232L22.2109 127.603L20.1437 126.932L30.2026 122.192L31.6145 125.187L20.7595 130.303L17.7243 123.862C17.3332 123.033 17.1418 122.239 17.1499 121.48C17.1483 120.726 17.3262 120.053 17.6835 119.46C18.0312 118.871 18.5573 118.411 19.2616 118.079C19.9467 117.756 20.6316 117.646 21.3163 117.748C22.0011 117.85 22.6337 118.141 23.2142 118.622C23.7947 119.103 24.2804 119.759 24.6715 120.588L26.7314 124.959L24.5314 125.996ZM24.7951 123.891L23.2059 120.519L26.4512 114.231L28.0882 117.705L24.7951 123.891ZM23.714 112.425L21.1224 113.075L19.1083 105.052L21.6999 104.401L23.714 112.425ZM12.7554 108.593L23.0658 100.38L23.9267 103.809L14.7677 110.827L14.5339 109.896L25.9252 111.77L26.7862 115.2L13.8189 112.83L12.7554 108.593ZM15.9954 99.1867L15.4625 90.499L18.2572 90.3276L18.7902 99.0153L15.9954 99.1867ZM10.5411 90.4963L13.3359 90.3249L13.8805 99.2042L12.2025 97.7202L22.9663 97.0599L23.1691 100.366L11.1916 101.1L10.5411 90.4963ZM12.4862 84.2163L12.8348 80.9067L23.3208 82.0111L22.9722 85.3208L12.4862 84.2163ZM10.5589 88.6147L11.8662 76.2033L14.794 76.5117L13.4867 88.923L10.5589 88.6147ZM19.8367 65.274L22.1443 65.9337L19.7299 74.3794L17.4224 73.7197L19.8367 65.274ZM19.1962 71.8804L23.6112 73.958L21.7958 74.8368L24.3201 66.0065L26.9045 66.7454L23.8393 77.4678L18.3211 74.9418L12.3015 74.1695L15.3447 63.524L17.9292 64.2628L15.4269 73.0161L14.3502 71.3105L19.1962 71.8804ZM19.1544 55.3085C19.788 54.0392 20.5672 53.0392 21.4921 52.3087C22.4122 51.5639 23.4089 51.1314 24.4821 51.0114C25.5505 50.877 26.624 51.079 27.7025 51.6172C28.7809 52.1555 29.5924 52.8943 30.1369 53.8336C30.6766 54.7587 30.9302 55.8151 30.8977 57.0029C30.8604 58.1764 30.525 59.3979 29.8915 60.6672L27.2193 66.0215L16.4822 60.6627L19.1544 55.3085ZM27.4456 62.4507L25.3496 63.175L27.3716 59.1235C27.6908 58.4841 27.8573 57.8757 27.8712 57.2985C27.8803 56.707 27.744 56.18 27.4622 55.7175C27.1804 55.255 26.7627 54.8856 26.2092 54.6093C25.6461 54.3283 25.0998 54.2166 24.5703 54.2742C24.0313 54.3271 23.533 54.5373 23.0753 54.905C22.6129 55.2583 22.2221 55.7547 21.9029 56.3941L19.8809 60.4456L19.1996 58.3352L27.4456 62.4507ZM57.1724 26.9654C56.7969 27.1679 56.4061 27.2636 56.0001 27.2523C55.5941 27.2411 55.2183 27.1287 54.8728 26.9151C54.5274 26.7015 54.2533 26.4069 54.0508 26.0314C53.8431 25.6465 53.7475 25.2558 53.7638 24.8591C53.7751 24.4531 53.8875 24.0774 54.1011 23.7319C54.3147 23.3864 54.6092 23.1124 54.9847 22.9098C55.3696 22.7022 55.7604 22.6065 56.157 22.6228C56.5631 22.6341 56.9388 22.7465 57.2843 22.9601C57.6247 23.1643 57.8987 23.4589 58.1064 23.8438C58.3089 24.2193 58.4046 24.61 58.3933 25.0161C58.3821 25.4221 58.2696 25.7978 58.0561 26.1433C57.8519 26.4837 57.5573 26.7578 57.1724 26.9654ZM99.5699 10.5502L102.829 11.1378L100.7 22.9474L97.4408 22.3598L99.5699 10.5502ZM108.86 12.2251L112.135 12.8156L110.006 24.6252L106.731 24.0347L108.86 12.2251ZM100.61 15.2411L109.428 16.8309L108.906 19.7282L100.088 18.1384L100.61 15.2411ZM113.984 23.6325L114.979 21.1527L122.656 24.233L121.661 26.7128L113.984 23.6325ZM123.519 17.0111L124.114 30.1797L120.833 28.863L120.53 17.3288L121.421 17.6863L113.215 25.8066L109.933 24.4899L119.465 15.3845L123.519 17.0111ZM134.487 34.4519L133.519 34.0577L138.998 25.8263L141.675 27.6082L135.026 37.5978L131.55 35.2839L131.252 23.2271L132.207 23.6125L126.622 32.0037L123.944 30.2218L130.593 20.2322L134.163 22.6082L134.487 34.4519ZM148.517 34.0308C149.515 35.0389 150.212 36.0982 150.606 37.2089C151.015 38.3197 151.104 39.4025 150.873 40.4573C150.656 41.5122 150.12 42.4637 149.264 43.3118C148.407 44.16 147.447 44.6908 146.382 44.9043C145.333 45.1179 144.251 45.0184 143.137 44.6056C142.037 44.193 140.989 43.4826 139.99 42.4746L135.78 38.2227L144.306 29.7789L148.517 34.0308ZM139.088 39.5852L139.076 37.3676L142.262 40.585C142.765 41.0928 143.288 41.446 143.83 41.6448C144.387 41.8436 144.93 41.884 145.458 41.7659C145.987 41.6478 146.471 41.3711 146.911 40.9357C147.358 40.4929 147.639 40.0116 147.755 39.4917C147.878 38.9643 147.839 38.4248 147.638 37.8732C147.453 37.3217 147.108 36.7921 146.605 36.2843L143.419 33.0669L145.636 33.1003L139.088 39.5852ZM156.801 56.3112C155.855 56.7947 154.881 57.0029 153.878 56.9358C152.885 56.8629 151.932 56.5328 151.021 55.9455C150.116 55.3671 149.31 54.5437 148.606 53.4752C147.836 52.3087 147.382 51.1453 147.243 49.9849C147.103 48.8245 147.264 47.7411 147.725 46.7345C148.191 45.7368 148.945 44.8944 149.987 44.2073C151.029 43.5201 152.1 43.1585 153.201 43.1225C154.307 43.0954 155.367 43.3743 156.378 43.9591C157.39 44.5439 158.281 45.4196 159.05 46.586C159.755 47.6545 160.195 48.7188 160.37 49.7787C160.551 50.8476 160.476 51.8561 160.142 52.8041C159.818 53.7463 159.248 54.557 158.431 55.2364L156.598 52.4583C156.967 52.0874 157.213 51.6759 157.337 51.2238C157.469 50.7659 157.478 50.2749 157.362 49.7506C157.252 49.2353 157.018 48.7061 156.66 48.163C156.248 47.5397 155.777 47.0773 155.246 46.7759C154.724 46.4686 154.17 46.3357 153.584 46.3772C153.007 46.4128 152.425 46.6245 151.837 47.0121C151.249 47.3997 150.821 47.8547 150.552 48.377C150.292 48.8935 150.196 49.4551 150.264 50.0619C150.341 50.6628 150.585 51.275 150.996 51.8983C151.355 52.4414 151.745 52.8679 152.166 53.1776C152.594 53.4963 153.044 53.6849 153.517 53.7434C153.99 53.8019 154.474 53.7318 154.969 53.5331L156.801 56.3112ZM159.878 59.0163L161.56 63.0475C161.765 63.5397 162.038 63.8764 162.38 64.0576C162.721 64.2387 163.094 64.2451 163.497 64.0767C163.911 63.9042 164.168 63.635 164.27 63.269C164.381 62.8989 164.334 62.4677 164.129 61.9755L162.268 57.5161L164.303 58.2794L154.041 62.5613L152.765 59.5046L163.84 54.8839L166.582 61.4549C166.935 62.3015 167.09 63.1035 167.048 63.8609C167.015 64.6141 166.807 65.2788 166.424 65.855C166.05 66.4271 165.504 66.863 164.785 67.1629C164.086 67.4545 163.397 67.534 162.717 67.4014C162.038 67.2688 161.419 66.9491 160.861 66.4423C160.303 65.9355 159.847 65.2588 159.494 64.4122L157.633 59.9528L159.878 59.0163ZM159.519 61.1075L160.955 64.5481L157.429 70.6827L155.95 67.1388L159.519 61.1075ZM160.087 72.6143L162.704 72.0785L164.363 80.1824L161.746 80.7183L160.087 72.6143ZM170.866 76.9241L160.204 84.6759L159.495 81.2117L168.954 74.6044L169.146 75.5449L157.849 73.1704L157.139 69.7063L169.99 72.6448L170.866 76.9241ZM167.214 86.1802L167.362 94.883L164.562 94.9304L164.415 86.2276L167.214 86.1802ZM172.278 95.1037L169.478 95.1511L169.328 86.2564L170.938 87.8134L160.156 87.996L160.1 84.6845L172.098 84.4812L172.278 95.1037ZM170.052 101.296L169.554 104.586L159.128 103.009L159.626 99.7183L170.052 101.296ZM172.176 96.9893L170.309 109.329L167.398 108.888L169.265 96.5488L172.176 96.9893ZM161.865 119.889L159.588 119.128L162.373 110.797L164.649 111.558L161.865 119.889ZM162.796 113.317L158.477 111.047L160.329 110.249L157.418 118.96L154.869 118.108L158.404 107.531L163.805 110.298L169.785 111.334L166.275 121.836L163.726 120.983L166.611 112.349L167.612 114.1L162.796 113.317ZM162.101 129.876C161.411 131.116 160.588 132.08 159.631 132.768C158.679 133.471 157.664 133.859 156.586 133.931C155.513 134.017 154.449 133.767 153.396 133.181C152.343 132.595 151.565 131.821 151.063 130.858C150.565 129.91 150.359 128.843 150.445 127.658C150.535 126.487 150.925 125.282 151.614 124.042L154.524 118.813L165.01 124.647L162.101 129.876ZM154.138 122.37L156.264 121.74L154.063 125.697C153.715 126.322 153.521 126.922 153.482 127.498C153.446 128.088 153.559 128.621 153.82 129.096C154.08 129.57 154.481 129.958 155.022 130.259C155.572 130.565 156.112 130.701 156.644 130.667C157.185 130.638 157.692 130.451 158.166 130.104C158.644 129.772 159.056 129.293 159.404 128.669L161.605 124.712L162.191 126.85L154.138 122.37ZM129.607 152.804C129.97 152.58 130.355 152.462 130.761 152.451C131.167 152.439 131.548 152.53 131.905 152.723C132.262 152.917 132.553 153.195 132.776 153.559C133.005 153.931 133.123 154.316 133.129 154.713C133.141 155.119 133.05 155.5 132.857 155.857C132.663 156.215 132.385 156.505 132.021 156.728C131.649 156.958 131.264 157.075 130.867 157.082C130.461 157.093 130.08 157.003 129.722 156.809C129.371 156.624 129.081 156.346 128.851 155.973C128.628 155.61 128.51 155.225 128.498 154.819C128.487 154.413 128.577 154.032 128.771 153.675C128.956 153.323 129.234 153.033 129.607 152.804Z" fill="#383838"/>
<path d="M87.8333 96.7498H94.0833C95.7409 96.7498 97.3306 96.0913 98.5027 94.9192C99.6748 93.7471 100.333 92.1574 100.333 90.4998C100.333 88.8422 99.6748 87.2524 98.5027 86.0803C97.3306 84.9082 95.7409 84.2498 94.0833 84.2498H84.7083C82.8333 84.2498 81.2708 84.8748 80.3333 86.1248L62.8333 103M75.3333 115.5L80.3333 111.125C81.2708 109.875 82.8333 109.25 84.7083 109.25H97.2083C100.646 109.25 103.771 108 105.958 105.5L120.333 91.7498C121.539 90.6102 122.243 89.0383 122.29 87.3797C122.337 85.7212 121.723 84.112 120.583 82.9061C119.444 81.7002 117.872 80.9964 116.213 80.9495C114.555 80.9026 112.945 81.5165 111.74 82.6561L98.6145 94.8436M59.7083 99.8748L78.4583 118.625M114.396 79.5623C116.583 77.3748 119.083 74.5623 119.083 71.1248C119.302 69.2152 118.869 67.2877 117.855 65.6549C116.841 64.022 115.305 62.7794 113.497 62.1283C111.689 61.4773 109.713 61.456 107.891 62.0679C106.069 62.6798 104.507 63.8891 103.458 65.4998C102.343 64.0141 100.78 62.9252 99.0004 62.3928C97.2204 61.8605 95.3166 61.9128 93.5686 62.5421C91.8205 63.1714 90.3203 64.3446 89.288 65.8893C88.2558 67.434 87.7459 69.2689 87.8333 71.1248C87.8333 74.8748 90.3333 77.3748 92.5208 79.8748L103.458 90.4998L114.396 79.5623Z" stroke="#383838" stroke-width="5" stroke-linecap="round" stroke-linejoin="round"/>
</svg>
