<svg xmlns="http://www.w3.org/2000/svg" class="icon icon-accordion icon-shirt" viewBox="0 0 20 20"><path d="M5.82 2.096a.5.5 0 0 0-.376.158l-4.233 4.4a.6.6 0 0 0-.157.397c0 .156.054.29.152.39l2.124 2.21a.54.54 0 0 0 .381.163q.22.002.376-.158l.004-.004.611-.622a.51.51 0 0 1 .583-.11.55.55 0 0 1 .313.522l-.284 7.911a.54.54 0 0 0 .527.54h.347l7.992.01a.54.54 0 0 0 .527-.538l-.305-7.922a.55.55 0 0 1 .313-.523.51.51 0 0 1 .583.11l.608.619c.115.113.25.165.383.165q.22.002.376-.158l2.124-2.208a.6.6 0 0 0 .157-.397.55.55 0 0 0-.152-.39L14.562 2.26a.55.55 0 0 0-.382-.164h-1.539c-.107 0-.315.098-.45.246l-.01.01a3 3 0 0 1-2.186.94c-.833 0-1.61-.338-2.243-1.01l-.006-.006a.53.53 0 0 0-.387-.18zm-1.122-.618A1.54 1.54 0 0 1 5.82 1h1.54c.447 0 .855.2 1.148.518.441.467.95.677 1.487.677.545 0 1.052-.216 1.436-.614.266-.288.73-.581 1.21-.581h1.54c.43 0 .82.183 1.11.468l.01.01 4.239 4.407c.303.315.46.73.46 1.166 0 .448-.176.854-.45 1.155l-.01.011-2.13 2.214a1.546 1.546 0 0 1-1.905.264l.256 6.639v.022c0 .905-.71 1.644-1.58 1.644l-7.993-.011h-.347c-.871 0-1.582-.739-1.582-1.644v-.02l.239-6.627a1.54 1.54 0 0 1-.787.212c-.414 0-.806-.167-1.111-.469l-.01-.01L.46 8.218A1.67 1.67 0 0 1 0 7.051c0-.448.176-.854.45-1.155l.01-.01z"/></svg>
