<svg xmlns="http://www.w3.org/2000/svg" class="icon icon-accordion icon-chat-bubble" viewBox="0 0 20 20"><path d="M5.8 10.243a1 1 0 1 1 2 0 1 1 0 0 1-2 0M9.23 10.243a1 1 0 1 1 2 0 1 1 0 0 1-2 0M12.66 10.243a1 1 0 1 1 2 0 1 1 0 0 1-2 0"/><path fill-rule="evenodd" d="m16.645 17.204-.008-.004a19 19 0 0 1-.767-.423c-.645-.367-1.263-.72-1.442-.598a7.472 7.472 0 1 1 2.05-2.082c-.134.202.192.843.533 1.513.147.29.297.584.414.85l.006.014c.193.443.293.808.136.944-.128.136-.488.006-.922-.214m1.614.936c-.38.372-.857.345-1.046.321a2.5 2.5 0 0 1-.626-.181 11 11 0 0 1-1.081-.56l-.132-.074c-.29-.166-.538-.307-.744-.408a8.472 8.472 0 1 1 2.877-2.902l.008.02c.092.22.226.483.385.795l.084.165c.178.353.388.774.516 1.146.063.181.131.42.143.669.01.225-.02.668-.384 1.009"/></svg>
