<svg xmlns="http://www.w3.org/2000/svg" class="icon icon-accordion icon-truck" viewBox="0 0 20 20"><path d="M0 3.752c0-.277.224-.502.5-.502h10.147a.5.5 0 0 1 .5.502v9.91l-.595 1.003H7.223V13.66h2.923V4.253H1.002v9.408h1.682v1.004H.501A.5.5 0 0 1 0 14.163zm18.999 4.332-7.851-1.975V5.075l8.473 2.131a.5.5 0 0 1 .379.487v6.47a.5.5 0 0 1-.5.502h-2.193v-1.003H19zm-7.851 5.578h2.196v1.003h-2.792z"/><path d="M7.713 14.185a2.56 2.56 0 0 1-2.56 2.565 2.56 2.56 0 0 1-2.56-2.565 2.56 2.56 0 0 1 2.56-2.564 2.56 2.56 0 0 1 2.56 2.564m-2.56 1.562a1.56 1.56 0 0 0 1.558-1.562 1.56 1.56 0 0 0-1.559-1.56 1.56 1.56 0 0 0-1.558 1.56 1.56 1.56 0 0 0 1.558 1.562m12.368-1.562a2.56 2.56 0 0 1-2.56 2.565 2.56 2.56 0 0 1-2.56-2.565 2.56 2.56 0 0 1 2.56-2.564 2.56 2.56 0 0 1 2.56 2.564m-2.56 1.562a1.56 1.56 0 0 0 1.558-1.562 1.56 1.56 0 0 0-1.559-1.56 1.56 1.56 0 0 0-1.558 1.56 1.56 1.56 0 0 0 1.558 1.562"/></svg>
