<svg class="icon icon-pinterest" viewBox="0 0 20 20"><path fill="currentColor" d="M10 2.01a8.1 8.1 0 0 1 5.666 2.353 8.09 8.09 0 0 1 1.277 9.68A7.95 7.95 0 0 1 10 18.04a8.2 8.2 0 0 1-2.276-.307c.403-.653.672-1.24.816-1.729l.567-2.2c.134.27.393.5.768.702.384.192.768.297 1.19.297q1.254 0 2.248-.72a4.7 4.7 0 0 0 1.537-1.969c.37-.89.554-1.848.537-2.813 0-1.249-.48-2.315-1.43-3.227a5.06 5.06 0 0 0-3.65-1.374c-.893 0-1.729.154-2.478.461a5.02 5.02 0 0 0-3.236 4.552c0 .72.134 1.355.413 1.902.269.538.672.922 1.22 1.152.096.039.182.039.25 0 .066-.028.114-.096.143-.192l.173-.653c.048-.144.02-.288-.105-.432a2.26 2.26 0 0 1-.548-1.565 3.803 3.803 0 0 1 3.976-3.861c1.047 0 1.863.288 2.44.855.585.576.883 1.315.883 2.228a6.8 6.8 0 0 1-.317 2.122 3.8 3.8 0 0 1-.893 1.556c-.384.384-.836.576-1.345.576-.413 0-.749-.144-1.018-.451-.259-.307-.345-.672-.25-1.085q.22-.77.452-1.537l.173-.701c.057-.25.086-.451.086-.624 0-.346-.096-.634-.269-.855-.192-.22-.451-.336-.797-.336-.432 0-.797.192-1.085.595-.288.394-.442.893-.442 1.499.005.374.063.746.173 1.104l.058.144c-.576 2.478-.913 3.938-1.037 4.36-.116.528-.154 1.153-.125 1.863A8.07 8.07 0 0 1 2 10.03c0-2.208.778-4.11 2.343-5.666A7.72 7.72 0 0 1 10 2.001z"/></svg>
