<svg xmlns="http://www.w3.org/2000/svg" class="icon icon-accordion icon-leaf" viewBox="0 0 20 20"><path d="M18.63.085c.291.058.627.167.869.398.25.24.363.581.421.873.062.307.08.648.08.97a14 14 0 0 1-.099 1.443l-.012.11v.006a67 67 0 0 1-.633 4.278c-.298 1.612-.694 3.382-1.214 4.954v.003c-.502 1.494-1.207 3.11-2.254 4.158-3.607 3.612-9.47 3.639-13.081.024-3.61-3.616-3.584-9.487.023-13.099C3.777 3.155 5.378 2.45 6.884 1.946h.001c1.57-.52 3.325-.917 4.948-1.215a66 66 0 0 1 4.273-.634h.005l.038-.005A14 14 0 0 1 17.665 0c.32.003.66.024.966.085m-2.41 1.018c-1.106.13-2.61.33-4.204.623-1.6.294-3.304.68-4.813 1.18-1.478.494-2.886 1.14-3.758 2.013C.229 8.14.209 13.37 3.421 16.586s8.436 3.196 11.652-.024c.871-.872 1.517-2.293 2.01-3.764.499-1.51.885-3.228 1.179-4.818a66 66 0 0 0 .635-4.327c.035-.314.09-.824.092-1.33 0-.289-.017-.554-.06-.767-.046-.229-.106-.32-.129-.341-.03-.03-.134-.09-.367-.137a4.3 4.3 0 0 0-.775-.066 13 13 0 0 0-1.408.088z"/><path d="M19.43.502a.507.507 0 0 1-.004.715L.861 19.617a.505.505 0 1 1-.711-.72L18.715.498a.505.505 0 0 1 .715.004"/><path d="M5.623 2.477h.505v11.19h11.268v.505H5.623z"/><path d="M10.188 1.188h.505v7.96h8.091v.505h-8.596z"/></svg>
