<svg xmlns="http://www.w3.org/2000/svg" class="icon icon-accordion icon-lipstick" viewBox="0 0 20 20"><path d="M5.757 9.016a1.03 1.03 0 0 1 1.431 0l4.17 4.071a.97.97 0 0 1 0 1.397L7.1 18.634a2.06 2.06 0 0 1-2.864 0l-2.739-2.675a1.94 1.94 0 0 1 .002-2.793zm4.885 4.77-4.17-4.072-4.258 4.15a.97.97 0 0 0 0 1.397l2.738 2.674a1.03 1.03 0 0 0 1.432 0z"/><path d="m9.726 6.736 3.972 3.878-3.155 3.075L6.572 9.81zm0 1.396-1.723 1.68 2.541 2.48 1.723-1.679z"/><path d="M15.513 1.095a1.03 1.03 0 0 1 1.432 0l.752.735a3.397 3.397 0 0 1-.002 4.888l-4.713 4.594L9.01 7.433zm1.468 1.433-.753-.735-5.787 5.641 2.542 2.481L16.98 6.02a2.426 2.426 0 0 0 .001-3.491"/></svg>
