<svg width="20" height="20" viewBox="0 0 20 20" fill="none" xmlns="http://www.w3.org/2000/svg">
<path fill-rule="evenodd" clip-rule="evenodd" d="M13.324 3.5H14.176C14.434 3.5 14.67 3.5 14.868 3.516C15.081 3.534 15.314 3.573 15.544 3.691C15.874 3.859 16.142 4.126 16.309 4.456C16.427 4.686 16.466 4.919 16.484 5.132C16.5 5.33 16.5 5.566 16.5 5.824V6.676C16.5 6.934 16.5 7.17 16.484 7.368C16.471 7.6027 16.4115 7.83248 16.309 8.044C16.1412 8.3734 15.8734 8.6412 15.544 8.809C15.3325 8.91164 15.1027 8.97113 14.868 8.984C14.67 9 14.434 9 14.176 9H13.324C13.066 9 12.83 9 12.632 8.984C12.3973 8.97103 12.1675 8.91154 11.956 8.809C11.6266 8.6412 11.3588 8.3734 11.191 8.044C11.0885 7.83248 11.029 7.6027 11.016 7.368C11 7.17 11 6.934 11 6.676V5.824C11 5.566 11 5.33 11.016 5.132C11.0289 4.89728 11.0884 4.66748 11.191 4.456C11.3585 4.12675 11.626 3.85897 11.955 3.691C12.185 3.573 12.419 3.534 12.632 3.516C12.83 3.5 13.066 3.5 13.324 3.5ZM12.633 5.029C12.6726 5.01906 12.7132 5.01304 12.754 5.011C12.884 5.001 13.058 5 13.35 5H14.15C14.442 5 14.617 5 14.746 5.011C14.7865 5.0131 14.8267 5.01913 14.866 5.029C14.9107 5.05229 14.9473 5.08854 14.971 5.133C14.9809 5.17266 14.9869 5.21318 14.989 5.254C14.999 5.384 15 5.558 15 5.85V6.65C15 6.942 15 7.117 14.989 7.246C14.9868 7.28648 14.9808 7.32666 14.971 7.366C14.9477 7.41068 14.9115 7.44728 14.867 7.471C14.8274 7.48094 14.7868 7.48696 14.746 7.489C14.616 7.499 14.442 7.5 14.15 7.5H13.35C13.058 7.5 12.883 7.5 12.754 7.489C12.7135 7.4869 12.6733 7.48087 12.634 7.471C12.5893 7.44771 12.5527 7.41146 12.529 7.367C12.5191 7.32734 12.5131 7.28682 12.511 7.246C12.5003 7.04753 12.4966 6.84873 12.5 6.65V5.85C12.5 5.558 12.5 5.383 12.511 5.254C12.5132 5.21352 12.5192 5.17334 12.529 5.134C12.5523 5.08932 12.5885 5.05272 12.633 5.029Z" fill="currentColor"/>
<path fill-rule="evenodd" clip-rule="evenodd" d="M5.824 3.5H6.676C6.934 3.5 7.17 3.5 7.368 3.516C7.581 3.534 7.814 3.573 8.044 3.691C8.374 3.859 8.642 4.126 8.809 4.456C8.927 4.686 8.966 4.919 8.984 5.132C9 5.33 9 5.566 9 5.824V6.676C9 6.934 9 7.17 8.984 7.368C8.971 7.6027 8.91152 7.83248 8.809 8.044C8.6412 8.3734 8.3734 8.6412 8.044 8.809C7.83252 8.91164 7.60272 8.97113 7.368 8.984C7.17 9 6.934 9 6.676 9H5.824C5.566 9 5.33 9 5.132 8.984C4.8973 8.97103 4.66751 8.91154 4.456 8.809C4.1266 8.6412 3.8588 8.3734 3.691 8.044C3.58848 7.83248 3.529 7.6027 3.516 7.368C3.5 7.17 3.5 6.934 3.5 6.676V5.824C3.5 5.566 3.5 5.33 3.516 5.132C3.52887 4.89728 3.58836 4.66748 3.691 4.456C3.85854 4.12675 4.12597 3.85897 4.455 3.691C4.685 3.573 4.919 3.534 5.132 3.516C5.33 3.5 5.566 3.5 5.824 3.5ZM5.133 5.029C5.17265 5.01906 5.21318 5.01304 5.254 5.011C5.384 5.001 5.558 5 5.85 5H6.65C6.942 5 7.117 5 7.246 5.011C7.28649 5.0131 7.32668 5.01913 7.366 5.029C7.41068 5.05229 7.44728 5.08854 7.471 5.133C7.48086 5.17266 7.48689 5.21318 7.489 5.254C7.499 5.384 7.5 5.558 7.5 5.85V6.65C7.5 6.942 7.5 7.117 7.489 7.246C7.48683 7.28648 7.4808 7.32666 7.471 7.366C7.44771 7.41068 7.41146 7.44728 7.367 7.471C7.32735 7.48094 7.28682 7.48696 7.246 7.489C7.116 7.499 6.942 7.5 6.65 7.5H5.85C5.558 7.5 5.383 7.5 5.254 7.489C5.21351 7.4869 5.17332 7.48087 5.134 7.471C5.08932 7.44771 5.05272 7.41146 5.029 7.367C5.01914 7.32734 5.01311 7.28682 5.011 7.246C5.00026 7.04753 4.99659 6.84873 5 6.65V5.85C5 5.558 5 5.383 5.011 5.254C5.01317 5.21352 5.0192 5.17334 5.029 5.134C5.05229 5.08932 5.08854 5.05272 5.133 5.029Z" fill="currentColor"/>
<path fill-rule="evenodd" clip-rule="evenodd" d="M13.324 11H14.176C14.434 11 14.67 11 14.868 11.016C15.081 11.034 15.314 11.073 15.544 11.191C15.874 11.359 16.142 11.626 16.309 11.956C16.427 12.186 16.466 12.419 16.484 12.632C16.5 12.83 16.5 13.066 16.5 13.324V14.176C16.5 14.434 16.5 14.67 16.484 14.868C16.471 15.1027 16.4115 15.3325 16.309 15.544C16.1412 15.8734 15.8734 16.1412 15.544 16.309C15.3325 16.4116 15.1027 16.4711 14.868 16.484C14.67 16.5 14.434 16.5 14.176 16.5H13.324C13.066 16.5 12.83 16.5 12.632 16.484C12.3973 16.471 12.1675 16.4115 11.956 16.309C11.6266 16.1412 11.3588 15.8734 11.191 15.544C11.0885 15.3325 11.029 15.1027 11.016 14.868C11 14.67 11 14.434 11 14.176V13.324C11 13.066 11 12.83 11.016 12.632C11.0289 12.3973 11.0884 12.1675 11.191 11.956C11.3585 11.6268 11.626 11.359 11.955 11.191C12.185 11.073 12.419 11.034 12.632 11.016C12.83 11 13.066 11 13.324 11ZM12.633 12.529C12.6726 12.5191 12.7132 12.513 12.754 12.511C12.884 12.501 13.058 12.5 13.35 12.5H14.15C14.442 12.5 14.617 12.5 14.746 12.511C14.7865 12.5131 14.8267 12.5191 14.866 12.529C14.9107 12.5523 14.9473 12.5885 14.971 12.633C14.9809 12.6727 14.9869 12.7132 14.989 12.754C14.999 12.884 15 13.058 15 13.35V14.15C15 14.442 15 14.617 14.989 14.746C14.9868 14.7865 14.9808 14.8267 14.971 14.866C14.9477 14.9107 14.9115 14.9473 14.867 14.971C14.8274 14.9809 14.7868 14.987 14.746 14.989C14.616 14.999 14.442 15 14.15 15H13.35C13.058 15 12.883 15 12.754 14.989C12.7135 14.9869 12.6733 14.9809 12.634 14.971C12.5893 14.9477 12.5527 14.9115 12.529 14.867C12.5191 14.8273 12.5131 14.7868 12.511 14.746C12.5003 14.5475 12.4966 14.3487 12.5 14.15V13.35C12.5 13.058 12.5 12.883 12.511 12.754C12.5132 12.7135 12.5192 12.6733 12.529 12.634C12.5523 12.5893 12.5885 12.5527 12.633 12.529Z" fill="currentColor"/>
<path fill-rule="evenodd" clip-rule="evenodd" d="M6.676 16.5H5.824C5.566 16.5 5.33 16.5 5.132 16.484C4.8973 16.471 4.66752 16.4115 4.456 16.309C4.1266 16.1412 3.8588 15.8734 3.691 15.544C3.58846 15.3325 3.52897 15.1027 3.516 14.868C3.5 14.67 3.5 14.434 3.5 14.176V13.324C3.5 13.066 3.5 12.83 3.516 12.632C3.52887 12.3973 3.58836 12.1675 3.691 11.956C3.8588 11.6266 4.1266 11.3588 4.456 11.191C4.686 11.073 4.919 11.033 5.132 11.016C5.33 11 5.566 11 5.824 11H6.676C6.934 11 7.17 11 7.368 11.016C7.581 11.034 7.814 11.073 8.044 11.191C8.374 11.358 8.641 11.626 8.809 11.955C8.927 12.185 8.966 12.419 8.984 12.632C9 12.83 9 13.066 9 13.324V14.176C9 14.434 9 14.67 8.984 14.868C8.97103 15.1027 8.91154 15.3325 8.809 15.544C8.6412 15.8734 8.3734 16.1412 8.044 16.309C7.83252 16.4116 7.60272 16.4711 7.368 16.484C7.17 16.5 6.934 16.5 6.676 16.5ZM7.367 14.971C7.32734 14.9809 7.28682 14.9869 7.246 14.989C7.116 14.999 6.942 15 6.65 15H5.85C5.558 15 5.383 15 5.254 14.989C5.21352 14.9868 5.17334 14.9808 5.134 14.971C5.08932 14.9477 5.05272 14.9115 5.029 14.867C5.01906 14.8274 5.01304 14.7868 5.011 14.746C5.00023 14.5475 4.99656 14.3487 5 14.15V13.35C5 13.058 5 12.883 5.011 12.754C5.0131 12.7135 5.01913 12.6733 5.029 12.634C5.05229 12.5893 5.08854 12.5527 5.133 12.529C5.17266 12.5191 5.21318 12.5131 5.254 12.511C5.384 12.501 5.558 12.5 5.85 12.5H6.65C6.942 12.5 7.117 12.5 7.246 12.511C7.28648 12.5132 7.32666 12.5192 7.366 12.529C7.41068 12.5523 7.44728 12.5885 7.471 12.633C7.48094 12.6726 7.48696 12.7132 7.489 12.754C7.499 12.884 7.5 13.058 7.5 13.35V14.15C7.5 14.442 7.5 14.617 7.489 14.746C7.4869 14.7865 7.48087 14.8267 7.471 14.866C7.44771 14.9107 7.41146 14.9473 7.367 14.971Z" fill="currentColor"/>
</svg>
