<svg xmlns="http://www.w3.org/2000/svg" class="icon icon-accordion icon-return" viewBox="0 0 20 20"><path d="M11.571 1.059c0-.309.249-.559.556-.559h1.33C17.07.5 20 3.453 20 7.09s-2.93 6.589-6.543 6.589L1.9 13.71l-.591-.59.59-.572 11.558.013c2.997 0 5.432-2.451 5.432-5.472 0-3.02-2.435-5.471-5.432-5.471h-1.33a.557.557 0 0 1-.556-.56"/><path d="M6.003 7.007a.553.553 0 0 1 .786.011.56.56 0 0 1-.012.79zM1.31 13.12l5.43 5.426a.56.56 0 0 1 0 .79.553.553 0 0 1-.785 0L.162 13.503a.56.56 0 0 1 .007-.796l3.035-2.965 2.8-2.735.773.801-2.798 2.736c-1.025 1-2.108 2.027-2.67 2.576"/></svg>
