<svg xmlns="http://www.w3.org/2000/svg" class="icon icon-accordion icon-bottle" viewBox="0 0 20 20"><path d="M13.144 3.025a.5.5 0 0 1 .388.815.74.74 0 0 0-.163.503.9.9 0 0 0 .09.37c1.145 1.978 1.575 4.81 1.653 5.973v8.091a.5.5 0 0 1-.5.5H5.398a.5.5 0 0 1-.5-.5v-8.041c-.056-.885.135-1.942.395-2.918.265-.99.612-1.942.894-2.62.053-.128.129-.266.185-.368l.048-.088a.8.8 0 0 0 .103-.266c.01-.08-.012-.18-.083-.312a2 2 0 0 0-.136-.217 2 2 0 0 1-.116-.182.5.5 0 0 1 .439-.74zm-.752 1h-4.93c.051.17.08.368.051.584a1.8 1.8 0 0 1-.209.598l-.083.155c-.046.083-.08.145-.112.22-.268.647-.6 1.555-.85 2.494-.253.949-.411 1.887-.363 2.61l.001.034v7.557h8.216v-7.54c-.077-1.118-.494-3.751-1.52-5.523a1.86 1.86 0 0 1-.201-1.189"/><path d="M6.373 1.698A1 1 0 0 1 7.36.859h5.109a1 1 0 0 1 .97.755l.332 1.313a1 1 0 0 1-.97 1.245h-5.95a.75.75 0 0 1-.74-.87zm6.096.161H7.36l-.215 1.313h5.656zm1.632 7.094H14.1l-.04.021-.002.001-.043.022-.043.02-.043.022-.044.022-.044.02-.045.022-.045.02-.045.021-.046.02-.046.02-.047.02-.047.02-.048.018-.048.019-.049.018-.049.017-.05.017-.05.016-.05.016-.051.015-.052.014-.051.013-.053.012-.052.012-.054.01-.053.01-.054.009-.054.008-.055.006-.054.006-.055.004-.055.004-.055.002-.056.001h-.11l-.055-.003-.055-.003-.055-.005-.054-.005-.054-.007-.054-.008-.054-.008-.053-.01-.053-.01-.053-.012-.051-.012-.052-.013-.051-.014-.05-.015-.051-.015-.05-.016-.049-.017-.049-.017-.048-.018-.048-.018-.047-.018-.047-.02-.046-.019-.046-.02-.046-.02-.045-.02-.045-.02-.044-.022-.044-.02-.044-.022-.043-.02-.043-.022-.04-.02-.002-.001-.04-.02-.002-.002-.042-.02-.241-.125-.04-.02h-.001l-.037-.019h-.002l-.036-.019-.003-.001-.035-.018-.003-.001-.036-.018-.037-.018-.037-.017-.037-.017-.036-.017-.036-.016-.035-.015-.035-.015-.034-.015-.034-.013-.033-.013-.033-.013-.033-.012-.032-.01-.031-.011-.031-.01-.03-.01-.03-.008-.03-.008-.03-.007-.028-.007-.029-.006-.028-.005-.027-.005-.028-.004-.026-.004-.027-.003-.026-.003-.027-.002h-.026l-.026-.002h-.077l-.026.002-.026.002-.027.002-.026.003-.027.003-.027.004-.028.005-.027.005-.029.006-.028.006-.03.007-.029.008-.03.008-.03.01-.031.009-.031.01-.032.011-.033.012-.032.012-.034.013-.033.013-.034.014-.035.015-.035.015-.035.016-.036.016-.037.017-.036.017-.038.018-.037.019-.038.018-.038.02-.038.018-.002.001-.037.02H8.02l-.282.144-.002.001-.042.021-.042.022-.043.021-.044.022-.043.02-.045.022-.044.021-.045.02-.046.022-.045.02-.047.02-.046.02-.048.019-.047.019-.048.018-.049.018-.049.018-.05.017-.05.016-.05.016-.05.014-.052.014-.052.014-.052.012-.053.012-.053.01-.054.01-.054.01-.054.007-.054.007-.055.005-.055.005-.055.004-.055.002-.055.001H5.9l-.055-.003-.055-.003-.055-.005-.055-.005-.054-.006-.054-.008-.054-.009-.053-.01-.001-1.086.031.011.031.01.03.01.031.008.03.008.029.007.029.007.028.006.028.005.028.005.027.004.027.004.027.003.026.003.026.002.026.001.026.001h.078l.026-.001.026-.002.026-.002.027-.003.027-.003.027-.004.027-.005.028-.005.028-.006.029-.006.029-.007.029-.008.03-.008.03-.009.031-.01.031-.01.032-.01.032-.012.033-.012.033-.013.034-.013.034-.014.035-.015.035-.015.035-.016.036-.016.036-.017.037-.018.037-.017.038-.019.038-.018.038-.02.038-.018.001-.001.038-.02h.001l.241-.123.043-.022.042-.021.043-.022.042-.021.044-.021.044-.022.044-.02.044-.022.045-.02.046-.021.045-.02.047-.02.046-.02.047-.02.048-.019.048-.018.049-.018.049-.018.05-.017.049-.016.05-.016.051-.015.052-.014.052-.013.052-.013.052-.012.054-.01.053-.01.054-.01.054-.007.054-.007.055-.006.055-.004.055-.004.055-.002.055-.002h.055l.056.001.055.002.055.003.054.005.055.005.054.006.054.008.054.008.053.01.053.01.053.011.052.013.051.013.052.013.05.015.05.015.05.016.05.016.048.018.049.017.048.018.047.019.047.019.046.02.047.02.045.02.046.02.044.02.045.02.044.022.043.02.043.022.043.021.043.022.042.02.041.022.243.124.039.02h.001l.037.02h.002l.037.018.002.002.036.017.002.002.037.017.037.019.037.017.037.017.036.017.035.016.036.016.035.015.034.014.034.014.033.013.033.012.033.012.032.012.032.01.03.01.031.01.03.008.03.008.03.008.028.006.029.006.028.006.027.005.028.004.027.004.026.003.027.003.026.002.026.001.026.001h.078l.026-.001.026-.002.026-.002.027-.003.026-.003.027-.004.028-.005.027-.005.029-.005.028-.007.03-.007.029-.007.03-.008.03-.01.03-.009.032-.01.032-.01.032-.012.033-.012.033-.013.033-.013.034-.014.035-.015.035-.015.035-.016.036-.016.036-.017.037-.017.037-.018.036-.017.038-.02h.003l.036-.018.002-.001.036-.019h.002l.038-.02.283-.144.001-.001.042-.021.043-.022.043-.021.043-.022.044-.021.044-.021.045-.021.045-.021.045-.02.046-.021.046-.02-.063 1.227-.041.02z"/></svg>
