<svg xmlns="http://www.w3.org/2000/svg" class="icon icon-accordion icon-dairy-free" viewBox="0 0 20 20"><path d="m6.2 12.918-3.745 2.588-.569-.822 3.746-2.588zm11.198-7.654-3.1 2.055-.552-.833 3.1-2.055z"/><path d="m5.158 12.798-.168-.24.821-.572.168.241z"/><path fill-rule="evenodd" d="M9.94 18.5a8.5 8.5 0 1 0 0-17 8.5 8.5 0 0 0 0 17m0 1a9.5 9.5 0 1 0 0-19 9.5 9.5 0 0 0 0 19"/><path d="M7.72 4.91 6.224 7.186a.5.5 0 1 1-.836-.55l1.497-2.274zm5.986.266-1.165 2.178-.881-.472 1.165-2.177z"/><path d="m13.425 4.634 1.223 1.97a1 1 0 0 1 .15.527v6.9a1 1 0 0 1-.302.715l-1.65 1.609a1 1 0 0 1-.697.283h-1.427v-1h1.427l1.65-1.608V7.131l-1.224-1.97z"/><path d="M5.279 6.958a.5.5 0 0 1 .5-.5h6.856v9.18a1 1 0 0 1-1 1H6.279a1 1 0 0 1-1-1zm1 .5v8.18h5.356v-8.18zM6.5 3.5a1 1 0 0 1 1-1h5a1 1 0 0 1 1 1v1.35h-1V3.5h-5V5h-1z"/><path d="M13.408 5.022H6.956v-1h6.452z"/></svg>
