<svg class="icon icon-error" viewBox="0 0 13 13">
  <circle cx="6.5" cy="6.5" r="5.5" stroke="#fff" stroke-width="var(--icon-stroke-width)"/>
  <circle cx="6.5" cy="6.5" r="5.5" fill="#EB001B" stroke="#EB001B" stroke-width=".7"/>
  <path fill="#fff" d="m5.874 3.528.1 4.044h1.053l.1-4.044zm.627 6.133c.38 0 .68-.288.68-.656s-.3-.656-.68-.656-.681.288-.681.656.3.656.68.656"/>
  <path fill="#fff" stroke="#EB001B" stroke-width=".7" d="M5.874 3.178h-.359l.01.359.1 4.044.008.341h1.736l.008-.341.1-4.044.01-.359H5.873Zm.627 6.833c.56 0 1.03-.432 1.03-1.006s-.47-1.006-1.03-1.006-1.031.432-1.031 1.006.47 1.006 1.03 1.006Z"/>
</svg>
