<svg xmlns="http://www.w3.org/2000/svg" fill="none" class="icon icon-plus" viewBox="0 0 19 19"><path fill="currentColor" fill-rule="evenodd" d="M4.667 7.94a.5.5 0 0 1 .499-.501l5.534-.014a.5.5 0 1 1 .002 1l-5.534.014a.5.5 0 0 1-.5-.5" clip-rule="evenodd"/><path fill="currentColor" fill-rule="evenodd" d="M7.926 4.665a.5.5 0 0 1 .501.498l.014 5.534a.5.5 0 1 1-1 .003l-.014-5.534a.5.5 0 0 1 .499-.501" clip-rule="evenodd"/><path fill="currentColor" fill-rule="evenodd" d="M12.832 3.03a6.931 6.931 0 1 0-9.802 9.802 6.931 6.931 0 0 0 9.802-9.802M2.323 2.323a7.931 7.931 0 0 1 11.296 11.136l4.628 4.628a.5.5 0 0 1-.707.707l-4.662-4.662A7.932 7.932 0 0 1 2.323 2.323" clip-rule="evenodd"/></svg>
