<svg xmlns="http://www.w3.org/2000/svg" class="icon icon-accordion icon-nut-free" viewBox="0 0 20 20"><path d="m8.38 11.586-5.865 3.92-.555-.831 5.865-3.92zm9.318-6.5-5.865 3.921-.556-.831 5.865-3.92z"/><path d="M6.134 9.341c.672.693 1.528 1.115 2.152 1.25a.5.5 0 0 1 .297.194c.12.163.222.3.313.42.153.203.271.36.38.527.185.28.357.6.675 1.243.529 1.067 1.519 1.364 1.902 1.461.623.133 1.131.2 1.543.199.415-.002.697-.073.894-.188.353-.207.628-.687.628-1.9a3.65 3.65 0 0 0-.824-2.287c-.49-.608-1.09-.974-1.56-1.065-1.137-.221-1.753-.919-1.937-1.346-.138-.31-.41-.778-.718-1.228-.311-.455-.618-.832-.818-1.002-.605-.468-1.034-.61-1.637-.713-1.127-.192-1.626-.023-1.873.201-.265.24-.405.684-.46 1.461-.083 1.165.381 2.09 1.043 2.773m-.718.696c-.82-.846-1.43-2.038-1.323-3.54.056-.787.204-1.602.785-2.13.599-.544 1.501-.653 2.714-.447.738.126 1.329.325 2.09.915l.014.012c.313.262.688.742 1.008 1.21.326.476.637 1.002.808 1.39l.003.006c.05.117.39.6 1.21.76.758.147 1.55.678 2.148 1.42a4.65 4.65 0 0 1 1.045 2.914c0 1.287-.28 2.27-1.123 2.763-.402.235-.879.323-1.395.325s-1.107-.082-1.765-.223l-.018-.004c-.438-.11-1.824-.5-2.562-1.99-.318-.64-.466-.912-.614-1.136a8 8 0 0 0-.317-.44l-.24-.32c-.782-.211-1.72-.713-2.468-1.485"/><path fill-rule="evenodd" d="M10 18.5a8.5 8.5 0 1 0 0-17 8.5 8.5 0 0 0 0 17m0 1a9.5 9.5 0 1 0 0-19 9.5 9.5 0 0 0 0 19"/></svg>
