<svg width="48" height="48" viewBox="0 0 48 48" fill="none" xmlns="http://www.w3.org/2000/svg">
<g clip-path="url(#clip0_3004_3512)">
<path fill-rule="evenodd" clip-rule="evenodd" d="M38.196 21.276C30.46 16.682 17.7 16.26 10.314 18.502C9.128 18.862 7.874 18.192 7.516 17.006C7.156 15.82 7.824 14.566 9.012 14.206C17.49 11.632 31.582 12.13 40.488 17.416C41.554 18.05 41.904 19.426 41.272 20.492C40.64 21.558 39.262 21.91 38.196 21.276ZM37.944 28.082C37.4 28.962 36.25 29.238 35.37 28.698C28.92 24.734 19.086 23.584 11.454 25.9C10.466 26.2 9.42 25.642 9.12 24.654C8.822 23.664 9.38 22.622 10.368 22.32C19.084 19.676 29.92 20.956 37.328 25.51C38.208 26.05 38.484 27.204 37.944 28.082ZM35.006 34.616C34.576 35.324 33.654 35.546 32.95 35.114C27.314 31.67 20.22 30.892 11.866 32.8C11.062 32.984 10.26 32.48 10.076 31.676C9.892 30.87 10.394 30.068 11.2 29.884C20.342 27.794 28.184 28.694 34.51 32.56C35.216 32.99 35.438 33.912 35.006 34.616ZM24 0C10.746 0 0 10.746 0 24C0 37.256 10.746 48 24 48C37.256 48 48 37.256 48 24C48 10.746 37.256 0 24 0Z" fill="black"/>
</g>
<defs>
<clipPath id="clip0_3004_3512">
<rect width="48" height="48" fill="white"/>
</clipPath>
</defs>
</svg>
