<svg xmlns="http://www.w3.org/2000/svg" fill="none" class="icon icon-share" viewBox="0 0 13 12"><path stroke="currentColor" stroke-linecap="round" stroke-linejoin="round" d="M1.625 8.125v2.167a1.083 1.083 0 0 0 1.083 1.083h7.584a1.083 1.083 0 0 0 1.083-1.083V8.125"/><path fill="currentColor" fill-rule="evenodd" d="M6.148 1.271a.5.5 0 0 1 .707 0L9.563 3.98a.5.5 0 0 1-.707.707L6.501 2.332 4.147 4.687a.5.5 0 1 1-.708-.707z" clip-rule="evenodd"/><path fill="currentColor" fill-rule="evenodd" d="M6.5 1.125a.5.5 0 0 1 .5.5v6.5a.5.5 0 0 1-1 0v-6.5a.5.5 0 0 1 .5-.5" clip-rule="evenodd"/></svg>
