<svg xmlns="http://www.w3.org/2000/svg" class="icon icon-shopify" viewBox="0 0 150 43"><path fill="currentColor" d="M33.3 8.9s0-.2-.1-.3-.2-.1-.2-.1l-3.4-.2-2.1-2.1c-.1-.1-.2-.1-.3-.1l-1.8 36.1L38 39.5zm-7.5-3-.9.3c-.6-1.6-1.3-2.8-2.3-3.5-.7-.5-1.5-.7-2.3-.6l-.6-.6c-.9-.7-2.1-.9-3.6-.3C11.8 2.7 10 8.3 9.3 11l-3.8 1.1s-.9.2-1.1.5-.3 1-.3 1L.9 37.9l23.6 4.4L26.3 6c-.2-.2-.4-.1-.5-.1m-5.7 1.7L16 8.9c.5-2.1 1.6-4.3 3.6-5.1.4 1 .5 2.5.5 3.8m-3.5-5.2q1.35-.45 2.1 0c-2.7 1.2-3.9 4.3-4.4 6.9l-3.3 1c.7-2.5 2.3-6.7 5.6-7.9m2.3 17.9c-.2-.1-.4-.2-.7-.3s-.5-.2-.8-.3-.6-.1-1-.2h-1.1c-.3 0-.6.1-.9.2s-.5.2-.7.4-.3.4-.4.6-.2.5-.2.7 0 .4.1.6l.3.6.6.6c.2.2.5.4.8.6.5.3.9.6 1.4 1s.9.8 1.2 1.3c.4.5.7 1 .9 1.7q.3.9.3 2.1c-.1 1.2-.3 2.3-.8 3.2-.4.9-1.1 1.6-1.8 2.1s-1.6.8-2.5.9-1.9.1-2.8-.2c-.5-.1-.9-.3-1.3-.4l-1.2-.6c-.3-.2-.7-.4-.9-.6-.3-.2-.5-.4-.7-.7L7.8 30c.2.2.4.3.7.5s.6.4.9.5c.3.2.7.3 1 .5.4.1.7.2 1.1.3h.8c.2-.1.5-.2.6-.3.2-.1.3-.3.4-.5s.1-.4.2-.7c0-.2 0-.5-.1-.7s-.2-.4-.3-.7c-.1-.2-.3-.4-.6-.7-.2-.2-.5-.5-.9-.7-.4-.3-.8-.6-1.2-1-.3-.4-.7-.7-.9-1.2-.2-.4-.4-.9-.6-1.4-.1-.5-.2-1-.2-1.6 0-1 .2-1.8.6-2.6.3-.8.8-1.5 1.4-2.2.6-.6 1.3-1.2 2.2-1.6s1.8-.7 2.9-.9c.5-.1 1-.1 1.4-.1.5 0 .9 0 1.3.1s.8.1 1.1.2l.9.3zm2.6-13.1v-.5c0-1.3-.2-2.4-.5-3.2q.45 0 .9.3c.8.5 1.3 1.6 1.7 2.8zM45.3 29.6c.9.5 2.5 1.1 4.1 1.1 1.4 0 2.2-.8 2.2-1.7s-.5-1.5-2.1-2.4c-1.9-1.1-3.3-2.6-3.3-4.6 0-3.5 3-6 7.4-6 1.9 0 3.4.4 4.2.8l-1.2 3.5c-.7-.3-1.8-.7-3.1-.7-1.4 0-2.3.6-2.3 1.7 0 .8.7 1.4 1.9 2 2 1.1 3.6 2.6 3.6 4.7 0 4-3.2 6.2-7.7 6.1-2.1 0-4-.6-4.9-1.2zm12.4 4.5 4.9-25.2h5l-1.9 9.8h.1c1.3-1.6 3.1-2.7 5.3-2.7 2.6 0 4.1 1.7 4.1 4.5 0 .9-.1 2.2-.4 3.3l-2 10.3h-5l1.9-9.9c.1-.7.2-1.5.2-2.2 0-1.1-.4-1.8-1.6-1.8-1.6 0-3.3 2-4 5.3l-1.7 8.7h-4.9zM93.3 23c0 6.1-4 11.4-9.9 11.4-4.5 0-6.9-3.1-6.9-6.9 0-6 4-11.4 10-11.4 4.7 0 6.8 3.3 6.8 6.9m-11.7 4.3c0 1.8.7 3.2 2.4 3.2 2.7 0 4.1-4.7 4.1-7.7 0-1.5-.6-3-2.4-3-2.6.1-4.1 4.7-4.1 7.5m10.5 13.8L95.6 23c.4-2 .8-4.7 1-6.6h4.4l-.3 2.8h.1c1.3-1.9 3.3-3 5.3-3 3.7 0 5.2 2.9 5.2 6.3 0 6-3.9 12.1-9.7 12.1-1.2 0-2.4-.5-2.9-.5h-.1l-1.4 7zm7.2-11.2c.5.4 1.2.7 2.1.7 2.8 0 4.7-4.6 4.7-7.8 0-1.3-.5-2.7-2-2.7-1.7 0-3.4 2-4 5.1zm12.2 4.2 3.4-17.7h5.1l-3.4 17.7zm6.5-19.6c-1.4 0-2.4-1.1-2.4-2.6 0-1.6 1.3-2.9 2.9-2.9 1.5 0 2.5 1.1 2.5 2.6 0 1.8-1.4 2.9-3 2.9m2.9 19.6 2.7-14h-2.3l.7-3.7h2.3l.1-.8c.4-2.1 1.2-4.2 2.9-5.6 1.3-1.1 3.1-1.6 4.9-1.6 1.2 0 2.1.2 2.7.4l-1 3.9c-.4-.1-.9-.3-1.6-.3-1.7 0-2.7 1.5-3 3.2l-.2.8h3.5l-.7 3.7h-3.5l-2.7 14zm18-17.7.8 7.9c.2 1.8.4 3.3.4 4.2h.1c.4-.9.8-2.3 1.5-4.2l3.1-7.9h5.2l-6.1 13.1c-2.2 4.5-4.3 7.7-6.6 9.9-1.8 1.7-3.9 2.5-4.9 2.7l-1.4-4.2c.8-.3 1.9-.7 2.8-1.4 1.2-.8 2.1-1.9 2.7-3 .1-.3.2-.5.1-1.9l-3-15.2z"/></svg>
