<svg xmlns="http://www.w3.org/2000/svg" class="icon icon-accordion icon-lock" viewBox="0 0 20 20"><path fill-rule="evenodd" d="M16.5 7.118h-13V19h13zm-13-1a1 1 0 0 0-1 1V19a1 1 0 0 0 1 1h13a1 1 0 0 0 1-1V7.118a1 1 0 0 0-1-1z"/><path d="M11.443 11.92c0 .82-.646 1.486-1.443 1.486s-1.443-.665-1.443-1.486c0-.82.646-1.486 1.443-1.486s1.443.665 1.443 1.486"/><path d="M10.019 11.92c.345 0 .625.28.625.625v3.152a.625.625 0 1 1-1.25 0v-3.152c0-.345.28-.625.625-.625M6.242 3.76a3.759 3.759 0 1 1 7.516 0v2.36h-1V3.76a2.759 2.759 0 1 0-5.516 0v2.36h-1z"/></svg>
