<svg xmlns="http://www.w3.org/2000/svg" class="icon icon-accordion icon-gluten_free" viewBox="0 0 20 20"><path d="m7.068 12.352-4.552 3.154-.57-.822 4.553-3.154zm10.455-7.03L12.97 8.477l-.57-.822L16.953 4.5zM9.5 16.51V7.488a.5.5 0 0 1 1 0v9.022a.5.5 0 0 1-1 0m2.15-10.34c.415-1.78-.516-3.193-1.233-3.81a.5.5 0 0 0-.697.043C8.505 3.747 8.24 5.056 8.467 6.157l.98-.203c-.136-.658-.043-1.5.67-2.462.428.55.799 1.423.56 2.45z"/><path d="M9.24 5.58a4.1 4.1 0 0 0-2.14-.93.5.5 0 0 0-.552.428c-.183 1.3-.01 2.398.47 3.183l.853-.522c-.27-.44-.436-1.105-.386-1.99.358.107.757.294 1.104.59.505.433.926 1.119.926 2.225h1c0-1.401-.551-2.364-1.276-2.984"/><path d="M10.777 5.77a4.1 4.1 0 0 1 2.139-.93.5.5 0 0 1 .552.428c.183 1.3.01 2.399-.47 3.183l-.853-.522c.27-.44.436-1.105.386-1.99a3.1 3.1 0 0 0-1.104.591c-.505.432-.926 1.118-.926 2.224h-1c0-1.401.551-2.364 1.276-2.983"/><path d="M11.131 8.036a4.1 4.1 0 0 1 2.235-.669.5.5 0 0 1 .498.49c.026 1.314-.276 2.383-.846 3.105l-.785-.62c.32-.405.564-1.045.62-1.93a3.1 3.1 0 0 0-1.167.456c-.552.369-1.052 1-1.183 2.098l-.993-.119c.167-1.391.828-2.281 1.621-2.81"/><path d="M8.784 8.016a4.1 4.1 0 0 0-2.258-.584.5.5 0 0 0-.479.509c.023 1.313.366 2.37.962 3.07l.761-.649c-.335-.393-.603-1.023-.692-1.905.37.05.794.173 1.183.411.566.348 1.089.96 1.262 2.052l.988-.156c-.22-1.384-.914-2.249-1.727-2.748"/><path d="M10.449 12.182c-1.156-1.952-3.177-2.102-4.216-1.867a.5.5 0 0 0-.38.587c.261 1.296.822 2.177 1.523 2.742.695.56 1.488.776 2.167.818l.062-.998a2.8 2.8 0 0 1-1.602-.6c-.41-.33-.792-.84-1.037-1.634.81-.02 1.925.283 2.622 1.461z"/><path d="M9.505 12.182c1.155-1.952 3.176-2.102 4.216-1.867a.5.5 0 0 1 .38.587c-.26 1.291-.806 2.176-1.492 2.747a3.7 3.7 0 0 1-2.148.833l-.062-.998a2.7 2.7 0 0 0 1.57-.604c.401-.334.776-.85 1.02-1.65-.81-.02-1.926.282-2.623 1.461z"/><path fill-rule="evenodd" d="M10 18.5a8.5 8.5 0 1 0 0-17 8.5 8.5 0 0 0 0 17m0 1a9.5 9.5 0 1 0 0-19 9.5 9.5 0 0 0 0 19"/></svg>
