<svg xmlns="http://www.w3.org/2000/svg" class="icon icon-accordion icon-apple" viewBox="0 0 20 20"><path d="M10.662 1.843C11.5.994 12.582.556 13.336.406a.5.5 0 0 1 .589.397c.343 1.797-.22 3.099-1.099 3.97-.853.847-1.973 1.26-2.752 1.39a.5.5 0 0 1-.576-.416c-.276-1.752.305-3.035 1.164-3.904m-.23 3.208c.552-.172 1.188-.49 1.69-.988.564-.56.98-1.367.893-2.533a4.36 4.36 0 0 0-1.642 1.016c-.563.57-.985 1.374-.94 2.505"/><path d="M6.745 1.364a.5.5 0 0 1 .618-.343c1.068.307 3.061 1.669 3.137 4.663a.5.5 0 1 1-1 .025C9.437 3.226 7.811 2.19 7.087 1.983a.5.5 0 0 1-.342-.619"/><path d="M5.798 5.516c-.715.287-1.394.82-1.883 1.434-.9 1.13-1.379 2.53-1.379 4.249 0 3.129 1.845 5.768 4.544 6.885.331.137.679.126 1.143.05q.15-.024.32-.056c.384-.07.842-.155 1.314-.155s.954.084 1.369.157q.198.036.373.062c.52.08.918.09 1.273-.058a7.42 7.42 0 0 0 4.592-6.873c-.076-1.458-.297-2.505-.721-3.322-.415-.8-1.047-1.42-2.026-1.988-.795-.33-1.359-.45-1.776-.462a1.93 1.93 0 0 0-.96.2 4 4 0 0 0-.401.23l-.069.044a8 8 0 0 1-.383.231c-.34.188-.74.345-1.271.345-.63 0-1.017-.19-1.335-.44a6 6 0 0 1-.258-.218q-.065-.057-.11-.094a1.7 1.7 0 0 0-.334-.23c-.605-.306-1.31-.277-2.022.01m-.373-.928c.896-.36 1.915-.445 2.847.028.218.11.386.238.526.355.071.06.123.105.168.146.058.05.105.093.172.145.163.128.338.227.719.227.31 0 .544-.086.788-.22a7 7 0 0 0 .403-.246c.146-.091.31-.192.495-.282a2.9 2.9 0 0 1 1.43-.302c.583.019 1.28.183 2.16.552l.028.012.027.015c1.118.643 1.915 1.395 2.442 2.41.52 1.003.755 2.218.833 3.745v.026a8.42 8.42 0 0 1-5.207 7.808c-.622.259-1.254.208-1.807.124a22 22 0 0 1-.467-.078c-.39-.068-.746-.13-1.125-.13-.372 0-.705.061-1.07.128q-.194.036-.404.071c-.508.082-1.087.133-1.685-.114-3.07-1.27-5.162-4.273-5.162-7.81 0-1.918.54-3.545 1.597-4.872.584-.733 1.398-1.379 2.292-1.738"/></svg>
