<svg xmlns="http://www.w3.org/2000/svg" class="icon icon-accordion icon-price-tag" viewBox="0 0 20 20"><path fill-rule="evenodd" d="m1.162 11.842 6.93 6.987c.198.2.52.2.717 0l10.03-10.143a.5.5 0 0 0 .148-.36V1.531a.51.51 0 0 0-.507-.51h-7.093a.5.5 0 0 0-.358.15L1.162 11.12a.514.514 0 0 0 0 .722M20 1.532C20 .686 19.32 0 18.48 0h-7.093c-.403 0-.79.162-1.075.449L.445 10.398a1.54 1.54 0 0 0 0 2.167l6.93 6.986a1.51 1.51 0 0 0 2.151-.001l10.03-10.143A1.54 1.54 0 0 0 20 8.325z"/><path d="M15.903 8.23a2.86 2.86 0 0 1-4.066 0 2.915 2.915 0 0 1 0-4.1 2.86 2.86 0 0 1 4.066 0 2.915 2.915 0 0 1 0 4.1m-3.35-.723a1.85 1.85 0 0 0 2.633 0 1.89 1.89 0 0 0 0-2.654 1.85 1.85 0 0 0-2.633 0 1.89 1.89 0 0 0 0 2.654"/></svg>
