<svg xmlns="http://www.w3.org/2000/svg" class="icon icon-accordion icon-stopwatch" viewBox="0 0 20 20"><path d="M18.701 11.396a8.472 8.472 0 1 1-16.943 0 8.472 8.472 0 0 1 16.943 0m-8.471 7.472a7.472 7.472 0 1 0 0-14.944 7.472 7.472 0 0 0 0 14.944"/><path fill-rule="evenodd" d="M10.72 1.778h-.98a1 1 0 0 0-1 1v.147h2.98v-.147a1 1 0 0 0-1-1m-.98-1a2 2 0 0 0-2 2v1.147h4.98V2.778a2 2 0 0 0-2-2z"/><path d="M8.984 11.396a1.245 1.245 0 1 1 2.491 0 1.245 1.245 0 0 1-2.49 0"/><path d="M9.73 11.396a.5.5 0 0 1 .5-.5h4.98a.5.5 0 1 1 0 1h-4.98a.5.5 0 0 1-.5-.5m.5-5.481a.5.5 0 0 1 .5.5v2.49a.5.5 0 1 1-1 0v-2.49a.5.5 0 0 1 .5-.5m3.724 1.392a.5.5 0 0 1 0 .707l-1.76 1.761a.5.5 0 0 1-.708-.707l1.761-1.761a.5.5 0 0 1 .707 0"/></svg>
