<svg xmlns="http://www.w3.org/2000/svg" class="icon icon-accordion icon-snowflake" viewBox="0 0 20 20"><path d="M10 .5a.5.5 0 0 1 .5.5v1.857l1.886-1.148a.486.486 0 0 1 .677.174.51.51 0 0 1-.177.692l-2.198 1.338-.188.289v4.904l4.232-2.603.018-.03.174-2.769a.5.5 0 0 1 .525-.47c.273.017.48.257.463.536l-.132 2.088 1.714-1.054a.487.487 0 0 1 .679.17.513.513 0 0 1-.174.693L16.173 6.79l2.012 1.216c.234.141.31.452.172.693a.49.49 0 0 1-.677.182l-2.172-1.312-.542-.036-3.998 2.459 4.152 2.458h.242l2.419-1.227a.49.49 0 0 1 .66.231.51.51 0 0 1-.222.679l-1.957.992 1.807 1.07c.238.14.32.45.185.69a.487.487 0 0 1-.676.181l-1.784-1.056-.007 2.257a.5.5 0 0 1-.497.505.5.5 0 0 1-.493-.505l.008-2.6-.164-.34-4.141-2.45v4.921l.188.29 2.198 1.337a.514.514 0 0 1 .177.692.486.486 0 0 1-.677.174L10.5 17.143V19a.5.5 0 0 1-1 0v-1.876L7.69 18.36a.486.486 0 0 1-.685-.137.514.514 0 0 1 .14-.701l2.234-1.526.121-.21v-4.891L5.28 13.49l-.085.178.008 2.599a.5.5 0 0 1-.493.505.5.5 0 0 1-.497-.505l-.007-2.117-1.7 1.046a.487.487 0 0 1-.679-.17.513.513 0 0 1 .174-.693l1.861-1.145-2.081-1.055a.51.51 0 0 1-.223-.679.49.49 0 0 1 .661-.23l2.42 1.226h.424l3.97-2.442-4.165-2.464-.376.024L2.32 8.88a.49.49 0 0 1-.676-.18.51.51 0 0 1 .17-.694l1.9-1.146L1.93 5.805a.513.513 0 0 1-.185-.69.487.487 0 0 1 .676-.181l1.807 1.07-.14-2.234a.5.5 0 0 1 .462-.537.5.5 0 0 1 .525.471l.174 2.768.12.207L9.5 9.123V4.215l-.121-.21-2.234-1.527a.514.514 0 0 1-.14-.701.486.486 0 0 1 .685-.137L9.5 2.876V1a.5.5 0 0 1 .5-.5"/></svg>
