<svg xmlns="http://www.w3.org/2000/svg" class="icon icon-accordion icon-plane" viewBox="0 0 20 20"><path d="m16.412 2.079-.082.055c-.178.122-.358.244-.546.389l-.007.005c-.941.702-2.173 1.743-3.495 2.968a.5.5 0 0 1-.448.12L3.686 3.81a1 1 0 0 0-.147-.014.55.55 0 0 0-.509.333.56.56 0 0 0 .206.682l.005.004L8.614 8.3a.5.5 0 0 1 .081.773L8.67 9.1c-1.289 1.38-2.36 2.636-3.082 3.614a9 9 0 0 0-.31.437.5.5 0 0 1-.527.218l-2.553-.564a1 1 0 0 0-.147-.014.55.55 0 0 0-.51.333.56.56 0 0 0 .17.657l2.999 1.106a.5.5 0 0 1 .292.285l1.23 3.108a.54.54 0 0 0 .482.218.5.5 0 0 1 .136-.085.56.56 0 0 0 .328-.634v-.002l-.57-2.566a.5.5 0 0 1 .219-.529c.081-.052.144-.098.219-.153.062-.045.131-.096.226-.16.988-.72 2.233-1.785 3.616-3.07l.025-.026a.5.5 0 0 1 .772.081l3.498 5.366a.54.54 0 0 0 .464.253.56.56 0 0 0 .546-.679l-1.815-8.15a.5.5 0 0 1 .12-.447c1.222-1.324 2.272-2.54 2.962-3.485l.009-.01c.145-.188.267-.367.389-.545l.055-.081c.185-.282.42-.647.53-1.021.105-.36.073-.63-.15-.854a.74.74 0 0 0-.524-.201c-.28 0-.663.12-1.357.579m-5.24 10.319c-1.243 1.138-2.38 2.101-3.317 2.783l-.011.008-.168.119-.019.014.499 2.247a1.56 1.56 0 0 1-.832 1.726c-.221.18-.496.205-.65.205-.51 0-1.011-.248-1.309-.716a.5.5 0 0 1-.042-.084l-1.169-2.952-2.847-1.05a.5.5 0 0 1-.094-.047c-.65-.41-.872-1.22-.598-1.904l.004-.008a1.554 1.554 0 0 1 1.7-.927l.026.004.046.008 2.247.496.138-.19.007-.009c.682-.923 1.646-2.064 2.787-3.306l-4.871-3.16c-.648-.412-.869-1.22-.595-1.903l.003-.008a1.554 1.554 0 0 1 1.7-.926q.014 0 .026.003l.046.008 7.916 1.755c1.265-1.162 2.45-2.16 3.381-2.855a12 12 0 0 1 .675-.478l.006-.005C16.597.758 17.185.5 17.77.5c.46 0 .907.172 1.23.494.578.577.567 1.285.403 1.843-.155.529-.468 1.006-.645 1.275l-.016.025-.055.081c-.12.176-.26.379-.422.59-.69.944-1.701 2.118-2.853 3.374l1.76 7.902a1.56 1.56 0 0 1-.918 1.765l-.002.001a1.6 1.6 0 0 1-.604.123c-.508 0-1.01-.247-1.307-.714z"/></svg>
