<svg xmlns="http://www.w3.org/2000/svg" class="icon icon-accordion icon-perfume" viewBox="0 0 20 20"><path fill-rule="evenodd" d="M14.342 4.011c-.357-.276-1.68-.253-3.011-.229a63 63 0 0 1-1.101.013c-.344 0-.713-.009-1.087-.018-1.242-.03-2.53-.062-3.078.234-2.583 1.395-4.267 4.505-4.267 7.572 0 3.135 1.826 5.857 4.504 7.225a8.6 8.6 0 0 0 3.928.937 8.6 8.6 0 0 0 3.927-.937c2.679-1.368 4.504-4.09 4.504-7.225 0-3.067-1.736-6.177-4.32-7.572m-.543.844a2 2 0 0 0-.196-.035 8 8 0 0 0-.897-.05c-.436-.005-.872.003-1.324.011-.37.007-.751.014-1.152.014-.357 0-.738-.01-1.109-.018l-.094-.002c-.406-.01-.798-.019-1.163-.016a8 8 0 0 0-.933.049 2 2 0 0 0-.293.052 1 1 0 0 0-.098.031c-2.22 1.2-3.742 3.946-3.742 6.692 0 2.733 1.59 5.125 3.959 6.334a7.6 7.6 0 0 0 3.473.828c1.257 0 2.438-.3 3.472-.828 2.369-1.209 3.96-3.601 3.96-6.334 0-2.734-1.565-5.488-3.795-6.692zM6.54 4.89"/><path fill-rule="evenodd" d="M10.72 1.189h-.98a1 1 0 0 0-1 1v1.564h2.98V2.189a1 1 0 0 0-1-1m-.98-1a2 2 0 0 0-2 2v2.564h4.98V2.189a2 2 0 0 0-2-2z"/><path d="m13.461 8.96.056.001.055.002.055.003.054.004.055.006.054.006.054.007.054.009.053.01.053.01.053.01.052.013.052.013.051.013.05.015.051.015.05.016.05.016.048.017.048.018.048.018.048.019.047.019.046.019.046.02.046.02.045.02.045.02.045.021.044.021.043.021.043.022.043.02.043.022.042.021.042.021.04.021.123.063.118.06.002.001.037.019h.002l.036.02h.002l.036.018.003.001.035.017.003.002.034.016.003.002.034.016.003.002.035.016.036.017.036.016.035.015.035.015.035.015.034.014.033.013.033.013.033.012.032.01.032.012.03.01.031.009.03.009.03.008.03.007.029.007.028.006.028.006.028.005.027.004.027.004.027.003.026.003.026.002.026.001.026.001h.104l.026-.003.026-.002.027-.002.027-.004.027-.004.027-.004.028-.005.028-.006.028-.006.03-.007L17 9.95l.03-.009.03-.008.03-.01.032-.01.031-.01.033-.012.032-.012.034-.013.033-.013.034-.014.035-.015.035-.015.035-.015.036-.017.038-.017.033-.016.003-.001.034-.017.003-.001.035-.017.003-.001.035-.017.002-.002.036-.018h.002l.037-.019h.002l.037-.02h.001l.038-.02.041-.02.627.891-.04.02-.043.022-.041.021h-.002l-.04.021-.003.001-.04.02-.003.002-.043.021-.044.021-.044.021-.045.021-.045.021-.046.02-.045.021-.047.02-.047.02-.047.02-.047.018-.049.019-.048.017-.05.018-.049.017-.05.016-.05.015-.052.015-.051.014-.052.013-.052.012-.053.012-.053.01-.054.01-.054.009-.054.007-.054.007-.055.005-.055.005-.055.003-.055.002-.055.001h-.111l-.055-.003-.055-.004-.054-.004-.055-.006-.054-.007-.054-.007-.054-.009-.053-.01-.053-.01-.052-.012-.052-.012-.052-.013-.05-.014-.051-.015-.05-.015-.05-.016-.05-.017-.048-.017-.048-.018-.048-.018-.047-.019-.047-.019-.047-.02-.046-.02-.045-.02-.045-.02-.045-.02-.044-.021-.044-.021-.044-.021-.04-.02-.003-.002-.04-.02h-.002l-.041-.021h-.002l-.04-.021-.002-.001-.04-.02-.083-.043-.04-.021-.12-.061-.039-.02h-.002l-.037-.02h-.002l-.036-.018-.002-.002-.036-.017-.002-.001-.035-.017-.003-.002-.034-.016-.004-.002-.033-.016-.004-.002-.034-.016-.036-.016-.036-.016-.035-.015-.035-.015-.034-.015-.034-.013-.033-.013-.033-.013-.033-.011-.032-.011-.031-.011-.031-.01-.03-.009-.03-.008-.03-.008-.03-.008-.028-.006-.029-.006-.027-.005-.028-.005-.027-.005-.027-.003-.027-.003-.026-.003-.026-.002h-.026L13.477 10h-.078l-.026.002-.026.002-.026.002-.027.003-.027.004-.027.004-.027.004-.028.006-.029.006-.028.006-.03.007-.029.008-.03.008-.03.01-.031.009-.031.01-.032.011-.033.012-.032.012-.034.013-.033.013-.035.014-.034.015-.035.015-.036.016-.036.017-.034.016-.004.002-.033.015-.004.002-.033.016-.004.002-.034.017h-.003l-.035.018-.003.002-.036.017-.002.002-.037.018h-.001l-.038.02h-.001l-.039.02-.161.083-.042.021-.041.021h-.001l-.04.021-.003.001-.042.022-.043.021-.044.021-.043.022-.045.02-.044.022-.045.02-.046.021-.046.02-.046.02-.047.02-.047.02-.048.019-.048.018-.048.018-.05.017-.049.017-.05.016-.05.016-.051.015-.052.014-.052.013-.052.012-.053.012-.053.01-.054.01-.053.009-.054.008-.055.006-.055.006-.054.005-.056.003-.055.002-.055.001h-.11l-.055-.003-.055-.003-.055-.005-.055-.005-.054-.007-.054-.008L9.802 11l-.054-.01-.052-.01-.053-.012-.052-.012-.051-.013-.052-.014-.05-.015-.05-.015-.05-.016-.05-.016-.048-.018-.048-.017-.048-.019-.047-.018-.047-.02-.047-.019-.046-.02-.045-.02-.046-.02-.044-.02-.045-.022-.044-.02-.043-.022-.043-.02-.043-.022-.04-.02-.002-.001-.04-.02-.002-.002-.042-.02-.242-.124-.039-.02-.001-.001-.037-.019h-.002l-.037-.019-.002-.001-.036-.018H8.08l-.037-.019-.037-.018-.037-.017-.036-.017-.036-.017-.036-.016-.035-.015-.035-.015-.034-.014-.034-.014-.034-.013-.032-.013-.033-.012-.032-.01-.031-.011-.032-.01-.03-.01-.03-.008-.03-.008-.03-.007-.028-.007-.028-.006-.028-.005-.028-.005-.027-.004-.027-.004-.026-.003-.027-.002-.026-.002L7.138 10h-.104l-.026.002-.026.002-.026.002-.027.003-.027.003-.027.004-.027.005-.028.005-.028.006-.029.006-.029.007-.03.008-.03.008-.03.01-.03.009-.032.01-.032.011-.032.012-.033.012-.033.013-.034.013-.034.014-.034.015-.035.015-.036.016-.036.016-.036.017-.037.018-.037.017-.037.019-.038.018-.039.02-.038.018-.001.001-.038.02h-.001l-.283.145-.043.021-.043.022-.043.021-.043.022-.044.021-.044.021-.045.021-.045.021-.045.02-.046.021-.046.02-.047.02-.047.02-.048.018-.048.019-.048.018-.05.017-.049.017-.05.016-.05.016-.051.014-.052.015-.052.013-.052.012-.053.012-.053.01-.053.01-.054.01-.054.007-.054.007-.055.006-.055.004-.055.004-.055.002-.055.001H3.82l-.055-.003-.055-.003-.055-.004-.054-.006-.054-.006-.054-.008-.054-.008-.053-.01-.053-.01-.053-.012-.052-.012-.051-.013-.051-.014-.051-.014-.05-.016-.05-.016-.05-.016-.048-.017-.048-.018-.048-.018-.048-.019-.047-.019-.046-.02-.046-.02-.046-.02-.045-.02-.045-.02-.044-.02-.044-.022-.044-.021-.043-.021-.042-.021-.043-.022-.042-.02-.041-.022-.041-.02-.082-.043.628-.89.08.04.04.02.04.02.038.02.039.02.038.019.037.018.038.018.037.018.036.017.036.016.036.016.035.016.035.015.034.014.034.014.034.013.033.013.032.011.032.012.032.01.03.01.031.01.03.008.03.008.03.007.028.007.029.006.028.005.027.005.028.005.027.003.026.003.027.003.026.002.026.002h.103l.026-.001.027-.002.026-.002.026-.003.027-.003.027-.004.028-.005.027-.005.029-.006.028-.006.03-.007.029-.008.03-.008.03-.009.03-.01.032-.01.032-.01.032-.012.033-.012.033-.013.034-.013.034-.014.034-.015.035-.015.036-.016.036-.016.036-.017.037-.017.037-.018.037-.018.038-.02.038-.018.038-.02h.002l.037-.019h.002l.24-.124.043-.022.043-.021.042-.021.043-.022.043-.021.044-.022.044-.02.045-.022.045-.02.045-.021.046-.02.046-.02.047-.02.047-.02.048-.019.048-.018.048-.018.05-.018.049-.017.05-.016.05-.016.051-.015.051-.014.052-.013.052-.013.053-.011.053-.011.054-.01.053-.009.055-.008.054-.007.055-.005.054-.005.055-.004.056-.002.055-.001h.11l.055.002.055.003.055.005.054.005.055.007.054.007.053.008.054.01.053.01.052.012.052.012.052.013.051.014.05.014.051.015.05.016.05.017.048.017.048.017.048.019.048.018.047.02.046.019.046.02.046.02.045.02.045.02.044.021.044.021.044.021.043.021.043.021.042.022.042.02.042.022.242.124.04.02.038.02h.002l.036.019h.003l.035.018.003.002.036.018.038.018.037.017.036.017.036.017.036.016.035.016.035.015.034.014.034.014.034.013.033.013.032.011.033.012.031.01.031.01.03.01.031.008.03.008.03.008.028.006.028.007.028.005.028.005.027.004.027.004.027.003.026.003.027.002.026.001.026.001h.077l.026-.001.026-.002.027-.002.026-.003.027-.003.027-.004.027-.004.028-.006.028-.005.029-.007.029-.006.03-.008.029-.008.03-.01.031-.009.031-.01.032-.01.032-.012.033-.012.033-.013.034-.013.034-.014.035-.015.034-.015.036-.016.036-.016.036-.017.037-.017.037-.018.036-.017.038-.019.002-.001.036-.018.002-.001.037-.019h.002l.037-.02h.002l.282-.144v-.001l.043-.021.043-.022.043-.021.043-.022.043-.02.045-.022.044-.021.045-.02.045-.022.046-.02.046-.02.047-.02.047-.02.048-.018.048-.019.048-.018.05-.017.049-.017.05-.017.05-.015.05-.015.052-.015.052-.013.052-.013.053-.011.053-.011.053-.01.054-.01.054-.007.055-.007.054-.006.055-.005.055-.003.055-.003.055-.001z"/><path d="M10.2 3.758a.5.5 0 0 1 .5.5v10.203a.5.5 0 1 1-1 0V4.258a.5.5 0 0 1 .5-.5"/></svg>
