<svg xmlns="http://www.w3.org/2000/svg" class="icon icon-accordion icon-pants" viewBox="0 0 20 20"><path d="M5.386 1.093c-.31 0-.567.26-.567.574v2.13L2.59 17.545a.567.567 0 0 0 .453.663h.003l3.978.695a.8.8 0 0 0 .47-.102.56.56 0 0 0 .213-.35l.001-.01 1.515-8.895c.154-.908 1.44-.908 1.594 0l1.505 8.833a.555.555 0 0 0 .55.472 1 1 0 0 0 .099-.004h.001l3.972-.693a.58.58 0 0 0 .37-.23.64.64 0 0 0 .102-.447l-2.24-13.788-.037-.358-.02-.189V1.667a.574.574 0 0 0-.566-.574zm-1.645.574A1.66 1.66 0 0 1 5.386 0h9.167c.906 0 1.645.75 1.645 1.667v1.58l2.282 14.061c.065.427-.032.87-.275 1.232a1.66 1.66 0 0 1-1.062.688l-.01.002-3.982.695h-.002c-.111.02-.205.019-.269.019h-.008a1.64 1.64 0 0 1-1.616-1.386v-.003l-1.237-7.263-1.248 7.33a1.67 1.67 0 0 1-.668 1.083l-.028.02-.03.017a1.9 1.9 0 0 1-.923.258h-.008c-.064 0-.158 0-.269-.019h-.003l-3.977-.695h-.002c-.892-.152-1.498-1.018-1.337-1.932L3.741 3.707z"/><path d="M15.176 3.689H4.82v-.547h10.3z"/></svg>
