<svg xmlns="http://www.w3.org/2000/svg" class="icon icon-accordion icon-shoe" viewBox="0 0 20 20"><path d="M12.822 4.032h-.02a.53.53 0 0 0-.524.44 7.5 7.5 0 0 1-.812 2.322c-.625 1.136-1.74 2.39-3.65 2.699-1.98.321-3.7.665-4.924 1.268-.603.297-1.056.643-1.359 1.055-.297.404-.471.9-.471 1.542v2.095c0 .247.184.457.425.505h16.92a.526.526 0 0 0 .531-.516v-1.444c.006-.202.007-.331.004-.516l-.004-.134v-8.12a.524.524 0 0 0-.466-.509h-.003l-5.637-.685zM2.123 16.99V17h-.53C.714 17 0 16.305 0 15.453v-2.094c0-.84.233-1.55.67-2.144.431-.586 1.04-1.028 1.743-1.375 1.39-.684 3.269-1.047 5.228-1.365 1.466-.237 2.352-1.192 2.889-2.168a6.6 6.6 0 0 0 .687-1.918l.008-.05v-.007C11.339 3.556 12.024 3 12.804 3h.007c.034 0 .116 0 .209.017l5.58.678c.797.095 1.4.757 1.4 1.533v8.126q.002.042-.006.12l.001.009.005.082v1.877c0 .852-.715 1.548-1.592 1.548z"/><path d="M18.938 13.998H1.062v-.516h17.88l.004.25z"/></svg>
