<svg xmlns="http://www.w3.org/2000/svg" class="icon icon-accordion icon-washing" viewBox="0 0 20 20"><path d="M.382 4.265a.505.505 0 0 1 .613.364l2.538 10.022c.016.06.067.097.125.097h12.684a.13.13 0 0 0 .125-.097v-.001l2.538-10.021a.505.505 0 0 1 .98.244l-2.54 10.025v.004c-.13.495-.578.848-1.103.848H3.658c-.525 0-.973-.353-1.103-.848v-.004L.014 4.873a.5.5 0 0 1 .367-.608"/><path d="M6.762 7.362c-.65-.16-1.36.001-2.008.354l-.008.004-.009.004a8 8 0 0 0-.526.295c-.112.067-.23.138-.366.213-.321.18-.69.362-1.117.447l-.008.002c-.63.116-1.18-.122-1.592-.341l.476-.884c.372.198.656.289.928.24.27-.055.528-.174.816-.336q.135-.076.293-.17c.202-.12.425-.252.635-.357.786-.426 1.757-.683 2.726-.444.694.162 1.31.522 1.84.832q.143.085.278.16c.423.235.741.368 1.032.325.422-.093.806-.31 1.266-.578l.046-.027c.427-.25.927-.543 1.504-.68 1.004-.282 2.042-.026 2.857.436.186.096.385.213.57.32q.159.095.297.173c.275.154.528.275.79.344.174.046.362.029.584-.048a3 3 0 0 0 .434-.2l.484.88a4 4 0 0 1-.585.266c-.344.12-.747.184-1.177.07a4.4 4.4 0 0 1-1.026-.44 18 18 0 0 1-.359-.207c-.164-.096-.316-.185-.487-.274l-.01-.005-.009-.005c-.658-.375-1.421-.536-2.096-.344l-.012.004-.012.002c-.427.1-.813.324-1.28.598l-.008.005c-.443.259-.964.563-1.573.692l-.012.003-.011.002c-.685.112-1.3-.215-1.702-.438l-.005-.003-.319-.184c-.535-.31-1-.58-1.533-.705z"/></svg>
