<svg class="icon icon-snapchat" viewBox="0 0 20 20"><path fill="currentColor" fill-rule="evenodd" d="M17.388 15.396a5 5 0 0 1-1.111.445c-.074.23-.236.564-.596.813a1.9 1.9 0 0 1-.9.308c-.14.015-.313.021-.443.026l-.092.004c-.317.014-.624.042-.958.154l-.002.001a1.7 1.7 0 0 0-.331.168l-.138.085c-.14.087-.33.205-.497.298a4.6 4.6 0 0 1-2.321.602 4.55 4.55 0 0 1-2.315-.602c-.164-.091-.355-.21-.495-.297l-.14-.086a2 2 0 0 0-.338-.172 3.4 3.4 0 0 0-.96-.154l-.09-.003c-.13-.006-.304-.013-.445-.027-.15-.016-.541-.06-.9-.31a1.56 1.56 0 0 1-.593-.809 4.8 4.8 0 0 1-1.112-.446 1.9 1.9 0 0 1-.628-.535 1.44 1.44 0 0 1-.21-1.306 1.5 1.5 0 0 1 .53-.724c.137-.104.27-.17.323-.196 1.23-.604 1.77-1.38 1.996-1.833l-.18-.118c-.167-.11-.342-.223-.438-.291-.252-.178-.572-.449-.779-.85a1.8 1.8 0 0 1-.087-1.473l.002-.005c.344-.922 1.2-1.14 1.704-1.14h.07q.005-.335.033-.678A4.6 4.6 0 0 1 6.132 3.35l.007-.007a5.1 5.1 0 0 1 1.773-1.247 5.1 5.1 0 0 1 2.108-.394c2.272.008 3.522 1.273 3.855 1.655a4.6 4.6 0 0 1 1.176 2.884c.019.227.028.456.032.678h.088c.521.005 1.346.242 1.684 1.133l.005.012a1.8 1.8 0 0 1-.09 1.477c-.209.401-.531.672-.786.85a19 19 0 0 1-.402.267l-.209.138c.224.45.76 1.226 1.994 1.827l.01.004.008.004c.056.029.188.097.325.203.12.093.388.323.52.724.16.493.028.963-.207 1.292a1.9 1.9 0 0 1-.627.541zm-3.315-5.268c.088-.083.33-.248.574-.41l.255-.169.084-.055.217-.144.018-.013.018-.012c.36-.25.514-.504.401-.811-.081-.214-.28-.295-.486-.295a.8.8 0 0 0-.194.02 3 3 0 0 0-.403.12l-.179.068-.013.005-.058.023q-.139.055-.248.093-.05.017-.091.027c-.029.012-.057.012-.082.012-.117 0-.161-.053-.153-.196l.003-.048.017-.264a20 20 0 0 0 .03-.785v-.03a10 10 0 0 0-.03-.943 3.3 3.3 0 0 0-.85-2.102c-.199-.23-1.13-1.217-2.904-1.217a3.8 3.8 0 0 0-1.583.292c-.5.21-.951.527-1.32.93a3.3 3.3 0 0 0-.851 2.101 10 10 0 0 0-.026 1.198l.01.246a22 22 0 0 0 .033.576q0 .028.003.054c.008.135-.032.192-.154.192l-.08-.008-.087-.025a5 5 0 0 1-.254-.096l-.054-.022-.072-.029-.123-.046-.008-.003a3 3 0 0 0-.447-.128 1 1 0 0 0-.142-.011c-.207 0-.405.077-.486.295-.114.307.04.561.397.811l.089.061.274.181.238.156c.243.161.482.323.569.405.175.165.16.293.14.452l-.002.02c-.014.115-.304 1.492-1.926 2.641a6 6 0 0 1-.51.327 7 7 0 0 1-.428.228c-.141.07-.388.217.045.459q.126.069.24.121h.001c.247.113.46.174.65.225l.035.01q.089.022.17.046c.14.042.267.088.382.163.16.104.182.274.203.432.018.133.035.258.133.326.117.082.333.091.623.103.375.015.873.036 1.443.225.287.097.536.253.8.416.514.322 1.08.674 2.075.674 1 0 1.572-.356 2.087-.677.261-.162.508-.315.788-.409.572-.192 1.073-.212 1.448-.226.289-.011.503-.02.617-.102.101-.068.118-.193.135-.328.021-.157.044-.328.206-.434.116-.075.244-.121.388-.163l.2-.056a4 4 0 0 0 .642-.222 4 4 0 0 0 .248-.124c.429-.242.186-.394.04-.468a7 7 0 0 1-.423-.223l-.01-.005a7 7 0 0 1-.5-.319c-1.629-1.145-1.916-2.526-1.93-2.649v-.002c-.024-.163-.044-.293.138-.465m-10.3 4.838h.002Zm.106-1.842h-.002Zm-.249 2.255" clip-rule="evenodd"/></svg>
