<svg class="basket-icon" xmlns="http://www.w3.org/2000/svg" xmlns:xlink="http://www.w3.org/1999/xlink" version="1.1" id="Capa_1" x="0px" y="0px" viewBox="0 0 512 512" style="enable-background:new 0 0 512 512;" xml:space="preserve" width="30" height="30" fill="white">
  <g>
    <g>
      <path d="M351.383,34.694l-4.804-0.974c-9.129-1.85-16.223-8.944-18.073-18.072l-0.974-4.804C326.238,4.46,320.783,0,314.268,0    c0,0,0,0-0.001,0c-6.515,0-11.97,4.459-13.265,10.846l-0.974,4.804c-1.851,9.128-8.944,16.223-18.073,18.072l-4.804,0.974    c-6.386,1.295-10.845,6.749-10.845,13.265c0,6.515,4.459,11.97,10.845,13.265l4.804,0.974c9.129,1.85,16.223,8.944,18.073,18.072    l0.974,4.805c1.295,6.386,6.75,10.846,13.266,10.845c6.516,0,11.971-4.46,13.264-10.846l0.974-4.804    c1.851-9.128,8.944-16.222,18.073-18.073l4.804-0.974c6.386-1.294,10.845-6.749,10.845-13.265    C362.227,41.444,357.768,35.989,351.383,34.694z M314.267,74.511c-3.608-12.896-13.657-22.944-26.552-26.551    c12.895-3.608,22.944-13.655,26.552-26.551c3.608,12.896,13.657,22.943,26.552,26.551    C327.923,51.568,317.874,61.616,314.267,74.511z"/>
    </g>
  </g>
  <g>
    <g>
      <path d="M422.557,41.814c-4.199,0-7.601,3.403-7.601,7.601v20.142c0,4.198,3.403,7.601,7.601,7.601    c4.199,0,7.601-3.403,7.601-7.601V49.414C430.158,45.217,426.756,41.814,422.557,41.814z"/>
    </g>
  </g>
  <g>
    <g>
      <path d="M422.557,96.041c-4.199,0-7.601,3.403-7.601,7.601v20.142c0,4.198,3.403,7.601,7.601,7.601    c4.199,0,7.601-3.403,7.601-7.601v-20.142C430.158,99.444,426.756,96.041,422.557,96.041z"/>
    </g>
  </g>
  <g>
    <g>
      <path d="M459.741,78.998H439.6c-4.199,0-7.601,3.403-7.601,7.601s3.402,7.601,7.601,7.601h20.142c4.199,0,7.601-3.403,7.601-7.601    S463.94,78.998,459.741,78.998z"/>
    </g>
  </g>
  <g>
    <g>
      <path d="M405.514,78.998h-20.142c-4.199,0-7.601,3.403-7.601,7.601s3.402,7.601,7.601,7.601h20.142    c4.199,0,7.601-3.403,7.601-7.601S409.713,78.998,405.514,78.998z"/>
    </g>
  </g>
  <g>
    <g>
      <path d="M73.743,82.901c-4.199,0-7.601,3.403-7.601,7.601v20.142c0,4.198,3.402,7.601,7.601,7.601s7.601-3.403,7.601-7.601V90.501    C81.344,86.304,77.942,82.901,73.743,82.901z"/>
    </g>
  </g>
  <g>
    <g>
      <path d="M73.743,137.127c-4.199,0-7.601,3.403-7.601,7.601v20.142c0,4.198,3.402,7.601,7.601,7.601s7.601-3.403,7.601-7.601    v-20.142C81.344,140.53,77.942,137.127,73.743,137.127z"/>
    </g>
  </g>
  <g>
    <g>
      <path d="M110.926,120.085H90.786c-4.199,0-7.601,3.403-7.601,7.601c0,4.198,3.403,7.601,7.601,7.601h20.141    c4.199,0,7.601-3.403,7.601-7.601C118.527,123.488,115.125,120.085,110.926,120.085z"/>
    </g>
  </g>
  <g>
    <g>
      <path d="M56.701,120.085H36.56c-4.199,0-7.601,3.403-7.601,7.601c0,4.198,3.402,7.601,7.601,7.601h20.142    c4.199,0,7.601-3.403,7.601-7.601C64.302,123.488,60.9,120.085,56.701,120.085z"/>
    </g>
  </g>
  <g>
    <g>
      <path d="M351.059,156.879c-4.137-0.612-8.016,2.255-8.63,6.408c-0.612,4.153,2.256,8.016,6.408,8.63    c36.238,5.354,66.794,13.694,88.367,24.121c19.756,9.547,30.635,20.283,30.635,30.227c0,14.243-21.994,29.612-58.834,41.115    c-40.668,12.697-94.88,19.69-152.653,19.69c-57.774,0-111.987-6.993-152.654-19.69c-36.84-11.502-58.834-26.873-58.834-41.115    c0-18.637,39.806-43.953,127.203-55.495c4.162-0.549,7.09-4.369,6.541-8.53c-0.549-4.162-4.364-7.09-8.531-6.541    c-39.921,5.272-74.01,14.062-98.585,25.42c-19.082,8.819-41.828,23.81-41.828,45.146c0,15.476,12.058,37.689,69.504,55.626    c42.094,13.143,97.917,20.381,157.185,20.381c59.269,0,115.09-7.238,157.185-20.381c57.447-17.937,69.504-40.15,69.504-55.626    C483.041,195.029,433.702,169.089,351.059,156.879z"/>
    </g>
  </g>
  <g>
    <g>
      <path d="M378.638,213.016l-0.246-0.058c-4.087-0.959-8.177,1.574-9.138,5.661c-0.612,2.608,0.197,5.217,1.926,7.014    c-32.837,7.337-73.422,11.361-114.829,11.361c-41.403-0.001-81.989-4.026-114.827-11.362c1.729-1.797,2.539-4.406,1.925-7.014    c-0.959-4.087-5.055-6.62-9.137-5.661l-0.255,0.061c-6.265,1.48-10.473,6.803-10.473,13.247c0,6.444,4.208,11.769,10.481,13.25    l0.243,0.057c34.573,8.139,77.916,12.622,122.043,12.622c44.126,0,87.469-4.482,122.04-12.621l0.255-0.06    c6.264-1.48,10.472-6.804,10.472-13.248C389.118,219.821,384.911,214.497,378.638,213.016z"/>
    </g>
  </g>
  <g>
    <g>
      <path d="M388.734,292.951c-4.199,0-7.601,3.403-7.601,7.601v162.514c0,13.754-48.61,33.733-124.781,33.733    S131.57,476.82,131.57,463.066v-31.552c0-4.198-3.402-7.601-7.601-7.601c-4.199,0-7.601,3.403-7.601,7.601v31.552    c0,14.857,15.253,27.473,44.109,36.482C186.195,507.577,220.244,512,256.351,512c36.107,0,70.157-4.423,95.874-12.452    c28.857-9.009,44.109-21.625,44.109-36.482V300.552C396.335,296.354,392.933,292.951,388.734,292.951z"/>
    </g>
  </g>
  <g>
    <g>
      <path d="M123.969,292.951c-4.199,0-7.601,3.403-7.601,7.601v105.626c0,4.198,3.403,7.601,7.601,7.601    c4.199,0,7.601-3.403,7.601-7.601V300.552C131.57,296.354,128.168,292.951,123.969,292.951z"/>
    </g>
  </g>
  <g>
    <g>
      <path d="M212.717,53.608c-1.73-5.326-6.248-9.135-11.791-9.941l-18.41-2.675l-8.234-16.682c-2.478-5.023-7.496-8.142-13.097-8.142    c-5.601,0-10.62,3.119-13.097,8.142l-8.234,16.683l-18.411,2.675c-5.542,0.806-10.06,4.615-11.79,9.942    c-1.731,5.326-0.315,11.063,3.695,14.971l13.324,12.984l-3.146,18.337c-0.947,5.52,1.282,10.994,5.812,14.285    c2.56,1.86,5.555,2.804,8.57,2.804c2.321,0,4.655-0.56,6.81-1.693l16.467-8.657l16.467,8.658    c4.959,2.605,10.852,2.18,15.383-1.112c4.531-3.292,6.756-8.766,5.809-14.285L195.7,81.565l13.322-12.985    C213.033,64.671,214.448,58.934,212.717,53.608z M184.863,70.899c-3.443,3.356-5.012,8.189-4.2,12.927l2.993,17.455l-15.676-8.241    c-2.128-1.119-4.462-1.678-6.797-1.678c-2.335,0-4.669,0.559-6.797,1.678l-15.676,8.241l2.994-17.455    c0.814-4.739-0.757-9.571-4.201-12.928l-12.683-12.362l17.527-2.547c4.758-0.691,8.87-3.678,10.999-7.99l7.838-15.881l7.838,15.88    c2.128,4.312,6.239,7.3,10.998,7.991l17.526,2.547L184.863,70.899z"/>
    </g>
  </g>
  <g>
    <g>
      <path d="M209.429,134.838c-1.101-4.053-5.279-6.444-9.327-5.346c-4.052,1.1-6.444,5.275-5.345,9.326    c10.546,38.86,10.687,82.646,10.687,83.084c0.002,4.197,3.404,7.599,7.601,7.599c0,0,0.001,0,0.002,0    c4.198-0.001,7.599-3.403,7.599-7.6C220.645,220.034,220.518,175.702,209.429,134.838z"/>
    </g>
  </g>
  <g>
    <g>
      <path d="M252.612,74.806c-4.199,0-7.601,3.403-7.601,7.601v99.926c0,4.198,3.402,7.601,7.601,7.601s7.601-3.403,7.601-7.601    V82.406C260.212,78.209,256.81,74.806,252.612,74.806z"/>
    </g>
  </g>
  <g>
    <g>
      <path d="M347.314,102.873c-3.513-2.299-8.223-1.318-10.523,2.194c-29.074,44.396-29.41,113.895-29.41,116.833    c0,4.197,3.401,7.598,7.598,7.6c0.001,0,0.002,0,0.003,0c4.196,0,7.598-3.401,7.601-7.597    c0.001-0.675,0.359-67.942,26.926-108.507C351.808,109.884,350.825,105.173,347.314,102.873z"/>
    </g>
  </g>
  <g>
    <g>
      <path d="M292.124,117.403c-4.161-0.409-7.896,2.645-8.305,6.822l-5.067,51.682c-0.409,4.178,2.644,7.897,6.822,8.306    c0.25,0.025,0.501,0.037,0.75,0.037c3.864,0,7.17-2.934,7.555-6.86l5.067-51.682C299.356,121.53,296.302,117.812,292.124,117.403z    "/>
    </g>
  </g>
  <g>
  </g>
  <g>
  </g>
  <g>
  </g>
  <g>
  </g>
  <g>
  </g>
  <g>
  </g>
  <g>
  </g>
  <g>
  </g>
  <g>
  </g>
  <g>
  </g>
  <g>
  </g>
  <g>
  </g>
  <g>
  </g>
  <g>
  </g>
  <g>
  </g>
  </svg>
