<svg xmlns="http://www.w3.org/2000/svg" class="icon icon-accordion icon-carrot" viewBox="0 0 20 20"><path d="M13.2 3.2c.87.248 1.604.806 2.183 1.384.838.838 1.293 1.714 1.428 2.588.136.874-.055 1.699-.428 2.425-.442.86-1.221 1.436-1.921 1.89L2.626 19.163a1.188 1.188 0 0 1-1.65-1.633l7.63-12.04c.411-.648.922-1.36 1.672-1.82 1.038-.637 2.03-.724 2.923-.47m-.273.963c-.617-.176-1.32-.134-2.126.36-.541.332-.95.873-1.35 1.504L1.82 18.065a.188.188 0 0 0 .261.258l11.836-7.675c.685-.444 1.263-.9 1.576-1.508.294-.574.427-1.187.33-1.815-.098-.626-.431-1.316-1.149-2.034-.518-.518-1.108-.947-1.748-1.128"/><path d="M10.767 12.868a.25.25 0 0 1-.353.014L8.908 11.49a.25.25 0 0 1 .339-.367l1.506 1.392a.25.25 0 0 1 .014.353m.393-4.444a.25.25 0 0 1-.353.016l-2.29-2.1a.25.25 0 1 1 .338-.368l2.29 2.1a.25.25 0 0 1 .015.352m5.327-5.394a.25.25 0 0 1 0 .354L15.119 4.75a.25.25 0 1 1-.354-.353l1.368-1.368a.25.25 0 0 1 .354 0M6.248 14.6a.25.25 0 0 1-.353.014L4.389 13.22a.25.25 0 1 1 .34-.367l1.505 1.392a.25.25 0 0 1 .014.354"/><path d="M15.149 1.795c-.338.372-.634.628-.937.782a1.74 1.74 0 0 1-.902.183h-.812c-.7.06-1.053.693-1.046 1.183l-1 .013c-.012-.85.595-2.093 1.99-2.195l.018-.001h.881c.18.008.29-.01.417-.074.148-.075.35-.232.666-.58l.015-.017.017-.016A2.44 2.44 0 0 1 16.07.42c.662-.01 1.367.252 2.046.866.311.281.753.747.945 1.372.205.666.102 1.433-.532 2.223l-.02.025-.023.022c-.16.155-.231.245-.275.362-.046.122-.08.33-.037.737l.102.77c.06.436-.085.952-.374 1.378-.3.44-.782.83-1.446.956l-.187-.982c.366-.07.633-.281.806-.535.182-.269.23-.54.21-.681V6.93l-.105-.789c-.052-.489-.028-.873.094-1.2.12-.32.315-.533.493-.708.428-.544.436-.963.338-1.28-.111-.363-.389-.68-.66-.924-.523-.473-.99-.614-1.36-.608a1.44 1.44 0 0 0-.935.374"/></svg>
