<svg xmlns="http://www.w3.org/2000/svg" fill="none" class="icon icon-3d-model" viewBox="0 0 18 21"><path fill="currentColor" d="m7.68 20.629-6.4-3.906A2.71 2.71 0 0 1 0 14.405v-7.81a2.72 2.72 0 0 1 1.278-2.318l6.4-3.9a2.52 2.52 0 0 1 2.644-.003l6.4 3.9A2.72 2.72 0 0 1 18 6.6v7.809a2.71 2.71 0 0 1-1.279 2.318l-6.4 3.906A2.54 2.54 0 0 1 9 21a2.54 2.54 0 0 1-1.32-.371M8.724 2.078l-6.4 3.9a.71.71 0 0 0-.321.612v7.81a.71.71 0 0 0 .32.61L8 18.48v-7.561a1.77 1.77 0 0 1 .934-1.555l6.512-3.523L9.28 2.08a.52.52 0 0 0-.556-.002"/></svg>
