<svg xmlns="http://www.w3.org/2000/svg" class="icon icon-accordion icon-fire" viewBox="0 0 20 20"><path d="m10.289.196-.272.419-.284-.412a.5.5 0 0 1 .556-.007m-.265 1.028-.056.041A31.4 31.4 0 0 0 6.36 4.368c-.987.995-1.96 2.135-2.685 3.328-.727 1.198-1.181 2.413-1.181 3.569 0 4.807 3.892 7.524 7.376 7.618 3.464.093 7.636-2.675 7.636-7.711 0-1.218-.454-2.458-1.176-3.653-.72-1.194-1.688-2.313-2.67-3.28a28.6 28.6 0 0 0-3.586-2.98zm7.162 5.778c.777 1.286 1.32 2.706 1.32 4.17 0 5.686-4.729 8.816-8.663 8.71-3.915-.105-8.35-3.164-8.35-8.617 0-1.41.55-2.807 1.327-4.088.78-1.284 1.811-2.486 2.83-3.513A32.4 32.4 0 0 1 9.707.22l.019-.013.005-.004.002-.001.284.412.272-.42.002.002.005.003.02.013a10 10 0 0 1 .33.226 29.6 29.6 0 0 1 3.717 3.088c1.016 1.001 2.045 2.186 2.823 3.475"/><path d="m10.298 6.54-.288.408-.3-.401a.5.5 0 0 1 .588-.008m-.28 1.038A19.6 19.6 0 0 0 7.93 9.54c-.597.652-1.183 1.396-1.617 2.173-.436.779-.702 1.56-.702 2.293 0 3.136 2.146 4.88 4.301 4.88 2.18 0 4.477-1.677 4.477-4.942 0-1.572-1.097-3.197-2.305-4.49a18 18 0 0 0-2.066-1.876m2.797 1.194c1.23 1.317 2.574 3.19 2.574 5.172 0 3.84-2.767 5.941-5.477 5.941-2.734 0-5.3-2.217-5.3-5.88 0-.966.346-1.918.828-2.78.485-.867 1.124-1.674 1.752-2.36A20.6 20.6 0 0 1 9.65 6.592l.044-.033.012-.01.003-.002.002-.001.3.4.287-.408.002.001.003.003.012.008.045.032.162.121a19 19 0 0 1 2.293 2.068"/></svg>
