<svg xmlns="http://www.w3.org/2000/svg" class="icon icon-accordion icon-ruler" viewBox="0 0 20 20"><path fill-rule="evenodd" d="M18.984 5.329 14.67 1.016 1.017 14.672l4.313 4.312zM15.39.298a1.016 1.016 0 0 0-1.437 0L.298 13.953a1.016 1.016 0 0 0 0 1.437l4.312 4.312c.397.397 1.04.397 1.437 0L19.702 6.047a1.016 1.016 0 0 0 0-1.437z"/><path d="M11.786 2.67a.51.51 0 0 1 .719 0l1.919 1.92a.508.508 0 1 1-.719.718l-1.919-1.919a.51.51 0 0 1 0-.718M8.939 5.363a.51.51 0 0 1 .719 0l1.918 1.919a.508.508 0 1 1-.718.719l-1.92-1.919a.51.51 0 0 1 0-.719M6.243 8.207a.51.51 0 0 1 .719 0l1.918 1.92a.508.508 0 0 1-.718.718L6.243 8.926a.51.51 0 0 1 0-.719m-2.87 2.671a.51.51 0 0 1 .719 0l1.918 1.918a.508.508 0 0 1-.718.719l-1.919-1.919a.51.51 0 0 1 0-.718"/></svg>
