<svg width="20" height="20" viewBox="0 0 20 20" fill="none" xmlns="http://www.w3.org/2000/svg">
<path class="remove-icon-bottom" d="M11.5 9v4.25M8.5 9v4.25M5.75 12.2V6h8.5c0 2.421 0 3.779 0 6.2 0 .853 0 1.447-.038 1.91-.037.453-.106.714-.207.911a2.498 2.498 0 0 1-.983 1.017c-.197.1-.458.17-.911.207-.463.037-1.057.038-1.91.038h-.4c-.853 0-1.447 0-1.91-.038-.453-.037-.714-.106-.911-.207a2.498 2.498 0 0 1-.984-1.017c-.1-.197-.17-.458-.207-.911C5.75 13.647 5.75 13.053 5.75 12.2z" stroke="currentColor" stroke-width="var(--icon-stroke-width)" stroke-linecap="round"/>
<path class="remove-icon-top" d="M4.25 6h11.5M8 5.25a2 2 0 1 1 4 0" stroke="currentColor" stroke-width="var(--icon-stroke-width)" stroke-linecap="round" stroke-linejoin="round"/>
</svg>
