<svg xmlns="http://www.w3.org/2000/svg" class="icon icon-accordion icon-pepper" viewBox="0 0 20 20"><path fill-rule="evenodd" d="M13.87.566a.5.5 0 0 1 .5-.5h1.793a.5.5 0 0 1 .5.5v1.435a4 4 0 0 1 .573.327c.226.158.391.321.574.508.578.59.874 1.23.771 1.76a.83.83 0 0 1-.499.632c-.16 3.284-1.218 5.937-3.058 8.155-1.92 2.315-4.666 4.128-8.053 5.709-1.132.528-2.31.824-3.296.836-.94.01-1.92-.245-2.298-1.084-.203-.447-.265-.879-.113-1.297.143-.394.446-.69.764-.941.233-.184.52-.379.828-.587l.338-.23c.443-.304.937-.661 1.463-1.119q.397-.345.815-.7c.93-.793 1.918-1.636 2.8-2.566 1.144-1.207 2.053-2.505 2.388-3.931.041-.174.064-.387.088-.652l.009-.105c.02-.23.042-.488.081-.746a3.7 3.7 0 0 1 .342-1.138 1 1 0 0 1-.085-.094c-.217-.28-.19-.644-.119-.946.08-.334.311-.61.546-.82.244-.22.55-.418.866-.583a5.4 5.4 0 0 1 1.482-.52zm-1.463 4.302.006-.002c.114-.05.212-.102.262-.129.067-.02.218-.022.42.07.21.094.368.242.433.371.352.703 1.056.836 1.589.766.27-.036.53-.124.748-.24.205-.111.427-.276.556-.5.024-.042.128-.14.312-.186a.57.57 0 0 1 .357.015c-.126 3.149-1.115 5.637-2.835 7.712-1.787 2.154-4.387 3.891-7.707 5.44-1.034.483-2.072.733-2.885.743-.86.01-1.26-.24-1.375-.495-.134-.297-.119-.448-.084-.545.045-.123.163-.275.444-.498.202-.16.443-.322.736-.52l.376-.257c.458-.314.988-.696 1.554-1.189q.373-.324.782-.671c.936-.798 1.98-1.688 2.902-2.661 1.193-1.258 2.24-2.712 2.636-4.39.06-.253.087-.534.11-.793l.01-.11c.02-.232.039-.455.073-.678.076-.498.214-.91.514-1.213zm5.126-.732c-.066-.148-.194-.352-.438-.6a3 3 0 0 0-.431-.388c-.147-.103-.345-.211-.703-.37a.5.5 0 0 1-.298-.457V1.066h-.793v1.255a.5.5 0 0 1-.5.5c-.376 0-.976.173-1.52.456-.266.138-.495.29-.66.439-.12.107-.184.192-.215.248q.139-.076.299-.144c.412-.173.878-.084 1.231.074.362.163.723.45.917.836.087.175.264.262.564.222.147-.02.291-.068.406-.13a.6.6 0 0 0 .161-.116l.001-.001c.196-.34.569-.564.935-.656.316-.08.695-.078 1.044.087"/></svg>
