<svg width="103" height="41" viewBox="0 0 103 41" fill="none" xmlns="http://www.w3.org/2000/svg">
<path d="M79.6491 0.557954L100.968 16.9872C103.459 18.9066 103.459 22.0158 100.968 23.9351L79.5495 40.4412C79.3901 40.564 79.141 40.564 78.9816 40.4412L75.0366 37.401C74.8772 37.2782 74.8772 37.0863 75.0366 36.9634L92.5401 23.4745C92.7891 23.2826 92.6098 22.9525 92.2612 22.9525H1.20708C0.987912 22.9525 0.808594 22.8143 0.808594 22.6454V18.3461C0.808594 18.1772 0.987912 18.039 1.20708 18.039H92.3707C92.7294 18.039 92.8987 17.7089 92.6497 17.517L75.1462 4.02806C74.9868 3.90523 74.9868 3.7133 75.1462 3.59046L79.0912 0.550276C79.2406 0.435117 79.4996 0.435118 79.6491 0.557954Z" fill="white"/>
</svg>
