<svg xmlns="http://www.w3.org/2000/svg" fill="none" viewBox="0 0 15 14"><path fill="currentColor" fill-opacity=".75" fill-rule="evenodd" d="M14.5 7a7 7 0 1 1-14 0 7 7 0 0 1 14 0m-7 6.174A6.174 6.174 0 1 0 7.5.826a6.174 6.174 0 0 0 0 12.348" clip-rule="evenodd"/><path fill="currentColor" fill-opacity=".75" fill-rule="evenodd" d="M8.192 3.554c0-.39-.276-.725-.69-.725-.41 0-.696.329-.696.725 0 .392.29.719.696.719.411 0 .69-.332.69-.72" clip-rule="evenodd"/><path fill="currentColor" fill-opacity=".75" d="M6.971 5.724a.33.33 0 0 1 .33-.33H7.7a.33.33 0 0 1 .33.33v5.123a.33.33 0 0 1-.33.33h-.397a.33.33 0 0 1-.33-.33z"/></svg>
