<svg xmlns="http://www.w3.org/2000/svg" class="icon icon-accordion icon-serving-dish" viewBox="0 0 20 20"><path d="M10 7.229c-4.164 0-7.558 3.453-7.558 7.736a.5.5 0 0 1-1 0c0-4.815 3.821-8.736 8.558-8.736s8.558 3.921 8.558 8.736a.5.5 0 0 1-1 0c0-4.283-3.394-7.736-7.558-7.736"/><path d="M.473 14.987a.5.5 0 0 1 .5-.5h18.054a.5.5 0 1 1 0 1H.973a.5.5 0 0 1-.5-.5m5.62-5.085a.25.25 0 0 1-.119.333c-.46.219-1.449 1.029-1.54 2.459a.25.25 0 1 1-.5-.032c.107-1.658 1.247-2.604 1.826-2.879a.25.25 0 0 1 .333.12"/><path fill-rule="evenodd" d="M10.49 5.048h-.98a1 1 0 0 0-1 1v.147h2.98v-.147a1 1 0 0 0-1-1m-.98-1a2 2 0 0 0-2 2v1.147h4.98V6.048a2 2 0 0 0-2-2z"/></svg>
