<svg xmlns="http://www.w3.org/2000/svg" class="icon icon-accordion icon-leather" viewBox="0 0 20 20"><path d="M7.979 1.556a.506.506 0 0 0-.486.392l-.002.007a8 8 0 0 1-.273.897c-.12.31-.293.653-.558.92-.711.723-1.725.809-2.507.809q-.432 0-.858-.106a1.4 1.4 0 0 1-.208-.056.5.5 0 0 0-.15-.024.54.54 0 0 0-.238.057.48.48 0 0 0-.247.292l-.37 1.216a.51.51 0 0 0 .327.637 4.28 4.28 0 0 1 1.717 7.1l-.005.005a4.3 4.3 0 0 1-1.458.951.51.51 0 0 0-.293.625v-.003.005-.002l.554 1.787-.001-.004.003.01-.002-.006a.54.54 0 0 0 .313.329l-.017-.005.029.009-.012-.004c.082.022.13.028.173.028.09 0 .2-.033.292-.099.287-.203.602-.366.91-.491l.008-.003q.73-.285 1.523-.284c.97 0 1.912.342 2.655.944l.01.008.012.01c.088.08.188.168.29.27l-.008-.008.015.015-.007-.007c.16.148.292.306.409.468l-.004-.004.01.012q-.005-.003-.006-.008c.098.126.25.2.399.2V19.5c-.489 0-.953-.235-1.247-.622l-.005-.007-.005-.006a2 2 0 0 0-.279-.321l-.008-.008-.007-.007a6 6 0 0 0-.246-.228l.009.007-.019-.016.01.009a3.17 3.17 0 0 0-1.978-.7q-.596 0-1.133.21l.003-.002-.007.003.004-.002a3.5 3.5 0 0 0-.694.374 1.6 1.6 0 0 1-.906.294c-.18 0-.335-.034-.47-.07l-.014-.004-.014-.005a1.6 1.6 0 0 1-.994-1.006l-.003-.01-.559-1.801c-.23-.768.15-1.613.924-1.913h.002a3.2 3.2 0 0 0 1.096-.72l-.002.003.005-.005-.003.003A3.228 3.228 0 0 0 2.083 7.6H2.08a1.565 1.565 0 0 1-1.012-1.945v-.001l.372-1.219c.125-.408.408-.739.784-.927a1.6 1.6 0 0 1 .712-.17c.18 0 .337.034.473.074l.022.007.021.009.01.002.053.012.012.002.012.003q.31.077.614.077c.765 0 1.37-.104 1.752-.493l.003-.004q.175-.175.322-.556c.096-.249.168-.518.235-.778v.004l.001-.007v.003A1.56 1.56 0 0 1 7.978.5h3.63c.726 0 1.345.504 1.515 1.198V1.7c.06.247.135.517.235.764.103.252.217.444.337.564.425.426 1.082.652 1.75.652q.176 0 .353-.025a2.6 2.6 0 0 0 .616-.177 1.54 1.54 0 0 1 1.285.003c.394.182.71.521.84.961l.39 1.155.003.01c.122.41.08.86-.142 1.24s-.596.643-1.013.736l-.007.001a4 4 0 0 0-.626.198c-.381.17-.735.41-1.036.711a3.36 3.36 0 0 0-.99 2.384c0 .905.348 1.75.988 2.382l.002.003c.375.375.82.652 1.32.822.754.248 1.355 1.104 1.09 1.966l-.443 1.445v.003a1.55 1.55 0 0 1-1.028 1.028l-.006.002c-.132.04-.29.074-.462.074a1.57 1.57 0 0 1-.966-.329l-.003-.003a3 3 0 0 0-.668-.405h.002-.004.002a3.15 3.15 0 0 0-1.271-.265c-.721 0-1.413.245-1.966.699l.008-.007-.015.013.008-.006-.26.23.011-.01-.022.02.012-.01a3 3 0 0 0-.277.326l-.007.01.003-.004c-.281.41-.756.636-1.242.639v-1.056h-.007c.17 0 .308-.08.376-.18l.007-.01c.12-.17.253-.326.407-.48l.01-.011.298-.265.008-.006a4.15 4.15 0 0 1 2.648-.947c.588 0 1.156.118 1.696.353l.004.002c.318.142.614.319.896.542h-.002l.004.002-.002-.002a.5.5 0 0 0 .312.104.6.6 0 0 0 .153-.028h-.003l.006-.001h-.003a.5.5 0 0 0 .33-.332l.444-1.444c.065-.21-.095-.552-.412-.655l-.005-.002a4.46 4.46 0 0 1-1.73-1.076l.002.001-.003-.002.001.001a4.37 4.37 0 0 1-1.3-3.13c0-1.184.469-2.299 1.299-3.13a4.5 4.5 0 0 1 1.367-.936l.01-.004.011-.004a5 5 0 0 1 .803-.252h-.003.007-.004a.5.5 0 0 0 .325-.235.52.52 0 0 0 .045-.403l.004.011-.006-.02.002.01-.392-1.158-.003-.012a.48.48 0 0 0-.27-.306.48.48 0 0 0-.4 0l-.012.005a3.7 3.7 0 0 1-.88.254l-.01.001q-.252.037-.508.037c-.879 0-1.831-.294-2.5-.963-.261-.262-.44-.6-.567-.913a6.4 6.4 0 0 1-.283-.913.506.506 0 0 0-.486-.391z"/></svg>
