<svg xmlns="http://www.w3.org/2000/svg" viewBox="0 0 20 20" fill="none">
  <path stroke-linecap="round" stroke="currentColor" stroke-width="var(--icon-stroke-width)" d="M2.929 7.705c0-.482.154-.95.44-1.338L5.06 4.08c.303-.41.783-.652 1.293-.652h7.42c.525 0 1.018.257 1.319.69l1.577 2.266c.262.377.403.826.403 1.285v8.294c0 .888-.72 1.608-1.608 1.608H4.536c-.888 0-1.607-.72-1.607-1.608V7.705Z"/>
  <path stroke="currentColor" stroke-width="var(--icon-stroke-width)" d="M2.929 6.965h14.143M10 3.428v3.535M6.143 14.035v-2.571c0-.178.143-.321.321-.321h3.857c.178 0 .322.143.322.321v2.571a.321.321 0 0 1-.322.322H6.464a.321.321 0 0 1-.321-.322Z"/>
</svg>
