<svg width="20" height="20" viewBox="0 0 20 20" fill="none" xmlns="http://www.w3.org/2000/svg">
<path d="M14.0537 3.83667C14.643 3.35567 15.5109 3.3898 16.0605 3.93921C16.6102 4.48888 16.6451 5.35759 16.1641 5.94702L16.0605 6.0603L12.1211 9.99976L16.0605 13.9392L16.1641 14.0535C16.6449 14.6429 16.6101 15.5107 16.0605 16.0603C15.7682 16.3526 15.3835 16.4998 15 16.4998C14.6646 16.4997 14.3284 16.3869 14.0537 16.1628L13.9395 16.0603L10 12.1208L6.06055 16.0603C5.76823 16.3526 5.3835 16.4998 5 16.4998C4.61658 16.4997 4.2317 16.3526 3.93945 16.0603C3.35344 15.474 3.35328 14.5254 3.93945 13.9392L7.87891 9.99976L3.93945 6.0603C3.35344 5.47402 3.35327 4.52539 3.93945 3.93921C4.52563 3.35303 5.47427 3.3532 6.06055 3.93921L10 7.87866L13.9395 3.93921L14.0537 3.83667Z" fill="#DE3618" stroke="white"/>
</svg>
