<svg xmlns="http://www.w3.org/2000/svg" class="icon icon-accordion icon-dairy" viewBox="0 0 20 20"><path d="M6.468 3.065 4.297 6.088l-.812-.583 2.17-3.023zm8.662.087-1.65 3.084-.882-.472 1.65-3.083z"/><path d="M14.522 2.583h.58l1.379 3.165a1 1 0 0 1 .083.4v9.954a1 1 0 0 1-.302.716l-2.46 2.398a1 1 0 0 1-.698.284H11v-1h2.104l2.46-2.398V6.147l-1.249-2.864.207-.09z"/><path d="M3.5 5.5h10v13a1 1 0 0 1-1 1h-8a1 1 0 0 1-1-1zm1 1v12h8v-12zm1-5a1 1 0 0 1 1-1h7.602a1 1 0 0 1 1 1v1.123h-1V1.5H6.5V3h-1z"/><path d="M15.013 3.089H5.876v-.5h9.137z"/></svg>
