<svg xmlns="http://www.w3.org/2000/svg" class="icon icon-accordion icon-map-pin" viewBox="0 0 20 20"><path fill-rule="evenodd" d="m9.91 18.59 5.036-8.78c2.228-3.886-.525-8.777-4.942-8.777-4.385 0-7.147 4.822-4.992 8.713zM10.004 0C4.845 0 1.593 5.673 4.13 10.255l5.212 9.41a.64.64 0 0 0 1.12.009l5.358-9.342C18.445 5.755 15.202 0 10.004 0"/><path d="M13 6.796c0 1.76-1.399 3.187-3.124 3.187S6.752 8.556 6.752 6.796s1.399-3.187 3.124-3.187S13 5.036 13 6.796M9.876 8.949c1.166 0 2.11-.964 2.11-2.153s-.944-2.153-2.11-2.153-2.11.964-2.11 2.153.944 2.153 2.11 2.153"/></svg>
