<svg xmlns="http://www.w3.org/2000/svg" id="Capa_1" enable-background="new 0 0 513.038 513.038" height="15" viewBox="0 0 513.038 513.038" width="15" fill="white" >
  
  <g><path d="m479.34 503.393c-7.817-26.204-22.886-49.503-43.58-67.378l-3.921-3.387.324-.532c19.673-32.298 12.224-74.449-17.327-98.048l-12.123-9.682c-.895-.715-1.461-1.734-1.594-2.871l-5.773-49.39c3.761-7.71 3.853-16.944-.276-24.911-.909-1.753-1.996-3.356-3.201-4.833l-3.866-33.07h28.271c7.197 0 14.129-2.168 20.051-6.271l22.197-15.39c9.276-6.431 11.59-19.209 5.159-28.485l-2.314-3.338c-6.432-9.275-19.21-11.592-28.485-5.158l-18.269 12.667c-.92.638-1.998.975-3.116.975h-44.62c-2.924-28.389-11.9-56.276-26.117-81.002l-6.56-11.408 31.136-45.211c3.597-5.223 3.999-11.955 1.049-17.568-2.95-5.615-8.723-9.102-15.065-9.102h-93.841c-14.966 0-29.921 3.712-43.244 10.731l-.6.314c-21.248 11.196-37.466 30.788-44.495 53.752l-3.563 11.642c-1.212 3.961 1.016 8.154 4.976 9.367.731.224 1.471.33 2.198.33 3.21 0 6.181-2.077 7.169-5.307l3.563-11.642c5.868-19.171 19.407-35.525 37.139-44.869l.6-.314c11.181-5.891 23.718-9.004 36.257-9.004h93.841c1.008 0 1.527.587 1.786 1.079s.447 1.253-.124 2.083l-27.069 39.306-10.507-18.273c-2.065-3.592-6.65-4.827-10.24-2.764-3.591 2.064-4.828 6.649-2.764 10.24l25.354 44.094c6.471 11.254 11.751 23.22 15.787 35.596h-48.518c-.869-10.2-9.434-18.238-19.855-18.238h-38.301c-10.421 0-18.987 8.038-19.855 18.238h-51.031l4.444-14.518c1.212-3.961-1.016-8.154-4.976-9.367-3.961-1.213-8.154 1.016-9.367 4.977l-17.398 56.838h-38.145c-1.119 0-2.196-.337-3.116-.975l-18.269-12.667c-9.276-6.433-22.054-4.117-28.485 5.158l-2.314 3.338c-6.431 9.276-4.117 22.055 5.158 28.484l22.204 15.396c5.917 4.099 12.849 6.266 20.045 6.266h29.271l-3.866 33.071c-1.205 1.476-2.292 3.079-3.2 4.832-4.129 7.967-4.037 17.201-.276 24.911l-5.773 49.389c-.133 1.137-.699 2.156-1.593 2.871l-12.124 9.682c-29.551 23.599-37 65.75-17.326 98.049l.324.531-3.921 3.387c-20.694 17.875-35.763 41.174-43.58 67.378-1.184 3.969 1.074 8.146 5.043 9.331.715.213 1.437.314 2.147.314 3.23 0 6.213-2.104 7.184-5.358 6.997-23.456 20.487-44.313 39.012-60.313l58.099-50.186c7.752 9.491 18.114 16.688 30.314 20.716l10.5 3.467c.85 20.252 13.424 38.233 32.217 45.955l3.929 1.615 14.845 18.824c4.625 5.866 11.562 9.23 19.031 9.23s14.406-3.364 19.031-9.229l14.845-18.825 3.928-1.614c18.794-7.724 31.369-25.703 32.218-45.956l10.501-3.467c12.417-4.1 22.931-11.481 30.725-21.224l58.687 50.694c18.524 16.001 32.015 36.857 39.012 60.313.971 3.255 3.953 5.358 7.184 5.358.709 0 1.432-.102 2.147-.314 3.967-1.184 6.225-5.362 5.041-9.33zm-169.192-200.664-4.191 2.268c-5.567-6.204-13.022-10.475-21.443-12.086-9.807-1.879-19.736.06-27.995 5.333-8.256-5.272-18.185-7.213-27.995-5.333-8.586 1.643-16.17 6.047-21.77 12.45l-4.864-2.632c-12.266-6.64-26.354-7.143-38.547-2.283v-51.24c0-13.598 2.082-26.999 6.187-39.914h173.977c4.104 12.915 6.187 26.316 6.187 39.914v51.661c-12.418-5.297-26.942-4.96-39.546 1.862zm-178.862-48.632c2.745-5.298 8.694-7.953 14.472-6.463l2.595.67c-.002.301-.01.6-.01.901v33.058l-14.279-12.865c-4.297-3.874-5.44-10.166-2.778-15.301zm233.399-5.793 2.596-.67c5.774-1.492 11.727 1.166 14.471 6.463 2.662 5.136 1.519 11.428-2.778 15.3l-14.279 12.866v-33.058c-.001-.301-.009-.601-.01-.901zm10.953-15.604c-3.822-.718-7.841-.638-11.832.351-.886-8.034-2.44-15.97-4.642-23.76h13.738zm-143.711-104.636c0-2.725 2.217-4.941 4.941-4.941h38.301c2.725 0 4.941 2.217 4.941 4.941v31.285c0 2.725-2.217 4.941-4.941 4.941h-38.301c-2.725 0-4.941-2.217-4.941-4.941zm-70.536 13.297h55.536v17.988c0 1.707.228 3.36.635 4.941h-63.19zm-77.128 49.336-22.202-15.394c-2.478-1.719-3.096-5.133-1.378-7.611l2.315-3.338c1.718-2.479 5.131-3.097 7.611-1.379l18.269 12.667c3.442 2.387 7.475 3.648 11.663 3.648h208.376c4.142 0 7.5-3.357 7.5-7.5s-3.358-7.5-7.5-7.5h-14.441c.407-1.582.635-3.234.635-4.941v-17.988h52.656c1.8 7.559 3.15 15.221 4.008 22.93h-10.896c-4.142 0-7.5 3.357-7.5 7.5s3.358 7.5 7.5 7.5h70.618c4.188 0 8.221-1.262 11.663-3.648l18.269-12.667c2.479-1.718 5.894-1.101 7.611 1.379l2.314 3.338c1.718 2.479 1.1 5.893-1.378 7.611l-22.195 15.389c-3.398 2.354-7.377 3.599-11.507 3.599h-320.51c-4.13-.001-8.108-1.244-11.501-3.595zm69.611 18.594c-2.203 7.79-3.756 15.726-4.642 23.76-3.991-.989-8.01-1.068-11.832-.35l2.736-23.41zm-61.133 213.367c-14.54-25.64-8.352-58.384 14.821-76.889l12.124-9.682c4.003-3.197 6.536-7.761 7.131-12.85l4.249-36.351 17.278 15.568v7.47c0 .096.018.188.022.283-1.39 1.362-2.709 2.822-3.943 4.387-13.482 17.105-17.617 38.879-11.343 59.736 1.056 3.509 2.393 6.863 3.949 10.071zm239.098-19.006-11.252 3.715c-5.535 1.829-9.358 6.973-9.514 12.8-.39 14.646-9.399 27.709-22.952 33.278l-5.749 2.363c-1.193.49-2.239 1.279-3.038 2.292l-16.063 20.37c-1.763 2.235-4.406 3.518-7.253 3.518s-5.49-1.282-7.253-3.519l-16.063-20.369c-.798-1.013-1.845-1.802-3.038-2.292l-5.75-2.364c-13.552-5.568-22.561-18.631-22.952-33.277-.155-5.827-3.979-10.971-9.516-12.801l-11.25-3.714c-15.972-5.273-27.911-17.536-32.755-33.643s-1.652-32.92 8.759-46.13c9.227-11.706 25.438-15.054 38.548-7.96l4.107 2.222-1.997 3.849c-.194.375-.577.607-.999.607h-3.569c-4.725 0-8.947 2.82-10.757 7.186-1.81 4.364-.822 9.345 2.518 12.688l5.919 5.927c4.518 4.523 9.814 7.991 15.744 10.308 3.861 1.51 8.208-.398 9.715-4.256s-.398-8.208-4.256-9.715c-3.985-1.558-7.547-3.891-10.589-6.937l-.704-.705c4.385-1.121 8.144-4.052 10.293-8.195l4.632-8.928c3.355-6.466 9.382-10.96 16.537-12.329 7.154-1.37 14.417.58 19.922 5.35l.34.295c2.818 2.443 7.005 2.443 9.823 0l.339-.294c5.507-4.771 12.77-6.719 19.923-5.351 7.155 1.369 13.182 5.863 16.537 12.329l4.632 8.928c2.149 4.143 5.909 7.074 10.293 8.195l-1.019 1.021c-10.922 10.935-28.401 12.08-40.655 2.665l-8.732-6.712c-4.002-3.072-9.562-3.033-13.518.091l-7.673 6.057c-1.446 1.143-3.017 2.166-4.668 3.044-3.658 1.942-5.048 6.483-3.105 10.142 1.944 3.659 6.484 5.049 10.142 3.104 2.445-1.299 4.776-2.819 6.926-4.517l5.229-4.127 6.261 4.812c8.254 6.343 18.102 9.46 27.916 9.46 11.835 0 23.62-4.536 32.492-13.419l6.234-6.242c3.339-3.344 4.328-8.324 2.518-12.688-1.81-4.365-6.032-7.186-10.757-7.186h-3.569c-.421 0-.804-.232-.999-.607l-2.216-4.271 3.326-1.8c13.109-7.095 29.321-3.745 38.548 7.96 10.411 13.21 13.604 30.023 8.759 46.13-4.842 16.106-16.78 28.369-32.752 33.642zm35.776-89.057c-.959-1.216-1.973-2.365-3.027-3.46.064-.395.106-.797.106-1.21v-7.47l17.278-15.568 4.249 36.351c.595 5.089 3.128 9.652 7.131 12.85l12.124 9.682c23.173 18.505 29.361 51.25 14.821 76.889l-44.999-38.87c1.43-3.024 2.672-6.171 3.66-9.458 6.274-20.857 2.14-42.631-11.343-59.736z"/><path d="m218.194 249.551v-9.553c0-4.143-3.358-7.5-7.5-7.5s-7.5 3.357-7.5 7.5v9.553c0 4.143 3.358 7.5 7.5 7.5s7.5-3.358 7.5-7.5z"/><path d="m309.844 249.551v-9.553c0-4.143-3.358-7.5-7.5-7.5s-7.5 3.357-7.5 7.5v9.553c0 4.143 3.358 7.5 7.5 7.5s7.5-3.358 7.5-7.5z"/></g>

</svg>