<svg
  class="icon icon-accordion icon-dryer"

  focusable="false"
  xmlns="http://www.w3.org/2000/svg"


  viewBox="0 0 20 20"
>
  <path d="M18.47 1.53H1.53L1.53 18.47H18.47V1.53ZM1.53 0.5C0.961149 0.5 0.5 0.961148 0.5 1.53V18.47C0.5 19.0389 0.961148 19.5 1.53 19.5H18.47C19.0389 19.5 19.5 19.0389 19.5 18.47V1.53C19.5 0.961149 19.0389 0.5 18.47 0.5H1.53Z" fill-rule="evenodd"/>
  <path d="M9.99998 15.2238C12.885 15.2238 15.2237 12.885 15.2237 10C15.2237 7.11505 12.885 4.7763 9.99998 4.7763C7.11499 4.7763 4.77624 7.11505 4.77624 10C4.77624 12.885 7.11499 15.2238 9.99998 15.2238ZM9.99998 16.2538C13.4538 16.2538 16.2537 13.4539 16.2537 10C16.2537 6.54619 13.4538 3.7463 9.99998 3.7463C6.54613 3.7463 3.74624 6.54619 3.74624 10C3.74624 13.4539 6.54613 16.2538 9.99998 16.2538Z" fill-rule="evenodd"/>
</svg>
