<svg xmlns="http://www.w3.org/2000/svg" class="icon icon-accordion icon-star" viewBox="0 0 20 20"><path fill-rule="evenodd" d="m10 2.626-1.46 4.71c-.192.62-.743 1.041-1.365 1.041H2.453l3.82 2.91a1.55 1.55 0 0 1 .522 1.685l-1.46 4.71 3.821-2.911a1.38 1.38 0 0 1 1.688 0l3.82 2.91-1.459-4.71c-.192-.62.019-1.3.522-1.683l3.82-2.911h-4.722c-.622 0-1.173-.42-1.366-1.04zm.455-1.78a.472.472 0 0 0-.91 0L7.63 7.027a.48.48 0 0 1-.455.347H.98c-.464 0-.657.622-.282.908l5.012 3.82a.52.52 0 0 1 .174.56l-1.914 6.18c-.143.462.361.847.736.56l5.013-3.818a.46.46 0 0 1 .562 0l5.013 3.819c.375.286.88-.099.736-.561l-1.914-6.18a.52.52 0 0 1 .174-.56l5.012-3.82c.375-.286.182-.908-.282-.908h-6.195a.48.48 0 0 1-.455-.347z"/></svg>
