<svg xmlns="http://www.w3.org/2000/svg" class="icon icon-accordion icon-paw-print" viewBox="0 0 20 20"><path d="M4.344 7.164c-.328-.536-.752-.794-1.125-.769-.486.033-.761.187-.918.354-.16.171-.25.412-.26.713-.018.63.325 1.357.772 1.716.287.23.746.367 1.145.316.364-.045.636-.232.73-.647.114-.503-.022-1.157-.344-1.683m.852-.523c.428.698.65 1.618.467 2.427-.203.897-.877 1.33-1.58 1.419a2.62 2.62 0 0 1-1.896-.53C1.49 9.4 1.014 8.37 1.042 7.433c.014-.483.164-.978.53-1.367.367-.392.902-.622 1.58-.668.903-.06 1.622.555 2.044 1.244m1.954-4.96a.54.54 0 0 0-.654.274c-.268.532-.413 1.41-.312 2.153.169 1.243 1.072 1.61 1.519 1.544.165-.024.42-.177.61-.504.181-.311.278-.745.16-1.247-.112-.475-.282-.984-.517-1.404-.24-.427-.513-.704-.807-.816m-1.548-.175C5.944.828 6.762.464 7.506.747c.606.231 1.03.74 1.322 1.263.297.53.493 1.135.618 1.662.178.757.039 1.452-.269 1.98-.298.513-.784.911-1.33.99-1.043.153-2.417-.651-2.654-2.399-.125-.92.041-2.005.41-2.736m7.087.296a1.73 1.73 0 0 0-.842.956c-.235.653-.268 1.364.15 2.019.198.311.377.468.516.545a.53.53 0 0 0 .356.066c.249-.041.526-.254.734-.523a1 1 0 0 0 .102-.177l.043-.09a8 8 0 0 0 .325-.736c.102-.284.155-.542.14-.771-.022-.327-.256-.83-.64-1.194-.241-.227-.544-.255-.883-.095m-.426-.904c.62-.294 1.39-.301 1.997.273.527.499.909 1.226.95 1.854.029.421-.071.827-.196 1.175a9 9 0 0 1-.408.922c-.05.105-.117.232-.212.355-.273.352-.75.796-1.363.897a1.53 1.53 0 0 1-1-.176q-.488-.271-.879-.884c-.634-.997-.548-2.054-.247-2.894.24-.668.753-1.237 1.358-1.522m5.415 5.147c-.18-.128-.448-.155-.71-.045-.472.197-.967.584-1.145 1.182-.184.617-.12 1.038.005 1.285.121.24.318.359.528.377.34.03.698.016 1-.149.276-.15.593-.478.756-1.267.084-.407.039-.698-.047-.905a1.1 1.1 0 0 0-.386-.478m-1.096-.968c.521-.218 1.166-.21 1.678.154.282.202.558.498.729.909.171.414.222.911.103 1.49-.209 1.008-.666 1.62-1.257 1.943-.565.309-1.166.303-1.566.267a1.65 1.65 0 0 1-1.334-.922c-.27-.535-.305-1.232-.07-2.02.292-.986 1.08-1.555 1.717-1.82m-6.359 10.455 1.222 1.222a2.642 2.642 0 1 0 3.736-3.737L10.227 8.06l-4.96 4.96a2.642 2.642 0 0 0 3.737 3.736zm.707-8.181 4.959 4.959a3.642 3.642 0 1 1-5.151 5.151l-.515-.515-.516.515a3.642 3.642 0 0 1-5.15-5.151l4.958-4.96a1 1 0 0 1 1.415 0"/></svg>
