<svg xmlns="http://www.w3.org/2000/svg" class="icon icon-accordion icon-iron" viewBox="0 0 20 20"><path fill-rule="evenodd" d="M7.068 2a.5.5 0 0 1 .5-.5h11.304A1.13 1.13 0 0 1 20 2.64h-1c0-.09-.064-.14-.128-.14H7.568a.5.5 0 0 1-.5-.5M.05 16.29l-.004.013-.003.015a1.83 1.83 0 0 0 .33 1.506c.332.425.838.676 1.384.676h16.486c.976 0 1.757-.81 1.757-1.782V2.641h-1v5.141h-6.65c-4.952 0-8.107 1.653-9.972 3.968a12.4 12.4 0 0 0-1.825 3.077 11.5 11.5 0 0 0-.49 1.413l-.01.036zM19 8.781h-6.65c-4.714 0-7.555 1.562-9.194 3.596a11.5 11.5 0 0 0-1.678 2.827v.002a11 11 0 0 0-.344.94l-.004.012a9 9 0 0 0-.104.354l-.01.03a.84.84 0 0 0 .147.667c.143.183.358.29.594.29h16.486a.775.775 0 0 0 .757-.782z"/><path d="M8.789 14.359c-.4 0-.7.3-.7.7 0 .39.3.69.7.69s.7-.3.7-.69a.7.7 0 0 0-.7-.7m2.83 0c-.4 0-.7.3-.7.7 0 .39.3.69.7.69s.7-.3.7-.69a.7.7 0 0 0-.7-.7m2.83 0c-.4 0-.7.3-.7.7 0 .39.3.69.7.69s.7-.3.7-.69-.3-.7-.7-.7"/></svg>
