<svg xmlns="http://www.w3.org/2000/svg" class="icon icon-accordion icon-banana" viewBox="0 0 20 20"><path d="M9.59 2.05a.5.5 0 0 1 .39-.082l2.176.456a.5.5 0 0 1 .394.544l-.236 2.136c.041.034.091.067.165.116l.146.098c.326.223.766.564 1.065 1.213.334.727.613 1.583.89 2.434l.07.21c.305.935.617 1.865 1.018 2.694.4.83.872 1.525 1.475 2.01.591.475 1.334.768 2.325.757a.5.5 0 0 1 .497.59c-.092.503-.414 1.185-1.072 1.696-.671.522-1.651.835-2.995.658-1.215-.129-2.713-.701-3.892-2.269l-.054-.073c-.833 1.8-3.228 3.968-7.368 3.377a.5.5 0 0 1-.079-.973l.093-.027c.382-.11 1.198-.347 1.752-1.378.267-.756.383-1.315.423-1.803.041-.497.005-.94-.048-1.482l-.015-.15c-.11-1.082-.248-2.461.09-5.018.095-.71.45-1.423.906-1.983.367-.453.84-.854 1.358-1.059l.318-2.351a.5.5 0 0 1 .207-.342m1.683 12.058c-.766-1.551-1.252-3.724-1.236-6.735a.5.5 0 0 1 1 .005c-.02 3.76.772 6.007 1.768 7.332.989 1.314 2.218 1.773 3.204 1.877l.013.001c1.12.148 1.824-.119 2.257-.455a2 2 0 0 0 .48-.536 4.36 4.36 0 0 1-2.243-.939c-.764-.614-1.315-1.456-1.749-2.354-.433-.898-.765-1.888-1.068-2.818l-.064-.196c-.284-.869-.545-1.67-.854-2.341-.188-.41-.456-.625-.72-.805l-.085-.057a4 4 0 0 1-.339-.245c-.141-.123-.322-.328-.335-.64l.003-.075.202-1.818-1.206-.252-.29 2.136a.5.5 0 0 1-.393.422c-.34.07-.764.358-1.136.816-.367.451-.625.997-.69 1.484-.324 2.443-.193 3.737-.088 4.783l.016.155c.054.547.099 1.068.05 1.664-.05.598-.192 1.253-.49 2.09l-.028.064a3.9 3.9 0 0 1-.765 1.023c3.168-.235 4.617-2.481 4.786-3.586"/><path d="M6.271 11.8c.258-.497.332-.892.315-1.055l.994-.103c.047.447-.127 1.05-.421 1.618a5.1 5.1 0 0 1-1.425 1.709 17 17 0 0 1-2.331 1.512c2.157-.21 3.158-.685 3.534-.987l.626.78c-.77.617-2.637 1.313-6.558 1.313a.5.5 0 0 1-.21-.954l.222-.103c1.575-.73 2.596-1.204 4.111-2.357A4.1 4.1 0 0 0 6.271 11.8"/></svg>
