<svg xmlns="http://www.w3.org/2000/svg" class="icon icon-accordion icon-plant" viewBox="0 0 20 20"><path d="M15.963 5.166a.5.5 0 0 1 .09.701L11.232 12.1a3.5 3.5 0 0 0-.732 2.142v3.486a.5.5 0 0 1-1 0v-3.487a4.5 4.5 0 0 1 .94-2.753l4.822-6.233a.5.5 0 0 1 .701-.09"/><path d="M4.137 9.11a.5.5 0 0 0 .018.707l4.256 4.044A3.5 3.5 0 0 1 9.5 16.398V19.5a.5.5 0 0 0 1 0v-3.102a4.5 4.5 0 0 0-1.4-3.262L4.842 9.092a.5.5 0 0 0-.706.018"/><path fill-rule="evenodd" d="M18.378 1.54c.055.75.095 1.787.027 2.867-.093 1.467-.375 2.85-.95 3.739-.738 1.138-1.767 1.754-2.744 2-1.02.256-1.864.087-2.251-.164-.845-.547-1.794-2.72-.296-5.032.553-.854 1.786-1.654 3.244-2.316a24 24 0 0 1 2.97-1.095M18.73.4a.465.465 0 0 1 .588.406c.15 1.485.417 5.659-1.024 7.883-1.774 2.738-5.004 3.023-6.378 2.132-1.375-.89-2.345-3.708-.591-6.415C12.767 2.181 17.2.814 18.73.4M1.162 6.236c.087.567.223 1.278.43 1.993.306 1.058.726 1.977 1.25 2.5.706.706 1.537.989 2.272 1.015.779.028 1.329-.229 1.528-.428.457-.457.853-2.13-.595-3.578-.496-.496-1.464-.888-2.639-1.155a18 18 0 0 0-2.246-.347M.57 5.188a.46.46 0 0 0-.49.517c.147 1.245.64 4.316 2.055 5.731 1.8 1.8 4.31 1.49 5.215.587.903-.904 1.184-3.212-.595-4.992C5.335 5.613 1.903 5.27.57 5.188"/></svg>
