<svg xmlns="http://www.w3.org/2000/svg" class="icon icon-accordion icon-silhouette" viewBox="0 0 20 20"><path fill-rule="evenodd" d="M12.5 12.04h-5c-3.038 0-5.5 2.508-5.5 5.604v.837h16v-.837c0-3.096-2.462-5.605-5.5-5.605m-5-1.02c-3.59 0-6.5 2.966-6.5 6.624V19.5h18v-1.856c0-3.658-2.91-6.624-6.5-6.624z"/><path d="M14.36 5.086c0 2.532-2.015 4.585-4.5 4.585-2.486 0-4.5-2.053-4.5-4.585S7.374.5 9.86.5c2.485 0 4.5 2.053 4.5 4.586m-4.5 3.566c1.933 0 3.5-1.597 3.5-3.566 0-1.97-1.567-3.567-3.5-3.567s-3.5 1.597-3.5 3.567 1.567 3.566 3.5 3.566"/></svg>
