<svg class="icon icon-vimeo" viewBox="0 0 20 20"><path fill="currentColor" fill-rule="evenodd" d="M17.995 7.002C17.92 8.457 16.9 10.451 14.935 13c-2.039 2.653-3.763 3.988-5.187 3.988q-1.305 0-2.205-2.429L6.33 10.121q-.675-2.43-1.44-2.43c-.12 0-.51.24-1.184.706L3 7.497l2.19-1.95c.989-.869 1.724-1.319 2.218-1.349 1.17-.135 1.89.66 2.16 2.37.3 1.844.495 2.998.6 3.448.344 1.53.704 2.294 1.11 2.294.314 0 .794-.495 1.424-1.5.49-.67.832-1.436 1.004-2.249.09-.87-.255-1.304-1.004-1.304-.36 0-.735.09-1.11.255.735-2.414 2.144-3.584 4.213-3.509 1.545.045 2.265 1.05 2.19 3Z" clip-rule="evenodd"/></svg>
