<svg fill="none" class="icon icon-padlock" viewBox="0 0 16 21"><path fill="currentColor" fill-rule="evenodd" d="M5.03 1.79A3.73 3.73 0 0 1 8 .5c1.28 0 2.28.48 2.97 1.29.67.8 1 1.87 1.03 3V7.5h3c.28 0 .5.22.5.5v12a.5.5 0 0 1-.5.5H1a.5.5 0 0 1-.5-.5V8c0-.28.22-.5.5-.5h3V4.8c0-1.1.36-2.15 1.03-3.01M11 6.4v1.09H5V4.82c.03-.99.31-1.82.8-2.4A2.75 2.75 0 0 1 8 1.49c1.01 0 1.73.37 2.2.93.49.58.77 1.41.8 2.4zM1.5 8.49v11h13v-11zm6.51 2.5a1.5 1.5 0 0 0-.7 2.82v2.5a.68.68 0 0 0 1.36 0v-2.47A1.5 1.5 0 0 0 8 11z" clip-rule="evenodd"/></svg>
