<svg
  class="icon icon-accordion icon-bottle"
  aria-hidden="true"
  focusable="false"
  xmlns="http://www.w3.org/2000/svg"
  width="20"
  height="20"
  viewBox="0 0 20 20"
>
  <path d="M13.1436 3.0254C13.3363 3.0254 13.5118 3.13611 13.5948 3.30999C13.6778 3.48386 13.6536 3.68996 13.5324 3.83978C13.4038 3.99885 13.3639 4.17442 13.3691 4.34267C13.3746 4.52205 13.4315 4.66574 13.4591 4.71337C14.6041 6.69086 15.0342 9.52317 15.1116 10.6863C15.1123 10.6974 15.1127 10.7085 15.1127 10.7195V18.7774C15.1127 19.0535 14.8888 19.2774 14.6127 19.2774H5.39716C5.12101 19.2774 4.89716 19.0535 4.89716 18.7774V10.7358C4.84125 9.8507 5.03236 8.79357 5.29232 7.81832C5.55654 6.82711 5.9041 5.87643 6.18601 5.1985C6.2393 5.07034 6.31494 4.93247 6.37143 4.82952C6.38977 4.79607 6.4061 4.76631 6.41899 4.74177C6.48471 4.61655 6.51337 4.53933 6.52193 4.47554C6.53252 4.3967 6.51006 4.29687 6.439 4.16377C6.40471 4.09955 6.36476 4.03788 6.32141 3.97381C6.31602 3.96585 6.30986 3.95683 6.30314 3.94701C6.26852 3.89642 6.21927 3.82444 6.18678 3.7649C6.10224 3.60998 6.10564 3.42197 6.19571 3.27021C6.28579 3.11844 6.44919 3.0254 6.62568 3.0254H13.1436ZM12.3915 4.02539L7.46117 4.0254C7.51302 4.19577 7.54196 4.39323 7.51304 4.6086C7.48043 4.85158 7.38361 5.05566 7.30443 5.20651C7.27233 5.26767 7.2448 5.31773 7.22052 5.36187C7.17495 5.44473 7.14083 5.50678 7.10936 5.58246C6.84062 6.22873 6.50895 7.13661 6.25858 8.07589C6.00564 9.02481 5.8476 9.96272 5.89604 10.6861C5.89678 10.6972 5.89716 10.7084 5.89716 10.7195V18.2774H14.1127V10.7364C14.036 9.61852 13.6192 6.98555 12.5937 5.21445C12.4833 5.0239 12.3802 4.71869 12.3696 4.37355C12.3661 4.26297 12.3722 4.14581 12.3915 4.02539Z" />
  <path d="M6.37329 1.69755C6.45246 1.21406 6.87025 0.859121 7.36017 0.859131L12.4688 0.859235C12.9266 0.859245 13.3259 1.17011 13.4382 1.61391L13.7705 2.92708C13.9304 3.55892 13.4528 4.17241 12.8011 4.17241H6.85086C6.38827 4.17241 6.03597 3.75773 6.11071 3.30122L6.37329 1.69755ZM12.4688 1.85924L7.36015 1.85913L7.14512 3.17241L12.8011 3.17241L12.4688 1.85924Z" />
  <path d="M14.1014 8.95304L14.1 8.95373L14.0595 8.97423L14.0578 8.9751L14.0151 8.99651L13.9721 9.01791L13.9287 9.03926L13.8849 9.06055L13.8407 9.08171L13.7961 9.10273L13.7511 9.12356L13.7056 9.14416L13.6598 9.1645L13.6135 9.18453L13.5667 9.20423L13.5195 9.22355L13.4718 9.24244L13.4237 9.26088L13.3751 9.27881L13.326 9.29621L13.2764 9.31301L13.2264 9.3292L13.1759 9.34472L13.1249 9.35952L13.0735 9.37358L13.0216 9.38685L12.9693 9.39928L12.9166 9.41084L12.8634 9.42149L12.8099 9.4312L12.7561 9.43992L12.7019 9.44763L12.6474 9.45429L12.5928 9.45989L12.5379 9.4644L12.4829 9.4678L12.4277 9.47008L12.3725 9.47124L12.3173 9.47126L12.2622 9.47014L12.2071 9.46791L12.1522 9.46455L12.0974 9.4601L12.0429 9.45457L11.9886 9.44797L11.9347 9.44035L11.8811 9.43172L11.8278 9.42213L11.775 9.4116L11.7225 9.40017L11.6705 9.38789L11.6189 9.37478L11.5678 9.36089L11.5172 9.34626L11.467 9.33093L11.4173 9.31495L11.3681 9.29834L11.3193 9.28116L11.2711 9.26344L11.2232 9.24523L11.1759 9.22655L11.129 9.20746L11.0826 9.18799L11.0365 9.16818L10.991 9.14806L10.9458 9.12768L10.9011 9.10707L10.8568 9.08626L10.8129 9.0653L10.7693 9.04422L10.7262 9.02306L10.6835 9.00185L10.6429 8.98154L10.6411 8.98062L10.6006 8.96015L10.5991 8.95942L10.5575 8.93827L10.3156 8.81448L10.2766 8.79467L10.275 8.79391L10.2379 8.77518L10.236 8.77423L10.1997 8.75604L10.1974 8.75491L10.1618 8.73728L10.1591 8.73597L10.1228 8.71818L10.0855 8.70018L10.0486 8.68263L10.0122 8.66558L9.97608 8.64902L9.94047 8.63303L9.90526 8.61757L9.87047 8.60267L9.83616 8.58838L9.80227 8.57469L9.76888 8.56162L9.73593 8.54918L9.70345 8.53737L9.67144 8.52621L9.63992 8.5157L9.60886 8.50584L9.57828 8.49663L9.54817 8.48807L9.51852 8.48015L9.48931 8.47287L9.46055 8.46622L9.4322 8.46019L9.40425 8.45477L9.37668 8.44995L9.34945 8.44573L9.32254 8.44208L9.2959 8.43899L9.26951 8.43647L9.24331 8.43449L9.21726 8.43306L9.19132 8.43216L9.16543 8.43179L9.13956 8.43196L9.11364 8.43265L9.08764 8.43388L9.0615 8.43565L9.03519 8.43797L9.00865 8.44084L8.98184 8.44427L8.95474 8.44828L8.9273 8.45287L8.8995 8.45806L8.87131 8.46385L8.84271 8.47026L8.81367 8.4773L8.78419 8.48498L8.75425 8.4933L8.72385 8.50226L8.69298 8.51187L8.66163 8.52214L8.62981 8.53305L8.5975 8.54461L8.56474 8.55681L8.5315 8.56965L8.4978 8.5831L8.46365 8.59717L8.42906 8.61183L8.39401 8.62707L8.35854 8.64287L8.32264 8.65922L8.28633 8.67608L8.24961 8.69344L8.21249 8.71127L8.17495 8.72956L8.13702 8.74826L8.09873 8.76734L8.06087 8.78638L8.05921 8.78722L8.02161 8.80626L8.02033 8.80691L7.7378 8.95136L7.73649 8.95203L7.69426 8.9734L7.65166 8.9948L7.60868 9.0162L7.5653 9.03757L7.52154 9.05886L7.47737 9.08003L7.4328 9.10106L7.38781 9.12191L7.3424 9.14253L7.29655 9.16289L7.25028 9.18295L7.20355 9.20268L7.15638 9.22202L7.10874 9.24095L7.06065 9.25943L7.01208 9.2774L6.96304 9.29484L6.91352 9.3117L6.86353 9.32793L6.81307 9.3435L6.76213 9.35837L6.71074 9.37249L6.65889 9.38582L6.6066 9.39832L6.5539 9.40995L6.50079 9.42068L6.44731 9.43046L6.39348 9.43926L6.33933 9.44705L6.2849 9.4538L6.23024 9.45948L6.17537 9.46408L6.12035 9.46757L6.06522 9.46994L6.01004 9.47119L5.95484 9.4713L5.89968 9.47027L5.8446 9.46813L5.78965 9.46486L5.73489 9.46049L5.68035 9.45505L5.62607 9.44854L5.57209 9.44099L5.51844 9.43245L5.46516 9.42293L5.4636 8.33645L5.49517 8.34701L5.52626 8.35692L5.55688 8.36618L5.58703 8.3748L5.61672 8.38277L5.64596 8.3901L5.67476 8.3968L5.70313 8.40288L5.73111 8.40834L5.75871 8.41321L5.78597 8.41748L5.81291 8.42118L5.83956 8.42431L5.86597 8.42688L5.89219 8.42889L5.91825 8.43037L5.9442 8.43131L5.97009 8.43172L5.99596 8.4316L6.02187 8.43095L6.04786 8.42976L6.07399 8.42803L6.10029 8.42576L6.12681 8.42294L6.15359 8.41955L6.18067 8.41559L6.20808 8.41104L6.23585 8.4059L6.26401 8.40016L6.29258 8.39379L6.32158 8.3868L6.35102 8.37918L6.38092 8.37092L6.41129 8.362L6.44212 8.35244L6.47344 8.34223L6.50522 8.33137L6.53748 8.31986L6.57022 8.30771L6.60341 8.29492L6.63708 8.28152L6.67119 8.2675L6.70576 8.25288L6.74077 8.23768L6.77619 8.22193L6.81207 8.20562L6.84835 8.1888L6.88503 8.17148L6.92212 8.15369L6.95964 8.13543L6.99752 8.11677L7.0358 8.0977L7.0736 8.07871L7.07529 8.07786L7.11282 8.05886L7.11413 8.0582L7.35502 7.93496L7.39775 7.9132L7.43994 7.89183L7.48251 7.87043L7.52546 7.84902L7.5688 7.82766L7.61254 7.80636L7.65667 7.78517L7.70122 7.76413L7.74617 7.74327L7.79155 7.72263L7.83736 7.70225L7.8836 7.68216L7.93029 7.66241L7.97743 7.64303L8.02502 7.62406L8.07308 7.60555L8.12161 7.58753L8.17062 7.57005L8.22009 7.55315L8.27005 7.53686L8.32048 7.52123L8.37137 7.50631L8.42273 7.49213L8.47454 7.47873L8.52679 7.46617L8.57947 7.45446L8.63254 7.44367L8.686 7.43381L8.7398 7.42493L8.79392 7.41706L8.84833 7.41022L8.90298 7.40445L8.95783 7.39977L9.01284 7.39619L9.06796 7.39373L9.12315 7.3924L9.17835 7.3922L9.23351 7.39313L9.2886 7.39519L9.34355 7.39836L9.39833 7.40264L9.45289 7.408L9.50719 7.41443L9.5612 7.42189L9.61487 7.43036L9.66819 7.4398L9.72111 7.45019L9.77363 7.46147L9.82572 7.47363L9.87736 7.48661L9.92854 7.50037L9.97926 7.51489L10.0295 7.53011L10.0793 7.54599L10.1286 7.5625L10.1774 7.57959L10.2257 7.59723L10.2736 7.61537L10.3211 7.63397L10.368 7.653L10.4145 7.67241L10.4606 7.69217L10.5063 7.71224L10.5515 7.73258L10.5963 7.75316L10.6407 7.77394L10.6846 7.79488L10.7282 7.81594L10.7714 7.83709L10.8142 7.8583L10.8566 7.87952L10.8987 7.90073L10.9404 7.92189L11.1826 8.04586L11.2217 8.06572L11.2232 8.06645L11.2604 8.08526L11.2622 8.08618L11.2987 8.10446L11.3009 8.10556L11.3367 8.12329L11.3393 8.12456L11.3757 8.14243L11.413 8.1605L11.45 8.17812L11.4865 8.19526L11.5227 8.21189L11.5584 8.22799L11.5936 8.24354L11.6285 8.25851L11.6629 8.2729L11.6968 8.28669L11.7303 8.29986L11.7633 8.31241L11.7959 8.32431L11.8279 8.33558L11.8596 8.34619L11.8907 8.35616L11.9213 8.36547L11.9515 8.37414L11.9813 8.38215L12.0105 8.38954L12.0394 8.39629L12.0678 8.40242L12.0958 8.40793L12.1234 8.41284L12.1507 8.41716L12.1777 8.42091L12.2043 8.42408L12.2308 8.42669L12.257 8.42875L12.2831 8.43027L12.309 8.43126L12.3349 8.43171L12.3608 8.43163L12.3867 8.43102L12.4127 8.42987L12.4388 8.42819L12.4651 8.42596L12.4916 8.42318L12.5183 8.41984L12.5454 8.41592L12.5728 8.41143L12.6005 8.40633L12.6286 8.40064L12.6572 8.39432L12.6861 8.38738L12.7155 8.37981L12.7454 8.37159L12.7757 8.36273L12.8065 8.35322L12.8378 8.34306L12.8696 8.33225L12.9018 8.3208L12.9345 8.3087L12.9676 8.29596L13.0013 8.28261L13.0353 8.26864L13.0699 8.25407L13.1048 8.23892L13.1402 8.2232L13.1761 8.20694L13.2123 8.19015L13.249 8.17288L13.286 8.15512L13.3221 8.13761L13.3601 8.11889L13.3626 8.11766L13.3986 8.09977L13.4007 8.09872L13.4374 8.08028L13.4391 8.07941L13.4766 8.06045L13.4779 8.05977L13.76 7.91553L13.7613 7.9149L13.8034 7.89353L13.846 7.87213L13.8889 7.85073L13.9322 7.82936L13.9759 7.80805L14.02 7.78685L14.0645 7.7658L14.1095 7.74492L14.1548 7.72426L14.2006 7.70386L14.2468 7.68375L14.184 8.9109L14.1429 8.93193L14.1014 8.95304Z" />
</svg>
