<svg width="30" height="30" viewBox="0 0 30 30" fill="none" xmlns="http://www.w3.org/2000/svg">
<path fill-rule="evenodd" clip-rule="evenodd" d="M20 4.05273H10C6.54822 4.05273 3.75 6.85096 3.75 10.3027V20.3027C3.75 23.7545 6.54822 26.5527 10 26.5527H20C23.4517 26.5527 26.25 23.7545 26.25 20.3027V10.3027C26.25 6.85096 23.4517 4.05273 20 4.05273ZM24.0625 20.3027C24.0556 22.5435 22.2407 24.3584 20 24.3652H10C7.75919 24.3584 5.94436 22.5435 5.9375 20.3027V10.3027C5.94436 8.06192 7.75919 6.2471 10 6.24023H20C22.2407 6.2471 24.0556 8.06192 24.0625 10.3027V20.3027ZM20.9375 10.6152C21.6279 10.6152 22.1875 10.0556 22.1875 9.36523C22.1875 8.67488 21.6279 8.11523 20.9375 8.11523C20.2471 8.11523 19.6875 8.67488 19.6875 9.36523C19.6875 10.0556 20.2471 10.6152 20.9375 10.6152ZM15 9.67773C11.8934 9.67773 9.375 12.1961 9.375 15.3027C9.375 18.4094 11.8934 20.9277 15 20.9277C18.1066 20.9277 20.625 18.4094 20.625 15.3027C20.6284 13.8099 20.0368 12.3772 18.9811 11.3216C17.9255 10.266 16.4929 9.67441 15 9.67773ZM11.5625 15.3027C11.5625 17.2012 13.1015 18.7402 15 18.7402C16.8985 18.7402 18.4375 17.2012 18.4375 15.3027C18.4375 13.4042 16.8985 11.8652 15 11.8652C13.1015 11.8652 11.5625 13.4042 11.5625 15.3027Z" fill="#FFF2E6"/>
</svg>
