<?xml version="1.0" encoding="UTF-8"?>
<svg width="640px" height="480px" viewBox="0 0 640 480" version="1.1" xmlns="http://www.w3.org/2000/svg" xmlns:xlink="http://www.w3.org/1999/xlink">
    <title>Republic-of-Korea</title>
    <g id="Republic-of-Korea" stroke="none" stroke-width="1" fill="none" fill-rule="evenodd">
        <g id="jp-border" fill-rule="nonzero">
            <polygon id="Path" fill="#FFFFFF" points="6.92993631 6.92993631 633.070064 6.92993631 633.070064 473.929936 6.92993631 473.929936"></polygon>
            <path d="M640,0 L0,0 L0,480 L640,480 L640,0 Z M626.938776,14.5454545 L626.938776,465.454545 L13.0612245,465.454545 L13.0612245,14.5454545 L626.938776,14.5454545 Z" id="Path" fill="#E5E5E5"></path>
            <g id="kr" transform="translate(18.000000, 28.000000)">
                <g id="Group" transform="translate(0.504000, 0.407000)">
                    <polygon id="Path" fill="#FFFFFF" points="602.745 422.895 0.33 422.895 0.33 0.495 602.745 0.495"></polygon>
                    <path d="M306.8175,212.025 C306.8175,263.283928 265.263928,304.8375 214.005,304.8375 C162.746072,304.8375 121.1925,263.283928 121.1925,212.025 C121.1925,160.766072 162.746072,119.2125 214.005,119.2125 C265.263928,119.2125 306.8175,160.766072 306.8175,212.025 L306.8175,212.025 Z" id="Path" fill="#FFFFFF"></path>
                    <path d="M423.225,217.47 C423.225,284.295 369.6,338.58 303.3525,338.58 C237.105,338.58 183.5625,284.295 183.5625,217.47 C183.5625,150.645 237.1875,96.2775 303.435,96.2775 C369.6825,96.2775 423.225,150.645 423.225,217.47 Z" id="Path" fill="#C70000"></path>
                    <path d="M58.245,105.105 L127.215,25.3275 L143.6325,39.435 L74.58,119.295 L58.245,105.105 Z M80.85,124.6575 L149.82,44.88 L166.2375,58.905 L97.185,138.8475 L80.85,124.6575 Z" id="Shape" fill="#000000"></path>
                    <polygon id="Path" fill="#000000" points="58.245 105.105 127.215 25.3275 143.6325 39.435 74.58 119.295"></polygon>
                    <path d="M58.245,105.105 L127.215,25.3275 L143.6325,39.435 L74.58,119.295 L58.245,105.105 Z M103.95,144.705 L172.92,64.7625 L189.3375,78.9525 L120.285,158.8125 L103.95,144.705 Z" id="Shape" fill="#000000"></path>
                    <polygon id="Path" fill="#000000" points="58.245 105.105 127.215 25.3275 143.6325 39.435 74.58 119.295"></polygon>
                    <path d="M58.245,105.105 L127.215,25.3275 L143.6325,39.435 L74.58,119.295 L58.245,105.105 Z M478.005,25.245 L546.48,105.6 L529.98,119.625 L461.505,39.27 L478.005,25.245 Z M432.0525,64.4325 L500.5275,144.7875 L484.0275,158.8125 L415.5525,78.4575 L432.0525,64.4325 Z" id="Shape" fill="#000000"></path>
                    <polygon id="Path" fill="#FFFFFF" points="443.52 110.715 508.2 54.78 520.3275 68.805 451.0275 131.01 443.355 110.715"></polygon>
                    <path d="M523.215,307.725 L456.885,386.76 L440.6325,373.23 L506.9625,294.195 L523.215,307.725 Z M455.235,44.6325 L523.71,124.9875 L507.2925,139.0125 L438.9,58.575 L455.235,44.6325 Z M545.7375,326.4525 L479.325,405.4875 L462.99,391.9575 L529.4025,312.9225 L545.7375,326.4525 Z M500.28,288.6675 L433.95,367.7025 L417.6975,354.1725 L484.0275,275.1375 L500.28,288.6675 Z" id="Shape" fill="#000000"></path>
                    <path d="M185.295,196.1025 C189.09,226.6275 194.6175,260.6175 241.56,264.0825 C259.1325,265.155 293.37,259.9575 305.085,211.9425 C320.595,165.9075 366.96,152.7075 398.5575,177.6225 C416.625,189.3375 421.575,207.9 422.73,221.925 C421.3275,266.475 395.5875,305.25 362.67,322.575 C324.72,345.0975 272.25,345.5925 226.2975,311.4375 C205.59,292.05 176.6325,256.1625 185.295,196.1025 Z" id="Path" fill="#3D5897"></path>
                    <polygon id="Path" fill="#FFFFFF" points="458.7 306.57 523.545 362.34 511.5 376.365 439.6425 317.13 458.6175 306.57"></polygon>
                    <polygon id="Path" fill="#000000" points="97.4325 295.515 165.9075 375.7875 149.4075 389.8125 80.9325 309.54"></polygon>
                    <polygon id="Path" fill="#FFFFFF" points="85.635 361.5975 150.48 305.58 162.6075 319.605 93.3075 381.8925 85.635 361.515"></polygon>
                    <path d="M120.2025,276.1275 L188.6775,356.4 L172.1775,370.425 L103.7025,290.1525 L120.2025,276.1275 Z M74.25,315.315 L142.725,395.5875 L126.225,409.6125 L57.75,329.34 L74.25,315.315 Z" id="Shape" fill="#000000"></path>
                </g>
            </g>
        </g>
    </g>
</svg>