<?xml version="1.0" encoding="UTF-8"?>
<svg id="Layer_1" data-name="Layer 1" xmlns="http://www.w3.org/2000/svg" version="1.1" viewBox="0 0 48 48">
  <defs>
    <style>
      .cls-1 {
        fill: #000;
        stroke-width: 0px;
      }
    </style>
  </defs>
  <path class="cls-1" d="M40,5.2H8c-1.5,0-2.8,1.2-2.8,2.7v32.2c0,1.5,1.2,2.7,2.8,2.7h32c1.5,0,2.8-1.2,2.8-2.7V7.9c0-1.5-1.2-2.7-2.8-2.7ZM11,36.7v-16.9h5.6v16.9h-5.6ZM13.8,17.4h0s0,0,0,0c-1.9,0-3.1-1.3-3.1-2.9s1.3-2.9,3.2-2.9,3.1,1.3,3.1,2.9c0,1.6-1.2,2.9-3.2,2.9ZM36.9,36.7h-5.6v-9c0-2.3-.8-3.8-2.8-3.8s-2.5,1-2.9,2.1c-.1.4-.2.9-.2,1.4v9.4h-5.6s0-15.3,0-16.9h5.6v2.4c.7-1.2,2.1-2.8,5.1-2.8s6.5,2.4,6.5,7.6v9.7Z"/>
</svg>