<?xml version="1.0" encoding="UTF-8"?>
<svg id="Layer_1" data-name="Layer 1" xmlns="http://www.w3.org/2000/svg" version="1.1" viewBox="0 0 48 48">
  <defs>
    <style>
      .cls-1 {
        fill: #000;
        stroke-width: 0px;
      }
    </style>
  </defs>
  <path class="cls-1" d="M21.4,26c0-1.1-.9-2-2-2s-2,.9-2,2,.9,2,2,2c1.1,0,2-.9,2-2Z"/>
  <path class="cls-1" d="M28.2,30.8c-1.2.9-2.7,1.3-4.2,1.2-1.5,0-3-.4-4.2-1.3-.2-.2-.5-.2-.7,0-.2.2-.3.5,0,.8,1.4,1.1,3.2,1.6,4.9,1.5,1.8,0,3.5-.5,4.9-1.5h0c.2-.1.2-.5,0-.7-.2-.2-.6-.2-.8,0Z"/>
  <path class="cls-1" d="M28.6,24.1c-1.1,0-2,.9-2,2s.9,2,2,2h0c0,0,0,0,0,0,1.1,0,2-1,1.9-2.1,0-1.1-.9-2-2-2Z"/>
  <path class="cls-1" d="M24,4.1C13,4.1,4,13,4,24s8.9,20,19.9,20,20-8.9,20-20S35,4.1,24,4.1ZM35.7,26.7c0,.3,0,.6,0,.9,0,4.5-5.2,8.1-11.6,8.1s-11.6-3.6-11.6-8.1c0-.3,0-.6,0-.9-.3-.1-.6-.3-.8-.5-1.2-1.1-1.2-2.9-.1-4.1,1.1-1.2,2.9-1.2,4.1-.1,2.3-1.6,5-2.4,7.8-2.5l1.5-6.9h0c0-.3.4-.6.7-.5l4.9,1c.3-.5.9-.9,1.5-1,1.1-.1,2.1.7,2.2,1.8s-.7,2.1-1.8,2.2c-1.1.1-2.1-.7-2.2-1.8l-4.3-.9-1.3,6.2c2.7,0,5.4.9,7.7,2.5.5-.5,1.2-.8,1.9-.8,1.6,0,3,1.2,3,2.8,0,1.1-.6,2.2-1.6,2.7Z"/>
</svg>