<?xml version="1.0" encoding="utf-8"?>
<!-- Generator: Adobe Illustrator 17.1.0, SVG Export Plug-In . SVG Version: 6.00 Build 0)  -->
<!DOCTYPE svg PUBLIC "-//W3C//DTD SVG 1.1//EN" "http://www.w3.org/Graphics/SVG/1.1/DTD/svg11.dtd">
<svg version="1.1" id="Layer_1" xmlns="http://www.w3.org/2000/svg" xmlns:xlink="http://www.w3.org/1999/xlink" x="0px" y="0px"
	 viewBox="0 0 30.1 30" enable-background="new 0 0 30.1 30" xml:space="preserve">
<path fill="#666666" d="M29.9,26.8l-9.4-9.4c1.2-1.8,1.9-4,1.9-6.2c0-3-1.2-5.8-3.3-7.9C16.9,1.2,14.1,0,11.2,0S5.4,1.2,3.3,3.3
	C1.2,5.4,0,8.2,0,11.2s1.2,5.8,3.3,7.9s4.9,3.3,7.9,3.3c2.3,0,4.4-0.7,6.3-1.9l9.4,9.4c0.3,0.3,0.9,0.2,1.3-0.2l1.6-1.6
	C30.1,27.7,30.2,27.1,29.9,26.8z M11.2,19.3c-4.5,0-8.1-3.7-8.1-8.1S6.7,3,11.2,3s8.1,3.7,8.1,8.1S15.7,19.3,11.2,19.3z"/>
</svg>
