<?xml version="1.0" encoding="UTF-8"?>
<svg version="1.1" xmlns="http://www.w3.org/2000/svg" width="3432" height="940">
<path d="M0 0 C1.41174988 0.20092242 2.82353535 0.40159498 4.23535156 0.60205078 C47.80966879 6.8732895 89.88200953 18.75957761 130 37 C130.91201172 37.40927734 131.82402344 37.81855469 132.76367188 38.24023438 C166.4248505 53.42076591 198.46855228 73.55883173 227 97 C227.5470459 97.44939941 228.0940918 97.89879883 228.65771484 98.36181641 C236.15088696 104.5508736 243.37832532 110.99935345 250.49853516 117.61181641 C252.03733619 119.03451928 253.5854366 120.44639146 255.13671875 121.85546875 C262.83594688 128.85225639 270.31892669 135.92137386 277.1015625 143.82421875 C279.26745005 146.30652198 281.50876957 148.71055145 283.75 151.125 C288.9915491 156.88042646 293.78918983 162.91749868 298.52734375 169.09033203 C300.03708 171.04808352 301.5640426 172.99141848 303.09375 174.93359375 C315.23967125 190.45245385 326.26572749 206.86071287 336 224 C336.44520996 224.78358887 336.89041992 225.56717773 337.34912109 226.37451172 C387.0119006 314.39704382 406.2723509 415.13364112 380.08984375 578 C362.94454314 638.29423556 333.79646041 696.56884673 292.5234375 744.07421875 C290.05318301 746.93833734 287.67802228 749.86165224 285.3125 752.8125 C282.04487343 756.83150595 278.60521855 760.50837058 274.890625 764.11328125 C273.03522279 765.96484998 271.32714427 767.88253673 269.625 769.875 C263.63756704 776.81714892 257.08050184 783.2074924 250.1171875 789.1640625 C247.59400545 791.3520617 245.14445481 793.61293113 242.6875 795.875 C237.27900978 800.79047138 231.7413329 805.47936376 226 810 C225.28618164 810.56460938 224.57236328 811.12921875 223.83691406 811.7109375 C205.23442162 826.35593767 185.63328152 839.39350725 165 851 C164.13391113 851.49177734 163.26782227 851.98355469 162.37548828 852.49023438 C112.46630658 880.70241218 57.66189837 897.98074129 1 906 C-0.68150146 906.2477417 -0.68150146 906.2477417 -2.39697266 906.50048828 C-40.24615515 911.84904293 -81.21175478 911.59211766 -119 906 C-120.41027019 905.79897364 -121.82059159 905.59830621 -123.23095703 905.39794922 C-172.4764421 898.31007539 -220.81897694 884.28902637 -264.97851562 861.05566406 C-267.27242874 859.85773166 -269.58097448 858.69072811 -271.890625 857.5234375 C-301.0819392 842.65562569 -327.95155826 824.06911483 -353 803 C-353.56348145 802.52675293 -354.12696289 802.05350586 -354.70751953 801.56591797 C-366.95355188 791.25674139 -366.95355188 791.25674139 -372.4296875 785.57421875 C-374.2125956 783.78687556 -376.08721375 782.14732352 -378 780.5 C-383.77429164 775.50451455 -388.95979351 770.12982635 -393.93359375 764.34375 C-395.9803557 762.02228087 -398.08868133 759.76673076 -400.21069336 757.51416016 C-406.45337059 750.86652576 -412.16942757 743.9381745 -417.70166016 736.69238281 C-418.92735061 735.0946983 -420.17209595 733.5116843 -421.41796875 731.9296875 C-434.32430733 715.46515769 -445.71008889 698.20915432 -456 680 C-456.51836426 679.08428223 -457.03672852 678.16856445 -457.57080078 677.22509766 C-490.11308108 619.41181435 -509.95769808 555.21418026 -515 489 C-515.16628906 487.04707031 -515.16628906 487.04707031 -515.3359375 485.0546875 C-522.30665666 393.49546618 -499.85208702 299.20159889 -436 194 C-435.60151855 193.42572266 -435.20303711 192.85144531 -434.79248047 192.25976562 C-422.56703624 174.66905917 -408.98319103 158.19712628 -394.40039062 142.51806641 C-392.98738246 140.9863222 -391.59348487 139.43902944 -390.203125 137.88671875 C-378.16942078 124.51890098 -364.84290242 112.46419748 -351 101 C-350.12142334 100.27200195 -350.12142334 100.27200195 -349.22509766 99.52929688 C-286.08967863 47.51325015 -209.30965971 13.7168294 -120 0 C-118.14906738 -0.26901123 -118.14906738 -0.26901123 -116.26074219 -0.54345703 C-78.46746769 -5.73268902 -37.72113267 -5.55779993 0 0 Z M-247.5625 254.75 C-248.36887909 254.83203674 -249.17525818 254.91407349 -250.006073 254.99859619 C-275.62541363 257.62557183 -301.1298269 261.35327962 -326.4375 266.125 C-327.67443604 266.35429199 -328.91137207 266.58358398 -330.18579102 266.81982422 C-344.09499877 269.55564801 -355.16903087 274.13647743 -363.875 285.8125 C-370.81438541 296.53254114 -373.41890553 308.04072908 -370.9375 320.625 C-369.31068713 326.82768833 -366.69557505 331.79389427 -363 337 C-362.278125 338.051875 -361.55625 339.10375 -360.8125 340.1875 C-352.66112178 348.33887822 -341.46591483 354.04595454 -329.828125 354.2578125 C-322.44129486 354.18871421 -315.38931557 352.77969171 -308.17596436 351.35095215 C-233.80063023 336.75918785 -156.42066544 333.7719926 -81 341 C-80.2373584 341.07261047 -79.4747168 341.14522095 -78.68896484 341.22003174 C-68.09305912 342.24223779 -57.54139793 343.52061591 -47 345 C-46.26150818 345.10334656 -45.52301636 345.20669312 -44.762146 345.31317139 C3.45448184 352.10954462 50.66582921 363.07616446 97 378 C98.02900421 378.33097687 98.02900421 378.33097687 99.07879639 378.66864014 C133.32320667 389.71897704 166.31800896 403.64026214 198.7265625 419.234375 C199.84063477 419.7703833 200.95470703 420.3063916 202.10253906 420.85864258 C204.19783819 421.86955719 206.29113744 422.88463398 208.38183594 423.9050293 C223.18423387 431.09001627 235.33972627 436.51939355 251.93359375 432.06640625 C263.12118817 428.1756887 271.93900333 420.46445129 277.4375 410 C283.34295025 397.0930741 283.04572076 386.11551561 278.2265625 372.875 C273.77898757 362.75574694 265.55785093 356.00585768 256 351 C254.52273438 350.16662109 254.52273438 350.16662109 253.015625 349.31640625 C221.67491866 331.94903327 187.58466149 318.29702874 154 306 C152.79891602 305.55446777 151.59783203 305.10893555 150.36035156 304.64990234 C70.4646215 275.06953546 -14.61561886 257.57596637 -103 252 C-104.31274902 251.91242432 -105.62549805 251.82484863 -106.97802734 251.73461914 C-122.29876218 250.78774602 -137.63215425 250.81257624 -152.97558594 250.81469727 C-156.05019093 250.81477785 -159.12464476 250.80792882 -162.19921875 250.79418945 C-190.74979759 250.66883108 -219.14989169 251.798672 -247.5625 254.75 Z M-231.80206299 411.74676514 C-234.1143812 412.01317841 -236.42784446 412.26731845 -238.74169922 412.52001953 C-257.07946258 414.54456287 -275.28212061 417.22278887 -293.4375 420.5 C-294.21247833 420.63748657 -294.98745667 420.77497314 -295.78591919 420.91662598 C-303.91346263 422.37259107 -311.87719733 424.09668358 -319.77734375 426.515625 C-320.75627846 426.81200867 -320.75627846 426.81200867 -321.75498962 427.11437988 C-330.33904668 429.86915697 -336.12713876 434.9896163 -340.78125 442.6171875 C-345.56369642 451.96748339 -346.39202004 461.01458487 -343.4375 471.0625 C-339.93576742 480.60043594 -334.063892 487.37162962 -325 492 C-313.44399694 496.80438552 -302.88840219 494.61700493 -291.05322266 492.23669434 C-286.90710458 491.40567821 -282.75449467 490.60865275 -278.6015625 489.8125 C-277.36095062 489.57439606 -277.36095062 489.57439606 -276.09527588 489.33148193 C-190.04368253 472.93754743 -99.30209616 475.64218263 6 499 C6.65381653 499.15770874 7.30763306 499.31541748 7.98126221 499.47790527 C53.48909575 510.50180181 98.16903426 526.90821592 139.95703125 547.98046875 C140.81018417 548.4103006 141.6633371 548.84013245 142.54234314 549.2829895 C146.76182775 551.41309431 150.97249595 553.55856822 155.17163086 555.72851562 C156.72374216 556.52093796 158.27590454 557.31326027 159.828125 558.10546875 C160.52077957 558.46948288 161.21343414 558.83349701 161.92707825 559.20854187 C171.37881599 564.00452157 180.27937444 564.9477566 190.5703125 562.3515625 C199.87246342 559.1730846 206.82597892 552.79608578 211.5625 544.25 C215.45865465 535.55006376 216.35308107 526.43656008 213.05859375 517.40234375 C206.87918277 503.37895721 196.20577822 497.20742846 182.875 490.4375 C181.71758301 489.84525635 180.56016602 489.2530127 179.36767578 488.64282227 C154.84707253 476.19030849 129.61406616 465.42217815 103.89349365 455.71557617 C102.09241685 455.03492554 100.293462 454.34866777 98.49462891 453.66210938 C41.05224352 431.86062686 -19.69818396 418.9411909 -80.67248535 412.25714111 C-82.8916199 412.01197371 -85.10937524 411.75665864 -87.32714844 411.49951172 C-134.40154853 406.15221889 -184.74792457 406.29388546 -231.80206299 411.74676514 Z M-225 553 C-225.71623535 553.0825 -226.4324707 553.165 -227.17041016 553.25 C-245.30840996 555.36143047 -263.22618851 558.4632219 -281.125 562.0625 C-282.37867874 562.31101212 -282.37867874 562.31101212 -283.65768433 562.56454468 C-301.01275532 565.82727648 -301.01275532 565.82727648 -315 576 C-319.61675331 583.39522491 -320.90946875 590.32832124 -320 599 C-317.31629184 607.87881019 -311.54606677 613.23670451 -303.8125 617.9375 C-293.80292626 620.72705334 -283.81622008 618.64181784 -273.91693115 616.29354858 C-249.15137004 610.45915104 -223.81348404 606.86553351 -198.43066406 605.16308594 C-196.17887428 605.01200161 -193.92967874 604.83953482 -191.6796875 604.6640625 C-111.8313534 598.97170501 -29.98632692 612.91004974 110.27734375 673.01171875 C118.58265095 677.45326174 124.74691619 680.41043509 134.1875 677.8125 C142.06390631 675.09775718 147.98410913 670.43312176 152.04296875 663.12109375 C155.1209742 655.96798248 154.96985187 648.92252098 152.25 641.6875 C149.65487835 635.45714843 145.99946979 631.65851448 140.234375 628.20703125 C139.38767242 627.69992363 139.38767242 627.69992363 138.52386475 627.18257141 C131.57985323 623.07752287 124.42974519 619.35925733 117.25 615.6875 C116.5311261 615.31871735 115.8122522 614.94993469 115.07159424 614.56997681 C50.36766055 581.44732151 -19.90699097 561.37084795 -92 553 C-93.05948853 552.87464874 -93.05948853 552.87464874 -94.14038086 552.74676514 C-137.28177836 547.68578398 -181.86850387 547.96848348 -225 553 Z " fill="#FFFFFF" transform="translate(565,17)"/>
<path d="M0 0 C3.83995627 5.01900325 6.07437397 10.52297345 8.44921875 16.34765625 C9.07459282 17.85832924 9.07459282 17.85832924 9.71260071 19.39952087 C11.04364724 22.61804381 12.36591061 25.84008374 13.6875 29.0625 C14.98801623 32.21853911 16.29039236 35.37380193 17.59378052 38.52865601 C18.45405303 40.6122386 19.31252028 42.69656749 20.16915894 44.78164673 C22.27767135 49.90044904 24.42235231 54.99809104 26.65087891 60.06591797 C27.07061478 61.02412949 27.49035065 61.982341 27.92280579 62.96958923 C28.71538127 64.77080357 29.51555041 66.56870289 30.32463074 68.36256409 C30.67745621 69.16516159 31.03028168 69.96775909 31.39379883 70.79467773 C31.70521317 71.48955795 32.0166275 72.18443817 32.33747864 72.90037537 C33.11112223 75.3521622 33.11468375 77.44423811 33 80 C30.47089522 81.00361301 28.70284492 81.28113797 26.14453125 80.2578125 C23.89996359 79.05215901 21.69916766 77.78660484 19.5 76.5 C12.42381183 72.55766155 5.39126152 69.44747026 -2.3125 66.9375 C-3.1890625 66.65132813 -4.065625 66.36515625 -4.96875 66.0703125 C-21.46803225 60.87751514 -39.60152198 61.27544558 -55.41796875 68.578125 C-67.11278162 75.02843173 -72.96008617 82.75261045 -78 95 C-79.51556763 100.36123702 -80.35913246 105.42777873 -80.6328125 111 C-80.69515579 112.08172485 -80.69515579 112.08172485 -80.75875854 113.18530273 C-80.88802447 115.45653548 -81.0067008 117.72817243 -81.125 120 C-81.21153545 121.5534248 -81.29876887 123.10681089 -81.38671875 124.66015625 C-81.59920511 128.43970528 -81.80220603 132.21965478 -82 136 C-81.27185719 135.99631283 -80.54371437 135.99262566 -79.79350662 135.98882675 C-62.08362945 135.90052439 -44.37379615 135.83431414 -26.66374588 135.79275131 C-18.09931792 135.77211805 -9.53503683 135.74398296 -0.97070312 135.69824219 C6.4931877 135.65839768 13.95697217 135.63257274 21.42096639 135.62364602 C25.3738644 135.61842718 29.32645815 135.60614551 33.27925873 135.57707977 C36.99914069 135.54994811 40.71859279 135.54155028 44.4385643 135.54756927 C46.45603667 135.54594255 48.47346211 135.52440798 50.49081421 135.50231934 C52.29127701 135.51056732 52.29127701 135.51056732 54.12811279 135.51898193 C55.69331728 135.51345118 55.69331728 135.51345118 57.29014206 135.50780869 C60.73282081 136.13310219 61.84808023 137.29210244 64 140 C65.27705614 142.61127505 66.40605759 145.15495695 67.4765625 147.84765625 C67.79888351 148.63414551 68.12120453 149.42063477 68.45329285 150.23095703 C69.15189836 151.93895711 69.84589269 153.64884891 70.53579712 155.36038208 C71.6461404 158.11494556 72.76808371 160.8645224 73.89331055 163.61303711 C75.07502956 166.49996511 76.25598277 169.38718188 77.43333435 172.27589417 C81.13318042 181.35230509 84.91146883 190.39482687 88.7074585 199.43136597 C90.58517659 203.90226408 92.45860847 208.37495695 94.33203125 212.84765625 C94.71097534 213.75222061 95.08991943 214.65678497 95.48034668 215.58876038 C100.42459889 227.39542164 105.3417036 239.21339873 110.2616272 251.0302124 C116.69723254 266.48633431 123.15291022 281.93392817 129.62643433 297.37420654 C133.35632732 306.27092609 137.07930232 315.1701204 140.75390625 324.08984375 C141.04095428 324.78621445 141.32800232 325.48258514 141.62374878 326.20005798 C142.94044214 329.39576607 144.25384214 332.5927356 145.5625 335.79174805 C146.00722656 336.87367432 146.45195312 337.95560059 146.91015625 339.0703125 C147.29308838 340.00633301 147.67602051 340.94235352 148.07055664 341.90673828 C148.82573289 343.9455037 148.82573289 343.9455037 150 345 C158.82719031 323.95222483 167.6427853 302.89988614 176.375 281.8125 C184.59802646 261.9558175 192.86114769 242.11598152 201.13224792 222.27928162 C204.64251479 213.85973848 208.14798209 205.43820231 211.65264893 197.0163269 C215.00018649 188.97311714 218.3532233 180.93221231 221.70941162 172.89260864 C223.73479947 168.03932997 225.75402593 163.18361134 227.76307678 158.32354736 C228.55619061 156.40716035 229.35239122 154.49209561 230.15014648 152.57763672 C231.05383588 150.40846973 231.95229445 148.23711146 232.84399414 146.06298828 C233.22676514 145.14888184 233.60953613 144.23477539 234.00390625 143.29296875 C234.32174072 142.5249292 234.6395752 141.75688965 234.96704102 140.96557617 C236.0986309 138.81231923 237.13536913 137.55869056 239 136 C241.98765121 135.70884122 244.76601314 135.60069812 247.75415039 135.62768555 C249.09598137 135.62220955 249.09598137 135.62220955 250.46492004 135.61662292 C253.42602436 135.60850736 256.38658322 135.62213488 259.34765625 135.63671875 C261.40124003 135.63723719 263.45482431 135.63672012 265.50840759 135.63520813 C269.81337893 135.6352979 274.11816317 135.64573712 278.4230957 135.66381836 C283.95055771 135.68651987 289.47774654 135.68704751 295.00524235 135.68030071 C299.24562523 135.67696499 303.48594544 135.68358309 307.72631645 135.69342995 C309.76494456 135.69728802 311.80357963 135.69842766 313.84221077 135.6968441 C316.68669128 135.69647468 319.53081678 135.70905859 322.37524414 135.7253418 C323.2236084 135.72286438 324.07197266 135.72038696 324.94604492 135.71783447 C330.77125798 135.77125798 330.77125798 135.77125798 333 138 C332.64359904 142.24281517 331.43070505 145.76089358 329.7265625 149.63671875 C328.9991687 151.30408081 328.9991687 151.30408081 328.25708008 153.00512695 C327.71319601 154.23264784 327.16916385 155.46010312 326.625 156.6875 C326.04852954 158.00130822 325.47261926 159.31536236 324.8972168 160.62963867 C323.28979894 164.29525151 321.67299598 167.95665474 320.05377197 171.61706543 C318.97251128 174.06216128 317.89299835 176.50802208 316.81396484 178.95410156 C313.25748613 187.01579065 309.69661085 195.07551994 306.13049316 203.13294983 C301.06504518 214.57904872 296.02625096 226.03664245 291 237.5 C284.85633086 251.51021959 278.68794246 265.50927956 272.5 279.5 C266.29361492 293.53340979 260.10327244 307.57369619 253.9375 321.625 C253.56769012 322.46774475 253.19788025 323.3104895 252.81686401 324.17877197 C250.21048849 330.11885059 247.60512314 336.05937204 245 342 C242.02153814 348.791976 239.04261038 355.58374714 236.0625 362.375 C235.69277069 363.21758362 235.32304138 364.06016724 234.94210815 364.92828369 C228.75234463 379.03172561 222.53248228 393.12173443 216.30252075 407.2074585 C210.51405481 420.29582397 204.74757018 433.39362666 199 446.5 C192.85610693 460.51012147 186.68803387 474.50931918 180.5 488.5 C174.53310383 501.99102613 168.58145192 515.48856975 162.65414429 528.99703979 C161.5164824 531.58746996 160.37637725 534.1768115 159.2355957 536.76586914 C156.2515566 543.5439191 153.2685165 550.32032425 150.40316772 557.14959717 C149.63551313 558.97917543 148.86086556 560.80581479 148.0859375 562.63232422 C147.18710643 564.75669137 146.3018073 566.88686276 145.43359375 569.02392578 C145.046875 569.93255371 144.66015625 570.84118164 144.26171875 571.77734375 C143.94162842 572.55327881 143.62153809 573.32921387 143.29174805 574.12866211 C141.47835264 576.75570346 140.0698128 577.07503176 137 578 C133.98504761 578.28561694 130.98539739 578.27328387 127.95874023 578.25878906 C127.05735321 578.2622937 126.15596619 578.26579834 125.2272644 578.26940918 C122.25429535 578.27819602 119.28156513 578.27238856 116.30859375 578.265625 C114.240239 578.26697241 112.17188455 578.26891357 110.10353088 578.27142334 C105.77187073 578.27437037 101.44029313 578.27008999 97.10864258 578.26074219 C91.55454415 578.24934081 86.00063887 578.25591417 80.44654751 578.26788712 C76.17693117 578.27511095 71.90736071 578.27281549 67.637743 578.26763153 C65.58960001 578.26629686 63.54145287 578.26793638 61.49331474 578.27259064 C58.63271916 578.27766518 55.77243742 578.26993278 52.91186523 578.25878906 C52.06448288 578.26283752 51.21710052 578.26688599 50.34403992 578.27105713 C43.25593883 578.2198597 43.25593883 578.2198597 40 576 C40.52555976 570.82090012 41.78441202 566.63480237 44.03515625 561.92578125 C44.34499451 561.25752823 44.65483276 560.58927521 44.97406006 559.90077209 C45.64425419 558.45754057 46.3185353 557.01620122 46.99649048 555.57659912 C48.8442659 551.65210632 50.66181399 547.71359206 52.484375 543.77734375 C52.86201492 542.96400574 53.23965485 542.15066772 53.6287384 541.31268311 C57.12467707 533.77007092 60.4958564 526.1751281 63.84674072 518.56723022 C71.27286206 501.71026801 78.9696235 484.98571292 86.78799438 468.30723572 C87.5334278 466.7027128 88.26955882 465.09383087 88.99569702 463.48048401 C90.50845952 460.12144025 92.01783907 456.97087978 93.9465332 453.82250977 C96.04409851 450.16389193 97.48977575 447.27402072 96.5687561 442.9977417 C94.62322002 437.02085394 91.68513178 431.50856705 88.8125 425.9375 C87.9121154 424.11181517 87.01642285 422.28380945 86.12524414 420.45361328 C84.30911531 416.73233991 82.47405811 413.02142077 80.62402344 409.31689453 C77.21207877 402.44989621 74.03994971 395.48035358 70.89151001 388.48965454 C69.27981548 384.91717929 67.64906157 381.35342858 66.01953125 377.7890625 C65.69391708 377.07605484 65.36830292 376.36304718 65.03282166 375.62843323 C61.08671259 366.99161941 57.10647495 358.37055311 53.125 349.75 C52.75077911 348.93968323 52.37655823 348.12936646 51.99099731 347.29449463 C49.32825363 341.5292369 46.66427384 335.76455073 44 330 C40.95748112 323.41706014 37.91555543 316.83384701 34.875 310.25 C34.50037628 309.43887756 34.12575256 308.62775513 33.73977661 307.79205322 C28.16357763 295.71612596 22.62341463 283.6241515 17.10345459 271.52243042 C8.48877479 252.64154479 -0.26243241 233.82431842 -9 215 C-33.09 214.67 -57.18 214.34 -82 214 C-81.97643433 225.61678955 -81.97643433 225.61678955 -81.95239258 237.46826172 C-81.90428189 262.2243403 -81.87088949 286.98041761 -81.84680401 311.73653053 C-81.84305172 315.57939938 -81.83916877 319.42226809 -81.83520508 323.26513672 C-81.83441815 324.03020948 -81.83363122 324.79528224 -81.83282044 325.58353902 C-81.81975279 337.98500771 -81.79609151 350.38643485 -81.76854161 362.78787886 C-81.74052515 375.50504547 -81.72383172 388.22219027 -81.71773452 400.93938649 C-81.71361024 408.79184216 -81.70056626 416.64418039 -81.6762506 424.49659993 C-81.65857549 430.50942927 -81.65662483 436.52215676 -81.66067696 442.53501511 C-81.65984795 445.00784531 -81.65383224 447.48067974 -81.64238358 449.95348358 C-81.62757199 453.31607 -81.63100488 456.67814397 -81.63923645 460.04074097 C-81.63049793 461.03099805 -81.6217594 462.02125513 -81.61275607 463.04152 C-81.61872922 463.93725136 -81.62470236 464.83298273 -81.63085651 465.75585747 C-81.62971735 466.53276526 -81.62857819 467.30967306 -81.62740451 468.11012352 C-81.75036102 468.73378276 -81.87331753 469.357442 -82 470 C-85.86703503 472.57802335 -89.07036746 472.2881069 -93.5546875 472.2746582 C-94.86484833 472.2823246 -94.86484833 472.2823246 -96.20147705 472.29014587 C-99.09272078 472.30406224 -101.98372673 472.30308375 -104.875 472.30078125 C-106.88134856 472.30466669 -108.8876963 472.30900105 -110.89404297 472.31376648 C-115.10061306 472.32123283 -119.30709922 472.32093414 -123.51367188 472.31567383 C-128.91105231 472.30987479 -134.30809007 472.32681874 -139.70541382 472.3500185 C-143.84889747 472.36473063 -147.99229808 472.36563105 -152.13580322 472.36250877 C-154.12616658 472.36302313 -156.11653445 472.36828218 -158.10687256 472.37832069 C-160.88658104 472.39062072 -163.66561528 472.38393258 -166.4453125 472.37231445 C-167.27138 472.37995819 -168.09744751 472.38760193 -168.94854736 472.39547729 C-174.52977588 472.34376626 -174.52977588 472.34376626 -176.7117613 470.74858445 C-178.33005854 468.55199667 -178.37313873 467.36119522 -178.36914349 464.64842701 C-178.37511663 463.75418799 -178.38108978 462.85994897 -178.38724393 461.93861181 C-178.37413614 460.46343187 -178.37413614 460.46343187 -178.36076355 458.95845032 C-178.36332682 457.91458119 -178.3658901 456.87071206 -178.36853105 455.79521054 C-178.37349155 452.28039253 -178.35693837 448.76599946 -178.34057617 445.2512207 C-178.33973039 442.73849498 -178.34020408 440.22576851 -178.34190369 437.71304321 C-178.34258791 432.29458984 -178.33405218 426.8762745 -178.31719017 421.4578495 C-178.29282638 413.62371337 -178.2849976 405.78962965 -178.2812262 397.95545974 C-178.27465759 385.24558605 -178.25468534 372.53577008 -178.22631836 359.82592773 C-178.19878837 347.47827443 -178.17754961 335.13063678 -178.16479492 322.78295898 C-178.16400675 322.02206328 -178.16321858 321.26116758 -178.16240653 320.47721443 C-178.15849146 316.66008827 -178.15470033 312.84296199 -178.15097082 309.02583563 C-178.11986216 277.35051476 -178.0667925 245.67526634 -178 214 C-178.73249466 214.00666183 -179.46498932 214.01332367 -180.21968079 214.02018738 C-187.12056803 214.08028233 -194.0214162 214.12596617 -200.92249775 214.15543652 C-204.47049936 214.17109693 -208.01828487 214.19234151 -211.56616211 214.22631836 C-215.64438967 214.26513007 -219.72239001 214.27970602 -223.80078125 214.29296875 C-225.07585037 214.30845261 -226.35091949 214.32393646 -227.66462708 214.33988953 C-228.84562485 214.34011612 -230.02662262 214.34034271 -231.2434082 214.34057617 C-232.80560844 214.35056892 -232.80560844 214.35056892 -234.39936829 214.36076355 C-237 214 -237 214 -238.83597755 212.6708374 C-240.73377884 209.94673411 -240.38200527 207.36794547 -240.38818359 204.09765625 C-240.39344055 203.39977997 -240.39869751 202.70190369 -240.40411377 201.98287964 C-240.41731846 199.6758588 -240.40857455 197.36952787 -240.3984375 195.0625 C-240.40045811 193.45971545 -240.40336945 191.85693179 -240.40713501 190.25415039 C-240.41155898 186.8949305 -240.40512513 183.5359499 -240.39111328 180.17675781 C-240.37402116 175.86893161 -240.38386198 171.5616661 -240.40183067 167.25386047 C-240.41266666 163.94417082 -240.40922307 160.6346143 -240.4014473 157.32492065 C-240.39944477 155.73648004 -240.40190643 154.14802737 -240.40888596 152.55960083 C-240.41649763 150.34018904 -240.40490145 148.12168766 -240.38818359 145.90234375 C-240.38579681 144.63898193 -240.38341003 143.37562012 -240.38095093 142.07397461 C-240 139 -240 139 -238.83552551 137.08988953 C-236.23105155 135.54341748 -234.26456814 135.64009871 -231.2434082 135.65942383 C-230.06241043 135.65965042 -228.88141266 135.65987701 -227.66462708 135.66011047 C-226.38955795 135.67559433 -225.11448883 135.69107819 -223.80078125 135.70703125 C-222.49545944 135.71127609 -221.19013763 135.71552094 -219.84526062 135.71989441 C-216.37794721 135.73133911 -212.91101187 135.76080246 -209.44384766 135.79400635 C-205.90467442 135.82471567 -202.36543999 135.83840155 -198.82617188 135.85351562 C-191.88395945 135.88567295 -184.94199789 135.93686446 -178 136 C-178.01571045 134.90349121 -178.0314209 133.80698242 -178.04760742 132.67724609 C-178.61889089 88.88971106 -175.50002672 46.7997325 -143.3125 13.75 C-108.86806436 -20.21115313 -40.64351968 -28.53818361 0 0 Z " fill="#FFFFFF" transform="translate(2934,229)"/>
<path d="M0 0 C1.48113281 0.7425 1.48113281 0.7425 2.9921875 1.5 C38.43875037 19.97639538 63.38935023 55.01577319 75.28271484 92.60351562 C77.59258641 100.32090816 79.39998573 108.10809861 81 116 C81.16516113 116.75748535 81.33032227 117.5149707 81.50048828 118.29541016 C86.97943914 144.10370507 86.48722354 175.24763309 81 201 C80.81195801 201.92731934 80.62391602 202.85463867 80.43017578 203.81005859 C73.32667207 237.97129961 58.22142296 267.91764551 34 293 C33.18885742 293.84510132 33.18885742 293.84510132 32.36132812 294.70727539 C8.00110308 319.63695139 -26.76775473 332.52078832 -61.26416016 333.16650391 C-84.18971686 333.37593644 -105.35522283 329.06291871 -126 319 C-126.98355469 318.52820313 -127.96710938 318.05640625 -128.98046875 317.5703125 C-152.16210011 305.72861336 -173.63297459 283.36502378 -185 260 C-185.00331015 260.86821538 -185.00662029 261.73643076 -185.01003075 262.6309557 C-185.09118045 283.73707992 -185.18324637 304.84313175 -185.28752708 325.94915485 C-185.3376916 336.15578519 -185.38413403 346.36240734 -185.421875 356.5690918 C-185.45477172 365.46316026 -185.49459 374.3571659 -185.54279006 383.25116509 C-185.56807817 387.96234036 -185.58985258 392.67347382 -185.60334396 397.38469887 C-185.61614339 401.81615088 -185.63817473 406.24745969 -185.66738319 410.67883301 C-185.67647559 412.30785261 -185.68215306 413.93689528 -185.68421364 415.56593895 C-185.6875245 417.78523753 -185.70296944 420.00412719 -185.7215271 422.2233429 C-185.72982324 424.088591 -185.72982324 424.088591 -185.73828697 425.99152088 C-186 429 -186 429 -188 432 C-191.76239729 433.25413243 -195.26874325 433.13945263 -199.1875 433.12939453 C-200.4391394 433.13202301 -200.4391394 433.13202301 -201.71606445 433.13470459 C-204.47739739 433.13910989 -207.2386664 433.13618974 -210 433.1328125 C-211.91666679 433.13348592 -213.8333335 433.13445626 -215.75 433.13571167 C-219.76823743 433.13718685 -223.78645265 433.13503983 -227.8046875 433.13037109 C-232.95981617 433.12467392 -238.11489277 433.12795388 -243.27001953 433.13394356 C-247.22819411 433.137554 -251.1863563 433.13640835 -255.14453125 433.13381577 C-257.04557298 433.13314784 -258.94661583 433.13397026 -260.84765625 433.13629532 C-263.50263453 433.13882972 -266.15752804 433.13497005 -268.8125 433.12939453 C-269.60116455 433.13141876 -270.3898291 433.13344299 -271.20239258 433.13552856 C-274.40116587 433.1230598 -276.94265646 433.01911451 -280 432 C-281.46245241 429.07509518 -281.13811094 426.14040477 -281.12863445 422.93470001 C-281.13038749 422.19517222 -281.13214053 421.45564442 -281.13394669 420.69370669 C-281.13863681 418.19003262 -281.1361335 415.68641585 -281.13371277 413.18273926 C-281.13557922 411.37990029 -281.13787926 409.57706172 -281.14057809 407.7742238 C-281.14672289 402.80011138 -281.14655937 397.8260157 -281.14538372 392.85190034 C-281.14518039 387.49533466 -281.15069194 382.13877446 -281.15544128 376.7822113 C-281.1637628 366.28078339 -281.16649679 355.77936108 -281.16705366 345.27793014 C-281.16752806 336.74681447 -281.169579 328.21570066 -281.17275429 319.68458557 C-281.18156455 295.52403234 -281.18617302 271.36348357 -281.18542381 247.20292872 C-281.18538386 245.89926791 -281.1853439 244.59560709 -281.18530273 243.25244141 C-281.18526185 241.94719837 -281.18522097 240.64195534 -281.18517885 239.29715949 C-281.18477216 218.13045578 -281.1943466 196.96376984 -281.2084411 175.79707128 C-281.22278234 154.08945882 -281.22971255 132.38185505 -281.22884732 110.67423773 C-281.2285146 98.47646682 -281.23129468 86.27871454 -281.24202538 74.08094788 C-281.25110076 63.69788283 -281.25333012 53.31484487 -281.24651595 42.9317776 C-281.24323583 37.62934926 -281.24324743 32.32697297 -281.2518692 27.02454948 C-281.25966965 22.17761816 -281.25836971 17.3307807 -281.24958507 12.48385185 C-281.24803572 10.7234566 -281.24991944 8.96305456 -281.25544515 7.2026673 C-281.26242309 4.82342852 -281.25727719 2.44452663 -281.24888897 0.06529999 C-281.25385715 -0.62997325 -281.25882533 -1.32524648 -281.26394406 -2.0415886 C-281.22829621 -6.77170379 -281.22829621 -6.77170379 -279 -9 C-276.15448593 -9.20395961 -273.40589759 -9.28315967 -270.55883789 -9.2746582 C-269.68554337 -9.27976913 -268.81224884 -9.28488007 -267.91249084 -9.29014587 C-265.01581026 -9.30408505 -262.11936645 -9.30308185 -259.22265625 -9.30078125 C-257.21487845 -9.30466585 -255.20710147 -9.30900003 -253.19932556 -9.31376648 C-248.98677916 -9.32123803 -244.77431655 -9.32093068 -240.56176758 -9.31567383 C-235.15651143 -9.30987845 -229.75159784 -9.32680738 -224.34639835 -9.3500185 C-220.19862351 -9.36473208 -216.05093161 -9.36563078 -211.9031353 -9.36250877 C-209.90998087 -9.3630232 -207.91682193 -9.36828355 -205.9236927 -9.37832069 C-203.13908595 -9.39062161 -200.35515217 -9.38393169 -197.57055664 -9.37231445 C-196.74291809 -9.37995819 -195.91527954 -9.38760193 -195.06256104 -9.39547729 C-189.4354363 -9.34344035 -189.4354363 -9.34344035 -187.28966713 -7.65101433 C-185.31481354 -5.12283361 -185.59875701 -2.95346377 -185.56762695 0.21557617 C-185.54783279 1.4966777 -185.52803864 2.77777924 -185.50764465 4.09770203 C-185.50087486 5.49612278 -185.49442799 6.89454512 -185.48828125 8.29296875 C-185.47143646 9.72359261 -185.45328649 11.15420164 -185.43388367 12.58479309 C-185.38635518 16.34780242 -185.35656459 20.11075169 -185.33044434 23.8739624 C-185.30065295 27.71492377 -185.25411782 31.55567807 -185.20898438 35.39648438 C-185.122919 42.93088691 -185.05558847 50.46530445 -185 58 C-184.40904541 57.06913574 -183.81809082 56.13827148 -183.20922852 55.17919922 C-162.02237021 21.92504945 -133.96138742 -3.6842574 -94.62353516 -12.53466797 C-62.46532807 -19.17696704 -29.14830612 -14.8729398 0 0 Z M-156.57421875 97.796875 C-158.80299495 100.47594724 -160.92369859 103.20150679 -163 106 C-163.59039063 106.77601563 -164.18078125 107.55203125 -164.7890625 108.3515625 C-172.52700014 118.91614403 -178.58030515 130.38877313 -183.5 142.5 C-183.83829834 143.32419434 -184.17659668 144.14838867 -184.52514648 144.99755859 C-188.0519696 154.00031069 -188.73237309 159.48045637 -184.99072266 168.47460938 C-184.54003418 169.49361328 -184.0893457 170.51261719 -183.625 171.5625 C-182.93543213 173.15868164 -182.93543213 173.15868164 -182.23193359 174.78710938 C-178.46452593 183.32501157 -174.29300396 191.31796874 -169 199 C-168.56494141 199.63808594 -168.12988281 200.27617188 -167.68164062 200.93359375 C-152.22407232 223.30237384 -131.47279849 242.79852299 -104.31640625 249.33984375 C-84.08064009 252.92733463 -63.37765374 249.49154243 -46.28808594 237.83203125 C-26.3610976 223.33551879 -16.87764573 201.21261305 -12.75 177.5 C-8.97151688 147.37425619 -13.59744556 116.40533355 -32.34375 91.94140625 C-44.57877027 77.62087116 -61.82411053 68.31734076 -80.69506836 66.78051758 C-110.47736462 65.51942967 -136.20578755 75.66668268 -156.57421875 97.796875 Z " fill="#FFFFFF" transform="translate(1808,374)"/>
<path d="M0 0 C0.94082428 0.00182281 1.88164856 0.00364563 2.85098267 0.00552368 C17.74381504 0.0539595 32.24411711 0.69346895 46.9375 3.3125 C48.38866211 3.56193359 48.38866211 3.56193359 49.86914062 3.81640625 C81.46376623 9.38828666 122.37984055 19.75484055 145.9375 43.3125 C147.24778885 47.33485212 147.08519055 51.39445578 147.08276367 55.58178711 C147.08780159 56.82882668 147.08780159 56.82882668 147.09294128 58.10105896 C147.10243477 60.84733578 147.10439351 63.59355154 147.10546875 66.33984375 C147.10868215 68.25029017 147.11204628 70.16073635 147.11555481 72.07118225 C147.12154185 76.07504853 147.12339511 80.07889323 147.12280273 84.08276367 C147.12270107 89.21192245 147.13635981 94.34094294 147.15357494 99.47006893 C147.16469512 103.41545751 147.16672195 107.36081264 147.16619301 111.30621529 C147.16737284 113.19723551 147.17179482 115.08825661 147.17952538 116.9792614 C147.18932673 119.62421226 147.18644677 122.26886262 147.18041992 124.91381836 C147.18603943 125.69372131 147.19165894 126.47362427 147.19744873 127.27716064 C147.17360146 131.39741324 146.78556785 134.60614196 144.9375 138.3125 C140.88268843 138.65544426 138.59015181 138.71550358 135.078125 136.546875 C134.12421875 135.72703125 133.1703125 134.9071875 132.1875 134.0625 C103.10881032 110.18877483 66.02149867 94.84326804 28.9375 89.3125 C28.31278809 89.2182373 27.68807617 89.12397461 27.04443359 89.02685547 C-2.01986269 85.19050562 -37.44587363 86.76507975 -62.0625 104.3125 C-71.6957838 111.79133144 -78.801541 120.08448007 -81.0625 132.3125 C-82.03211945 140.9448065 -80.65307743 149.45170292 -75.25 156.4375 C-55.29033481 177.01703057 -16.02010941 182.96007407 10.625 190.7421875 C52.65192495 203.02801109 94.49997314 216.19549089 128.9375 244.3125 C129.75863281 244.97894531 130.57976562 245.64539063 131.42578125 246.33203125 C154.20394068 265.64822517 166.02419007 293.60816456 168.625 322.80859375 C171.34098653 358.66424546 162.20642944 394.91801504 138.94140625 422.87109375 C107.83423487 459.01319038 63.69889254 475.83225177 16.9375 480.0625 C14.60559211 480.17909539 12.27166758 480.25726764 9.9375 480.3125 C9.08349609 480.33296387 8.22949219 480.35342773 7.34960938 480.37451172 C-53.59174458 481.61758384 -125.50043862 469.69002448 -171.89453125 426.6875 C-178.96270175 419.74177024 -178.96270175 419.74177024 -179.18834114 416.51025391 C-179.18871817 415.77726074 -179.18909519 415.04426758 -179.18948364 414.2890625 C-179.19230347 413.44778809 -179.19512329 412.60651367 -179.19802856 411.73974609 C-179.19600433 410.81500488 -179.1939801 409.89026367 -179.19189453 408.9375 C-179.19364685 407.96506348 -179.19539917 406.99262695 -179.19720459 405.99072266 C-179.20161893 402.76463048 -179.19868656 399.53859277 -179.1953125 396.3125 C-179.19598566 394.07812489 -179.19695578 391.84374986 -179.19821167 389.609375 C-179.19968808 384.92186792 -179.1975359 380.23437987 -179.19287109 375.546875 C-179.18717385 369.52732834 -179.19045316 363.50782627 -179.19644356 357.48828125 C-179.2000507 352.87304344 -179.19890987 348.25781625 -179.19631577 343.64257812 C-179.19564692 341.42252599 -179.19647344 339.2024729 -179.19879532 336.98242188 C-179.20132433 333.88408843 -179.19747768 330.78582799 -179.19189453 327.6875 C-179.19391876 326.76275879 -179.19594299 325.83801758 -179.19802856 324.88525391 C-179.19520874 324.04397949 -179.19238892 323.20270508 -179.18948364 322.3359375 C-179.18910662 321.60294434 -179.18872959 320.86995117 -179.18834114 320.11474609 C-179.0625 318.3125 -179.0625 318.3125 -178.0625 316.3125 C-176 315.875 -176 315.875 -173.0625 316.3125 C-169.10624963 319.38540706 -165.98770427 323.39367241 -162.75 327.1875 C-145.40793341 347.12705674 -120.81650825 361.36160974 -97.0625 372.3125 C-96.28358398 372.6744043 -95.50466797 373.03630859 -94.70214844 373.40917969 C-55.03457834 391.64910902 -3.7972741 403.37340677 38.9375 388.3125 C52.25515824 382.94145545 61.38051595 375.87757066 67.1875 362.5 C72.1356964 349.24295713 72.75452599 334.14944081 66.8125 321.125 C56.15617981 301.71089943 30.23810188 293.82226289 10.44140625 287.52734375 C9.360905 287.18283173 8.28040375 286.8383197 7.16716003 286.48336792 C-3.78149558 283.02862004 -14.82226376 279.93078067 -25.88635254 276.8704834 C-115.42749442 252.03423054 -115.42749442 252.03423054 -148.0625 221.3125 C-148.73925781 220.71179688 -149.41601562 220.11109375 -150.11328125 219.4921875 C-160.43418387 209.93656223 -167.26157111 197.38253669 -172.0625 184.3125 C-172.44019531 183.31347656 -172.81789063 182.31445312 -173.20703125 181.28515625 C-183.65151471 150.89053584 -181.85882163 114.75535756 -167.953125 85.78515625 C-161.64129347 73.23450215 -153.71467 62.51529715 -144.0625 52.3125 C-143.31484375 51.50039063 -142.5671875 50.68828125 -141.796875 49.8515625 C-130.66405888 38.16579193 -117.30892826 29.69833768 -103.0625 22.3125 C-101.9075 21.70792969 -100.7525 21.10335937 -99.5625 20.48046875 C-68.56915454 5.15674996 -34.25508228 -0.13844805 0 0 Z " fill="#FFFFFF" transform="translate(1329.0625,228.6875)"/>
<path d="M0 0 C1.45019531 1.05380859 1.45019531 1.05380859 2.9296875 2.12890625 C17.22432172 13.23005836 30.18866438 26.78950394 40 42 C40.42716309 42.65790527 40.85432617 43.31581055 41.29443359 43.99365234 C55.06602146 65.52041371 63.4772583 89.73256494 67 115 C67.0942627 115.64372559 67.18852539 116.28745117 67.28564453 116.95068359 C73.14191453 161.67414802 61.80712592 209.3521216 34.32519531 245.30029297 C3.25760569 285.14785357 -40.08009679 308.02924244 -89.953125 314.68359375 C-109.25905132 317.02643438 -128.75385595 316.69940972 -148 314 C-148.81581543 313.8870459 -149.63163086 313.7740918 -150.47216797 313.65771484 C-195.12941713 307.12314773 -237.86186435 283.88925743 -265.4921875 247.79296875 C-284.47929203 222.2771986 -295.94887705 193.54549725 -300 162 C-300.13148437 160.98292969 -300.26296875 159.96585938 -300.3984375 158.91796875 C-305.22119348 112.31971843 -292.14157758 65.63653493 -263 29 C-260.1059541 25.5597095 -257.09559307 22.25956509 -254 19 C-253.55285645 18.525625 -253.10571289 18.05125 -252.64501953 17.5625 C-225.60140798 -10.95723041 -188.62784547 -28.10543897 -150 -34 C-148.89156738 -34.17354004 -148.89156738 -34.17354004 -147.76074219 -34.35058594 C-96.35686478 -42.01907053 -42.12618904 -30.72022088 0 0 Z M-175 69 C-175.83273437 69.73863281 -176.66546875 70.47726562 -177.5234375 71.23828125 C-194.59756284 87.28795907 -204.04117961 110.70865463 -205 134 C-205.0515625 134.76183594 -205.103125 135.52367187 -205.15625 136.30859375 C-206.09648755 161.42077152 -197.95916591 185.47850116 -181.5 204.375 C-180.0190463 205.93497188 -178.51964475 207.47769387 -177 209 C-176.31550781 209.69609375 -175.63101562 210.3921875 -174.92578125 211.109375 C-157.00584765 228.20121555 -133.44724845 232.69581941 -109.50390625 232.3046875 C-87.82309444 231.54637612 -67.17113732 221.45255808 -52 206 C-33.29460179 185.31472551 -26.92424782 159.27742015 -27.82519531 131.91894531 C-29.28681359 107.51236974 -39.92123716 84.53332021 -58 68 C-91.62633812 40.07925163 -142.23885138 39.70705115 -175 69 Z " fill="#FFFFFF" transform="translate(2218,393)"/>
<path d="M0 0 C2.25 0.875 2.25 0.875 3.25 2.875 C3.3432753 5.68230125 3.37575925 8.46461098 3.36352539 11.27197266 C3.36367142 12.14033249 3.36381744 13.00869232 3.3639679 13.90336609 C3.36326961 16.78195672 3.3554811 19.66048314 3.34765625 22.5390625 C3.34579177 24.53160568 3.34436801 26.52414931 3.34336853 28.51669312 C3.33954569 33.76759094 3.32971737 39.01846122 3.31866455 44.26934814 C3.30844543 49.62487414 3.30386983 54.98040457 3.29882812 60.3359375 C3.28809491 70.84897045 3.27102127 81.36198294 3.25 91.875 C4.85945999 91.86833817 4.85945999 91.86833817 6.50143433 91.86154175 C16.59607363 91.82105938 26.69069653 91.79104631 36.78539848 91.77137566 C41.97561899 91.76092295 47.16577414 91.74673671 52.35595703 91.72412109 C57.36150889 91.70244562 62.36699777 91.69044259 67.37259293 91.68524551 C69.28563555 91.68154021 71.1986746 91.67430504 73.11169052 91.66353989 C75.78400976 91.64909527 78.4560662 91.64701909 81.12841797 91.64794922 C81.92539093 91.64075867 82.72236389 91.63356812 83.54348755 91.62615967 C89.02189568 91.64689568 89.02189568 91.64689568 91.25 93.875 C91.51069641 96.91137695 91.51069641 96.91137695 91.5246582 100.86328125 C91.52976913 101.58212494 91.53488007 102.30096863 91.54014587 103.04159546 C91.55407452 105.42364773 91.55308287 107.80541179 91.55078125 110.1875 C91.55466606 111.83894967 91.55900028 113.49039834 91.56376648 115.1418457 C91.57123548 118.60533892 91.57093228 122.06873022 91.56567383 125.53222656 C91.55987469 129.97803128 91.57681739 134.42341999 91.6000185 138.86915588 C91.61472496 142.28001356 91.61563184 145.69077029 91.61250877 149.10165405 C91.61302343 150.74116847 91.61828806 152.38068832 91.62832069 154.02017212 C91.6406101 156.30929899 91.63393977 158.59760575 91.62231445 160.88671875 C91.62294388 162.19084717 91.6235733 163.49497559 91.6242218 164.83862305 C91.50072861 165.84062744 91.37723541 166.84263184 91.25 167.875 C87.46744376 170.39670416 84.48514232 170.14220692 80.10668945 170.10205078 C79.27719788 170.10234283 78.4477063 170.10263489 77.59307861 170.10293579 C74.84970663 170.10154179 72.10660582 170.08597732 69.36328125 170.0703125 C67.46184945 170.06658262 65.56041573 170.06373553 63.65898132 170.06173706 C58.65301207 170.05409865 53.64715877 170.03444834 48.64123535 170.0123291 C43.53362598 169.99187517 38.42599789 169.98273631 33.31835938 169.97265625 C23.29552196 169.95120268 13.27277062 169.91706419 3.25 169.875 C3.28728535 188.39133019 3.3473194 206.90745626 3.43390274 225.42362309 C3.47359003 234.0224085 3.5060346 242.62110377 3.52099609 251.2199707 C3.53406638 258.72105997 3.56116682 266.22195002 3.60461307 273.72292703 C3.62710796 277.68895516 3.64291796 281.65473868 3.64188385 285.62083626 C3.64113006 289.36630907 3.65936363 293.11124365 3.69116783 296.85657692 C3.70353243 298.86110322 3.6966592 300.86572052 3.68885803 302.87026978 C3.85130477 317.25818237 6.87293987 331.40292595 17.31640625 341.96484375 C27.83428751 350.86458943 40.88553554 352.69444877 54.25 351.875 C65.37184679 350.65918549 76.56296752 348.31037496 86.35546875 342.66015625 C88.73401502 341.67440821 89.83427878 342.17006202 92.25 342.875 C92.43547009 352.04562333 92.57755862 361.2156001 92.66449738 370.38769054 C92.7062276 374.64691146 92.76280966 378.9048483 92.85351562 383.16333008 C92.94052906 387.27424507 92.98829045 391.38392645 93.00901794 395.4956913 C93.02378526 397.06313822 93.05262551 398.63051852 93.09584045 400.19743919 C93.42099419 412.47702335 93.42099419 412.47702335 90.54005432 415.91639709 C88.46120149 417.24743743 86.58427484 418.09303265 84.25 418.875 C82.50009766 419.69677734 82.50009766 419.69677734 80.71484375 420.53515625 C72.03615656 423.98548704 63.38739054 426.85023732 54.25 428.875 C53.60804688 429.02598145 52.96609375 429.17696289 52.3046875 429.33251953 C40.84494989 431.93623933 29.32523075 432.1886514 17.625 432.25 C16.89277222 432.25785522 16.16054443 432.26571045 15.40612793 432.27380371 C1.35285257 432.39102579 -12.53367963 430.86023206 -25.875 426.1875 C-26.61234375 425.93403809 -27.3496875 425.68057617 -28.109375 425.41943359 C-39.8655446 421.21034109 -50.46448767 415.28804808 -59.75 406.875 C-60.58015625 406.13765625 -61.4103125 405.4003125 -62.265625 404.640625 C-69.16324764 398.16616939 -74.0392576 390.99381314 -78.75 382.875 C-79.30558594 381.94300781 -79.86117187 381.01101563 -80.43359375 380.05078125 C-92.21464759 358.60008322 -93.92641458 333.10235684 -93.86352539 309.1706543 C-93.86324258 307.64166262 -93.86340309 306.1126708 -93.8639679 304.5836792 C-93.86425219 300.47506373 -93.85841542 296.36647808 -93.85139394 292.25786948 C-93.84509869 287.94842926 -93.84455175 283.63898818 -93.84336853 279.32954407 C-93.84027328 271.18783961 -93.83208448 263.04614874 -93.82201904 254.90445024 C-93.81080151 245.62742267 -93.8053333 236.35039442 -93.80032361 227.07336175 C-93.78990016 208.00723349 -93.77233605 188.94111784 -93.75 169.875 C-94.49502274 169.88166183 -95.24004547 169.88832367 -96.00764465 169.89518738 C-103.02628086 169.95528033 -110.04482807 170.00096502 -117.06364918 170.03043652 C-120.67218303 170.0460975 -124.28050444 170.06734315 -127.88891602 170.10131836 C-131.37078122 170.13389717 -134.85244201 170.15184975 -138.33444786 170.15963173 C-140.31042097 170.16787856 -142.28631175 170.19130038 -144.26216125 170.21488953 C-145.46317978 170.21511612 -146.6641983 170.21534271 -147.90161133 170.21557617 C-149.49045891 170.22556892 -149.49045891 170.22556892 -151.11140442 170.23576355 C-153.75 169.875 -153.75 169.875 -155.59129429 168.47855949 C-157.09203312 166.4016525 -157.13591567 165.12562674 -157.15405273 162.57470703 C-157.16673691 161.710159 -157.17942108 160.84561096 -157.19248962 159.9548645 C-157.18955399 159.02358734 -157.18661835 158.09231018 -157.18359375 157.1328125 C-157.1888356 156.17228973 -157.19407745 155.21176697 -157.19947815 154.22213745 C-157.2059031 152.18960537 -157.20455525 150.15703614 -157.19604492 148.12451172 C-157.18755067 145.01852876 -157.21626453 141.91439419 -157.24804688 138.80859375 C-157.24965939 136.83333388 -157.2490804 134.85807077 -157.24609375 132.8828125 C-157.25732773 131.9555838 -157.26856171 131.0283551 -157.28013611 130.07302856 C-157.23539783 125.9198854 -157.15111048 123.52805614 -154.94067383 119.92919922 C-153.07259426 118.17749728 -151.26090828 116.521117 -149.203125 115 C-148.53152344 114.49662109 -147.85992188 113.99324219 -147.16796875 113.47460938 C-146.45253906 112.94673828 -145.73710937 112.41886719 -145 111.875 C-139.15189166 107.48641098 -133.39673186 103.01993785 -127.75 98.375 C-121.63766689 93.35835919 -115.40751052 88.52531762 -109.10546875 83.75 C-104.24127417 80.05072222 -99.47411368 76.25119584 -94.75 72.375 C-88.63696961 67.35918019 -82.40754586 62.5253444 -76.10546875 57.75 C-71.24127417 54.05072222 -66.47411368 50.25119584 -61.75 46.375 C-56.33126668 41.92885984 -50.83662372 37.60823549 -45.25 33.375 C-38.89714201 28.56097444 -32.67745743 23.61064439 -26.51245117 18.55883789 C-21.26062016 14.26379428 -15.91762364 10.1052963 -10.51953125 5.99609375 C-8.66259618 4.57392768 -6.84157404 3.10369494 -5.05859375 1.58984375 C-2.75 -0.125 -2.75 -0.125 0 0 Z " fill="#FFFFFF" transform="translate(2443.75,273.125)"/>
<path d="M0 0 C0.8499353 0.00404846 1.69987061 0.00809692 2.57556152 0.01226807 C3.46996948 0.00876343 4.36437744 0.00525879 5.28588867 0.00164795 C8.25231613 -0.00717881 11.2185065 -0.00131688 14.18493652 0.00543213 C16.23995001 0.00408575 18.29496319 0.00214545 20.34997559 -0.00036621 C24.66087877 -0.00331876 28.97169919 0.00098437 33.28259277 0.01031494 C38.81791777 0.02170952 44.35304883 0.01515075 49.8883667 0.00317001 C54.13303091 -0.00404506 58.37764888 -0.00176228 62.62231445 0.0034256 C64.66373721 0.00476307 66.70516412 0.00311098 68.74658203 -0.00153351 C71.59593889 -0.00659294 74.4449784 0.00110327 77.29431152 0.01226807 C78.14424683 0.0082196 78.99418213 0.00417114 79.86987305 0 C85.70640867 0.04252928 85.70640867 0.04252928 87.93493652 2.27105713 C88.18678552 4.6459465 88.18678552 4.6459465 88.18941212 7.6965332 C88.19524431 8.85576923 88.2010765 10.01500526 88.20708543 11.20936966 C88.20330611 12.49397457 88.19952678 13.77857948 88.19563293 15.10211182 C88.1986509 16.47184839 88.20253859 17.84158328 88.2072255 19.21131516 C88.21755995 22.98828653 88.21530994 26.76516356 88.21104491 30.54214287 C88.20858753 34.61036086 88.21757945 38.67855556 88.2250824 42.74676514 C88.23785871 50.72153642 88.23961948 58.69627409 88.23728213 66.67105389 C88.23550221 73.1498267 88.2372416 79.62858926 88.24150658 86.10736084 C88.24210177 87.02793235 88.24269695 87.94850385 88.24331018 88.89697146 C88.24452187 90.76684094 88.24573601 92.63671041 88.24695256 94.50657988 C88.25783923 112.05822547 88.25566018 129.60985187 88.24956771 147.16149855 C88.24439659 163.23582922 88.25565713 179.31009932 88.27466593 195.38441801 C88.29401396 211.87137766 88.30230574 228.35830861 88.29854268 244.84527969 C88.29662613 254.10876711 88.2991622 263.37220296 88.31325722 272.63568115 C88.32513335 280.52096534 88.32661845 288.4061662 88.31446705 296.29145145 C88.30855192 300.31799713 88.307551 304.34439013 88.31946945 308.3709259 C88.33023961 312.05215718 88.32733212 315.73310669 88.31320777 319.41432428 C88.30926401 321.38713654 88.32017986 323.3599609 88.33150464 325.3327446 C88.3242981 326.49198063 88.31709156 327.65121666 88.30966663 328.84558105 C88.30974916 330.35562147 88.30974916 330.35562147 88.30983335 331.89616776 C88.1861174 332.67988125 88.06240144 333.46359474 87.93493652 334.27105713 C84.06578468 336.85049169 80.86612648 336.55183096 76.38024902 336.52984619 C75.0700882 336.53510315 75.0700882 336.53510315 73.73345947 336.54046631 C70.84220465 336.54927898 67.9511939 336.54343609 65.05993652 336.53668213 C63.05358839 336.53802891 61.04724057 336.53996955 59.04089355 336.54248047 C54.834319 336.5454311 50.62782934 336.54113601 46.42126465 336.53179932 C41.0239486 336.52040485 35.62683145 336.52696464 30.22952271 336.53894424 C26.08604427 336.54616446 21.94261314 336.54387417 17.7991333 336.53868866 C15.80877662 336.53735261 13.81841567 336.53899832 11.82806396 336.54364777 C9.04846791 336.5487156 6.26919589 336.54099909 3.48962402 336.52984619 C2.66355652 336.53389465 1.83748901 336.53794312 0.98638916 336.54211426 C-2.88686139 336.51326093 -4.76688658 336.46984173 -8.06506348 334.27105713 C-8.4399603 331.89616776 -8.4399603 331.89616776 -8.43979359 328.84558105 C-8.44700013 327.68634502 -8.45420667 326.52710899 -8.4616316 325.3327446 C-8.45425731 324.04813969 -8.44688303 322.76353477 -8.43928528 321.44000244 C-8.44202346 320.07026485 -8.44607346 318.70052935 -8.45132893 317.3307991 C-8.46196019 313.55377479 -8.45375831 309.7769856 -8.44257843 305.99997139 C-8.433766 301.93175325 -8.44217134 297.86356688 -8.44844055 293.79534912 C-8.45794793 285.8205539 -8.4513118 277.84584891 -8.43917761 269.87106037 C-8.42558353 260.59254695 -8.42719317 251.31405523 -8.42931094 242.03553438 C-8.43250366 225.48511714 -8.42081691 208.93474288 -8.40124512 192.38433838 C-8.38223975 176.30880423 -8.37515722 160.23332046 -8.3807373 144.15777588 C-8.38678934 126.67078743 -8.38662861 109.18382117 -8.37525147 91.69683456 C-8.37404413 89.83367666 -8.37283814 87.97051875 -8.37163353 86.10736084 C-8.37102999 85.19054763 -8.37042645 84.27373442 -8.36980462 83.32913899 C-8.36591838 76.85490115 -8.36632183 70.38067155 -8.36821938 63.90643311 C-8.37033722 56.02115743 -8.36514851 48.13592599 -8.35060582 40.2506628 C-8.34334114 36.22415163 -8.33930237 32.19770502 -8.34384918 28.17118835 C-8.34790505 24.49000421 -8.34281921 20.80895376 -8.33022311 17.12778997 C-8.32587639 15.15498662 -8.33140838 13.18216927 -8.33721238 11.20936966 C-8.33138019 10.05013363 -8.325548 8.8908976 -8.31953907 7.6965332 C-8.31867229 6.68983959 -8.31780552 5.68314598 -8.31691247 4.6459465 C-7.76876248 -0.52300641 -4.39580211 0.03203104 0 0 Z " fill="#FFFFFF" transform="translate(2575.0650634765625,364.72894287109375)"/>
<path d="M0 0 C7.81728731 5.6107055 13.52356807 12.34872992 17.75390625 20.9765625 C18.16769531 21.81058594 18.58148437 22.64460938 19.0078125 23.50390625 C23.95669917 35.52263103 23.93385873 52.41514709 19.01953125 64.44140625 C16.83760562 68.81199185 14.52662545 72.95119351 11.75390625 76.9765625 C11.34914063 77.59015625 10.944375 78.20375 10.52734375 78.8359375 C2.2128591 89.95592311 -11.74032326 94.93961168 -24.74609375 97.7265625 C-43.23110504 99.04692045 -60.13924548 96.00454485 -74.68359375 83.7265625 C-83.86387634 74.83269266 -90.34199433 62.8599792 -91.24609375 49.9765625 C-91.30925781 49.14125 -91.37242187 48.3059375 -91.4375 47.4453125 C-91.96468633 34.79284055 -88.86795856 22.20056518 -81.24609375 11.9765625 C-80.74464844 11.28304687 -80.24320313 10.58953125 -79.7265625 9.875 C-61.12033302 -13.57518704 -24.08588055 -15.07372018 0 0 Z " fill="#FFFFFF" transform="translate(2649.24609375,222.0234375)"/>
<path d="M0 0 C11.60386606 11.60386606 16.05094852 25.29894899 16.06469727 41.30859375 C15.85573006 54.30660094 11.45946262 65.31797987 2.71875 75 C-7.84480451 85.10426953 -21.4693458 89.77381617 -35.9375 90.0625 C-51.20378197 89.62318253 -64.17269554 84.55223463 -75.18359375 73.875 C-86.29605636 62.02170655 -87.85056199 48.67586386 -87.55859375 33.12109375 C-87.02829877 20.40941711 -81.24132273 9.20061517 -72.0625 0.4375 C-64.87629054 -5.53465701 -56.43518105 -9.59365588 -47.25 -11.25 C-46.59128906 -11.37117188 -45.93257812 -11.49234375 -45.25390625 -11.6171875 C-28.46441272 -14.14331313 -13.70529702 -9.48828256 0 0 Z M-67.625 11.125 C-76.50517472 21.79553253 -78.08558906 33.16493918 -77.25 46.75 C-75.703512 57.09741059 -70.06280682 66.01539489 -61.75 72.25 C-50.18042164 80.00003263 -37.41067143 81.65154617 -23.78515625 79.1015625 C-12.61221458 75.73673837 -3.54629223 68.13462483 2 57.875 C7.31267207 46.34207439 7.07613657 33.58230636 2.75 21.75 C-2.11192893 12.51512924 -9.47564007 5.02473886 -19.1875 1.0625 C-20.18652344 0.64613281 -21.18554688 0.22976563 -22.21484375 -0.19921875 C-38.18443952 -5.72794624 -56.16126806 -1.11987021 -67.625 11.125 Z " fill="#FFFFFF" transform="translate(3367.25,372.25)"/>
<path d="M0 0 C6.93 -0.0928125 6.93 -0.0928125 14 -0.1875 C16.16175781 -0.22846802 16.16175781 -0.22846802 18.3671875 -0.27026367 C26.88133219 -0.32537332 33.24486538 -0.12927885 40 5.5 C42.71114956 9.16694466 42.64216902 13.01734025 42.4140625 17.44140625 C41.82965185 21.052623 40.82791067 22.67966304 38 25 C35.69344918 26.21007484 33.45879843 27.10159288 31 28 C35.0038093 33.42940807 39.16256146 38.69852941 43.4609375 43.8984375 C45 46 45 46 45 48 C39.90763573 49.07763725 34.95070878 49.88835501 30 48 C24.59888031 43.55084757 20.28585487 37.14848693 17 31 C17 30.34 17 29.68 17 29 C15.02 29 13.04 29 11 29 C11 35.27 11 41.54 11 48 C7.37 48 3.74 48 0 48 C0 32.16 0 16.32 0 0 Z M11 9 C11 12.63 11 16.26 11 20 C20.20692462 20.39804845 20.20692462 20.39804845 29 18 C29.76956136 15.65466049 29.76956136 15.65466049 30 13 C28.18682851 10.46155991 27.01532925 10.00510975 24 9 C21.77181559 8.93062938 19.54165476 8.91542916 17.3125 8.9375 C16.13300781 8.94652344 14.95351562 8.95554687 13.73828125 8.96484375 C12.38283203 8.98224609 12.38283203 8.98224609 11 9 Z " fill="#FFFFFF" transform="translate(3312,386)"/>
</svg>
