<svg width="185" height="186" viewBox="0 0 185 186" fill="none" xmlns="http://www.w3.org/2000/svg">
<path d="M86.3129 172.542L82.5872 172.172L83.7594 160.368L87.4851 160.738L86.3129 172.542ZM91.2738 174.681L77.3026 173.293L77.6298 169.997L91.6011 171.385L91.2738 174.681ZM74.381 172.585L70.8336 171.445L74.9634 158.592L78.5108 159.732L74.381 172.585ZM64.2701 169.336L60.7056 168.191L64.8354 155.338L68.3999 156.483L64.2701 169.336ZM73.9184 167.199L64.3216 164.116L65.3348 160.963L74.9316 164.046L73.9184 167.199ZM57.4518 166.861L54.1197 165.194L60.1606 153.121L63.4927 154.788L57.4518 166.861ZM43.4175 148.275C44.2141 147.384 45.152 146.77 46.2312 146.433C47.3035 146.107 48.4368 146.067 49.6313 146.313C50.816 146.553 51.9948 147.09 53.1678 147.926C54.4484 148.837 55.3971 149.874 56.014 151.035C56.6309 152.196 56.9019 153.398 56.827 154.641C56.7423 155.877 56.2928 157.067 55.4785 158.211C54.6641 159.354 53.6867 160.168 52.5464 160.653C51.3962 161.13 50.1716 161.267 48.8726 161.064C47.5736 160.861 46.2838 160.304 45.0033 159.392C43.8302 158.557 42.9368 157.618 42.3228 156.577C41.6991 155.529 41.3697 154.44 41.3346 153.31C41.2924 152.19 41.5622 151.108 42.1437 150.064L45.1936 152.235C44.9572 152.774 44.8659 153.306 44.9197 153.83C44.9665 154.364 45.157 154.883 45.4912 155.386C45.8155 155.882 46.2758 156.343 46.8721 156.767C47.5564 157.254 48.2383 157.548 48.9178 157.649C49.5903 157.76 50.2256 157.674 50.8236 157.393C51.4147 157.122 51.9399 156.663 52.3993 156.018C52.8587 155.373 53.1235 154.722 53.1936 154.065C53.2569 153.417 53.1297 152.789 52.8121 152.18C52.4876 151.581 51.9832 151.037 51.299 150.55C50.7027 150.126 50.1205 149.836 49.5526 149.682C48.9748 149.521 48.4259 149.506 47.9057 149.637C47.3856 149.767 46.9061 150.037 46.4673 150.446L43.4175 148.275ZM46.5033 143.394L36.5223 152.484L34.0255 149.743L41.8108 142.652L41.9051 143.905L29.5411 144.819L26.8868 141.904L44.2369 140.905L46.5033 143.394ZM37.4001 142.969L33.881 142.473L36.7467 132.681L39.5949 135.808L37.4001 142.969ZM19.7194 106.156C20.8967 105.949 22.0133 106.048 23.069 106.452C24.1132 106.86 25.0279 107.53 25.8131 108.463C26.595 109.385 27.1879 110.537 27.5917 111.919C28.0326 113.428 28.1357 114.829 27.9012 116.123C27.6666 117.417 27.135 118.528 26.3065 119.458C25.4746 120.376 24.3848 121.032 23.0372 121.426C21.6895 121.82 20.418 121.854 19.2227 121.528C18.024 121.191 16.9775 120.54 16.0833 119.576C15.1891 118.612 14.5215 117.376 14.0806 115.867C13.6768 114.485 13.5562 113.195 13.7188 111.997C13.8781 110.788 14.2937 109.729 14.9658 108.82C15.6263 107.914 16.5082 107.231 17.6115 106.772L18.6616 110.365C18.1423 110.642 17.7415 111.003 17.4589 111.448C17.1649 111.896 16.9933 112.422 16.9442 113.024C16.8917 113.614 16.968 114.261 17.1733 114.963C17.4089 115.769 17.7623 116.423 18.2334 116.923C18.693 117.426 19.2447 117.752 19.8884 117.902C20.5206 118.054 21.2169 118.02 21.9771 117.798C22.7373 117.576 23.3484 117.228 23.8104 116.756C24.2609 116.287 24.5501 115.714 24.6779 115.04C24.7942 114.368 24.7346 113.629 24.499 112.823C24.2937 112.12 24.0158 111.533 23.6652 111.06C23.3112 110.576 22.8896 110.224 22.4003 110.004C21.9111 109.785 21.3675 109.7 20.7694 109.749L19.7194 106.156ZM25.0429 96.8997C25.1357 98.493 24.9239 99.9117 24.4073 101.156C23.8901 102.388 23.1239 103.37 22.1088 104.103C21.0929 104.823 19.8842 105.224 18.4826 105.305C17.081 105.387 15.8339 105.129 14.7413 104.532C13.648 103.922 12.7729 103.036 12.1162 101.872C11.4587 100.696 11.0835 99.3115 10.9907 97.7182C10.8972 96.1129 11.1091 94.6942 11.6263 93.462C12.1435 92.2299 12.9097 91.2477 13.9249 90.5154C14.94 89.7831 16.1484 89.3762 17.55 89.2945C18.9516 89.2129 20.1991 89.4768 21.2924 90.0863C22.3857 90.6957 23.2607 91.5823 23.9175 92.7461C24.5743 93.9099 24.9494 95.2944 25.0429 96.8997ZM21.7186 97.0933C21.6676 96.2188 21.4739 95.4728 21.1374 94.8553C20.801 94.2379 20.3474 93.7775 19.7768 93.4741C19.2055 93.1588 18.5365 93.0235 17.7698 93.0681C17.0031 93.1128 16.3543 93.3249 15.8235 93.7044C15.292 94.0719 14.895 94.5819 14.6325 95.2342C14.3699 95.8866 14.2642 96.65 14.3151 97.5246C14.3653 98.3871 14.5587 99.1271 14.8952 99.7446C15.2316 100.362 15.6855 100.828 16.2568 101.144C16.8281 101.459 17.4971 101.594 18.2638 101.55C19.0305 101.505 19.6793 101.293 20.2101 100.914C20.741 100.534 21.1376 100.018 21.4001 99.3657C21.6627 98.7133 21.7688 97.9559 21.7186 97.0933ZM25.9396 81.3369C25.665 82.9091 25.1338 84.2416 24.346 85.3343C23.5603 86.4153 22.5896 87.1959 21.4337 87.6762C20.2799 88.1446 19.0114 88.2581 17.6284 88.0165C16.2453 87.775 15.0904 87.2382 14.1637 86.4064C13.2391 85.5627 12.5904 84.4993 12.2176 83.216C11.8469 81.9209 11.7989 80.4872 12.0735 78.915C12.3502 77.331 12.8813 75.9985 13.667 74.9176C14.4527 73.8367 15.4235 73.0561 16.5794 72.5758C17.7353 72.0955 19.0047 71.9761 20.3878 72.2177C21.7709 72.4593 22.9247 73.0019 23.8493 73.8455C24.774 74.6892 25.4227 75.7527 25.7954 77.036C26.1682 78.3192 26.2163 79.7529 25.9396 81.3369ZM22.6592 80.764C22.81 79.901 22.7923 79.1305 22.6062 78.4524C22.4201 77.7742 22.0841 77.2222 21.5981 76.7962C21.1142 76.3584 20.494 76.0735 19.7374 75.9413C18.9809 75.8092 18.3008 75.867 17.6972 76.1149C17.0956 76.3509 16.5923 76.7563 16.1874 77.3312C15.7824 77.9061 15.5046 78.6251 15.3538 79.488C15.2052 80.3391 15.2239 81.1037 15.41 81.7819C15.5961 82.46 15.9311 83.018 16.415 83.4557C16.8989 83.8935 17.5191 84.1785 18.2756 84.3106C19.0322 84.4428 19.7123 84.3849 20.3159 84.1371C20.9196 83.8892 21.4239 83.4779 21.8288 82.903C22.2338 82.3281 22.5106 81.6151 22.6592 80.764ZM27.2128 73.0255L14.7424 67.8546L16.1627 64.4294L25.8896 68.4627L24.7955 69.0807L18.7136 58.2773L20.2236 54.6359L28.5021 69.9162L27.2128 73.0255ZM23.7285 64.6047L22.6815 61.2086L32.7629 59.6405L31.1427 63.5479L23.7285 64.6047ZM21.354 52.5977L23.2788 49.4074L34.838 56.3811L32.9133 59.5715L21.354 52.5977ZM36.673 41.0023L38.7771 42.6942L32.5847 50.3953L30.4806 48.7034L36.673 41.0023ZM33.123 47.5715L36.7927 51.654L34.5266 51.772L41.001 43.7202L43.3576 45.6151L35.4959 55.3924L30.8784 50.363L24.9751 46.9328L32.7805 37.2257L35.1372 39.1206L28.7192 47.1023L28.348 44.8637L33.123 47.5715ZM40.6363 42.0632L43.5435 39.6192C43.8288 39.8653 44.1705 40.0013 44.5685 40.0273C44.9666 40.0532 45.3995 39.9714 45.8673 39.782C46.3366 39.5756 46.8238 39.2601 47.329 38.8354C48.0271 38.2485 48.5048 37.6979 48.7623 37.1836C49.012 36.6601 48.9901 36.2239 48.6967 35.8748C48.4728 35.6085 48.1842 35.4983 47.831 35.5444C47.4778 35.5905 46.9481 35.8555 46.2419 36.3395L44.1624 37.782C42.6306 38.8503 41.3269 39.3975 40.2515 39.4237C39.1684 39.4406 38.2562 39.0082 37.5149 38.1264C36.9126 37.41 36.6096 36.63 36.6059 35.7865C36.6115 34.9353 36.8866 34.0691 37.4313 33.1879C37.9775 32.2897 38.7558 31.416 39.7661 30.5666C40.7582 29.7326 41.7597 29.1336 42.7706 28.7697C43.7738 28.3967 44.7167 28.2781 45.5992 28.4141C46.4909 28.5424 47.2409 28.931 47.849 29.5798L44.9556 32.0122C44.7104 31.7951 44.4134 31.6842 44.0646 31.6796C43.7173 31.658 43.335 31.7442 42.918 31.9381C42.4932 32.1227 42.0419 32.4158 41.5643 32.8174C40.9213 33.3579 40.4849 33.8737 40.255 34.3649C40.0174 34.8468 40.0376 35.2531 40.3156 35.5838C40.5164 35.8226 40.7888 35.9228 41.1328 35.8845C41.4859 35.8384 41.9796 35.5958 42.6138 35.1567L44.8405 33.6375C45.9006 32.9031 46.821 32.4036 47.602 32.1391C48.3752 31.8653 49.061 31.8139 49.6594 31.985C50.2578 32.156 50.8041 32.5355 51.2983 33.1233C51.9084 33.849 52.2253 34.6642 52.2492 35.5691C52.2654 36.4648 52.0105 37.3924 51.4845 38.3518C50.9509 39.3021 50.1651 40.2136 49.1271 41.0862C48.0616 41.9819 46.9966 42.6265 45.932 43.0198C44.8689 43.3962 43.8798 43.5065 42.965 43.3507C42.0424 43.1856 41.2662 42.7565 40.6363 42.0632ZM74.3592 22.943C73.8943 23.0624 73.4417 23.0609 73.0014 22.9386C72.5611 22.8162 72.1813 22.5917 71.862 22.2648C71.5427 21.938 71.3233 21.5421 71.2039 21.0772C71.0815 20.6007 71.083 20.1481 71.2083 19.7194C71.3306 19.2792 71.5552 18.8993 71.882 18.58C72.2089 18.2607 72.6048 18.0413 73.0697 17.9219C73.5462 17.7995 73.9988 17.801 74.4274 17.9263C74.8677 18.0486 75.2475 18.2732 75.5669 18.6001C75.8832 18.9153 76.1026 19.3111 76.225 19.7877C76.3444 20.2526 76.3429 20.7052 76.2206 21.1454C76.0982 21.5857 75.8737 21.9655 75.5468 22.2849C75.2316 22.6012 74.8357 22.8206 74.3592 22.943ZM100.407 13.6495L104.123 14.1089L102.667 25.8813L98.9515 25.4219L100.407 13.6495ZM95.4988 11.3923L109.433 13.1149L109.026 16.4018L95.0924 14.6793L95.4988 11.3923ZM112.325 13.8885L115.846 15.109L111.424 27.8642L107.903 26.6437L112.325 13.8885ZM122.359 17.3673L125.897 18.5937L121.475 31.3488L117.937 30.1224L122.359 17.3673ZM112.665 19.2834L122.189 22.5852L121.104 25.7145L111.58 22.4126L112.665 19.2834ZM129.153 20.0239L132.436 21.7866L126.049 33.6803L122.766 31.9176L129.153 20.0239ZM142.688 38.9586C141.87 39.8296 140.917 40.4199 139.83 40.7293C138.75 41.0292 137.616 41.041 136.428 40.7648C135.249 40.4959 134.084 39.9293 132.932 39.0651C131.675 38.1217 130.752 37.062 130.164 35.8859C129.577 34.7098 129.336 33.5014 129.441 32.2606C129.557 31.027 130.036 29.8487 130.878 28.7256C131.721 27.6025 132.718 26.8131 133.87 26.3573C135.032 25.9086 136.259 25.802 137.553 26.0374C138.847 26.2728 140.122 26.8622 141.38 27.8056C142.531 28.6697 143.401 29.6299 143.989 30.686C144.587 31.7492 144.889 32.8461 144.896 33.9765C144.91 35.0973 144.614 36.1724 144.006 37.202L141.011 34.9551C141.261 34.4224 141.365 33.8932 141.325 33.3676C141.291 32.8324 141.114 32.3091 140.792 31.7979C140.48 31.2938 140.032 30.8222 139.446 30.3829C138.774 29.8788 138.1 29.5679 137.423 29.4502C136.753 29.3229 136.116 29.3924 135.511 29.6587C134.914 29.9154 134.377 30.3605 133.902 30.9941C133.427 31.6276 133.146 32.272 133.059 32.9271C132.98 33.5727 133.091 34.2039 133.394 34.8208C133.703 35.428 134.194 35.9837 134.866 36.4878C135.451 36.9271 136.026 37.2308 136.59 37.3989C137.164 37.5741 137.712 37.603 138.235 37.4855C138.759 37.368 139.245 37.1101 139.693 36.7117L142.688 38.9586ZM139.481 43.7605L149.684 34.9202L152.112 37.7226L144.154 44.6181L144.091 43.363L156.473 42.756L159.055 45.7352L141.685 46.3045L139.481 43.7605ZM148.571 44.4109L152.077 44.9935L148.97 54.7116L146.2 51.5147L148.571 44.4109ZM165.358 81.6425C164.176 81.8222 163.062 81.6979 162.016 81.2699C160.982 80.8387 160.082 80.1477 159.318 79.1969C158.558 78.2576 157.991 77.0925 157.619 75.7014C157.213 74.1829 157.141 72.7796 157.405 71.4916C157.669 70.2035 158.226 69.1042 159.075 68.1936C159.928 67.2946 161.032 66.6636 162.389 66.3006C163.745 65.9376 165.017 65.9326 166.204 66.2856C167.395 66.6501 168.427 67.3244 169.299 68.3083C170.171 69.2923 170.81 70.5436 171.216 72.0622C171.589 73.4532 171.68 74.7455 171.49 75.9392C171.303 77.1445 170.864 78.1938 170.171 79.0873C169.49 79.9776 168.593 80.6401 167.479 81.0747L166.511 77.458C167.037 77.1932 167.446 76.8415 167.738 76.403C168.043 75.9613 168.226 75.4401 168.289 74.8395C168.355 74.2504 168.293 73.6023 168.104 72.8952C167.887 72.0837 167.548 71.4228 167.089 70.9122C166.641 70.3986 166.097 70.0598 165.456 69.8957C164.828 69.7285 164.131 69.7473 163.366 69.9521C162.601 70.1569 161.982 70.4902 161.509 70.9521C161.048 71.4109 160.746 71.9763 160.603 72.6481C160.471 73.3169 160.514 74.057 160.731 74.8684C160.921 75.5755 161.185 76.1693 161.525 76.6498C161.868 77.1419 162.281 77.5033 162.765 77.7339C163.25 77.9646 163.791 78.0619 164.39 78.0258L165.358 81.6425ZM159.795 90.7518C159.744 89.1566 159.993 87.7439 160.542 86.5137C161.091 85.2954 161.883 84.3336 162.917 83.6281C163.951 82.9346 165.17 82.5653 166.573 82.5203C167.976 82.4753 169.216 82.7657 170.293 83.3915C171.37 84.0293 172.221 84.9385 172.848 86.119C173.474 87.3115 173.813 88.7054 173.864 90.3006C173.916 91.9077 173.667 93.3204 173.118 94.5387C172.568 95.7569 171.777 96.7188 170.743 97.4243C169.709 98.1298 168.49 98.505 167.087 98.5501C165.684 98.5951 164.444 98.2987 163.367 97.6609C162.29 97.0231 161.438 96.1139 160.812 94.9334C160.186 93.7528 159.847 92.359 159.795 90.7518ZM163.124 90.645C163.152 91.5206 163.326 92.2714 163.646 92.8975C163.966 93.5235 164.408 93.9956 164.97 94.3137C165.533 94.6439 166.198 94.7966 166.966 94.772C167.733 94.7474 168.388 94.5523 168.928 94.1868C169.469 93.8333 169.879 93.3339 170.159 92.6886C170.438 92.0433 170.564 91.2829 170.536 90.4073C170.508 89.5438 170.334 88.799 170.014 88.1729C169.694 87.5468 169.252 87.0687 168.689 86.7386C168.126 86.4085 167.461 86.2557 166.694 86.2804C165.926 86.305 165.272 86.5 164.731 86.8656C164.191 87.2311 163.781 87.7365 163.501 88.3818C163.222 89.0271 163.096 89.7815 163.124 90.645ZM158.508 106.305C158.82 104.74 159.383 103.421 160.197 102.347C161.008 101.285 161.997 100.528 163.164 100.076C164.329 99.6351 165.6 99.5522 166.977 99.8269C168.354 100.102 169.495 100.666 170.402 101.52C171.306 102.385 171.929 103.464 172.271 104.756C172.61 106.06 172.624 107.494 172.312 109.059C171.997 110.636 171.434 111.955 170.622 113.017C169.811 114.079 168.822 114.836 167.655 115.288C166.488 115.741 165.216 115.83 163.839 115.555C162.462 115.28 161.322 114.71 160.417 113.844C159.513 112.979 158.89 111.9 158.548 110.608C158.207 109.316 158.193 107.882 158.508 106.305ZM161.773 106.957C161.602 107.816 161.601 108.586 161.771 109.269C161.941 109.951 162.263 110.511 162.739 110.949C163.212 111.398 163.825 111.698 164.578 111.848C165.332 111.998 166.013 111.957 166.622 111.723C167.229 111.502 167.742 111.109 168.161 110.544C168.579 109.979 168.875 109.267 169.046 108.408C169.215 107.56 169.215 106.795 169.045 106.113C168.875 105.431 168.554 104.865 168.08 104.415C167.607 103.966 166.994 103.666 166.241 103.516C165.488 103.366 164.806 103.407 164.197 103.641C163.587 103.874 163.073 104.273 162.655 104.838C162.236 105.403 161.942 106.109 161.773 106.957ZM157.039 114.568L169.37 120.062L167.861 123.449L158.243 119.163L159.353 118.574L165.15 129.533L163.546 133.133L155.669 117.642L157.039 114.568ZM160.302 123.076L161.26 126.499L151.141 127.803L152.863 123.939L160.302 123.076ZM162.384 135.118L160.391 138.265L148.985 131.043L150.979 127.895L162.384 135.118ZM146.789 146.358L144.727 144.615L151.105 137.067L153.168 138.81L146.789 146.358ZM150.498 139.877L146.929 135.706L149.197 135.644L142.529 143.535L140.219 141.583L148.317 132.001L152.81 137.141L158.628 140.714L150.588 150.228L148.279 148.276L154.889 140.453L155.206 142.7L150.498 139.877ZM142.855 145.198L139.886 147.566C139.607 147.313 139.269 147.168 138.871 147.132C138.474 147.096 138.039 147.166 137.567 147.344C137.092 147.538 136.597 147.841 136.081 148.252C135.368 148.821 134.876 149.359 134.606 149.867C134.343 150.384 134.353 150.82 134.638 151.177C134.855 151.449 135.14 151.566 135.495 151.529C135.849 151.492 136.385 151.241 137.104 150.776L139.22 149.387C140.778 148.358 142.096 147.845 143.171 147.847C144.255 147.857 145.155 148.313 145.874 149.214C146.457 149.946 146.74 150.733 146.722 151.576C146.695 152.427 146.397 153.286 145.83 154.153C145.261 155.037 144.461 155.89 143.429 156.713C142.416 157.521 141.399 158.094 140.379 158.432C139.366 158.779 138.421 158.873 137.542 158.715C136.654 158.564 135.914 158.156 135.323 157.492L138.278 155.134C138.518 155.358 138.812 155.476 139.16 155.49C139.507 155.52 139.891 155.444 140.313 155.261C140.743 155.087 141.201 154.806 141.689 154.417C142.346 153.893 142.795 153.389 143.038 152.904C143.288 152.428 143.278 152.021 143.009 151.683C142.814 151.44 142.544 151.332 142.199 151.362C141.845 151.399 141.345 151.629 140.7 152.051L138.435 153.513C137.356 154.22 136.423 154.695 135.636 154.94C134.856 155.193 134.169 155.227 133.575 155.041C132.981 154.854 132.445 154.461 131.966 153.86C131.375 153.119 131.079 152.296 131.079 151.391C131.085 150.495 131.364 149.574 131.915 148.629C132.473 147.693 133.282 146.802 134.342 145.956C135.43 145.088 136.511 144.471 137.585 144.105C138.658 143.756 139.649 143.672 140.56 143.851C141.478 144.04 142.243 144.489 142.855 145.198ZM112.826 162.374C113.286 162.238 113.738 162.224 114.183 162.331C114.627 162.437 115.015 162.648 115.345 162.964C115.676 163.279 115.909 163.667 116.045 164.128C116.184 164.599 116.198 165.052 116.088 165.485C115.981 165.929 115.77 166.316 115.455 166.647C115.14 166.978 114.752 167.211 114.291 167.347C113.819 167.486 113.367 167.5 112.934 167.39C112.49 167.283 112.102 167.072 111.772 166.757C111.444 166.453 111.211 166.065 111.072 165.593C110.936 165.133 110.922 164.68 111.029 164.236C111.135 163.792 111.347 163.404 111.662 163.074C111.966 162.746 112.354 162.513 112.826 162.374Z" fill="#383838"/>
<path d="M81.9399 82.5625V82.5938M105.377 104.438V104.469M92.8774 93.5V93.5313M89.7524 109.125V109.156M77.2524 99.75V99.7813M92.8775 62.25C86.6968 62.25 80.6549 64.0828 75.5159 67.5166C70.3768 70.9504 66.3715 75.831 64.0062 81.5411C61.641 87.2513 61.0221 93.5347 62.2279 99.5966C63.4337 105.658 66.41 111.227 70.7804 115.597C75.1508 119.967 80.719 122.944 86.7809 124.15C92.8428 125.355 99.1261 124.736 104.836 122.371C110.547 120.006 115.427 116.001 118.861 110.862C122.295 105.723 124.127 99.6807 124.127 93.5C121.956 94.1687 119.643 94.2328 117.437 93.6852C115.232 93.1377 113.217 91.9992 111.61 90.3923C110.003 88.7855 108.865 86.7709 108.317 84.5654C107.77 82.3599 107.834 80.0468 108.502 77.875C106.331 78.5437 104.018 78.6078 101.812 78.0602C99.6065 77.5127 97.592 76.3742 95.9851 74.7673C94.3782 73.1605 93.2398 71.1459 92.6922 68.9404C92.1447 66.7349 92.2087 64.4218 92.8775 62.25Z" stroke="#383838" stroke-width="5" stroke-linecap="round" stroke-linejoin="round"/>
</svg>
