<svg xmlns="http://www.w3.org/2000/svg" width="192.57492" height="27.22402" viewBox="0 0 50.952113 7.2030219">
  <defs>
    <clipPath id="a" clipPathUnits="userSpaceOnUse">
      <path d="M0 0h612v792H0Z"/>
    </clipPath>
  </defs>
  <path style="fill:#ffffff;fill-opacity:1;fill-rule:nonzero;stroke:none" d="M0 0h-3.669v13.013h-4.745v3.145H4.745v-3.145H0Z" transform="matrix(.35278 0 0 -.35278 18.61153342 6.80236959)"/>
  <path style="fill:#ffffff;fill-opacity:1;fill-rule:nonzero;stroke:none;stroke-width:.35277778" d="M98.25811 184.54008h-1.302103v-5.70018h1.302103Z" transform="translate(-72.79775058 -177.73777041)"/>
  <path style="fill:#ffffff;fill-opacity:1;fill-rule:nonzero;stroke:none" d="M0 0h6.383v-3.189H-3.69v16.158H0Z" transform="matrix(.35278 0 0 -.35278 48.43574942 5.67749959)"/>
  <g clip-path="url(#a)" transform="matrix(.35278 0 0 -.35278 -35.67602658 179.85532959)">
    <path style="fill:#ffffff;fill-opacity:1;fill-rule:nonzero;stroke:none" d="M0 0h5.979c4.411 0 8.8-2.336 8.8-8.035 0-5.372-4.302-8.123-8.582-8.123H0Zm3.581-12.991H5.87c3.079 0 5.131 1.921 5.131 4.978 0 2.904-2.074 4.868-5.044 4.868H3.581Z" transform="translate(185.5858 506.7018)"/>
  </g>
  <path style="fill:#ffffff;fill-opacity:1;fill-rule:nonzero;stroke:none" d="M0 0h4.057L-2.6 16.158h-3.81L-13.131 0h3.947l1.191 3.188h6.813zm-7.004 6.059 2.434 6.319 2.411-6.319z" transform="matrix(.35278 0 0 -.35278 42.23356942 6.80236959)"/>
  <path style="fill:#ffffff;fill-opacity:1;fill-rule:nonzero;stroke:none" d="m0 0-4.729-4.73L-9.459 0l4.73 4.728Z" transform="matrix(.35278 0 0 -.35278 6.93839742 1.93272959)"/>
  <path style="fill:#ffffff;fill-opacity:1;fill-rule:nonzero;stroke:none" d="m0 0-4.729-4.73L-9.459 0l4.73 4.73Z" transform="matrix(.35278 0 0 -.35278 6.93839742 5.26979959)"/>
  <path style="fill:#ffffff;fill-opacity:1;fill-rule:nonzero;stroke:none" d="m0 0-4.73-4.73L-9.459 0l4.729 4.729Z" transform="matrix(.35278 0 0 -.35278 3.60150942 1.93286959)"/>
  <path style="fill:#ffffff;fill-opacity:1;fill-rule:nonzero;stroke:none" d="m0 0-4.729-4.73L-9.459 0l4.73 4.729Z" transform="matrix(.35278 0 0 -.35278 10.27511042 1.93286959)"/>
</svg>
