<?xml version="1.0" encoding="UTF-8"?>
<svg version="1.1" xmlns="http://www.w3.org/2000/svg" width="2500" height="558">
<path d="M0 0 C9.25013296 0.17036402 18.49977001 0.29210833 27.75103474 0.38024521 C60.34157867 0.69321813 92.82751667 1.75359858 125.36596584 3.66450119 C132.11170046 4.05789927 138.85664979 4.3980846 145.60815334 4.67448044 C253.52440456 9.16942993 253.52440456 9.16942993 284.97924709 39.20963669 C284.97924709 39.86963669 284.97924709 40.52963669 284.97924709 41.20963669 C285.96924709 41.53963669 286.95924709 41.86963669 287.97924709 42.20963669 C287.97924709 42.86963669 287.97924709 43.52963669 287.97924709 44.20963669 C288.63924709 44.20963669 289.29924709 44.20963669 289.97924709 44.20963669 C291.65917103 46.11012618 293.20260047 48.0033233 294.72924709 50.02213669 C295.17808254 50.61236618 295.62691799 51.20259567 296.08935452 51.81071091 C299.96246943 57.00511011 303.13201831 62.38653927 305.97924709 68.20963669 C306.62120022 69.44520309 306.62120022 69.44520309 307.27612209 70.70573044 C320.60302556 97.72972913 321.78068573 130.77148592 324.97924709 160.20963669 C325.10573635 161.37317673 325.23222561 162.53671677 325.36254787 163.73551559 C327.40358598 183.15287176 328.11213386 202.71168217 328.97924709 222.20963669 C329.01060757 222.90059433 329.04196804 223.59155197 329.07427883 224.30344772 C330.7711351 261.86340202 330.6794716 299.65223183 328.97924709 337.20963669 C328.91408113 338.70068217 328.8489795 340.19173046 328.78393459 341.68278122 C322.43591605 485.03666428 322.43591605 485.03666428 279.40112209 524.66276169 C275.8842668 527.73538263 272.06570739 530.00499529 267.97924709 532.20963669 C267.17616116 532.67369919 266.37307522 533.13776169 265.54565334 533.61588669 C228.88506383 554.47358058 178.65648186 553.33435436 137.47795677 554.83417606 C132.36342135 555.03175818 127.26372562 555.31931923 122.15812588 555.68119431 C90.28980648 557.81758696 58.36165799 557.52198788 26.43897523 557.51199771 C20.38397475 557.51015331 14.32898506 557.51200029 8.27398586 557.51620674 C7.4010592 557.51680193 6.52813253 557.51739712 5.62875354 557.51801034 C3.85336733 557.51922254 2.07798111 557.52043668 0.3025949 557.52165272 C-16.23309616 557.5324519 -32.76876669 557.53040323 -49.30445886 557.52426787 C-64.28732952 557.51911446 -79.27013486 557.53032624 -94.25299263 557.54936609 C-109.78761294 557.56894933 -125.32220269 557.57696467 -140.85683537 557.57324284 C-149.51781986 557.57136023 -158.17874847 557.57360368 -166.83972263 557.58795738 C-203.40705378 557.64515119 -239.75879286 557.23834614 -276.2614994 554.7548328 C-284.66816641 554.19593917 -293.07836751 553.84880182 -301.49856472 553.56610793 C-310.54686471 553.24776788 -319.47538394 552.36592413 -328.45825291 551.27213669 C-329.92624932 551.10003576 -331.39434926 550.9288157 -332.86254978 550.75846481 C-335.77886268 550.41947594 -338.69427955 550.0738083 -341.60937595 549.72452927 C-344.63994261 549.36499061 -347.67205016 549.03165862 -350.70752048 548.71622849 C-359.18542313 547.8310631 -367.50631732 546.78014599 -375.83325291 544.89713669 C-376.80391697 544.68129929 -377.77458103 544.46546188 -378.77465916 544.24308395 C-388.85095722 541.91849681 -398.20807653 538.71755943 -407.02075291 533.20963669 C-407.99012791 532.67338669 -408.95950291 532.13713669 -409.95825291 531.58463669 C-410.97919041 530.90401169 -410.97919041 530.90401169 -412.02075291 530.20963669 C-412.02075291 529.54963669 -412.02075291 528.88963669 -412.02075291 528.20963669 C-412.56989353 528.12971481 -413.11903416 528.04979294 -413.68481541 527.96744919 C-421.4301693 525.45474241 -428.13257589 517.53380636 -433.02075291 511.20963669 C-433.66141697 510.42717575 -434.30208103 509.64471481 -434.96215916 508.83854294 C-440.18092115 502.17397591 -444.4525242 494.87154935 -448.02075291 487.20963669 C-448.33818455 486.54383591 -448.65561619 485.87803513 -448.98266697 485.19205856 C-451.46374471 479.83879724 -453.20732537 474.565659 -454.58325291 468.83463669 C-454.79377293 467.97612106 -455.00429295 467.11760544 -455.22119236 466.23307419 C-457.18851746 457.96169276 -458.52088972 449.63088927 -459.72094822 441.21940231 C-460.10873094 438.61986864 -460.59802377 436.04254872 -461.08325291 433.45963669 C-462.17144318 426.975093 -462.67140164 420.44652391 -463.20068455 413.89738083 C-463.64284595 408.44973104 -464.13642796 403.01660401 -464.74340916 397.58463669 C-473.5679469 317.49916412 -473.06047514 232.17749201 -463.70735264 152.18670273 C-463.12569028 147.20867834 -462.63006669 142.2284246 -462.18090916 137.23698044 C-461.46678831 129.33153741 -460.30031055 121.63905134 -458.73169041 113.85807419 C-458.08537679 110.54127795 -457.59274919 107.24539187 -457.14575291 103.89713669 C-454.45472181 86.36203082 -449.0611735 70.91168113 -439.02075291 56.20963669 C-438.46387791 55.30213669 -437.90700291 54.39463669 -437.33325291 53.45963669 C-432.17178736 46.20568511 -426.05757848 39.66676673 -419.02075291 34.20963669 C-418.36075291 34.20963669 -417.70075291 34.20963669 -417.02075291 34.20963669 C-417.02075291 33.54963669 -417.02075291 32.88963669 -417.02075291 32.20963669 C-410.6615642 26.75420865 -402.65016716 23.45872949 -395.02075291 20.20963669 C-394.28316746 19.88720993 -393.54558201 19.56478317 -392.78564548 19.23258591 C-386.49756909 16.57807792 -380.26777358 14.91826944 -373.58325291 13.58463669 C-372.52976658 13.37081345 -371.47628025 13.1569902 -370.39087009 12.93668747 C-361.83416898 11.25669332 -353.33771463 10.20623177 -344.65795994 9.45866013 C-341.75028099 9.18409685 -338.85418532 8.8463367 -335.95434666 8.49869919 C-320.67895387 6.68960724 -305.44617484 5.59752146 -290.08886909 4.88847351 C-281.19778736 4.47675522 -272.31140481 4.00708948 -263.42529392 3.49967575 C-227.09485971 1.45347136 -190.81606614 0.47407887 -154.43467426 0.01600647 C-149.93809971 -0.04082805 -145.44160202 -0.10277033 -140.94509983 -0.16502762 C-93.95168998 -0.81056896 -46.99219516 -0.86784746 0 0 Z M-149.02075291 161.20963669 C-149.02075291 239.08963669 -149.02075291 316.96963669 -149.02075291 397.20963669 C-145.39595348 395.75971692 -142.63534103 394.47489887 -139.39575291 392.45963669 C-135.96109072 390.36151706 -132.50586515 388.36033609 -128.95825291 386.45963669 C-123.26389475 383.38970534 -117.70610453 380.10590767 -112.13964939 376.81217575 C-108.62286095 374.73355651 -105.10565571 372.66947655 -101.52075291 370.70963669 C-92.21338676 365.60675641 -83.12252305 360.09090313 -74.03857517 354.60294724 C-68.35861212 351.17211182 -62.63849402 347.85849811 -56.79419041 344.71354294 C-46.75615721 339.27038409 -36.97988155 333.3977154 -27.2058115 327.49894333 C-22.10833524 324.43236325 -16.97210511 321.49300937 -11.71997166 318.69791794 C-8.26386973 316.79231036 -4.89573298 314.75458361 -1.52075291 312.70963669 C2.6859618 310.16237964 6.89574286 307.66288586 11.22924709 305.33463669 C23.12999352 298.94020577 34.78876013 292.0679943 46.21752834 284.86588669 C49.07229326 283.15383531 51.98451945 281.66055348 54.97924709 280.20963669 C52.64239 276.70435105 50.99605099 276.03841165 47.22924709 274.27213669 C42.88472746 272.17460467 38.96924745 269.92623267 34.97924709 267.20963669 C33.34081605 266.30033561 31.69386148 265.4063328 30.04174709 264.52213669 C24.77166689 261.68991671 19.66147736 258.6398947 14.54809475 255.53824997 C9.85742092 252.70512618 5.08681456 250.06024186 0.25659084 247.47135544 C-2.6161543 245.87976593 -5.28881384 244.0309294 -8.02075291 242.20963669 C-10.63014575 240.74626097 -13.26267402 239.32914391 -15.89575291 237.90885544 C-23.6387585 233.69859615 -31.303864 229.36949856 -38.70825291 224.58463669 C-43.06753706 221.76953045 -47.5176713 219.24421862 -52.09106541 216.79557419 C-55.92125777 214.72216339 -59.69481988 212.55476305 -63.47045994 210.38395309 C-66.66378904 208.55040883 -69.8650488 206.73360238 -73.08325291 204.94401169 C-80.01324071 201.08782203 -86.80179672 197.13778386 -93.45825291 192.81901169 C-96.91072139 190.65069307 -100.47513929 188.73184041 -104.06762791 186.80729294 C-111.55259453 182.75788639 -118.93171641 178.49675882 -126.20825291 174.08463669 C-130.49663552 171.48903668 -134.86693236 169.07375273 -139.28247166 166.70182419 C-142.55488567 164.91856862 -145.78502447 163.05862436 -149.02075291 161.20963669 Z " fill="#FEFEFE" transform="translate(469.0207529067993,0.7903633117675781)"/>
<path d="M0 0 C25.74 0 51.48 0 78 0 C78.33 59.4 78.66 118.8 79 180 C80.32 177.69 81.64 175.38 83 173 C84.50805664 171.02783203 84.50805664 171.02783203 85.91015625 169.5078125 C86.42513672 168.94835937 86.94011719 168.38890625 87.47070312 167.8125 C87.99599609 167.255625 88.52128906 166.69875 89.0625 166.125 C89.85624023 165.25488281 89.85624023 165.25488281 90.66601562 164.3671875 C93.06135275 161.79452931 94.6148822 160.1283726 98 159 C98 158.34 98 157.68 98 157 C99.96020187 155.5298486 101.91136276 154.27442272 104 153 C104.83917969 152.45859375 105.67835938 151.9171875 106.54296875 151.359375 C120.98900023 142.3915282 134.333961 139.94383812 151 140 C152.27359375 140 153.5471875 140 154.859375 140 C171.08690923 140.58742205 184.06121546 146.57908358 195.25 158.25 C199.78673604 163.43382535 203.01787364 168.82027572 206 175 C206.31227539 175.58233398 206.62455078 176.16466797 206.94628906 176.76464844 C227.57783521 215.81791636 222.33857249 270.50526133 222.26074219 313.17529297 C222.24932378 319.49385072 222.25614225 325.81224053 222.26761246 332.13079262 C222.36700944 396.35422927 222.36700944 396.35422927 217.75 421.125 C217.53529053 422.31746338 217.32058105 423.50992676 217.09936523 424.73852539 C215.20565267 434.7906041 212.6087296 444.43256215 209 454 C208.64252686 454.96679688 208.64252686 454.96679688 208.27783203 455.953125 C204.95993176 464.7704962 200.57896771 472.42530401 195 480 C194.53078125 480.65484375 194.0615625 481.3096875 193.578125 481.984375 C185.090401 492.86863283 171.74020628 500.33973757 158.21875 502.64453125 C133.40370015 505.19073989 110.84857037 501.67764979 91.08984375 485.7734375 C86.08623864 481.52738756 82.02410145 477.18578132 78.2890625 471.76953125 C77.3602124 470.42725464 77.3602124 470.42725464 76.41259766 469.05786133 C75.94644043 468.37876709 75.4802832 467.69967285 75 467 C74.79318604 467.86802246 74.58637207 468.73604492 74.37329102 469.63037109 C73.60555713 472.84748005 72.83563255 476.0640481 72.06420898 479.28027344 C71.73064449 480.67296608 71.39795724 482.06586914 71.06616211 483.45898438 C70.58937813 485.46019426 70.109455 487.46062877 69.62890625 489.4609375 C69.34088135 490.66540527 69.05285645 491.86987305 68.75610352 493.11083984 C68 496 68 496 67 498 C44.89 498 22.78 498 0 498 C0 333.66 0 169.32 0 0 Z M90 207 C90 207.66 90 208.32 90 209 C89.01 209.33 88.02 209.66 87 210 C85.41977909 211.77256213 85.41977909 211.77256213 84 214 C83.505 214.721875 83.01 215.44375 82.5 216.1875 C78.96159459 222.82201014 77.55274894 229.17520627 77.57867432 236.64573669 C77.56976095 237.46716488 77.56084758 238.28859307 77.55166411 239.13491303 C77.52584517 241.86144058 77.52109955 244.58756932 77.51660156 247.31420898 C77.50270031 249.27959013 77.48762409 251.24496326 77.47146606 253.21032715 C77.4322616 258.53054106 77.41279406 263.85064171 77.39943409 269.17097735 C77.39061898 272.49836465 77.37830067 275.82572147 77.36492157 279.15309334 C77.32395029 289.57444398 77.29492022 299.99572439 77.2833159 310.41714996 C77.26986492 322.42876203 77.21715903 334.43935142 77.13031411 346.45065254 C77.06541765 355.75029757 77.03520094 365.04965507 77.03119254 374.34952408 C77.02805297 379.89788579 77.01043053 385.44528384 76.9567337 390.9934063 C76.90720472 396.2117399 76.90086235 401.4283882 76.92715073 406.64687347 C76.92945706 408.55683224 76.91649511 410.46688278 76.88677597 412.37661171 C76.52526443 424.61891848 76.52526443 424.61891848 82.3168335 435.02772522 C84.61492451 437.20711806 84.61492451 437.20711806 87 439 C87.71356785 439.55735053 88.4271357 440.11470106 89.16232681 440.688941 C96.44731612 445.88630191 106.45866699 445.89801351 115 445 C118.12738242 444.15394485 120.42163141 442.94539071 123 441 C123.61359375 440.53722656 124.2271875 440.07445312 124.859375 439.59765625 C137.72428523 428.35460436 138.71930972 405.92241258 140 390 C140.14921756 385.53305635 140.15707008 381.06853461 140.16113281 376.59936523 C140.16609772 375.28085571 140.17106262 373.96234619 140.17617798 372.60388184 C140.18921322 369.00581109 140.19573107 365.40775894 140.20018864 361.8096683 C140.20313766 359.54888655 140.20724603 357.28810967 140.21169281 355.0273304 C140.22535295 347.91742048 140.23502324 340.80752194 140.2388947 333.69759983 C140.24335269 325.56011363 140.26080086 317.42279731 140.2898953 309.28536266 C140.31172928 302.9527957 140.3216106 296.62027571 140.32293582 290.28767163 C140.32396978 286.52660338 140.32956675 282.76569501 140.34775543 279.00466728 C140.94203156 239.40378038 140.94203156 239.40378038 127.125 203.0625 C122.5418571 198.61415542 118.25759407 197.80468116 112.0625 197.625 C103.19722471 197.88996464 96.46343326 200.82879643 90 207 Z " fill="#FCFCFC" transform="translate(2036,22)"/>
<path d="M0 0 C26.73 0 53.46 0 81 0 C81.0093457 8.18095459 81.01869141 16.36190918 81.02832031 24.79077148 C81.06108147 51.01644195 81.1134042 77.24203876 81.17792095 103.46764919 C81.18793748 107.54654767 81.19778177 111.62544655 81.20751953 115.7043457 C81.2094609 116.51632426 81.21140228 117.32830281 81.21340248 118.16488678 C81.2443584 131.28368009 81.26138519 144.40245593 81.27319422 157.52127885 C81.28563909 170.9990684 81.31321534 184.47676684 81.35461307 197.95449883 C81.37965339 206.25986201 81.39312424 214.56507395 81.39142957 222.87047542 C81.39139964 228.57866446 81.40616929 234.28670033 81.43216428 239.99482959 C81.44670086 243.28000599 81.45290165 246.5648092 81.44580269 249.85001945 C80.54759142 273.28359777 80.54759142 273.28359777 89 294.4375 C94.36842444 299.02302921 98.33238034 299.61042721 105.33984375 299.515625 C114.73281834 298.19238845 124.27101174 292.63238951 130.35470885 285.38649464 C134.47316039 279.50687649 134.70996298 274.48520739 134.63923645 267.44604492 C134.64759213 266.29989841 134.6559478 265.15375191 134.66455668 263.97287369 C134.68646077 260.14176062 134.67288621 256.31160847 134.65942383 252.48046875 C134.66510683 249.73053069 134.67830314 246.98064062 134.69119263 244.23072815 C134.71499708 238.315262 134.72065037 232.40000417 134.71384621 226.48449707 C134.70403511 217.9317997 134.72179902 209.37933285 134.74621352 200.82667279 C134.78508248 186.94938482 134.80176483 173.0721629 134.80444336 159.19482422 C134.80709235 145.7172507 134.82022227 132.23975435 134.84741211 118.76220703 C134.84908549 117.93093705 134.85075887 117.09966707 134.85248295 116.2432071 C134.86094265 112.07281593 134.86960802 107.90242522 134.87837565 103.73203468 C134.95080342 69.15470032 134.9872028 34.57740591 135 0 C145.41342925 -0.02312359 155.82685244 -0.04091517 166.24030209 -0.05181217 C171.07516827 -0.05704097 175.91001694 -0.06413854 180.74487305 -0.07543945 C185.4067712 -0.08626847 190.06865246 -0.09227686 194.73056221 -0.09487724 C196.51324288 -0.09673147 198.29592259 -0.10035203 200.07859612 -0.10573006 C202.5666596 -0.11294069 205.05465243 -0.11399093 207.54272461 -0.11352539 C208.28718842 -0.11712067 209.03165222 -0.12071594 209.79867554 -0.12442017 C214.88594784 -0.11405216 214.88594784 -0.11405216 216 1 C216.09758686 2.860937 216.1237136 4.72563371 216.12304783 6.58912754 C216.12503888 7.81030704 216.12702993 9.03148654 216.12908131 10.28967148 C216.12622772 11.66231719 216.12328211 13.0349627 216.12025452 14.40760803 C216.12069009 15.85215141 216.12156474 17.29669471 216.12284368 18.74123758 C216.12509135 22.72953906 216.12106367 26.71781394 216.11606562 30.70611203 C216.11176518 34.99993144 216.11320725 39.29374923 216.1139679 43.58757019 C216.11449339 51.03315146 216.11134394 58.47872399 216.10573006 65.92430305 C216.09761849 76.68948901 216.09500019 87.45467073 216.09374207 98.21985941 C216.091551 115.68376609 216.08488946 133.14766812 216.07543945 150.61157227 C216.06626673 167.58064755 216.05918522 184.54972157 216.05493164 201.51879883 C216.05466892 202.56398456 216.05440619 203.60917029 216.05413551 204.68602831 C216.05283051 209.92918261 216.0515668 215.17233691 216.05032361 220.41549122 C216.03994931 263.94366421 216.02205518 307.4718315 216 351 C194.88 351 173.76 351 152 351 C150.45766231 346.37298693 149.61006662 342.91743259 149.0625 338.1875 C148.0119434 329.73262046 146.53820041 321.37806492 145 313 C144.34 313 143.68 313 143 313 C141.91408387 314.58224899 140.9075854 316.21920412 139.9375 317.875 C128.7266547 335.9279282 112.4373585 349.16390086 92 355 C72.24807643 359.41217737 50.02673406 358.62346723 32 349 C30.29520764 347.71577316 28.62378667 346.3852337 27 345 C26.01386719 344.24009766 26.01386719 344.24009766 25.0078125 343.46484375 C19.25067386 338.79463377 15.70688904 333.36271081 12 327 C11.23623047 325.80503906 11.23623047 325.80503906 10.45703125 324.5859375 C1.0264243 307.84850639 -0.17203056 285.81193829 -0.12025452 267.08528137 C-0.12110894 265.93657159 -0.12196337 264.78786181 -0.12284368 263.60434264 C-0.12448138 259.78284306 -0.11900528 255.96138807 -0.11352539 252.13989258 C-0.112685 249.38953626 -0.11335807 246.63918079 -0.1139679 243.88882446 C-0.11449044 237.98164731 -0.11137189 232.07448126 -0.10573006 226.1673069 C-0.09757841 217.62668618 -0.09499609 209.08607079 -0.09374207 200.5454466 C-0.09155729 186.68646331 -0.08491281 172.82748594 -0.07543945 158.96850586 C-0.06625045 145.51147491 -0.0591769 132.05444557 -0.05493164 118.59741211 C-0.05466892 117.7669303 -0.05440619 116.93644849 -0.05413551 116.08080057 C-0.0528304 111.91422168 -0.05156671 107.74764278 -0.05032361 103.58106387 C-0.03996889 69.05403734 -0.02154024 34.52702181 0 0 Z " fill="#FCFCFC" transform="translate(1775,169)"/>
<path d="M0 0 C0.74446381 0.00359528 1.48892761 0.00719055 2.25595093 0.01089478 C3.0363826 0.01074875 3.81681427 0.01060272 4.62089539 0.01045227 C7.21273534 0.01115158 9.80450432 0.01894481 12.39633179 0.02676392 C14.18852194 0.02862803 15.9807126 0.03005196 17.77290344 0.03105164 C22.49938351 0.03487733 27.22583305 0.04470805 31.95230103 0.05575562 C36.77153104 0.06596863 41.59076596 0.07054902 46.41000366 0.07559204 C55.87290773 0.08633027 65.3357891 0.10340731 74.79867554 0.12442017 C74.80041179 0.68195201 74.80214804 1.23948385 74.8039369 1.8139106 C74.90709168 34.89928957 75.01523086 67.98464808 75.12979248 101.06998945 C75.14356112 105.04760555 75.15728836 109.0252218 75.17098999 113.00283813 C75.17371829 113.79466932 75.1764466 114.5865005 75.17925758 115.40232657 C75.22326466 128.20304975 75.26392162 141.00378147 75.30332815 153.80451955 C75.34387458 166.95116443 75.38804984 180.09779356 75.43555409 193.24441516 C75.46472471 201.34859586 75.49110591 209.45277559 75.51385451 217.5569769 C75.53163811 223.78404462 75.55448437 230.01108468 75.57916641 236.23812866 C75.5884751 238.7833082 75.59617213 241.32849426 75.60209465 243.87368393 C74.54124022 269.9770543 74.54124022 269.9770543 82.67367554 294.12442017 C87.84182071 298.9885568 92.66544992 299.73166482 99.57211304 299.53457642 C109.47759777 298.27540463 117.84216255 293.28689602 124.0473358 285.57194996 C128.25631411 279.66643636 128.50933075 274.67852245 128.43791199 267.57046509 C128.44626766 266.42431858 128.45462334 265.27817207 128.46323222 264.09729385 C128.4851363 260.26618079 128.47156175 256.43602863 128.45809937 252.60488892 C128.46378237 249.85495086 128.47697868 247.10506079 128.48986816 244.35514832 C128.51367262 238.43968217 128.51932591 232.52442433 128.51252174 226.60891724 C128.50271065 218.05621986 128.52047456 209.50375301 128.54488906 200.95109296 C128.58375802 187.07380499 128.60044037 173.19658307 128.6031189 159.31924438 C128.60576789 145.84167087 128.6188978 132.36417451 128.64608765 118.8866272 C128.64776102 118.05535722 128.6494344 117.22408724 128.65115849 116.36762726 C128.65961819 112.19723609 128.66828356 108.02684538 128.67705119 103.85645485 C128.74947901 69.27909493 128.78178167 34.70186057 128.79867554 0.12442017 C155.52867554 0.12442017 182.25867554 0.12442017 209.79867554 0.12442017 C209.79867554 115.95442017 209.79867554 231.78442017 209.79867554 351.12442017 C188.67867554 351.12442017 167.55867554 351.12442017 145.79867554 351.12442017 C139.99510411 319.78513445 139.99510411 319.78513445 139.79867554 310.12442017 C139.13867554 310.12442017 138.47867554 310.12442017 137.79867554 310.12442017 C137.5318396 310.85402954 137.26500366 311.58363892 136.99008179 312.33535767 C129.1080492 330.78706674 111.74827107 345.26925663 93.61117554 352.87442017 C74.14090956 359.95658709 47.77767379 359.59823711 28.70883179 350.89004517 C12.05768001 340.7876014 2.74509065 324.40642397 -1.90358144 305.93872201 C-6.71507507 285.60939214 -6.49364865 264.50512822 -6.44424438 243.74404907 C-6.44532018 241.08220992 -6.44718402 238.42038174 -6.44999695 235.75854492 C-6.45497985 229.34508596 -6.44947584 222.93167948 -6.44014665 216.51822706 C-6.42966574 209.04015022 -6.42983525 201.56208415 -6.43031923 194.08400135 C-6.43081714 180.75192294 -6.42172531 167.41986875 -6.40713501 154.08779907 C-6.39299038 141.15615397 -6.38596709 128.22453013 -6.3866272 115.2928772 C-6.38666715 114.49299643 -6.38670711 113.69311567 -6.38674828 112.8689961 C-6.38678863 112.07047355 -6.38682899 111.271951 -6.38687056 110.44923079 C-6.38755926 95.6902481 -6.38168517 80.9312744 -6.37271735 66.17229462 C-6.36969947 60.95821225 -6.36863769 55.74413152 -6.36818504 50.53004837 C-6.36743402 43.53507878 -6.36111502 36.54013206 -6.35101891 29.54516983 C-6.34808573 26.97193031 -6.34687018 24.39868821 -6.34744644 21.82544708 C-6.34793323 18.33032343 -6.34232061 14.83526372 -6.33503723 11.34014893 C-6.33658583 10.30819448 -6.33813444 9.27624004 -6.33972996 8.21301425 C-6.33650552 7.28469046 -6.33328107 6.35636668 -6.32995892 5.39991188 C-6.32925449 4.59256336 -6.32855007 3.78521484 -6.32782429 2.95340121 C-6.05653171 -0.96904666 -3.28283899 0.00669052 0 0 Z " fill="#FCFCFC" transform="translate(1377.2013244628906,168.87557983398438)"/>
<path d="M0 0 C2.57631868 2.5112854 4.81634854 5.1436597 7 8 C7.66773438 8.8559375 8.33546875 9.711875 9.0234375 10.59375 C39.11822855 50.4218006 35.80400625 106.72050374 35.52976084 153.96527177 C35.4987058 159.63096636 35.49712365 165.29636564 35.5032897 170.96212703 C35.50966768 177.20709721 35.49872245 183.4519193 35.47932434 189.69685936 C35.47239495 192.3042548 35.46915726 194.91166326 35.47001648 197.51906776 C35.4619523 213.58994322 34.52960619 229.12497305 32 245 C31.75413153 246.59795735 31.50831982 248.19592344 31.26257324 249.79389954 C28.31880754 268.83756212 22.96459587 287.93747395 12 304 C11.443125 304.99 10.88625 305.98 10.3125 307 C9.879375 307.66 9.44625 308.32 9 309 C8.34 309 7.68 309 7 309 C6.835 309.680625 6.67 310.36125 6.5 311.0625 C4.61630633 314.75140011 2.13458028 316.73928134 -1.02734375 319.3515625 C-2.98616054 320.93384275 -2.98616054 320.93384275 -4.5703125 322.59765625 C-7.0026663 324.98348962 -10.0186029 326.41063267 -13 328 C-13.83402344 328.46664063 -14.66804688 328.93328125 -15.52734375 329.4140625 C-44.54231234 344.93647368 -85.39310358 345.44067394 -116.5 336.25 C-129.85368682 332.0634804 -141.2985469 326.22585597 -151 316 C-151.928125 315.113125 -152.85625 314.22625 -153.8125 313.3125 C-156 311 -156 311 -156 309 C-156.66 309 -157.32 309 -158 309 C-187.29483967 270.18618221 -184.71365292 212.53385954 -184.52148438 166.49072266 C-184.49866852 160.97417514 -184.5122849 155.45839882 -184.53524971 149.94187737 C-184.60869839 129.10921782 -184.39094307 108.41632572 -182.1484375 87.6875 C-182.06597275 86.92339687 -181.983508 86.15929375 -181.89854431 85.37203598 C-178.4071328 53.9920872 -169.62163343 19.62993092 -144.75 -1.9375 C-142 -4 -142 -4 -140 -4 C-140 -4.66 -140 -5.32 -140 -6 C-102.6345514 -33.82533407 -34.5322728 -30.0234507 0 0 Z M-87.8125 36.6875 C-106.20536176 56.13138243 -102.31764749 90.30216377 -102.30158257 114.99834681 C-102.30049812 118.3098938 -102.30543348 121.62142223 -102.310188 124.93296516 C-102.3212129 132.76489509 -102.3217612 140.59677704 -102.31567383 148.42871094 C-102.3096469 156.43289139 -102.32192877 164.43689548 -102.3432439 172.44104588 C-102.36102425 179.38020235 -102.36683554 186.31930353 -102.36360615 193.25848186 C-102.36181827 197.37320766 -102.36417241 201.4878078 -102.37832069 205.60251236 C-104.44433899 245.89823287 -104.44433899 245.89823287 -89 281 C-84.35687734 285.11079012 -79.04920598 285.708472 -73 286 C-66.59725044 285.14848343 -61.76328433 283.45398015 -57 279 C-44.84080748 261.65861524 -44.84744591 237.14887088 -44.85473633 216.81225586 C-44.85173564 215.43246369 -44.84833106 214.05267235 -44.84455872 212.67288208 C-44.83580477 208.95962089 -44.83338421 205.24638281 -44.83274293 201.53311229 C-44.83202726 199.20183183 -44.8298832 196.87055706 -44.82724571 194.53927803 C-44.81801914 186.37359374 -44.81390724 178.20792566 -44.81469727 170.04223633 C-44.8152966 162.48403065 -44.80476624 154.92589667 -44.7889536 147.3677091 C-44.77578477 140.83558605 -44.77051728 134.30348615 -44.77115268 127.77134997 C-44.77140503 123.88924253 -44.76870187 120.00719887 -44.75797462 116.1251049 C-43.94279818 77.92677097 -43.94279818 77.92677097 -55 42 C-55.66 42 -56.32 42 -57 42 C-57.24363281 41.39542969 -57.48726562 40.79085937 -57.73828125 40.16796875 C-60.49569791 35.42999275 -66.38354288 33.47024207 -71.4375 32 C-77.43135682 32 -82.67999595 33.60799757 -87.8125 36.6875 Z " fill="#FEFEFE" transform="translate(1297,185)"/>
<path d="M0 0 C26.73 0 53.46 0 81 0 C83.64 12.21 86.28 24.42 89 37 C90.7634375 45.0128125 90.7634375 45.0128125 92.5625 53.1875 C94.93992486 64.0257604 97.22290745 74.8775122 99.4375 85.75 C101.86648352 97.67179166 104.41188475 109.56299545 107.0625 121.4375 C107.23173981 122.19635498 107.40097961 122.95520996 107.5753479 123.73706055 C109.24323149 131.21004155 110.92491832 138.67969248 112.62890625 146.14453125 C116.06884822 161.28425654 119.05696734 176.48464401 121.85231018 191.75378418 C122.77953535 196.81637411 123.72345907 201.87566737 124.67578125 206.93359375 C124.81353973 207.66549423 124.95129822 208.39739471 125.0932312 209.151474 C125.62989059 212.00177003 126.16686601 214.85200649 126.70385742 217.70223999 C127.07010931 219.64773264 127.43546298 221.59339432 127.80078125 223.5390625 C128.11269409 225.19736084 128.11269409 225.19736084 128.4309082 226.88916016 C128.98563034 229.92145078 129.50195265 232.95793478 130 236 C130.09498779 235.43941895 130.18997559 234.87883789 130.2878418 234.30126953 C134.22473453 211.15654584 138.69021202 188.1550361 143.6640625 165.2109375 C144.65585669 160.62746066 145.60464569 156.04067449 146.5 151.4375 C148.30894325 142.23317109 150.40738134 133.09147542 152.453125 123.9375 C153.862394 117.62901049 155.25174807 111.31642247 156.625 105 C156.83125 104.0519751 157.0375 103.1039502 157.25 102.12719727 C158.16880678 97.88912735 159.07763324 93.64958699 159.953125 89.40234375 C162.25811495 78.22796747 164.80831179 67.11826554 167.45068359 56.01928711 C169.22452252 48.5202405 170.82857148 41.01483472 172.26928711 33.44628906 C173.01991607 29.90606908 173.9838056 26.47212881 175 23 C175.3407271 21.27617325 175.65516441 19.5468472 175.9375 17.8125 C177.03257419 11.82180003 178.52296653 5.90813386 180 0 C206.4 0 232.8 0 260 0 C258.87494595 7.87537832 258.87494595 7.87537832 257.97192383 11.13330078 C257.77091568 11.86659607 257.56990753 12.59989136 257.36280823 13.35540771 C257.14640182 14.12757629 256.92999542 14.89974487 256.70703125 15.6953125 C256.36725502 16.92704193 256.36725502 16.92704193 256.02061462 18.18365479 C255.28881667 20.8319653 254.55078535 23.47849145 253.8125 26.125 C253.30536587 27.95515828 252.79853094 29.7853995 252.29199219 31.61572266 C249.59359845 41.35116161 246.86011369 51.07588788 244.05444336 60.78100586 C242.24601856 67.06198962 240.55498185 73.37110249 238.875 79.6875 C235.84341534 91.06066589 232.62575999 102.37546461 229.375 113.6875 C224.62052763 130.23272303 219.98655937 146.80845303 215.41540527 163.4052124 C211.90054432 176.16507648 208.33609404 188.90687579 204.67041016 201.62426758 C202.57542991 208.9166882 200.57708243 216.23063176 198.625 223.5625 C195.85731937 233.94812921 192.95768829 244.29223751 190 254.625 C189.78477692 255.37692627 189.56955383 256.12885254 189.34780884 256.90356445 C187.01480168 265.04655659 184.66473968 273.18418625 182.2668457 281.30834961 C181.71277167 283.19764426 181.16268902 285.08813666 180.62303543 286.98160076 C179.22908055 291.85493893 177.78298318 296.69221547 176.17698669 301.50009155 C170.30108035 319.91457231 169.98548883 337.43195266 170.08831334 356.54103899 C170.10421795 360.89986643 170.07994401 365.25849238 170.06040955 369.61727905 C170.02948223 377.82596658 170.0333184 386.03423246 170.05048412 394.24294508 C170.07166137 405.36728991 170.03743351 416.49146657 170.00674725 427.61576653 C169.96000335 445.07737427 169.98580992 462.53808887 170 480 C143.6 480 117.2 480 90 480 C90.020625 468.91921875 90.04125 457.8384375 90.0625 446.421875 C90.05776473 439.34891601 90.05098871 432.27605351 90.03515625 425.203125 C90.01046741 414.00766976 89.99346723 402.81263095 90.03076172 391.6171875 C90.05790153 383.45849164 90.05611853 375.30036114 90.02174091 367.14168477 C90.00454588 362.83456812 90.00037677 358.52846124 90.03103638 354.2213974 C90.16516239 333.86786816 88.71913707 316.47080189 82.01599121 297.07163239 C80.26622093 291.78157572 78.89924295 286.39117328 77.5 281 C75.09669112 271.97102029 72.58643774 262.97820915 70 254 C67.10906873 243.96481328 64.33918565 233.90448383 61.65112305 223.81323242 C59.13697181 214.41538515 56.46675841 205.0653047 53.77832031 195.71606445 C51.41911954 187.50119746 49.15465941 179.27111191 47 171 C44.36209939 160.95252968 41.59055866 150.94809805 38.77587891 140.94897461 C36.65002514 133.37597152 34.5905906 125.78720456 32.5625 118.1875 C29.81665632 107.90896146 26.92427312 97.6779268 23.97851562 87.45507812 C21.75689792 79.72008162 19.62898977 71.96525537 17.5625 64.1875 C14.96375781 54.41851663 12.2091749 44.70260186 9.375 35 C9.18246643 34.3407251 8.98993286 33.6814502 8.79156494 33.00219727 C8.4103059 31.69684644 8.02903974 30.39149769 7.64776611 29.08615112 C5.71314032 22.46184088 3.79521118 15.8338243 1.9375 9.1875 C1.73366699 8.46498047 1.52983398 7.74246094 1.31982422 6.99804688 C0 2.24145266 0 2.24145266 0 0 Z " fill="#FCFCFC" transform="translate(875,40)"/>
<path d="M0 0 C3.05908301 0.00096608 6.11559748 -0.04063881 9.17431641 -0.08496094 C24.66002503 -0.17985039 40.4568392 1.13766938 54.33447266 8.58728027 C56.34106306 9.66929853 56.34106306 9.66929853 59.59228516 10.87597656 C63.92941132 12.88964228 67.38169743 15.51751411 71.09228516 18.50097656 C71.69943359 18.97277344 72.30658203 19.44457031 72.93212891 19.93066406 C74.3623543 21.0681139 75.7340004 22.27852029 77.09228516 23.50097656 C77.09228516 24.16097656 77.09228516 24.82097656 77.09228516 25.50097656 C77.75228516 25.50097656 78.41228516 25.50097656 79.09228516 25.50097656 C81.03759766 27.76660156 81.03759766 27.76660156 83.21728516 30.75097656 C84.30396484 32.21277344 84.30396484 32.21277344 85.41259766 33.70410156 C87.09228516 36.50097656 87.09228516 36.50097656 87.09228516 40.50097656 C87.75228516 40.50097656 88.41228516 40.50097656 89.09228516 40.50097656 C89.86500565 42.33351529 90.63535477 44.16705399 91.40478516 46.00097656 C91.83404297 47.02191406 92.26330078 48.04285156 92.70556641 49.09472656 C93.16318359 50.21878906 93.62080078 51.34285156 94.09228516 52.50097656 C94.33889893 53.09507324 94.5855127 53.68916992 94.83959961 54.30126953 C97.08667927 59.94674157 98.41464654 65.68739477 99.65478516 71.62597656 C99.96706055 73.01236328 99.96706055 73.01236328 100.28564453 74.42675781 C104.2187512 93.09360262 104.38211523 112.1870019 104.28759766 131.18066406 C104.28464516 133.20353077 104.28261219 135.22639903 104.28149414 137.24926758 C104.27114655 144.62486104 104.24322551 152.00042146 104.21728516 159.37597656 C104.17603516 175.91722656 104.13478516 192.45847656 104.09228516 209.50097656 C61.19228516 209.50097656 18.29228516 209.50097656 -25.90771484 209.50097656 C-27.88239273 255.67751293 -27.88239273 255.67751293 -15.90771484 300.50097656 C-15.24771484 300.83097656 -14.58771484 301.16097656 -13.90771484 301.50097656 C-13.90771484 302.16097656 -13.90771484 302.82097656 -13.90771484 303.50097656 C-3.93783164 307.20659687 5.93418019 307.94747646 16.09228516 304.50097656 C18.39395191 302.98544503 18.39395191 302.98544503 20.09228516 301.50097656 C20.75228516 301.50097656 21.41228516 301.50097656 22.09228516 301.50097656 C22.36041016 300.82035156 22.62853516 300.13972656 22.90478516 299.43847656 C23.7406246 297.37087372 24.62128972 295.32111002 25.53369141 293.28613281 C31.25139234 279.90520935 31.7614147 265.80561698 31.95043945 251.45605469 C32.09228516 249.50097656 32.09228516 249.50097656 33.09228516 248.50097656 C34.56493496 248.47200147 36.03910395 248.51442386 37.51025391 248.58691406 C38.88528076 248.65168945 38.88528076 248.65168945 40.28808594 248.71777344 C41.27534668 248.76998047 42.26260742 248.8221875 43.27978516 248.87597656 C44.79934814 248.95041992 44.79934814 248.95041992 46.34960938 249.02636719 C51.47854176 249.28506513 56.59784545 249.59247558 61.71728516 250.00097656 C70.26623112 250.67066144 78.83923744 250.86319265 87.40917969 251.10839844 C88.58464355 251.14513672 89.76010742 251.181875 90.97119141 251.21972656 C92.02894775 251.25001953 93.0867041 251.2803125 94.17651367 251.31152344 C96.90301307 251.48867855 99.43177159 251.89482243 102.09228516 252.50097656 C103.30074359 299.3966003 103.30074359 299.3966003 93.09228516 316.50097656 C92.63853516 317.63535156 92.18478516 318.76972656 91.71728516 319.93847656 C89.72087561 324.31522057 87.07581376 327.75771653 84.09228516 331.50097656 C83.43228516 332.38785156 82.77228516 333.27472656 82.09228516 334.18847656 C79.63011394 337.03536203 77.09034658 339.21984287 74.09228516 341.50097656 C73.43228516 341.50097656 72.77228516 341.50097656 72.09228516 341.50097656 C72.09228516 342.16097656 72.09228516 342.82097656 72.09228516 343.50097656 C69.71337891 345.34082031 69.71337891 345.34082031 66.52978516 347.43847656 C65.49724609 348.128125 64.46470703 348.81777344 63.40087891 349.52832031 C50.11788199 357.44793477 34.38627364 361.42422037 19.09228516 362.50097656 C18.28871582 362.56655762 17.48514648 362.63213867 16.65722656 362.69970703 C-13.04443081 365.0467965 -42.96689801 362.86940563 -66.90771484 343.50097656 C-67.46716797 343.0871875 -68.02662109 342.67339844 -68.60302734 342.24707031 C-89.6645075 325.83870786 -97.33896469 295.85762224 -101.78271484 270.93847656 C-102.08761841 269.2567334 -102.08761841 269.2567334 -102.39868164 267.54101562 C-103.52341013 260.71957873 -104.13767383 253.97174956 -104.45849609 247.07177734 C-104.50085325 246.16271668 -104.54321041 245.25365602 -104.58685112 244.31704807 C-105.06357992 233.1292823 -105.05224086 221.94297927 -105.04052734 210.74707031 C-105.04120363 208.42603037 -105.04217634 206.10499051 -105.04342651 203.78395081 C-105.04488792 198.95597652 -105.04279946 194.12802092 -105.03808594 189.30004883 C-105.03238641 183.16960126 -105.03567912 177.03919747 -105.0416584 170.90875149 C-105.04530369 166.12726014 -105.04410743 161.34577886 -105.04153061 156.56428719 C-105.04087243 154.30608172 -105.04165003 152.04787528 -105.04401016 149.78967094 C-105.05937654 130.96682483 -104.99349532 112.21999701 -101.78271484 93.62597656 C-101.56462158 92.35149658 -101.34652832 91.0770166 -101.12182617 89.76391602 C-97.25721516 68.35072025 -90.72591174 45.9691654 -75.90771484 29.50097656 C-74.9457773 28.29551052 -73.98689632 27.08759116 -73.03271484 25.87597656 C-71.98083984 24.70035156 -71.98083984 24.70035156 -70.90771484 23.50097656 C-70.24771484 23.50097656 -69.58771484 23.50097656 -68.90771484 23.50097656 C-68.41271484 22.01597656 -68.41271484 22.01597656 -67.90771484 20.50097656 C-65.56378771 18.72403429 -63.24383393 17.09788589 -60.78271484 15.50097656 C-59.80431641 14.84355469 -59.80431641 14.84355469 -58.80615234 14.17285156 C-52.82223792 10.23106666 -46.6342235 7.60374137 -39.78271484 5.50097656 C-38.79013672 5.19160156 -37.79755859 4.88222656 -36.77490234 4.56347656 C-35.48614494 4.20820132 -34.19703644 3.85419884 -32.90771484 3.50097656 C-32.0765918 3.24509766 -31.24546875 2.98921875 -30.38916016 2.72558594 C-20.33658 -0.04093694 -10.36455262 -0.02297763 0 0 Z M-16.65771484 61.06347656 C-22.9150036 69.53293811 -23.9809146 80.3266691 -24.90771484 90.50097656 C-24.99148376 91.41422195 -25.07525269 92.32746735 -25.16156006 93.26838684 C-25.83787558 101.27606712 -26.04051804 109.20576304 -26.00537109 117.23925781 C-26.00395615 118.48603806 -26.0025412 119.7328183 -26.00108337 121.01737976 C-25.99554324 124.94943778 -25.98300236 128.88143613 -25.97021484 132.81347656 C-25.96461927 135.50032405 -25.96051725 138.18717311 -25.95654297 140.87402344 C-25.94644985 147.41638191 -25.92686322 153.95861346 -25.90771484 160.50097656 C-7.75771484 160.50097656 10.39228516 160.50097656 29.09228516 160.50097656 C29.13353516 151.94160156 29.17478516 143.38222656 29.21728516 134.56347656 C29.23549316 131.91968994 29.25370117 129.27590332 29.27246094 126.55200195 C29.31950881 114.92218195 29.12529923 103.36207121 28.23291016 91.76269531 C28.12065598 90.25885033 28.12065598 90.25885033 28.00613403 88.72462463 C27.12004819 78.49192539 25.33845677 67.24364511 18.09228516 59.50097656 C7.37021589 51.3690701 -6.96628803 52.03282885 -16.65771484 61.06347656 Z " fill="#FEFEFE" transform="translate(2395.90771484375,162.4990234375)"/>
<path d="M0 0 C77.55 0 155.1 0 235 0 C235 21.45 235 42.9 235 65 C209.59 65 184.18 65 158 65 C158 201.95 158 338.9 158 480 C131.6 480 105.2 480 78 480 C78 343.05 78 206.1 78 65 C52.26 65 26.52 65 0 65 C0 43.55 0 22.1 0 0 Z " fill="#FCFCFC" transform="translate(1565,40)"/>
</svg>
